<?xml version="1.0" encoding="utf-8"?>
<!-- Generator: Adobe Illustrator 17.0.0, SVG Export Plug-In . SVG Version: 6.00 Build 0)  -->
<!DOCTYPE svg PUBLIC "-//W3C//DTD SVG 1.1//EN" "http://www.w3.org/Graphics/SVG/1.1/DTD/svg11.dtd">
<svg version="1.1" id="Warstwa_1" xmlns="http://www.w3.org/2000/svg" xmlns:xlink="http://www.w3.org/1999/xlink" x="0px" y="0px"
	 width="764.622px" height="536.719px" viewBox="0 0 764.622 536.719" enable-background="new 0 0 764.622 536.719"
	 xml:space="preserve">
<g>
	<g>
		<path fill="#128ECE" d="M382.52,536.676c-126.664,0-253.328-0.004-379.992,0.043c-1.722,0.001-2.111-0.387-2.111-2.11
			c0.046-177.36,0.046-354.721,0-532.081c0-1.722,0.387-2.111,2.11-2.111c253.328,0.045,506.656,0.045,759.984,0
			c1.722,0,2.111,0.386,2.111,2.11c-0.046,177.36-0.046,354.721,0,532.081c0,1.721-0.386,2.112-2.11,2.111
			C635.848,536.672,509.184,536.676,382.52,536.676z M608.766,210.137c0.333-0.165,0.708-0.278,0.993-0.504
			c5.853-4.647,11.897-9.032,18.041-13.285c16.414-11.363,33.848-20.789,52.594-27.717c1.505-0.556,1.695-1.062,0.415-2.064
			c-0.477-0.373-0.842-0.887-1.296-1.296c-11.257-10.14-23.36-19.174-36.22-27.154c-20.071-12.454-41.383-22.33-63.669-30.137
			c-23.561-8.253-47.718-14.037-72.386-17.8c-14.003-2.136-28.083-3.556-42.216-4.167c-20.431-0.885-40.855-0.445-61.259,1.188
			c-14.956,1.197-29.837,2.971-44.641,5.337c-21.581,3.449-42.897,8.157-63.922,14.141c-23.616,6.72-46.621,15.108-68.848,25.559
			c-19.291,9.07-37.73,19.628-55.211,31.858c-12.789,8.947-24.862,18.772-36.218,29.453c-14.508,13.646-27.571,28.587-39.041,44.884
			c-3.031,4.306-6.136,8.579-8.719,13.184c-0.677,1.208-1.392,2.649-0.085,3.769c1.055,0.904,2.401,0.789,3.506-0.244
			c0.77-0.011,1.533-0.063,2.228-0.442c5.155-2.81,10.468-5.296,15.825-7.689c5.361-2.394,10.701-4.839,16.224-6.85
			c6.292-2.291,12.553-4.673,18.883-6.852c5.2-1.79,10.462-3.408,15.733-4.978c3.836-1.142,7.728-2.098,11.602-3.107
			c4.303-1.121,8.6-2.267,12.926-3.291c3.461-0.819,7.001-1.322,10.435-2.233c5.29-1.403,10.689-2.24,16.057-3.178
			c4.636-0.81,9.319-1.476,13.955-2.263c7.932-1.346,15.923-2.175,23.888-3.168c6.927-0.863,13.925-1.241,20.89-1.868
			c5.605-0.504,11.261-0.738,16.876-0.875c22.322-0.545,44.648-0.811,66.934,1.325c6.74,0.646,13.496,1.078,20.23,1.883
			c7.067,0.845,14.113,1.779,21.153,2.825c6.989,1.039,13.927,2.281,20.839,3.723c6.738,1.406,13.445,2.929,20.14,4.528
			c8.094,1.934,16.059,4.325,23.953,6.875c8.052,2.601,15.981,5.617,23.82,8.869c9.924,4.118,19.536,8.849,28.821,14.192
			c8.819,5.074,17.169,10.926,24.905,17.56c4.169,3.575,7.335,3.201,11.044-0.942c4.599-5.138,9.223-10.258,13.959-15.269
			c11.517-12.188,23.679-23.705,36.324-34.718C601.724,216.157,605.521,213.467,608.766,210.137z M460.212,374.921
			c0.458-0.354,0.621-0.521,0.818-0.624c0.336-0.175,0.694-0.309,1.042-0.462c18.662-8.189,30.792-21.497,33.545-42.346
			c2.176-16.483-5.684-30.488-21.027-37.128c-9.062-3.921-18.655-5.186-28.377-5.758c-11.25-0.662-22.497-0.279-33.734,0.398
			c-8.397,0.506-16.771,1.231-25.074,2.662c-1.204,0.207-1.683,0.725-1.866,1.876c-2.121,13.368-4.278,26.731-6.419,40.096
			c-3.798,23.711-7.59,47.422-11.387,71.133c-2.37,14.799-4.719,29.601-7.147,44.391c-0.268,1.632,0.052,2.076,1.744,2.064
			c10.794-0.074,21.589-0.064,32.383-0.014c1.486,0.007,2.082-0.352,2.335-1.956c3.148-19.94,6.409-39.862,9.569-59.801
			c0.245-1.543,0.789-2.072,2.324-2.03c4.283,0.117,8.569-0.054,12.852,0.271c8.852,0.671,13.676,4.583,16.16,13.058
			c1.633,5.57,1.757,11.32,2.243,17.027c0.89,10.441,1.641,20.894,3.97,31.156c0.392,1.726,1.108,2.315,2.916,2.298
			c9.952-0.093,19.904-0.04,29.857-0.059c1.747-0.003,3.508,0.222,5.321-0.171c-0.402-2.304-0.853-4.548-1.178-6.811
			c-1.995-13.865-2.631-27.881-4.563-41.75C474.943,391.147,471.755,380.695,460.212,374.921z M294.178,288.267
			c-16.083,0.263-30.597,0.853-45.013,2.995c-1.719,0.255-2.468,0.815-2.744,2.56c-2.276,14.428-4.651,28.84-6.968,43.261
			c-3.809,23.709-7.593,47.423-11.393,71.134c-2.191,13.668-4.385,27.335-6.603,40.999c-0.195,1.202-0.326,2.015,1.395,2.005
			c11.1-0.062,22.2-0.049,33.3-0.023c1.136,0.003,1.535-0.354,1.718-1.524c1.748-11.181,3.583-22.349,5.382-33.522
			c1.118-6.946,2.197-13.899,3.356-20.839c0.137-0.821-0.081-2.022,1.631-1.838c17.487,1.879,34.474,0.004,50.751-6.982
			c9.561-4.104,17.859-9.944,24.222-18.231c7.153-9.315,10.972-20.013,12.476-31.603c1.281-9.869-0.003-19.304-5.285-27.842
			c-6.398-10.343-16.435-15.344-27.876-17.976C312.692,288.577,302.681,288.19,294.178,288.267z M147.846,451.186
			c16.002,0,32.003-0.005,48.005,0.009c1.263,0.001,2.319,0.119,2.589-1.679c1.333-8.848,2.82-17.672,4.192-26.514
			c0.424-2.73,0.336-2.758-2.517-2.759c-19.447-0.004-38.894,0.001-58.341-0.003c-2.843-0.001-2.871-0.021-2.42-2.83
			c3.388-21.144,6.788-42.287,10.183-63.43c3.335-20.766,6.627-41.538,10.063-62.288c0.353-2.132-0.375-2.23-2.039-2.223
			c-10.565,0.045-21.132,0.089-31.696-0.037c-2.161-0.026-2.828,0.667-3.139,2.722c-1.852,12.249-3.826,24.479-5.796,36.71
			c-2.639,16.384-5.333,32.76-7.963,49.145c-3.78,23.559-7.49,47.129-11.335,70.677c-0.355,2.177,0.175,2.553,2.209,2.543
			C115.842,451.157,131.844,451.189,147.846,451.186z"/>
		<path fill="#FDFDFD" d="M90.584,255.141c-1.105,1.034-2.451,1.148-3.506,0.244c-1.307-1.12-0.593-2.561,0.085-3.769
			c2.584-4.605,5.688-8.878,8.719-13.184c11.47-16.297,24.533-31.238,39.041-44.884c11.356-10.681,23.429-20.506,36.218-29.453
			c17.481-12.23,35.92-22.788,55.211-31.858c22.227-10.451,45.232-18.839,68.848-25.559c21.026-5.983,42.341-10.692,63.922-14.141
			c14.804-2.366,29.684-4.14,44.641-5.337c20.403-1.633,40.827-2.073,61.259-1.188c14.132,0.612,28.213,2.031,42.216,4.167
			c24.667,3.763,48.825,9.547,72.386,17.8c22.287,7.807,43.599,17.684,63.669,30.137c12.86,7.979,24.963,17.014,36.22,27.154
			c0.453,0.408,0.818,0.922,1.296,1.296c1.281,1.002,1.091,1.508-0.415,2.064c-18.746,6.928-36.18,16.354-52.594,27.717
			c-6.144,4.253-12.188,8.638-18.041,13.285c-0.285,0.226-0.66,0.339-0.993,0.505c0.814-1.98,0.095-3.318-1.652-4.405
			c-5.254-3.269-10.37-6.771-15.71-9.891c-18.84-11.005-38.613-20.022-59.177-27.3c-22.632-8.01-45.821-13.846-69.488-17.857
			c-15.618-2.646-31.329-4.495-47.127-5.468c-17.039-1.05-34.096-1.329-51.172-0.61c-22.113,0.93-44.078,3.222-65.852,7.085
			c-21.73,3.856-43.111,9.212-64.085,16.138c-26.88,8.877-52.695,20.155-77.224,34.304c-14.344,8.274-28.06,17.49-41.128,27.684
			c-8.616,6.72-16.888,13.816-24.791,21.353C90.147,252.33,89.355,253.526,90.584,255.141z"/>
		<path fill="#CF271F" d="M90.584,255.141c-1.229-1.615-0.437-2.812,0.777-3.97c7.903-7.537,16.175-14.633,24.791-21.353
			c13.068-10.194,26.784-19.41,41.128-27.684c24.529-14.149,50.344-25.427,77.224-34.304c20.974-6.926,42.355-12.282,64.085-16.138
			c21.775-3.863,43.739-6.155,65.852-7.085c17.077-0.718,34.133-0.439,51.172,0.61c15.798,0.973,31.509,2.822,47.127,5.468
			c23.667,4.01,46.856,9.846,69.488,17.857c20.564,7.278,40.337,16.295,59.177,27.3c5.34,3.119,10.455,6.621,15.71,9.891
			c1.746,1.087,2.465,2.425,1.652,4.405c-3.245,3.33-7.042,6.019-10.536,9.062c-12.645,11.013-24.807,22.53-36.324,34.718
			c-4.736,5.012-9.359,10.131-13.959,15.269c-3.709,4.144-6.875,4.518-11.044,0.942c-7.736-6.634-16.086-12.486-24.905-17.56
			c-9.285-5.343-18.897-10.074-28.821-14.192c-7.839-3.253-15.768-6.269-23.82-8.869c-7.894-2.55-15.859-4.942-23.953-6.875
			c-6.696-1.6-13.403-3.122-20.14-4.528c-6.912-1.443-13.85-2.685-20.839-3.723c-7.041-1.046-14.086-1.98-21.153-2.825
			c-6.734-0.805-13.49-1.237-20.23-1.883c-22.286-2.136-44.612-1.87-66.934-1.325c-5.616,0.137-11.271,0.37-16.876,0.875
			c-6.965,0.627-13.963,1.005-20.89,1.868c-7.965,0.992-15.956,1.821-23.888,3.168c-4.636,0.787-9.319,1.452-13.955,2.263
			c-5.368,0.938-10.767,1.775-16.057,3.178c-3.434,0.911-6.974,1.414-10.435,2.233c-4.326,1.024-8.624,2.17-12.926,3.291
			c-3.875,1.009-7.766,1.965-11.602,3.107c-5.271,1.57-10.533,3.188-15.733,4.978c-6.33,2.18-12.591,4.561-18.883,6.852
			c-5.523,2.011-10.863,4.456-16.224,6.85c-5.357,2.393-10.67,4.879-15.825,7.689C92.117,255.078,91.353,255.13,90.584,255.141z"/>
		<path fill="#FDFDFD" d="M460.212,374.921c11.543,5.774,14.731,16.226,16.305,27.52c1.933,13.869,2.569,27.885,4.563,41.75
			c0.326,2.263,0.777,4.507,1.178,6.811c-1.813,0.393-3.574,0.168-5.321,0.171c-9.952,0.019-19.905-0.035-29.857,0.059
			c-1.808,0.017-2.524-0.572-2.916-2.298c-2.329-10.262-3.08-20.714-3.97-31.156c-0.486-5.707-0.611-11.457-2.243-17.027
			c-2.484-8.475-7.307-12.387-16.16-13.058c-4.284-0.325-8.569-0.154-12.852-0.271c-1.535-0.042-2.08,0.487-2.324,2.03
			c-3.16,19.938-6.421,39.861-9.569,59.801c-0.253,1.604-0.848,1.962-2.335,1.956c-10.794-0.05-21.589-0.059-32.383,0.014
			c-1.692,0.012-2.012-0.432-1.744-2.064c2.428-14.789,4.778-29.592,7.147-44.391c3.796-23.711,7.589-47.423,11.387-71.133
			c2.141-13.365,4.298-26.727,6.419-40.096c0.183-1.151,0.662-1.669,1.866-1.876c8.303-1.43,16.677-2.156,25.074-2.662
			c11.237-0.677,22.484-1.06,33.734-0.398c9.723,0.572,19.315,1.837,28.377,5.758c15.343,6.639,23.203,20.645,21.027,37.128
			c-2.753,20.849-14.883,34.157-33.545,42.346c-0.348,0.153-0.706,0.286-1.042,0.462C460.833,374.4,460.67,374.567,460.212,374.921z
			 M431.768,315.977c-3.483-0.042-7.293,0.196-11.103,0.595c-1.728,0.181-2.54,0.822-2.784,2.605
			c-0.675,4.92-1.512,9.818-2.299,14.722c-1.343,8.375-2.7,16.748-4.042,25.124c-0.123,0.766-0.632,1.791,0.853,1.765
			c9.066-0.162,18.214,0.851,27.086-2.025c12.183-3.949,19.444-14.24,18.748-26.732c-0.355-6.375-3.402-10.948-9.276-13.567
			C443.572,316.064,437.876,315.776,431.768,315.977z"/>
		<path fill="#FDFDFD" d="M294.178,288.267c8.503-0.077,18.514,0.311,28.349,2.574c11.442,2.632,21.478,7.633,27.876,17.976
			c5.282,8.538,6.567,17.973,5.285,27.842c-1.505,11.59-5.323,22.288-12.476,31.603c-6.364,8.288-14.661,14.128-24.222,18.231
			c-16.276,6.986-33.263,8.861-50.751,6.982c-1.712-0.184-1.494,1.016-1.631,1.838c-1.159,6.939-2.238,13.892-3.356,20.839
			c-1.799,11.173-3.633,22.341-5.382,33.522c-0.183,1.17-0.582,1.526-1.718,1.524c-11.1-0.026-22.2-0.039-33.3,0.023
			c-1.721,0.01-1.59-0.804-1.395-2.005c2.218-13.664,4.412-27.331,6.603-40.999c3.8-23.711,7.585-47.424,11.393-71.134
			c2.317-14.421,4.692-28.833,6.968-43.261c0.275-1.744,1.024-2.304,2.744-2.56C263.581,289.12,278.095,288.53,294.178,288.267z
			 M282.056,365.765c3.923,0.282,7.784-0.192,11.626-0.928c14.746-2.825,24.161-13.115,25.44-27.818
			c0.787-9.043-3.719-16.04-12.364-18.783c-8.596-2.727-17.375-2.031-26.146-0.991c-1.214,0.144-1.625,0.772-1.768,1.946
			c-0.286,2.351-0.756,4.68-1.135,7.02c-2.006,12.379-3.991,24.761-6.03,37.134c-0.246,1.495,0.393,1.803,1.686,1.974
			C276.256,365.701,279.148,365.848,282.056,365.765z"/>
		<path fill="#FDFDFD" d="M147.846,451.188c-16.002,0.002-32.004-0.031-48.005,0.042c-2.034,0.009-2.565-0.366-2.209-2.543
			c3.845-23.548,7.555-47.118,11.335-70.677c2.629-16.386,5.324-32.761,7.963-49.145c1.97-12.231,3.944-24.461,5.796-36.71
			c0.311-2.055,0.977-2.747,3.139-2.722c10.564,0.125,21.131,0.082,31.696,0.037c1.664-0.007,2.392,0.092,2.039,2.223
			c-3.436,20.749-6.728,41.522-10.063,62.288c-3.395,21.143-6.795,42.286-10.183,63.43c-0.45,2.809-0.422,2.83,2.42,2.83
			c19.447,0.004,38.894-0.001,58.341,0.003c2.853,0.001,2.941,0.029,2.517,2.759c-1.372,8.842-2.859,17.667-4.192,26.514
			c-0.271,1.797-1.326,1.68-2.589,1.679C179.849,451.181,163.848,451.186,147.846,451.188z"/>
		<path fill="#128ECE" d="M431.768,315.977c6.109-0.201,11.804,0.087,17.184,2.485c5.874,2.619,8.921,7.192,9.276,13.567
			c0.696,12.492-6.565,22.783-18.748,26.732c-8.873,2.876-18.02,1.863-27.086,2.025c-1.485,0.027-0.976-0.998-0.853-1.765
			c1.342-8.375,2.699-16.748,4.042-25.124c0.787-4.904,1.624-9.802,2.299-14.722c0.245-1.783,1.056-2.424,2.784-2.605
			C424.475,316.174,428.285,315.935,431.768,315.977z"/>
		<path fill="#128ECE" d="M282.057,365.764c-2.909,0.084-5.801-0.063-8.692-0.446c-1.293-0.171-1.933-0.479-1.686-1.974
			c2.04-12.373,4.025-24.755,6.03-37.134c0.379-2.34,0.849-4.669,1.135-7.02c0.143-1.174,0.554-1.802,1.768-1.946
			c8.77-1.04,17.549-1.736,26.146,0.991c8.646,2.743,13.151,9.74,12.364,18.783c-1.28,14.704-10.694,24.994-25.44,27.818
			C289.84,365.572,285.98,366.046,282.057,365.764z"/>
	</g>
</g>
</svg>
