<?xml version="1.0" encoding="utf-8"?>
<!-- Generator: Adobe Illustrator 17.0.0, SVG Export Plug-In . SVG Version: 6.00 Build 0)  -->
<!DOCTYPE svg PUBLIC "-//W3C//DTD SVG 1.1//EN" "http://www.w3.org/Graphics/SVG/1.1/DTD/svg11.dtd">
<svg version="1.1" id="Warstwa_1" xmlns="http://www.w3.org/2000/svg" xmlns:xlink="http://www.w3.org/1999/xlink" x="0px" y="0px"
	 width="296.908px" height="296.664px" viewBox="0 0 296.908 296.664" enable-background="new 0 0 296.908 296.664"
	 xml:space="preserve">
<g>
	<g>
		<path fill="#FEFEFE" d="M150.48,0.24c48.435,0,96.87,0.003,145.305-0.021c0.873,0,1.12,0.152,1.119,1.086
			c-0.026,98.07-0.027,196.14,0.004,294.21c0,1.006-0.243,1.149-1.184,1.149c-98.11-0.026-196.22-0.026-294.33,0
			c-0.943,0-1.183-0.146-1.183-1.15c0.03-98.03,0.031-196.06-0.002-294.09c0-1.057,0.271-1.208,1.245-1.208
			C51.05,0.243,100.645,0.24,150.24,0.24c0.018,0.519,0.012,1.04,0.059,1.556c0.549,6.01,1.033,12.025,1.462,18.046
			c1.14,16.028-0.256,31.857-3.586,47.543c-0.899,4.238-1.978,8.432-3.201,12.668c0.212-0.023,0.323-0.02,0.426-0.047
			c7.179-1.907,14.314-1.376,21.418,0.417c7.011,1.769,13.537,4.72,19.748,8.358c9.54,5.587,18.198,12.315,25.78,20.39
			c0.504,0.536,0.78,0.789,1.365-0.088c5.876-8.814,12.347-17.163,19.718-24.791c4.24-4.388,8.695-8.547,13.425-12.404
			c6.831-5.571,14.059-10.606,21.229-15.721c0.371-0.264,0.901-0.419,1.149-0.994c-3.859,0.167-7.612,0.364-11.368,0.486
			c-7.403,0.24-14.753,0.916-21.951,2.736c-1.344,0.34-2.071,0.211-3.017-0.974c-3.062-3.832-7.223-5.632-12.113-5.695
			c-0.722-0.009-1.007-0.115-0.911-0.903c0.543-4.496-0.023-8.942-0.772-13.359c-0.943-5.563-2.244-11.033-4.93-16.067
			c-1.053-1.973-1.091-1.974-3.246-1.336c-8.335,2.469-15.396,7.16-22.025,12.611c-1.269,1.043-2.335,2.293-3.532,3.515
			c-0.688-1.558-1.757-2.629-3.01-3.512c-2.909-2.05-6.183-3.331-9.706-3.232c-1.938,0.055-2.584-0.659-3.34-2.171
			c-3.713-7.427-8.728-13.988-13.87-20.46C153.732,4.663,151.916,2.593,150.48,0.24z M50.965,231.241c-0.025,0-0.051,0-0.076,0
			c0-13.598,0.014-27.197-0.027-40.795c-0.003-1.077,0.275-1.316,1.32-1.305c5.119,0.051,10.239,0.02,15.358,0.001
			c1.684-0.006,3.343,0.142,5.005,0.437c8.52,1.516,16.25,8.806,18.073,17.189c1.069,4.916,0.08,9.357-3.424,13.093
			c-3.374,3.598-7.749,5.375-12.367,6.672c-4.294,1.206-8.716,1.601-13.136,1.96c-0.949,0.077-1.279,0.358-1.249,1.348
			c0.075,2.437,0.071,4.88,0.001,7.318c-0.027,0.952,0.167,1.267,1.206,1.288c7.684,0.159,15.357,0.115,22.97-1.097
			c6.59-1.049,12.943-2.823,18.654-6.436c4.235-2.679,7.629-6.138,9.936-10.627c1.796-3.496,2.772-7.204,3.049-11.114
			c0.714-10.105-2.983-18.155-11.209-24.099c-5.297-3.828-11.415-5.7-17.666-7.051c-5.621-1.216-11.346-1.975-17.118-2.044
			c-7.198-0.086-14.397-0.075-21.595-0.083c-10.879-0.012-21.758,0.012-32.636-0.028c-1.005-0.004-1.276,0.25-1.24,1.248
			c0.08,2.237,0.025,4.479,0.025,6.718c0,2.566,0,2.566,2.542,2.68c5.09,0.228,6.909,1.835,7.533,6.659
			c0.036,0.277,0.055,0.558,0.057,0.837c0.055,7.595,0.102,15.19,0.078,22.785c-0.055,17.918-0.019,35.836-0.016,53.754
			c0,1.887-0.135,3.749-0.734,5.558c-0.689,2.077-2.078,3.306-4.236,3.73c-1.699,0.334-3.412,0.389-5.127,0.386
			c-0.753-0.001-0.946,0.244-0.936,0.967c0.038,2.719,0.068,5.441-0.011,8.158c-0.031,1.049,0.231,1.321,1.304,1.317
			c12.519-0.043,25.037-0.028,37.556-0.028c2.92,0,5.84-0.015,8.759,0.012c0.637,0.006,0.912-0.121,0.902-0.839
			c-0.039-2.919-0.032-5.839-0.004-8.759c0.006-0.627-0.185-0.818-0.815-0.823c-1.558-0.01-3.12-0.047-4.672-0.174
			c-3.125-0.256-4.878-1.779-5.586-4.819c-0.309-1.325-0.45-2.677-0.449-4.043C50.966,257.878,50.965,244.56,50.965,231.241z
			 M214.441,290.913c2.64,0,5.28,0.015,7.92-0.003c8.631-0.058,17.274,0.306,25.864-0.968c8.064-1.195,15.779-3.344,22.567-8.062
			c4.93-3.426,8.653-7.869,10.984-13.438c1.91-4.564,2.572-9.336,2.729-14.26c0.232-7.255-2.683-13.095-7.697-18.016
			c-3.639-3.572-7.967-6.2-12.56-8.375c-8.284-3.923-17.029-6.436-25.939-8.45c-5.312-1.201-10.756-1.86-15.886-3.822
			c-3.256-1.246-6.439-2.646-8.975-5.123c-2.309-2.255-3.714-4.933-2.998-8.274c1.354-6.323,5.484-10.189,11.336-12.392
			c5.845-2.2,11.924-2.875,18.134-2.522c6.829,0.388,13.276,2.145,19.346,5.318c3.706,1.937,6.947,4.509,10.084,7.226
			c0.518,0.449,0.981,0.56,1.61,0.387c2.54-0.698,5.078-1.408,7.637-2.034c0.836-0.205,1.012-0.38,0.542-1.194
			c-3.312-5.738-6.637-11.469-9.814-17.282c-0.889-1.626-1.958-2.375-3.787-2.693c-10.062-1.749-20.142-3.091-30.394-2.475
			c-8.041,0.483-15.809,1.852-22.955,5.928c-6.452,3.68-12.216,8.03-15.962,14.603c-3.362,5.9-4.13,12.146-2.403,18.735
			c1.438,5.484,4.766,9.885,8.121,14.232c2.728,3.535,6.662,5.526,10.691,7.23c9.533,4.033,19.588,6.409,29.517,9.18
			c5.144,1.435,10.321,2.788,15.31,4.705c3.545,1.362,6.824,3.273,8.642,6.802c1.664,3.229,2.002,6.651,0.278,9.998
			c-0.96,1.864-2.441,3.346-4.11,4.626c-4.06,3.114-8.777,4.681-13.689,5.722c-7.721,1.637-15.554,1.943-23.393,1.406
			c-5.187-0.356-10.295-1.343-15.049-3.648c-6.796-3.296-10.357-8.63-10.305-16.263c0.014-2.04-0.036-4.081,0.021-6.119
			c0.024-0.831-0.205-1.088-1.057-1.073c-3.039,0.051-6.081,0.065-9.119-0.007c-0.96-0.023-1.082,0.312-1.08,1.152
			c0.026,12.719,0.028,25.439-0.005,38.159c-0.002,0.91,0.239,1.113,1.124,1.109C197.961,290.898,206.201,290.913,214.441,290.913z
			 M160.811,244.631c-0.033,0-0.065,0-0.098,0c0-9.238-0.021-18.476,0.028-27.714c0.006-1.138-0.343-1.375-1.411-1.369
			c-7.718,0.044-15.437,0.047-23.155-0.003c-1.106-0.007-1.385,0.29-1.383,1.387c0.035,17.836,0.028,35.673,0.016,53.509
			c-0.001,1.117-0.07,2.24-0.204,3.349c-0.465,3.861-1.89,5.501-5.486,6.186c-1.128,0.215-2.309,0.166-3.467,0.2
			c-1.871,0.056-1.871,0.043-1.871,1.967c0,2.4,0.053,4.801-0.024,7.198c-0.033,1.025,0.199,1.332,1.29,1.329
			c13.157-0.044,26.315-0.028,39.472-0.028c2.28,0,4.559-0.016,6.839,0.01c0.621,0.007,0.939-0.086,0.928-0.833
			c-0.041-2.919-0.037-5.839-0.002-8.758c0.009-0.72-0.284-0.871-0.921-0.868c-1.319,0.007-2.639-0.035-3.957-0.085
			c-3.471-0.131-5.384-1.674-6.183-5.046c-0.22-0.927-0.39-1.892-0.392-2.841C160.8,263.025,160.811,253.828,160.811,244.631z
			 M232.663,138.068c0.05-0.068,0.1-0.135,0.151-0.203c-0.283-0.215-0.564-0.434-0.849-0.645
			c-10.59-7.847-21.213-15.649-31.758-23.557c-6.494-4.869-12.772-10.019-19.821-14.121c-9.393-5.467-19.213-9.563-30.215-10.286
			c-8.496-0.559-16.472,1.217-24.008,5.115c-5.5,2.845-10.339,6.587-14.75,10.902c-0.456,0.446-0.838,0.516-1.466,0.397
			c-2.349-0.445-4.713-0.816-7.081-1.154c-8.213-1.172-16.448-1.722-24.713-0.592c-4.525,0.618-8.909,1.764-12.939,3.99
			c-7.865,4.345-11.702,11.316-12.899,19.973c-0.803,5.803-0.333,11.57,0.591,17.312c0.367,2.282,0.767,4.567,1.499,7.094
			c0.131-1.442,0.22-2.557,0.335-3.669c0.638-6.176,1.685-12.261,4.048-18.05c2.188-5.361,5.385-9.858,10.785-12.419
			c3.556-1.686,7.362-1.939,11.221-1.852c4.083,0.093,8.111,0.67,12.137,1.299c4.416,0.69,8.852,1.221,13.297,1.709
			c3.792,0.416,7.548,0.664,11.346,0.237c0.68-0.076,1.09-0.33,1.426-0.871c1.928-3.101,4.249-5.88,6.889-8.398
			c6.055-5.773,13.31-8.603,21.628-8.703c6.64-0.08,12.954,1.546,19.103,3.921c5.141,1.985,9.89,4.755,14.789,7.236
			c13.598,6.884,27.316,13.533,40.987,20.274C225.819,134.694,229.241,136.381,232.663,138.068z M65.11,155.51
			c5.003-0.413,9.924-0.879,14.89-0.983c6.779-0.142,13.475,0.295,20.074,1.906c14.283,3.487,24.104,12.097,29.587,25.721
			c3.074,7.639,4.508,15.629,5.18,23.782c0.077,0.941,0.274,1.284,1.296,1.278c7.919-0.045,15.838-0.034,23.757-0.012
			c0.805,0.002,1.037-0.129,0.775-0.996c-3.222-10.701-7.924-20.649-14.786-29.532c-6.299-8.155-13.867-14.825-22.944-19.727
			c-8.383-4.527-17.325-7.142-26.856-7.762c-9.324-0.607-18.274,0.94-26.904,4.445C67.796,154.193,66.465,154.881,65.11,155.51z
			 M169.077,124.601c-0.233-0.311-0.328-0.49-0.469-0.619c-3.036-2.773-6.291-5.245-9.892-7.252
			c-5.597-3.119-11.528-5.009-17.997-4.855c-3.742,0.089-3.919,0.208-4.816,3.809c-0.837,3.363-0.471,6.478,2.204,9.052
			c4.295,4.133,12.08,3.325,15.827-0.127c1.099-1.012,2.387-1.558,3.851-1.768c1.645-0.237,3.268-0.075,4.896,0.157
			C164.808,123.3,166.839,123.995,169.077,124.601z"/>
		<path fill="#28357E" d="M150.48,0.24c1.436,2.353,3.252,4.423,4.958,6.57c5.142,6.472,10.157,13.033,13.87,20.46
			c0.756,1.512,1.402,2.226,3.34,2.171c3.523-0.099,6.798,1.182,9.706,3.232c1.253,0.883,2.321,1.954,3.01,3.512
			c1.198-1.222,2.263-2.472,3.532-3.515c6.63-5.45,13.69-10.142,22.025-12.611c2.154-0.638,2.193-0.637,3.246,1.336
			c2.686,5.034,3.987,10.504,4.93,16.067c0.749,4.418,1.316,8.863,0.772,13.359c-0.095,0.788,0.19,0.894,0.911,0.903
			c4.89,0.064,9.051,1.863,12.113,5.695c0.947,1.185,1.673,1.314,3.017,0.974c7.198-1.82,14.548-2.495,21.951-2.736
			c3.756-0.122,7.509-0.319,11.368-0.486c-0.247,0.574-0.778,0.729-1.149,0.994c-7.17,5.115-14.398,10.15-21.229,15.721
			c-4.729,3.857-9.185,8.016-13.425,12.404c-7.371,7.628-13.842,15.977-19.718,24.791c-0.585,0.878-0.862,0.625-1.365,0.088
			c-7.581-8.075-16.24-14.803-25.78-20.39c-6.211-3.637-12.737-6.588-19.748-8.358c-7.105-1.793-14.239-2.324-21.418-0.417
			c-0.103,0.027-0.214,0.025-0.426,0.047c1.223-4.236,2.302-8.43,3.201-12.668c3.329-15.686,4.726-31.515,3.586-47.543
			c-0.428-6.021-0.912-12.036-1.462-18.046c-0.047-0.516-0.04-1.037-0.059-1.556C150.32,0.24,150.4,0.24,150.48,0.24z
			 M213.644,62.176c0.038-0.656,0.066-1.084,0.086-1.512c0.328-6.908,0.751-13.816,0.093-20.728
			c-0.43-4.515-1.448-8.891-3.114-13.115c-0.225-0.57-0.406-0.953-1.191-0.63c-2.654,1.093-5.238,2.311-7.701,3.791
			c-6.327,3.803-11.73,8.757-17.121,13.727c-1.206,1.112-2.398,2.239-3.783,3.535c0.331-2.495,0.285-4.679-0.31-6.83
			c-0.998-3.614-3.6-5.297-7.29-4.742c-1.85,0.279-3.525,1.02-5.068,2.017c-0.828,0.535-1.126,0.409-1.492-0.472
			c-1.914-4.609-4.132-9.067-6.817-13.282c-0.455-0.715-0.908-1.431-1.362-2.146c0.769,17.645-0.278,35.018-5.195,52.118
			c1.558-0.229,2.931-0.477,4.331-0.474c5.696,0.01,11.123,1.373,16.439,3.276c7.982,2.859,15.39,6.836,22.402,11.573
			c5.091,3.439,9.904,7.217,14.066,11.765c0.566,0.618,0.809,0.402,1.191-0.173c2.627-3.955,5.498-7.724,8.57-11.348
			c6.997-8.255,14.828-15.636,23.276-22.378c1.321-1.054,2.654-2.092,4.206-3.314c-0.509,0.051-0.704,0.064-0.897,0.09
			c-5.624,0.742-11.13,2.013-16.524,3.755c-0.823,0.266-1.163,0.223-1.263-0.748c-0.164-1.594-0.653-3.122-1.357-4.568
			c-1.032-2.118-2.521-3.693-5.017-3.891c-2.542-0.201-4.634,0.927-6.55,2.439C215.4,60.585,214.607,61.336,213.644,62.176z"/>
		<path fill="#28357E" d="M50.965,231.241c0,13.318,0.002,26.637-0.002,39.955c0,1.366,0.141,2.719,0.449,4.043
			c0.708,3.04,2.462,4.563,5.586,4.819c1.552,0.127,3.114,0.163,4.672,0.174c0.63,0.004,0.821,0.196,0.815,0.823
			c-0.028,2.919-0.035,5.84,0.004,8.759c0.01,0.719-0.265,0.846-0.902,0.839c-2.919-0.028-5.839-0.012-8.759-0.012
			c-12.519,0-25.037-0.016-37.556,0.028c-1.073,0.004-1.335-0.269-1.304-1.317c0.079-2.717,0.049-5.439,0.011-8.158
			c-0.01-0.723,0.183-0.968,0.936-0.967c1.715,0.003,3.429-0.052,5.127-0.386c2.158-0.424,3.547-1.653,4.236-3.73
			c0.6-1.809,0.735-3.671,0.734-5.558c-0.003-17.918-0.039-35.836,0.016-53.754c0.023-7.596-0.023-15.19-0.078-22.785
			c-0.002-0.279-0.021-0.56-0.057-0.837c-0.624-4.824-2.442-6.431-7.533-6.659c-2.542-0.114-2.542-0.114-2.542-2.68
			c0-2.24,0.055-4.481-0.025-6.718c-0.036-0.998,0.235-1.252,1.24-1.248c10.879,0.039,21.758,0.016,32.636,0.028
			c7.199,0.008,14.398-0.004,21.595,0.083c5.772,0.069,11.497,0.828,17.118,2.044c6.251,1.352,12.369,3.224,17.666,7.051
			c8.225,5.944,11.922,13.994,11.209,24.099c-0.276,3.91-1.253,7.618-3.049,11.114c-2.306,4.489-5.701,7.948-9.936,10.627
			c-5.711,3.613-12.065,5.387-18.654,6.436c-7.613,1.212-15.286,1.257-22.97,1.097c-1.039-0.022-1.233-0.336-1.206-1.288
			c0.069-2.438,0.073-4.88-0.001-7.318c-0.03-0.99,0.3-1.271,1.249-1.348c4.42-0.359,8.842-0.755,13.136-1.96
			c4.619-1.297,8.993-3.075,12.367-6.672c3.505-3.737,4.494-8.177,3.424-13.093c-1.823-8.383-9.554-15.673-18.073-17.189
			c-1.662-0.296-3.321-0.443-5.005-0.437c-5.119,0.019-10.239,0.05-15.358-0.001c-1.045-0.01-1.324,0.229-1.32,1.305
			c0.042,13.598,0.027,27.197,0.027,40.795C50.914,231.241,50.94,231.241,50.965,231.241z"/>
		<path fill="#28357E" d="M214.441,290.913c-8.24,0-16.479-0.015-24.719,0.021c-0.885,0.004-1.126-0.199-1.124-1.109
			c0.033-12.719,0.03-25.439,0.005-38.159c-0.002-0.839,0.12-1.174,1.08-1.152c3.038,0.072,6.08,0.058,9.119,0.007
			c0.852-0.014,1.08,0.243,1.057,1.073c-0.058,2.038-0.008,4.079-0.021,6.119c-0.052,7.633,3.509,12.967,10.305,16.263
			c4.754,2.306,9.862,3.293,15.049,3.648c7.839,0.538,15.672,0.231,23.393-1.406c4.913-1.042,9.629-2.608,13.689-5.722
			c1.669-1.28,3.15-2.762,4.11-4.626c1.724-3.347,1.385-6.769-0.278-9.998c-1.818-3.529-5.097-5.44-8.642-6.802
			c-4.989-1.917-10.166-3.269-15.31-4.705c-9.93-2.77-19.984-5.147-29.517-9.18c-4.028-1.704-7.963-3.695-10.691-7.23
			c-3.355-4.347-6.683-8.748-8.121-14.232c-1.727-6.589-0.96-12.835,2.403-18.735c3.746-6.573,9.51-10.924,15.962-14.603
			c7.146-4.076,14.915-5.445,22.955-5.928c10.252-0.616,20.332,0.726,30.394,2.475c1.828,0.318,2.898,1.067,3.787,2.693
			c3.176,5.813,6.502,11.545,9.814,17.282c0.47,0.814,0.294,0.99-0.542,1.194c-2.558,0.626-5.096,1.337-7.637,2.034
			c-0.629,0.173-1.092,0.062-1.61-0.387c-3.137-2.717-6.378-5.289-10.084-7.226c-6.069-3.172-12.517-4.93-19.346-5.318
			c-6.21-0.353-12.29,0.322-18.134,2.522c-5.853,2.203-9.982,6.069-11.336,12.392c-0.716,3.342,0.688,6.019,2.998,8.274
			c2.536,2.476,5.718,3.877,8.975,5.123c5.13,1.962,10.574,2.621,15.886,3.822c8.911,2.015,17.656,4.527,25.939,8.45
			c4.593,2.175,8.921,4.804,12.56,8.375c5.014,4.921,7.929,10.761,7.697,18.016c-0.157,4.925-0.819,9.696-2.729,14.26
			c-2.331,5.569-6.054,10.012-10.984,13.438c-6.788,4.718-14.503,6.867-22.567,8.062c-8.59,1.273-17.233,0.91-25.864,0.968
			C219.721,290.928,217.081,290.913,214.441,290.913z"/>
		<path fill="#D82D41" d="M160.811,244.631c0,9.197-0.012,18.394,0.017,27.591c0.003,0.948,0.173,1.913,0.392,2.841
			c0.799,3.372,2.712,4.915,6.183,5.046c1.318,0.05,2.638,0.091,3.957,0.085c0.637-0.003,0.929,0.148,0.921,0.868
			c-0.036,2.919-0.039,5.839,0.002,8.758c0.01,0.747-0.307,0.84-0.928,0.833c-2.279-0.026-4.559-0.01-6.839-0.01
			c-13.157,0-26.315-0.016-39.472,0.028c-1.091,0.004-1.323-0.304-1.29-1.329c0.077-2.397,0.024-4.798,0.024-7.198
			c0-1.924,0-1.911,1.871-1.967c1.158-0.034,2.339,0.015,3.467-0.2c3.597-0.685,5.022-2.325,5.486-6.186
			c0.133-1.109,0.203-2.232,0.204-3.349c0.012-17.836,0.019-35.673-0.016-53.509c-0.002-1.097,0.277-1.394,1.383-1.387
			c7.718,0.05,15.437,0.046,23.155,0.003c1.069-0.006,1.417,0.231,1.411,1.369c-0.049,9.238-0.028,18.476-0.028,27.714
			C160.746,244.631,160.779,244.631,160.811,244.631z"/>
		<path fill="#28357E" d="M232.663,138.068c-3.422-1.687-6.844-3.374-10.266-5.061c-13.671-6.741-27.389-13.39-40.987-20.274
			c-4.9-2.481-9.649-5.251-14.789-7.236c-6.15-2.375-12.463-4.001-19.103-3.921c-8.318,0.1-15.574,2.93-21.628,8.703
			c-2.64,2.518-4.962,5.297-6.889,8.398c-0.336,0.541-0.746,0.795-1.426,0.871c-3.798,0.427-7.554,0.179-11.346-0.237
			c-4.445-0.488-8.881-1.019-13.297-1.709c-4.026-0.629-8.054-1.207-12.137-1.299c-3.858-0.088-7.665,0.166-11.221,1.852
			c-5.4,2.561-8.597,7.059-10.785,12.419c-2.363,5.789-3.409,11.874-4.048,18.05c-0.115,1.112-0.204,2.227-0.335,3.669
			c-0.732-2.526-1.132-4.812-1.499-7.094c-0.925-5.741-1.394-11.509-0.591-17.312c1.198-8.657,5.034-15.628,12.899-19.973
			c4.03-2.226,8.414-3.372,12.939-3.99c8.265-1.13,16.5-0.58,24.713,0.592c2.367,0.338,4.732,0.709,7.081,1.154
			c0.628,0.119,1.01,0.049,1.466-0.397c4.41-4.315,9.25-8.057,14.75-10.902c7.535-3.898,15.511-5.673,24.008-5.115
			c11.002,0.723,20.822,4.819,30.215,10.286c7.049,4.102,13.327,9.252,19.821,14.121c10.545,7.907,21.168,15.709,31.758,23.557
			c0.286,0.212,0.566,0.43,0.849,0.645C232.764,137.933,232.713,138.001,232.663,138.068z"/>
		<path fill="#28357E" d="M65.11,155.51c1.355-0.63,2.686-1.318,4.068-1.879c8.631-3.505,17.58-5.052,26.904-4.445
			c9.531,0.62,18.474,3.236,26.856,7.762c9.077,4.902,16.645,11.572,22.944,19.727c6.862,8.883,11.564,18.831,14.786,29.532
			c0.261,0.868,0.029,0.999-0.775,0.996c-7.919-0.022-15.839-0.033-23.757,0.012c-1.021,0.006-1.218-0.337-1.296-1.278
			c-0.671-8.153-2.106-16.143-5.18-23.782c-5.483-13.624-15.304-22.234-29.587-25.721c-6.598-1.611-13.295-2.048-20.074-1.906
			C75.034,154.631,70.113,155.098,65.11,155.51z"/>
		<path fill="#28357E" d="M169.077,124.601c-2.238-0.605-4.269-1.301-6.395-1.603c-1.628-0.231-3.252-0.393-4.896-0.157
			c-1.464,0.211-2.752,0.756-3.851,1.768c-3.747,3.452-11.532,4.26-15.827,0.127c-2.675-2.574-3.041-5.689-2.204-9.052
			c0.897-3.601,1.074-3.719,4.816-3.809c6.469-0.155,12.4,1.736,17.997,4.855c3.6,2.007,6.856,4.479,9.892,7.252
			C168.75,124.111,168.845,124.29,169.077,124.601z"/>
		<path fill="#FEFEFE" d="M213.644,62.176c0.963-0.84,1.756-1.591,2.609-2.265c1.916-1.512,4.008-2.64,6.55-2.439
			c2.496,0.198,3.985,1.773,5.017,3.891c0.705,1.446,1.194,2.974,1.357,4.568c0.1,0.971,0.44,1.014,1.263,0.748
			c5.395-1.742,10.9-3.014,16.524-3.755c0.194-0.026,0.389-0.039,0.897-0.09c-1.552,1.222-2.885,2.26-4.206,3.314
			c-8.448,6.742-16.279,14.123-23.276,22.378c-3.072,3.624-5.943,7.393-8.57,11.348c-0.382,0.575-0.625,0.791-1.191,0.173
			c-4.162-4.548-8.975-8.326-14.066-11.765c-7.012-4.737-14.42-8.714-22.402-11.573c-5.315-1.904-10.743-3.267-16.439-3.276
			c-1.4-0.002-2.773,0.246-4.331,0.474c4.917-17.1,5.963-34.473,5.195-52.118c0.454,0.715,0.906,1.431,1.362,2.146
			c2.685,4.215,4.903,8.674,6.817,13.282c0.366,0.881,0.664,1.007,1.492,0.472c1.543-0.998,3.218-1.739,5.068-2.017
			c3.69-0.555,6.292,1.128,7.29,4.742c0.594,2.151,0.64,4.336,0.31,6.83c1.386-1.296,2.578-2.423,3.783-3.535
			c5.39-4.97,10.793-9.924,17.121-13.727c2.462-1.48,5.047-2.698,7.701-3.791c0.785-0.323,0.966,0.059,1.191,0.63
			c1.665,4.223,2.684,8.599,3.114,13.115c0.658,6.912,0.235,13.82-0.093,20.728C213.71,61.092,213.682,61.52,213.644,62.176z"/>
	</g>
</g>
</svg>
