<?xml version="1.0" encoding="utf-8"?>
<!-- Generator: Adobe Illustrator 17.0.0, SVG Export Plug-In . SVG Version: 6.00 Build 0)  -->
<!DOCTYPE svg PUBLIC "-//W3C//DTD SVG 1.1//EN" "http://www.w3.org/Graphics/SVG/1.1/DTD/svg11.dtd">
<svg version="1.1" id="Warstwa_1" xmlns="http://www.w3.org/2000/svg" xmlns:xlink="http://www.w3.org/1999/xlink" x="0px" y="0px"
	 width="179.083px" height="179.083px" viewBox="0 0 179.083 179.083" enable-background="new 0 0 179.083 179.083"
	 xml:space="preserve">
<g>
	<g>
		<path fill="#FEFEFE" d="M1,89.5c0-28.333,0.058-56.667-0.085-85C0.9,1.516,1.517,0.911,4.5,0.917c57,0.112,114,0.112,171,0
			c2.983-0.006,3.589,0.6,3.583,3.583c-0.112,57-0.112,114,0,171c0.006,2.982-0.6,3.589-3.583,3.583c-57-0.112-114-0.112-171,0
			c-2.982,0.006-3.6-0.598-3.585-3.583C1.057,146.834,1,118.167,1,89.5z"/>
		<path fill="#FE0000" d="M131,49.167c2.862-3.533,4.42-7.761,6.207-11.849c1.045-2.392,2.424-3.449,5.228-3.392
			C152.091,34.12,161.753,34,171.644,34c-2.286,7.186-6.268,13.417-9.334,20.049c-4.419,9.559-9.427,18.85-14.313,28.188
			c-6.772,12.945-13.731,25.792-20.478,38.749c-3.984,7.65-7.823,15.381-11.523,23.172c-3.171,6.676-7.833,12.545-10.362,19.572
			c-0.61,1.697-2.512,1.266-3.979,1.267c-8.162,0.006-16.33-0.172-24.485,0.084c-3.522,0.111-5.326-1.308-6.869-4.263
			c-8.17-15.641-16.392-31.257-24.801-46.771c-8.875-16.373-17.336-32.956-25.903-49.486C15.344,56.355,11.317,47.975,6.567,40
			c-2.94-4.936-2.206-6.118,3.46-5.969c8.256,0.217,16.509,0.595,24.76,0.988c4.497,0.214,4.545,4.761,5.88,7.336
			c1.126,2.172,1.931,3.339,4.166,3.647c0.151,0.163,0.303,0.327,0.457,0.493c0.004,0.227,0.005,0.452,0.012,0.68
			c-0.63,1.483-1.071,2.953,0.27,4.308c1.087,0.528,0.065,3.266,2.509,2.369c1.011,1.46,0.017,2.368-0.894,3.304
			c-0.27,0.312-0.55,0.618-0.81,0.935c-0.614,0.881-0.802,1.793-0.212,2.771c0.95,1.47,2.092,2.822,2.637,4.522
			c0.706,2.414,0.131,4.95,0.716,7.373c0.194,0.396,0.376,0.796,0.577,1.188c1.739,2.339,3.852,4.381,5.406,6.863
			c0.191,0.42,0.324,0.858,0.409,1.309c-0.058,2.039,1.204,2.901,2.945,3.456c2.071,0.66,3.963,1.731,5.846,2.811
			c2.081,2.044,3.291,4.6,4.283,7.283c0.33,2.808-1.171,4.286-3.64,5.193c-3.606,1.324-1.801,2.681,0.059,3.977
			c0.414,0.164,0.817,0.348,1.226,0.52c2.045,0.378,3.806,1.836,6.206,0.813c2.325-0.992,2.96,1.423,4.037,2.78
			c4.584,6.489,7.312,14.021,11.772,20.662c3.257-6.303,7.043-12.401,9.772-19.055c2.152-2.01,2.022-6.698,6.707-5.743
			c1.174,1.918,0.052,3.541-0.767,5.126c-8.081,15.647-16.52,31.108-24.254,46.939c-1.615,3.306-1.063,3.745,2.299,3.954
			c4.738,0.294,7.727-1.229,9.83-5.693c7.654-16.244,16.39-31.942,24.649-47.883c0.237-0.425,0.507-0.828,0.79-1.222
			c5.91-10.778,10.951-21.995,16.67-32.869c6.181-11.751,12.567-23.397,18.386-35.763c-2.184-0.397-4.435,0.074-6.625-0.148
			c-3.276-0.331-5.085,1.333-6.776,3.977c-2.185,3.418-2.355,8.143-6.535,10.281C131.222,51.471,130.121,51.071,131,49.167z"/>
		<path d="M63.999,88.834c-2.968-0.172-5.061-2.581-8.046-2.976c-2.848-0.377-0.704-2.505-0.787-3.857
			c0.806-0.296,1.608,0.206,2.865-0.074c-1.069-1.056-2.149-0.952-3.198-0.927c-2.427-1.964-4.232-4.442-5.849-7.076
			c0.878-0.661,2.598-0.248,2.789-2.156c-1.917-0.228-1.732,1.697-2.711,2.234c-2.276-2.714-0.484-5.917-1.061-8.836
			c2.286-3.433-0.765-5.546-2.004-8.108c0.149-1.297,2.804-1.089,1.837-3.057c-0.707-0.787-0.895-1.803-0.477-2.653
			c1.309-2.657-0.32-3.554-2.36-4.29c-0.054-0.353-0.109-0.705-0.163-1.058c2.149-0.944,2.325-2.762,2.176-4.776
			c-0.261-3.518,0.382-6.44,4.562-7.264c1.862-0.367,2.326-1.614,1.64-3.455c-0.917-2.463,0.249-4.468,2.401-5.267
			c2.547-0.946,5.025,0.222,6.281,2.535c1.358,2.501,2.696,5.279,2.967,8.041c0.42,4.299,2.791,7.285,5.542,9.963
			c5.034,4.902,6.243,10.094,2.885,16.729c3.323-2.358,5.698-4.473,6.156-8.334c0.216-1.822,1.598-3.475,2.129-5.298
			c0.838-2.876,3.635-6.278-1.882-7.829c-1.582-0.445-1.49-4.263-4.491-2.501c-0.154-1.286-1.764-2.222-1.127-3.616
			c0.77-1.684,1.902-3.123,4.107-2.932c2.283,0.198,3.936-0.414,2.318-2.953c-2.949-4.63,0.621-8.006,3.417-8.584
			c3.3-0.683,0.492-4.968,4.315-4.644c3.27,0.277,0.159,4.657,3.88,4.41c2.376-0.158,2.601,3.541,4.471,4.809
			c3.323,2.254-0.574,3.492-0.631,5.251c-0.01,0.293-0.476,0.814-0.451,0.832c4.188,2.951-0.239,6.276,0.353,9.486
			c0.655,3.545-0.294,7.375,0.271,10.951c0.602,3.808,1.349,8.036,6.521,8.998c0.841-0.541,0.585-1.832,0.271-2.394
			c-3.068-5.492,0.064-9.686,3.597-12.765c4.007-3.493,3.73-8.643,6.46-12.459c0.081-0.114-0.041-0.378,0.043-0.485
			c1.659-2.12,2.249-6.466,5.759-5.179c2.703,0.991,3.721,4.623,2.639,7.763c-0.921,2.675,0.567,1.903,1.885,1.655
			c0.475,3.471-1.35,4.752-4.516,4.749c-2.206-1.027-1.259-2.758-0.893-4.3c0.415-1.747,1.183-3.46,0.15-5.287
			c-3.19,2.667-3.688,4.071-2.982,8.261c0.249,0.39,0.422,0.812,0.543,1.256c-0.076,0.89,0.021,1.822-0.577,2.596
			c-1.808,1.921-2.272,3.751,0.369,5.372c0.095,5.068,2.151,9.836,1.833,14.965c0.242-4.587-1.854-8.902-1.09-13.508
			c0.187-1.127-0.278-1.456-1.126-1.734c-1.869-1.598-1.395-3.239-0.11-4.899c1.039-1.035,0.406-3.611,2.977-3.232
			c1.238,0.157,2.015,1.798,3.821,0.302c2.548-2.109,3.05-1.632,3.682,2.329c-0.01-2.467-1.243-4.555-2.217-6.723
			c4.438-3.155,4.617,1.789,4.591,3.221c-0.064,3.627,1.256,6.4,3.246,9.109c-0.157,1.378,0.455,1.989,1.833,1.833
			c-0.218,7.707-0.58,15.874-3.731,22.526c-2.48,5.237-5.248,12.754-13.577,13.026c-1.006-0.154-1.903-0.59-2.78-1.079
			c-1.726-1.073-0.721-3.224-1.794-4.557c-0.519-0.85-1.217-1.587-1.702-2.451c-1.935-3.445-1.312-4.578,3.044-5.32
			c-3.248-1.593-4.215,2.331-6.556,2.395c-0.2,0.023-0.327,0.048-0.327,0.048c0.023,0.432,0.19,0.496,0.532,0.201
			c2.346,1.208,3.638,3.387,5.15,5.358c0.812,2.515,0.47,4.151-2.603,3.722c1.062,0.934,2.713,0.435,4.032,1.091
			c0.74,0.163,1.396,0.467,1.893,1.063c0.74,1.609,0.35,2.972-0.896,4.148c-0.621,0.43-1.321,0.591-2.064,0.58
			c-3.226-0.275-4.395,0.911-2.847,4.012c0.566,0.263,1.127,0.527,1.693,0.769c1.421,0.183,2.496-0.828,3.793-1.087
			c2.043-0.408,4.007-0.501,5.643,1.024c1.861,1.735,0.39,3.242-0.315,4.904c-0.762,1.795-0.031,4.03-1.495,5.68l0.113-0.128
			c-0.635,0.682-1.518,0.869-2.213,0.431c-3.349-2.112-7.159-1.767-10.827-2.187c-4.297-0.296-2.915,5.083-5.998,6
			c-0.592,0.325-1.066,0.79-1.472,1.317c-5.235,6.789-10.12,6.517-14.656-0.816c-0.473-0.765-0.277-2.625-2.093-0.967
			c-2.267,2.07-3.49-0.048-4.78-1.535c-1.322-0.097-1.215-5.079-4.055-1.083c-0.43,0.606-4.127-0.776-5.965-2.164
			c1.282-0.963,0.996-2.72,1.95-3.847c0.34-0.337,0.762-0.496,1.23-0.551c-0.434,0.01-0.813,0.154-1.14,0.481
			c-1.28,1.042-1.096,2.775-1.963,3.995c-3.116,0.665-3.86-2.017-4.842-3.826c-0.883-1.627,0.476-2.192,2.077-2.188
			c2.663,0.007,4.884-0.656,4.873-3.982c2.08-0.842,4.154-1.599,2.842-4.625C69.53,87.97,67.003,87.836,63.999,88.834z"/>
		<path fill="#FEFEFE" d="M73.432,161.977c-5.863-11.486-11.486-22.964-17.532-34.213c-5.96-11.089-12.476-21.877-18.513-32.926
			c-5.833-10.674-11.665-21.347-16.71-32.444c-3.504-7.709-7.342-15.304-11.596-22.62c-2.154-3.704-0.782-3.738,2.273-3.804
			c10.102-0.218,9.823-0.132,14.344,9.169C31.445,56.966,37.714,68.54,43.73,80.237c4.82,9.372,8.969,19.161,14.567,28.04
			c5.944,9.43,10.541,19.556,16.4,28.989C81.15,147.656,81,151.483,73.432,161.977z"/>
		<path fill="#FEFEFE" d="M104.999,105.167c3.465-2.162,6.85-1.545,10.068,0.479c0.959,0.603,1.607,1.693,2.972,1.278
			c-3.947,8.062-7.769,16.164-12.293,23.96c-4.988,8.594-9.38,17.575-13.423,26.659c-1.668,3.749-3.68,4.895-7.444,4.514
			c-2.796-0.283-5.644-0.056-9.676-0.056c4.156-5.032,6.376-10.252,8.646-15.419c5.09-11.584,12.275-22.077,17.274-33.711
			C102.244,110.261,104.461,108.126,104.999,105.167z"/>
		<path fill="#FEFEFE" d="M115.155,86.004c7.499-0.649,8.299-8.75,13.411-12.055c-1.861-5.322,3.961-9.702,1.869-15.026
			c-1.307-3.326,2.049-5.15,2.398-7.924c3.142-3.745,3.947-8.732,6.821-12.716c1.067-1.479,1.494-2.376,3.368-2.319
			c3.802,0.116,7.61,0.035,11.845,0.035c-4.269,8.572-8.11,17.032-12.607,25.127c-5.823,10.482-10.938,21.305-16.428,31.942
			c-2.44,4.727-3.833,10.148-7.904,13.982c1.031-2.584-1.796-5.689,1.831-8.312c1.352-0.978-2.893-3.176-3.57-2.532
			c-1.637,1.557-4.316-0.525-5.509,2.186c-0.363,0.826-0.376-0.991-0.845-1.392c-0.634-2.817,1.523-4.239,3-6.001
			c0.924-1.12,1.425-2.368,1.172-3.847C114.088,86.47,114.455,86.071,115.155,86.004z"/>
		<path fill="#FEFEFE" d="M76,109.166c2.042,0.831,4.721,4.15,5.088-1.403c0.071-1.074,1.299-0.805,2.05-0.7
			c0.784,0.11,0.849,0.687,0.7,1.458c-0.894,4.636,2.306,6.609,5.789,7.553c3.128,0.848,5.535-1.069,6.851-4.072
			c0.534-1.218,1.068-2.412,2.524-0.836c-1.828,7.612-7.125,13.488-10.214,21.537C84.22,124.298,80.11,116.732,76,109.166z"/>
		<path fill="#FEFEFE" d="M63.999,88.834c1.338-3.751,4.297-1.116,6.454-1.637c0.565,2.726,3.776,4.844,2.38,7.87
			c-0.745,1.615-2.68,2.777-4.668,0.934C66.777,93.611,65.388,91.223,63.999,88.834z"/>
		<path fill="#FEFEFE" d="M44.997,47.059c1.491,0.639,2.982-1.578,4.371-0.138c1.703,1.768-0.816,2.758-0.995,4.215
			c-0.118,0.963-0.355,1.91-0.538,2.865c-2.618,1.755-1.776-1.672-3.001-2.003c-0.812-1.715-1.029-3.402,0.24-5.018L44.997,47.059z"
			/>
		<path fill="#FEFEFE" d="M45.997,57.059c4.647,0.584,2.48,5.487,4.787,7.554c-0.928,0.185-1.856,0.369-2.783,0.554
			c-1.056-1.389-2.112-2.778-3.167-4.167c-0.008-1.47,0.596-2.752,1.24-4.02L45.997,57.059z"/>
		<path fill="#FEFEFD" d="M54.833,81c1.173-3.033,3.295-0.795,4.845-0.602c0.493,0.062,0.944,2.764-0.286,3.434
			c-1.767,0.963-3.229-0.235-4.225-1.831C55.055,81.667,54.944,81.334,54.833,81z"/>
		<path fill="#010001" d="M45.073,46.981c-0.08,1.673-0.16,3.345-0.24,5.018C42.174,50.195,42.19,48.519,45.073,46.981z"/>
		<path fill="#010001" d="M46.073,56.979c0.086,1.494-0.205,2.872-1.24,4.02C43.105,58.999,45.009,58.119,46.073,56.979z"/>
		<path fill="#FEFEFE" d="M95.074,78.938c-5.319,3.87-1.54-4.44-4.926-2.943c-0.019,1.621-1.075,3.921,1.489,5.833
			c-1.491,0-2.765,0-3.909,0c-0.623-0.227-0.419-0.363-0.26-0.757c1.823-4.501-1.306-8.207-2.128-12.285
			c-0.204-1.012-0.637-2.051,0.208-2.634c0.729-0.503,1.808,0.24,1.972,0.987c0.424,1.935,2.929,2.781,2.501,5.117
			c-0.22,1.201,0.321,1.875,1.656,1.739c0.706-0.072,1.435-0.235,1.261-1.071c-0.173-0.829,0.856-1.925-0.962-2.519
			c-1.387-0.453-2.533-1.998-1.73-3.914c6.56,6.067,6.984,7.206,4.686,12.588c-0.389-0.485-0.74-0.99-0.891-1.607
			C94.209,78.086,94.562,78.568,95.074,78.938z"/>
		<path fill="#FEFEFE" d="M67.5,64.143c0.542-2.204,0.969-4.239,1.565-6.224c0.245-0.815,0.656-2.02,1.903-1.334
			c0.872,0.48,1.202,1.172,0.581,2.428c-1.734,3.503,0.431,8.78,3.536,10.618c2.07,1.225,0.693,3.414,0.5,5.186
			c-1.019-2.692-1.506-2.812-4.394-0.683c1.801-4.773-2.579-6.277-4.403-9.033c-0.703-1.062-4.443-0.587-3.317-2.599
			C64.817,60.098,65.836,64.075,67.5,64.143z"/>
		<path fill="#FEFEFE" d="M110.072,61.924c-3.893-2.054-5.662-8.298-2.841-10.899c1.807-1.666-0.808-4.893,2.609-5.728
			c0.053,1.115,0.108,2.249,0.159,3.382c0.049,1.092,0.055,2.179-0.954,3.005c1.933,0.691,2.253-1.082,4.046-1.368
			c-0.054,4.306-6.449,6.995-3.162,11.75L110.072,61.924z"/>
		<path fill="#FEFEFE" d="M85.274,44.806c-1.125-3.239,0.929-6.784,2.418-7.51c5.088-2.48,6.665-0.341,5.994,7.407
			C90.878,41.711,88.086,41.646,85.274,44.806z"/>
		<path fill="#FEFEFE" d="M62.585,40.021c-2.62-2.459-0.976-6.157-3.158-8.603c-2.693,0.865-0.666,3.635-1.831,5.34
			c-0.741-0.45-1.544-0.938-2.346-1.425c2.559-2.704-1.954-5.742,0.277-8.244c1.378-1.545,4.034-0.309,4.257,0.692
			C60.675,31.783,64.197,35.197,62.585,40.021z"/>
		<path fill="#FEFEFE" d="M83.001,87.996c0.011,2.276-1.101,0.791-2.1,1.539c-2.456,1.84-3.841-0.512-5.681-0.26
			c-2.955,0.405-2.737-2.384-2.052-3.318c2.071-2.824,5.221-0.562,7.885-0.932C83.601,84.672,82.875,86.657,83.001,87.996z"/>
		<path fill="#FEFEFE" d="M94.815,57.004c-3.118-0.43-5.668-1.363-4.686-4.915c0.64-2.316-0.137-2.831-1.649-1.759
			c-2.424,1.718-3.893-0.573-4.277-1.431c-1.039-2.322,1.522-1.818,2.656-2.203c4.957-1.68,6.515-0.373,5.245,4.689
			C91.408,54.159,94.159,54.775,94.815,57.004z"/>
		<path fill="#FEFEFE" d="M115.326,41.337c-3.423-0.427-2.545-2.946-2.048-4.834c0.435-1.652,1.579-3.072,1.946-4.873
			c0.215-1.057,1.334-2.529,2.619-2.072c1.052,0.374,2.118,1.426,2.183,3.019c0.134,3.229-1.591,5.893-2.432,8.822l0.117-0.115
			c-1.784-0.187-1.026,2.86-3.036,2.387c0,0,0.139,0.137,0.139,0.137c0.126-0.87,0.252-1.74,0.377-2.61
			c0.951-2.087,0.899-4.423,1.605-6.569C116.154,36.831,115.848,39.108,115.326,41.337z"/>
		<path fill="#FEFEFE" d="M114.715,49.299c1.565,0.211,0.994-3.513,3.029-1.855c1.393,1.134-0.007,2.473-0.722,3.686
			c-0.834,1.414-2.378,3.023,0.56,4.126c2.281,0.857-0.032,2.494,0.401,3.743c0.671,1.934-1.85,5.339,3.038,5.257
			c-1.987,1.379-4.098,0.041-6.493,2.426c1.935-6.54,0.638-12.017,0.324-17.531L114.715,49.299z"/>
		<path fill="#FEFEFE" d="M95.68,94.67c3.768-1.115,2.649-4.422,2.108-6.475c-0.59-2.239,0.508-2.806,1.925-4.531
			c0.188,2.02,0.313,3.362,0.493,5.291c1.288-1.711,2.153-3.361,3.91-4.049c1.267,4.594-3.843,10.237-8.533,9.66L95.68,94.67z"/>
		<path fill="#FEFEFE" d="M111.375,80.63c-3.187-0.155-4.105-3.414-6.453-4.716l0.142,0.142c0.963-3.203,4.146-4.318,6.499-5.551
			c1.585-0.831,0.631,3.584,3.25,3.984c-2.192,1.575-4.355-2.132-5.586,0.108c-1.176,2.14,1.594,3.978,2.02,6.16L111.375,80.63z"/>
		<path d="M54.955,39.888c0.363,0.742,0.725,1.484,1.088,2.226c1.248,1.418,2.28,3.057,4.039,3.955l-0.148-0.156
			c1.13,3.141,0.196,4.219-3.018,3.02l0.154,0.138c-1.289-1.475-2.322-3.208-4.153-4.139l0.164,0.137
			c-1.831-1.341-3.121-2.973-1.802-5.273C52.41,37.822,53.733,39.376,54.955,39.888z"/>
		<path fill="#FEFEFE" d="M61.103,64.87c1.818,0.981,3.097,2.642,3.546,4.455c0.708,2.854,1.772,4.89,4.814,5.867
			c1.871,0.601,1.8,2.531,1.025,5.299c-0.153-2.765-1.628-4.288-2.873-4.275c-4.004,0.042-2.626-6.37-6.996-5.448
			c3.003-1.724-0.128-4.096,0.64-6.056L61.103,64.87z"/>
		<path fill="#FEFEFE" d="M117.595,41.4c2.837-0.425,5.296-1.309,5.695-4.702c0.007-0.007-0.143,0.154-0.135,0.147
			c4.146,3.48,3.809,7.808-0.765,9.902c2.611-3.516,2.611-3.516,1.016-6.483c-2.132,0.683-0.657,3.551-3.016,4.475
			c-0.175-1.662-1.122-2.832-2.664-3.467C117.712,41.285,117.595,41.4,117.595,41.4z"/>
		<path fill="#FEFEFE" d="M80.592,104.644c-2.123-0.994-5.809-0.034-5.361-3.958c0.111-0.975,1.423-3.305,2.6-2.826
			C80.515,98.953,82.109,101.182,80.592,104.644z"/>
		<path fill="#FEFEFE" d="M54.955,39.888c-0.893,1.172-1.897-1.793-3.035,0.22c-1.269,2.245,0.743,3.333,1.161,4.961
			c-4.405-0.845-3.698-4.464-3.871-7.455c-0.048-0.824,0.992-1.584,2.125-1.613C54.025,35.93,53.864,38.486,54.955,39.888z"/>
		<path fill="#FEFEFE" d="M82.468,75.478c-1.42-2.104,1.204-6.003-3.181-6.92c-0.788-0.165,0.048-1.392,0.619-1.946
			c0.646-0.625,1.857-0.963,1.99-0.067c0.475,3.21,4.136,5.764,2.087,9.43c-1.172,2.097-0.763-1.09-1.547-0.545L82.468,75.478z"/>
		<path fill="#FEFEFE" d="M49.062,74.002c0.537-1.532-1.593-4.661,2.216-4.19c1.801,0.223,2.808,1.527,1.906,3.739
			c-1.272,3.118-2.762,0.795-4.2,0.374C48.984,73.924,49.062,74.002,49.062,74.002z"/>
		<path fill="#FEFEFE" d="M111.248,80.757c1.249,1.136,0.397,3.224,1.918,4.237c0.391,1.112-0.44,1.448-1.173,1.846
			c-3.417-0.281-5.765-1.444-4.717-5.558c1.995,0.512,1.614,2.302,1.966,3.56c2.279-0.774,1.438-2.827,2.124-4.202
			C111.375,80.63,111.248,80.757,111.248,80.757z"/>
		<path fill="#FEFEFE" d="M85.334,59.329c-0.364-1.936-0.874-2.555-1.837-2.179c-0.832,0.325-1.069,3.452-2.279,1.069
			c-1.182-2.329,1.408-2.713,3.25-3.546c1.844-0.834,3.043-0.488,3.286,0.998C87.898,56.546,85.678,56.995,85.334,59.329z"/>
		<path fill="#FEFEFE" d="M126.97,56.981c1.855,0.239,0.433,2.773,2.522,3.478c1.504,0.507-0.77,2.249-1.085,3.537
			c-0.241,0.983-1.478,1.171-2.517,0.961c-0.218-0.044-0.387-0.33-0.579-0.505c2.132-2.105,1.597-4.494,0.784-6.936
			C126.072,57.45,126.601,57.202,126.97,56.981z"/>
		<path fill="#FEFEFE" d="M126.985,49.046c1.741-0.093,2.304,0.655,2.81,1.484c-2.656,0.863-0.26,4.998-3.49,5.425
			c-0.971,0.128-1.818-0.861-1.094-1.433C127.09,53.039,124.478,49.779,126.985,49.046z"/>
		<path fill="#FEFEFE" d="M108,96.834c-4.953-0.397-0.904-3.029-0.851-4.355c0.092-2.316,1.567-3.421,3.852-1.646
			C111.367,93.517,109.797,95.233,108,96.834z"/>
		<path fill="#FEFEFE" d="M92.898,87.12c-2.289,0.517-4.876,0.578-5.234,4.24c-1.047-2.338-2.418-3.931-1.339-6.006
			c1.664,2.224,5.207-1.821,6.416,1.923L92.898,87.12z"/>
		<path fill="#FEFEFE" d="M99.243,104.535c0.614-1.64-2.703-3.292-0.02-5.17c1.052-0.737,2.174-0.539,3.094,0.459
			c1.162,1.261,0.79,1.829-0.756,2.362C100.529,102.542,101.139,104.59,99.243,104.535z"/>
		<path fill="#FEFEFE" d="M95.913,62.998c-0.751,1.241-0.672-0.113-1.057-0.537c-0.418-0.461-0.989-0.645-1.663-0.056
			c-1.766,1.541-1.833,1.506-2.18-0.343c-0.183-0.974-0.673-2.351-0.232-2.862c0.53-0.614,2-0.352,2.508,0.65
			C93.928,61.112,96.476,60.518,95.913,62.998z"/>
		<path fill="#FEFEFE" d="M102.482,70.791c-1.984-1.486-1.754-3.082-1.044-4.626c0.571-1.241,1.829-1.151,3.012-1.182
			c1.882-0.049,1.75,1.312,1.501,2.349c-0.814,3.391-0.843-0.328-1.508-0.28C101.451,67.268,103.968,69.965,102.482,70.791z"/>
		<path fill="#FEFEFE" d="M95.582,94.565c0.866,2.569,0.223,5.218,0.41,7.823c0.093,1.297-0.581,1.762-1.783,1.585
			c-1.534-0.226-1.112-0.984-0.723-2.048c0.865-2.363,1.496-4.811,2.208-7.24C95.68,94.67,95.582,94.565,95.582,94.565z"/>
		<path fill="#FD0000" d="M108,96.834c1-2,2-4,3.001-6.001c0.611,0.055,1.222,0.111,1.833,0.166c0.221,2.611-2.339,3.831-3,6.001
			C109.222,96.946,108.611,96.89,108,96.834z"/>
		<path fill="#FEFEFE" d="M118.884,70.314c-1.834-1.035-4.753,1.483-5.758-1.32c-0.758-2.115,1.846-2.742,2.342-1.58
			C116.271,69.297,118.278,68.51,118.884,70.314z"/>
		<path fill="#FEFEFE" d="M81.729,33.714c-0.037,3.03-0.037,3.03-5.963,1.607c1.746-2.354,4.235-0.755,6.121-1.45L81.729,33.714z"/>
		<path fill="#FEFEFE" d="M65.554,49.592c1.734-2.424-2.602-4.563-0.163-6.684c2.717,5.365,2.717,5.365,0.101,6.643L65.554,49.592z"
			/>
		<path fill="#FEFEFE" d="M90.185,111.825c0.7-2.612,2.846-2.023,4.763-2.331c-0.009,2.566-2.492,2.934-3.657,4.115
			c-1.141,1.158-1.304-0.812-0.966-1.922L90.185,111.825z"/>
		<path fill="#FEFEFE" d="M88.475,65.862c-0.335-1.788-2.709-2.909-1.735-5.021c0.556-1.206,1.297-0.28,1.853,0.224
			C90.375,62.682,90.738,64.29,88.475,65.862z"/>
		<path fill="#FEFEFE" d="M114.676,43.672c0.018,1.871,0.035,3.743,0.046,5.621c-0.007,0.007,0.144-0.155,0.137-0.148
			c-0.878-0.547-2.516,0.636-2.814-1.122c-0.374-2.207,1.584-2.975,2.78-4.203C114.814,43.809,114.676,43.672,114.676,43.672z"/>
		<path fill="#FEFEFD" d="M67.666,101.673c-0.385,1.486,4.08,4.897-1.686,4.246c0,0,0.078,0.077,0.078,0.077
			c-1.112-2.102-0.742-3.586,1.745-4.188L67.666,101.673z"/>
		<path fill="#FEFEFE" d="M81.073,62.06c0.405-1.47,2.572-1.606,2.648-1.432c0.694,1.584,2.663,3.354-0.356,5.163
			c-1.032-1.096,0.8-4.409-2.435-3.873L81.073,62.06z"/>
		<path fill="#FEFEFE" d="M59.406,53.664c0.94,2.054,0.526,3.622,0.419,5.382C57.036,56.847,57.036,56.847,59.406,53.664z"/>
		<path fill="#FEFEFE" d="M61.26,64.713c-0.859,0.407-2.168,1.391-2.504,1.129c-2.201-1.72,2.093-2.789-0.431-4.897
			c2.943,0.884,2.626,2.519,2.772,3.932C61.103,64.87,61.26,64.713,61.26,64.713z"/>
		<path fill="#FEFEFE" d="M90.325,111.687c-3.887,1.082-4.667-0.918-4.035-5.389c0.504,3.293,3.241,3.454,3.885,5.538
			C90.185,111.825,90.325,111.687,90.325,111.687z"/>
		<path fill="#FEFEFE" d="M80.93,61.917c0.557,2.867-2.069,2.834-3.851,4.092c0.364-2.631,0.9-4.548,3.994-3.948
			C81.073,62.06,80.93,61.917,80.93,61.917z"/>
		<path fill="#FEFEFE" d="M120.738,79.459c-0.803,3.184-2.686,2.658-5.12,2.129C116.99,78.926,119.55,81.092,120.738,79.459z"/>
		<path fill="#FEFEFE" d="M56.916,48.933c2.566,0.552,3.566-0.461,3.018-3.02c2.127,1.465,0.558,3.608,1.433,6.332
			C59.411,50.789,58.163,49.861,56.916,48.933z"/>
		<path fill="#FEFEFE" d="M80.95,81.735c-4.846,1.177-3.265-2.329-4.343-5.297C78.441,78.674,79.526,79.998,80.95,81.735z"/>
		<path fill="#FEFEFE" d="M96.349,71.907c-0.185-2.994-2.575-3.932-1.622-6.077c0.105-0.237,0.727-0.512,0.758-0.475
			C96.737,66.845,97.422,68.5,96.349,71.907z"/>
		<path fill="#FEFEFE" d="M71.839,51.081c1.61,1.496,1.007,3.064,1.041,4.841C70.021,54.239,71.131,52.653,71.839,51.081z"/>
		<path fill="#FEFEFE" d="M101.041,63.223c-0.577,0.796-1.17,1.614-1.762,2.432c-0.648-0.515-1.286-1.011-1.277-1.979
			c0.008-0.883,0.054-1.645,1.224-1.667C100.076,61.993,100.864,62.008,101.041,63.223z"/>
		<path fill="#FEFEFE" d="M96.128,81.809c0.884-1.582,2.6-2.548,2.255-3.53C97.958,78.868,102.087,82.819,96.128,81.809z"/>
		<path fill="#FEFEFE" d="M92.742,87.277c0.833-0.463,1.667-0.926,2.5-1.389c-0.529,1.61-0.043,3.195-0.509,4.948
			c-0.913-1.272-1.8-2.269-1.828-3.722C92.898,87.12,92.742,87.277,92.742,87.277z"/>
		<path fill="#FEFEFE" d="M52.918,44.931c2.522,0.238,3.906,1.618,4.153,4.139C54.385,48.997,54.324,46.289,52.918,44.931z"/>
		<path fill="#FEFEFE" d="M60.082,46.069c-2.41-0.232-3.911-1.392-4.039-3.955C58.695,42.099,58.689,44.798,60.082,46.069z"/>
		<path fill="#FEFEFE" d="M86.258,29.471c-1.75-1.585-1.381-2.903-0.807-4.204c0.07-0.159,0.705-0.289,0.83-0.17
			C87.555,26.308,87.114,27.625,86.258,29.471z"/>
		<path fill="#FEFEFE" d="M65.672,81.203c-1.253,2.428,2.853,2.313,1.853,4.544c-0.062,0.138-0.941,0.114-1.258-0.102
			C64.586,84.501,64.733,82.949,65.672,81.203z"/>
		<path fill="#FEFEFE" d="M125.496,69.488c0.942,0.728,0.525,1.758,0.45,2.574c-0.099,1.071,0.779,3.383-1.342,2.782
			c-2.502-0.709,1.613-1.29,0.483-2.638C124.712,71.76,124.585,70.315,125.496,69.488z"/>
		<path fill="#FEFEFE" d="M109.929,62.066c2.348-0.455,2.294,1.396,2.575,2.805c0.044,0.221-0.688,0.597-1.061,0.902
			c-0.408-1.3-1.813-2.245-1.372-3.849C110.072,61.924,109.929,62.066,109.929,62.066z"/>
		<path fill="#FEFEFE" d="M67.973,57.965c-0.088,0.82-0.754,1.335-1.276,0.878c-0.671-0.587-0.974-1.595-1.435-2.421
			c0.442-0.137,0.876-0.349,1.328-0.397C68.158,55.857,67.994,56.978,67.973,57.965z"/>
		<path fill="#FDFEFD" d="M67.803,101.808c1.267-0.837,2.535-1.674,4.152-2.743c0.184,4.226-2.468,2.688-4.28,2.617
			C67.666,101.673,67.803,101.808,67.803,101.808z"/>
		<path fill="#FEFEFE" d="M63.247,46.023c-2.138-0.966-2.721-2.061-1.927-3.652c0.096-0.192,0.616-0.382,0.795-0.29
			C63.983,43.033,62.382,44.532,63.247,46.023z"/>
		<path fill="#FEFEFE" d="M104.922,75.915c-0.149,1.031,0.766,2.398-0.733,2.988c-0.712,0.28-1.095-0.329-1.184-1.102
			c-0.19-1.661,0.687-1.974,2.059-1.744C105.064,76.057,104.922,75.915,104.922,75.915z"/>
		<path fill="#FEFEFE" d="M80.057,74.94c-1.895-0.555-2.443-1.757-1.763-3.673c2.051,0.711,1.746,2.301,1.619,3.815L80.057,74.94z"
			/>
		<path fill="#FEFEFE" d="M91.003,100.424c-0.338,0.304,0.467,1.475-0.768,1.125c-0.743-0.21-1.403-0.709-2.101-1.078
			c0.471-0.443,0.872-1.042,1.429-1.296C90.685,98.665,90.956,99.442,91.003,100.424z"/>
		<path fill="#FEFEFE" d="M112.398,60.839c-0.511-1.404-0.758-2.643,0.153-3.745c0.122-0.147,1.176,0.112,1.244,0.345
			C114.206,58.847,112.915,59.598,112.398,60.839z"/>
		<path fill="#FEFEFE" d="M91.011,96.381c0.065-1.331,0.13-2.661,0.237-4.851C92.215,93.778,92.187,95.15,91.011,96.381z"/>
		<path fill="#FEFEFE" d="M79.914,75.082c0.848,0.128,1.695,0.255,2.549,0.389c0.006,0.006-0.049-0.061-0.038-0.051
			c-1.709,0.419-1.257,2.262-2.367,3.24c0-1.24,0-2.48,0-3.72C80.057,74.94,79.914,75.082,79.914,75.082z"/>
		<path fill="#FEFEFE" d="M73.402,77.23c0.979,1.456,0.62,2.813,0.337,4.45C72.514,80.143,72.961,78.78,73.402,77.23z"/>
		<path fill="#FEFEFE" d="M101.817,76.568c0,2.422,0,3.663,0,6.172C100.819,80.119,100.749,78.747,101.817,76.568z"/>
		<path fill="#FEFEFE" d="M85.942,101.418c-0.281,0.15-0.654,0.524-1.001,0.503c-1.165-0.073-0.935-1.032-0.893-1.759
			c0.018-0.304-0.072-1.087,0.654-0.743C85.414,99.755,86.026,100.29,85.942,101.418z"/>
		<path fill="#FEFEFE" d="M81.887,33.87c0.158-0.885,0.009-2.187,1.477-1.775c0.934,0.262,0.868,1.448,0.516,2.025
			c-0.855,1.402-1.338-0.61-2.144-0.4C81.729,33.714,81.887,33.87,81.887,33.87z"/>
		<path fill="#FD0100" d="M111.993,86.84c0.391-0.616,0.782-1.231,1.173-1.846c0.839-0.01,1.669-0.003,1.988,1.011
			c-0.382,0.382-0.765,0.764-1.148,1.147C113.334,87.049,112.663,86.944,111.993,86.84z"/>
		<path fill="#FEFEFE" d="M62.108,55.969c0.678,0.147,1.598-0.225,1.546,0.618c-0.043,0.697-0.647,1.359-1.003,2.036
			c-0.378-0.543-0.773-1.076-1.132-1.631C60.88,56.002,61.803,56.176,62.108,55.969z"/>
		<path fill="#FEFEFE" d="M65.491,49.551c0.666,1.205,2.099,2.144,1.301,3.91c-1.023-1.111-2.495-2.022-1.227-3.857
			C65.554,49.592,65.491,49.551,65.491,49.551z"/>
		<path d="M95.074,78.938c-3.95-0.058-1.574-2.344-1.821-4.418c2.451,1.404,1.517,3.148,1.679,4.559
			C94.932,79.08,95.074,78.938,95.074,78.938z"/>
		<path d="M115.326,41.337c-0.952-3.093-0.027-5.989,1.074-9.078c2.727,3.509,1.328,6.287-1.219,8.93
			C115.192,41.199,115.326,41.337,115.326,41.337z"/>
	</g>
</g>
</svg>
