<?xml version="1.0" encoding="utf-8"?>
<!-- Generator: Adobe Illustrator 17.0.0, SVG Export Plug-In . SVG Version: 6.00 Build 0)  -->
<!DOCTYPE svg PUBLIC "-//W3C//DTD SVG 1.1//EN" "http://www.w3.org/Graphics/SVG/1.1/DTD/svg11.dtd">
<svg version="1.1" id="Warstwa_1" xmlns="http://www.w3.org/2000/svg" xmlns:xlink="http://www.w3.org/1999/xlink" x="0px" y="0px"
	 width="850.886px" height="850.886px" viewBox="0 0 850.886 850.886" enable-background="new 0 0 850.886 850.886"
	 xml:space="preserve">
<g>
	<g>
		<path fill="#D5312D" d="M425.647,850.844c-141.057,0-282.114-0.004-423.171,0.042c-1.688,0.001-2.068-0.38-2.068-2.068
			c0.044-282.114,0.044-564.228,0-846.342c0-1.688,0.38-2.068,2.068-2.068c282.114,0.044,564.228,0.044,846.342,0
			c1.688,0,2.068,0.38,2.068,2.068c-0.044,282.114-0.044,564.228,0,846.342c0,1.688-0.38,2.068-2.068,2.068
			C707.761,850.84,566.704,850.844,425.647,850.844z M251.963,604.869c1.926,1.103,3.736,1.965,5.605,2.796
			c13.288,5.904,25.457,13.646,36.558,23.029c13.982,11.817,25.999,25.406,36.21,40.593c0.758,1.128,1.77,1.851,3.083,1.854
			c6.809,0.015,13.621,0.315,20.425-0.098c4.773-0.29,9.587-0.396,14.295-1.139c5.312-0.839,10.588-2.087,15.752-3.595
			c2.057-0.601,4.245-1.031,6.187-2.024c3.913-1.999,8.015-3.617,11.794-5.885c9.025-5.417,16.431-12.458,21.655-21.664
			c5.373-9.471,7.629-19.779,8.051-30.557c0.406-10.365-1.053-20.431-6.222-29.538c-6.781-11.946-16.96-20.191-29.588-25.414
			c-12.784-5.287-26.322-8.06-39.606-11.675c-8.375-2.279-16.97-3.822-25.011-7.225c-2.981-1.261-5.852-2.809-6.684-6.395
			c-1.395-6.015,1.378-10.756,7.3-12.482c5.445-1.586,11.004-1.538,16.515-0.72c8.386,1.245,14.41,5.113,15.947,14.764
			c0.188,1.183,0.667,1.75,2.046,1.747c19.583-0.043,39.166-0.029,58.748,0.005c1.159,0.002,1.656-0.297,1.471-1.522
			c-0.257-1.703-0.391-3.424-0.639-5.128c-3.354-23.003-15.539-39.465-36.647-49.224c-11.927-5.514-24.659-7.723-37.649-8.495
			c-16.974-1.01-33.666,0.786-49.924,5.916c-2.235,0.705-4.23,1.956-6.603,2.56c-1.747,0.445-3.574,1.95-5.245,3.216
			c-3.171,2.403-6.714,4.226-9.781,6.882c-4.232,3.665-7.724,7.859-10.886,12.397c-1.181,1.695-2.561,3.476-3.176,5.287
			c-1.949,5.743-4.664,11.204-5.154,17.508c-0.53,6.815-0.662,13.613,0.167,20.314c0.465,3.758,1.583,7.587,3.186,11.237
			c1.975,4.498,4.207,8.734,7.307,12.546c3.576,4.397,7.589,8.277,12.159,11.659c2.629,1.946,5.613,2.986,8.453,4.417
			c5.446,2.744,11.256,4.582,17.014,6.339c4.571,1.394,9.088,3.045,13.81,4.097c6.553,1.461,12.907,3.799,19.507,5.184
			c5.627,1.182,11.038,3.136,16.494,4.9c3.283,1.062,6.396,2.132,7.859,6.124c1.515,4.134,1.435,7.665-1.569,10.883
			c-1.794,1.922-4.111,2.873-6.455,3.692c-6.021,2.103-12.29,1.917-18.486,1.309c-5.573-0.547-10.973-1.977-14.74-6.648
			c-2.417-2.997-3.902-6.481-4.63-10.264c-0.268-1.391-0.734-2.257-2.444-2.251c-21.382,0.073-42.765,0.08-64.147,0.123
			C253.579,604.306,252.792,604.024,251.963,604.869z M397.544,668.087c1.242,0,1.839,0,2.435,0c21.078,0.002,42.157,0.025,63.235,0
			c13.801-0.017,27.599-0.148,41.346-1.59c1.028-0.108,2.051,0.389,3.085-0.029c2.688-1.085,5.612-1.013,8.406-1.624
			c3.048-0.667,6.037-1.573,9.071-2.275c3.453-0.799,6.637-2.587,9.831-4.209c11.198-5.687,20.724-13.366,28.283-23.435
			c11.108-14.798,16.109-31.826,17.797-49.927c1.483-15.899,0.885-31.76-2.536-47.428c-3.046-13.951-8.423-26.827-17.765-37.816
			c-8.256-9.711-18.271-16.942-30.25-21.447c-10.738-4.038-21.942-5.496-33.276-5.951c-24.442-0.982-48.902-0.319-73.353-0.472
			c-8.101-0.051-16.203-0.034-24.304-0.013c-0.665,0.002-1.652-0.372-1.861,0.715c-0.195,1.013-0.388,2.115,0.703,2.838
			c0.306,0.203,0.66,0.332,0.973,0.525c11.533,7.104,20.153,16.751,25.549,29.224c3.706,8.566,5.379,17.581,6.002,26.837
			c0.227,3.368,0.25,3.367-3.18,3.366c-9.302-0.005-18.604,0.039-27.904-0.058c-1.826-0.019-2.325,0.598-2.273,2.301
			c0.102,3.297,0.103,6.6,0.035,9.899c-0.027,1.299,0.346,2.088,1.599,2.592c8.342,3.356,15.358,8.677,21.599,15.022
			c6.147,6.25,10.536,13.63,12.704,22.149c3.799,14.925,3.175,29.757-1.954,44.266c-5.19,14.683-15.017,25.556-28.564,33.065
			C401.26,665.564,399.577,666.475,397.544,668.087z M528.464,471.878c-0.062,0.13-0.123,0.26-0.184,0.39
			c2.963,1.357,5.947,2.668,8.884,4.078c19.332,9.282,32.701,24.078,40.498,43.976c3.934,10.039,6.219,20.472,7.287,31.192
			c1.768,17.736,1.398,35.358-2.973,52.73c-3.558,14.141-9.662,27.027-19.32,38.103c-7.798,8.943-17.141,15.822-27.891,20.757
			c-2.055,0.943-1.699,2.386-1.609,3.896c0.106,1.765,1.557,1.067,2.427,1.069c20.18,0.045,40.36,0.027,60.54,0.069
			c1.584,0.003,2.494-0.241,2.485-2.125c-0.085-17.925-0.117-35.851-0.153-53.776c-0.007-3.54-0.28-2.974,2.942-3.056
			c15.985-0.409,32.012,1.013,47.954-1.011c3.487-0.443,6.991-0.863,10.414-1.843c5.699-1.631,11.304-3.436,16.598-6.164
			c13.473-6.942,22.838-17.527,27.905-31.765c4.826-13.559,5.395-27.542,3.373-41.694c-2.483-17.386-10.793-31.204-25.301-41.202
			c-11.715-8.073-25.109-10.933-38.924-12.395c-13.679-1.447-27.414-1.227-41.14-1.228
			C577.674,471.876,553.069,471.878,528.464,471.878z M667.202,471.74c-0.042,0.126-0.084,0.253-0.127,0.379
			c0.901,0.573,1.739,1.303,2.713,1.694c4.384,1.758,8.742,3.527,12.768,6.066c16.189,10.206,25.886,24.731,29.254,43.543
			c2.113,11.798,1.982,23.597-0.182,35.344c-1.839,9.983-5.557,19.242-11.643,27.461c-8.477,11.448-19.965,18.513-33.33,22.796
			c-1.351,0.433-1.921,0.966-1.903,2.459c0.092,7.426,0.083,14.853,0.085,22.279c0.002,10.803,0.027,21.607-0.071,32.41
			c-0.018,1.925,0.615,2.473,2.436,2.331c1.886-0.147,3.791-0.052,5.688-0.052c43.665-0.001,87.33-0.004,130.994,0.009
			c2.018,0.001,4.036,0.125,6.052,0.22c4.119,0.193,4.089,0.196,4.084-4.069c-0.018-16.353-0.041-32.706,0.029-49.058
			c0.008-1.869-0.512-2.39-2.375-2.385c-26.109,0.068-52.218,0.063-78.326,0.073c-3.04,0.001-3.042-0.008-3.042-3.012
			c0.01-45.39,0.01-90.781,0.068-136.171c0.002-1.882-0.549-2.389-2.409-2.377c-12.604,0.084-25.208,0.054-37.812,0.059
			C682.502,471.743,674.852,471.74,667.202,471.74z M140.497,425.577c-1.622,6.032-2.214,11.871-3.2,17.635
			c-1.362,7.962-2.651,15.937-3.896,23.918c-1.125,7.211-2.494,14.408-3.114,21.665c-0.554,6.484-1.077,12.986-1.389,19.502
			c-0.738,15.397-0.788,30.718,3.842,45.611c3.214,10.338,8.118,19.651,16.926,26.563c4.623,3.628,9.499,6.985,14.807,9.15
			c6.053,2.468,12.414,4.528,19.262,4.328c5.315-0.154,10.697,0.026,15.724-1.718c6.705-2.326,13.078-5.464,18.239-10.56
			c2.435-2.404,4.992-4.712,7.199-7.313c3.087-3.637,4.89-8.045,6.629-12.44c3.307-8.361,3.998-17.008,2.434-25.81
			c-1.062-5.976-3.134-11.607-6.202-16.899c-2.287-3.944-4.931-7.562-8.05-10.876c-5.541-5.886-11.825-10.946-17.881-16.262
			c-5.387-4.729-11.002-9.191-16.246-14.09c-3.468-3.24-7.161-6.238-10.635-9.47c-3.544-3.297-6.931-6.762-10.408-10.132
			c-6.494-6.293-12.195-13.261-17.337-20.676C144.628,433.994,142.563,429.956,140.497,425.577z M187.903,596.764
			c-1.109,0.107-2.27,0.039-3.318,0.351c-7.502,2.235-14.992,1.588-22.368-0.352c-7.931-2.086-15.099-5.692-21.661-10.807
			c-6.598-5.143-11.598-11.32-14.903-18.89c-1.349-3.091-2.591-6.224-3.552-9.522c-1.877-6.44-3.173-12.962-3.51-19.586
			c-0.718-14.091-0.443-28.187,1.404-42.205c0.242-1.834-0.289-2.327-2.064-2.431c-17.196-1.013-34.311,0.529-51.439,1.575
			c-3.506,0.214-6.991,0.786-10.483,1.207c-0.514,0.062-1.153,0.132-1.295,0.704c-0.166,0.672,0.562,0.832,0.969,1.057
			c2.033,1.12,3.775,2.627,5.621,4.006c4.44,3.315,8.132,7.386,11.51,11.684c2.97,3.779,5.596,7.842,8.255,11.872
			c3.868,5.861,6.854,12.161,10.252,18.253c1.741,3.121,3.163,6.404,4.682,9.639c2.102,4.477,4.121,8.968,5.889,13.594
			c1.332,3.486,3.236,6.75,4.826,10.141c0.916,1.954,2.167,3.779,2.942,5.74c1.986,5.025,5.292,9.229,8.96,12.837
			c3.466,3.41,7.191,6.88,12.032,8.695c3.833,1.437,7.503,3.6,11.518,4.217c12.246,1.881,24.193,0.743,35.467-4.857
			C181.372,601.831,184.907,599.666,187.903,596.764z M190.537,648.038c0.933,0.815,1.206,1.999,1.924,2.888
			c3.877,4.797,7.764,9.586,11.672,14.358c1.607,1.962,3.308,3.865,4.952,5.776c3.041,3.535,6.896,6.355,10.113,9.756
			c3.394,3.588,7.345,6.638,11.267,9.361c3.275,2.274,6.779,4.628,10.602,6.362c3.629,1.646,7.363,3.289,11.09,4.072
			c6.934,1.455,14.048,1.36,20.815-1.666c7.042-3.149,13.048-7.512,16.761-14.408c5.241-9.733,4.41-19.367-1.2-28.67
			c-4.149-6.881-10.366-11.487-17.898-13.695c-7.085-2.077-14.526-1.199-21.46,1.013c-5.481,1.748-11.082,2.917-16.593,4.465
			c-5.069,1.424-10.274,2.46-15.529,3.085c-7.11,0.845-14.198,1.291-21.134-1.159C194.191,648.965,192.529,648.103,190.537,648.038z
			 M323.005,746.049c0.071-0.967,0.171-1.686,0.171-2.405c0.005-24.001-0.005-48.002,0.014-72.002
			c0.001-1.261-0.324-2.292-1.083-3.317c-4.501-6.077-9.17-12.026-14.304-17.572c-8.251-8.914-17.31-16.92-27.258-23.934
			c-10.623-7.491-22.017-13.523-34.206-17.92c-7.203-2.599-14.659-4.484-22.266-5.73c-8.163-1.337-16.344-1.989-24.604-1.633
			c-0.98,0.042-2.015,0.039-2.887,0.696c3.588,2.157,7.366,3.4,10.856,5.391c4.701,2.682,9.226,5.612,13.753,8.541
			c4.291,2.777,7.933,6.403,11.876,9.633c3.257,2.667,6.463,5.372,9.204,8.517c2.679,3.073,2.869,3.306,6.742,2.274
			c2.303-0.614,4.633-1.215,7.042-1.318c7.059-0.301,13.917,0.032,20.616,3.012c4.489,1.996,8.474,4.597,12.047,7.732
			c3.69,3.237,6.497,7.259,8.27,12.031c1.456,3.919,3.097,7.725,3.184,11.969c0.215,10.52-4.402,18.772-12.129,25.513
			c-0.521,0.454-1.104,0.989-0.504,1.348c1.544,0.925,1.741,2.723,2.889,3.881c4.696,4.738,7.782,10.707,12.038,15.8
			c5.015,6,8.553,13.06,13.44,19.183C318.439,738.909,320.536,742.43,323.005,746.049z M478.3,747.875
			c-0.149-0.267-0.297-0.533-0.445-0.8c-2.197,0.156-4.558-0.666-6.55,0.475c-1.957,1.12-3.704,2.924-5.04,4.575
			c-2.045,2.528-4.53,4.602-6.531,7.131c-0.389,0.492-0.799,1.316-1.555,1.065c-0.828-0.276-0.435-1.169-0.442-1.781
			c-0.04-3.074-0.178-6.16,0.035-9.219c0.163-2.341-1.114-2.344-2.733-2.254c-1.487,0.083-3.078-0.476-3.033,2.196
			c0.156,9.221,0.138,18.447,0.006,27.668c-0.031,2.169,0.689,2.626,2.657,2.533c3.575-0.169,3.005,0.283,3.058-3.196
			c0.018-1.2,0.17-2.428-0.028-3.594c-0.643-3.792,0.851-6.497,4.143-8.453c3.166,4.521,6.391,9.115,9.6,13.72
			c0.618,0.888,1.229,1.569,2.499,1.525c2.842-0.1,5.69-0.094,8.533-0.019c1.103,0.029,1.622-0.383,1.936-1.385
			c0.582-1.856,1.283-3.674,1.868-5.529c0.319-1.012,0.889-1.395,1.964-1.37c2.848,0.065,5.699,0.054,8.548,0.012
			c1.152-0.017,1.782,0.046,2.381,1.454c0.72,1.693,1.391,3.408,1.974,5.147c0.381,1.137,0.876,1.832,2.203,1.665
			c0.738-0.093,1.501-0.059,2.247,0.001c1.616,0.128,2.095-0.219,1.434-1.99c-3.32-8.896-6.493-17.847-9.727-26.775
			c-1.264-3.491-2.981-4.385-6.691-3.585c-0.678,0.146-0.996,0.514-1.248,1.118c-2.02,4.842-3.691,9.825-5.555,14.721
			c-1.489,3.91-2.899,7.916-4.164,11.94c-0.317,1.009-0.515,2.108-1.401,3.073c-2.72-3.872-5.414-7.554-7.911-11.365
			c-0.654-0.998-1.228-1.946-2.079-2.843c-2.781-2.928-2.846-3.784-0.45-5.626c1.8-1.384,2.957-3.3,4.614-4.778
			C474.411,751.548,476.342,749.696,478.3,747.875z M574.913,706.568c0.193-0.018,0.385-0.037,0.578-0.055
			c0.465,1.903,0.769,3.95,1.475,5.669c1.861,4.528,2.791,9.3,4.303,13.908c1.29,3.933,1.224,3.986,5.375,3.729
			c0.904-0.056,1.326-0.369,1.602-1.186c0.755-2.231,1.715-4.509,2.177-6.701c1.029-4.878,2.968-9.455,4.07-14.283
			c0.086-0.376-0.088-1.13,0.869-1.096c0.031,0.664,0.089,1.324,0.09,1.984c0.006,6.001-0.03,12.002,0.014,18.003
			c0.027,3.616-0.781,3.201,3.378,3.251c0.15,0.002,0.302-0.018,0.45-0.001c1.156,0.137,1.578-0.352,1.575-1.527
			c-0.031-9.751-0.026-19.503-0.005-29.254c0.002-1.104-0.311-1.664-1.536-1.611c-1.722,0.075-3.45,0.019-5.175,0.017
			c-1.192-0.002-1.987,0.377-1.991,1.774c-0.001,0.577-0.246,1.162-0.426,1.728c-1.941,6.11-3.446,12.355-5.697,18.374
			c-0.227,0.608-0.035,1.378-0.896,1.423c-0.824,0.043-0.756-0.748-0.921-1.302c-1.6-5.371-3.258-10.725-4.808-16.111
			c-1.738-6.04-1.696-6.052-7.985-5.887c-0.15,0.004-0.3,0.008-0.45,0.004c-1.192-0.032-1.584,0.445-1.54,1.718
			c0.152,4.446,0.172,8.898,0.196,13.347c0.027,5.176,0.045,10.352-0.024,15.527c-0.018,1.346,0.341,1.972,1.751,1.793
			c0.517-0.065,1.057-0.065,1.572,0.006c1.554,0.215,2.041-0.368,2.014-1.971c-0.098-5.774-0.037-11.551-0.037-17.327
			C574.913,709.196,574.913,707.882,574.913,706.568z M636.619,715.243c0.272-8.228-1.766-13.103-6.691-16.286
			c-6.185-3.997-15.571-3.333-21.171,3.455c-0.909,1.102-1.94,2.413-2.124,3.737c-0.393,2.83-0.82,5.662-0.928,8.569
			c-0.141,3.793,1.095,7.027,2.911,9.845c4.262,6.615,15.517,8.202,21.815,3.452C634.788,724.73,636.591,720.196,636.619,715.243z
			 M395.056,764.47c-0.031-5.267-0.742-9.133-3.203-12.471c-4.652-6.312-12.214-6.479-18.08-4.8c-1.6,0.458-3.489,1.05-4.499,2.223
			c-4.182,4.856-5.857,10.593-4.911,17c0.466,3.155,1.004,6.409,3.26,8.78c4.34,4.559,9.754,6.161,15.929,4.754
			c3.339-0.761,6.186-2.351,8.259-5.24C394.292,771.257,395.044,767.371,395.056,764.47z M380.608,730.613
			c1.928-0.195,3.902,0.133,5.797-0.929c2.647-1.482,5.534-2.997,6.788-5.643c2.405-5.076,3.058-10.551,1.624-16.169
			c-2.613-10.238-15.057-14.799-23.636-8.717c-3.84,2.723-5.647,6.432-6.297,10.903c-0.744,5.123-0.322,10.211,2.576,14.504
			C370.472,729.019,375.002,731.236,380.608,730.613z M691.972,714.037c4.172-3.322,4.585-6.813,3.377-10.977
			c-1.058-3.649-4.171-5.489-9.052-5.597c-4.433-0.098-8.872,0.027-13.304-0.086c-1.576-0.04-1.826,0.582-1.818,1.961
			c0.051,9.002,0.026,18.004,0.025,27.006c0,3.509,0.002,3.416,3.625,3.489c1.639,0.033,2.01-0.544,1.962-2.055
			c-0.1-3.148,0.003-6.301-0.042-9.451c-0.017-1.195,0.302-1.793,1.643-1.742c2.322,0.089,4.653-0.031,6.975,0.062
			c2.701,0.107,3.733,1.125,3.982,3.831c0.2,2.165,0.272,4.341,0.464,6.507c0.073,0.815,0.264,1.634,0.521,2.411
			c0.129,0.39,5.506,0.685,5.909,0.282c1.082-1.082-0.625-1.562-0.608-2.451c0.012-0.596-0.105-1.193-0.145-1.791
			c-0.131-1.946-0.261-3.891-0.375-5.838C694.976,717.312,694.179,715.386,691.972,714.037z M509.498,713.772
			c-0.004,0-0.008,0-0.013,0c0,4.722,0.047,9.444-0.028,14.164c-0.023,1.468,0.454,1.929,1.918,1.884
			c4.042-0.124,8.089-0.1,12.133-0.15c3.766-0.046,6.671-1.823,9.059-4.584c3.849-4.45,4.046-9.806,3.29-15.168
			c-1.252-8.886-5.64-12.47-14.642-12.499c-3.148-0.01-6.299,0.086-9.442-0.041c-1.732-0.07-2.362,0.407-2.316,2.231
			C509.576,704.326,509.498,709.05,509.498,713.772z M347.282,730.599c3.297,0.238,6.225-0.449,9.044-1.868
			c5.689-2.865,6.475-12.147,0.911-15.38c-3.47-2.016-7.379-2.689-11.145-3.76c-2.256-0.642-4.161-2.501-3.901-4.483
			c0.285-2.176,2-3.428,4.508-3.313c0.598,0.027,1.205,0.051,1.797-0.02c1.926-0.232,5.035,0.957,5.466,2.707
			c0.569,2.31,1.403,3.053,3.879,2.823c2.134-0.198,2.431-0.03,2.077-2.183c-0.857-5.208-4.967-8.457-11.136-8.496
			c-4.249-0.027-8.192,0.897-10.929,4.669c-2.372,3.27-1.544,9.379,1.433,11.238c2.083,1.3,4.284,2.365,6.736,2.858
			c2.231,0.449,4.343,1.29,6.419,2.212c1.509,0.671,2.29,2.081,2.26,3.487c-0.031,1.452-0.368,3.008-2.124,3.871
			c-4.498,2.211-9.904,0.123-11.374-4.636c-0.282-0.912-0.714-1.25-1.575-1.17c-1.464,0.136-3.009-0.426-4.375,0.499
			c-0.072,0.048-0.078,0.299-0.024,0.412c0.743,1.562,0.701,3.356,1.624,4.892C339.27,728.989,342.843,730.721,347.282,730.599z
			 M552.839,729.791c3.075,0,6.15,0,9.225,0c2.882,0,2.757-0.006,2.899-2.917c0.091-1.854-0.607-2.243-2.292-2.209
			c-4.648,0.094-9.301-0.025-13.949,0.065c-1.5,0.029-2.019-0.5-1.974-1.929c0.061-1.944,0.095-3.894,0.005-5.835
			c-0.06-1.298,0.41-1.66,1.671-1.64c4.199,0.068,8.403-0.074,12.598,0.071c1.876,0.065,2.108-0.776,2.009-2.274
			c-0.094-1.412,0.247-2.797-2.107-2.68c-4.115,0.204-8.247,0.07-12.372,0.039c-0.608-0.005-1.584,0.297-1.671-0.641
			c-0.193-2.08-0.326-4.191,0.079-6.261c0.188-0.959,1.006-1.105,1.915-1.097c4.05,0.035,8.101-0.028,12.15,0.028
			c3.384,0.047,3.315,0.099,3.307-3.341c-0.003-1.406-0.498-1.787-1.837-1.777c-6.525,0.05-13.05,0.042-19.575-0.004
			c-1.271-0.009-1.851,0.221-1.84,1.714c0.07,9.675,0.071,19.35-0.001,29.025c-0.011,1.52,0.616,1.704,1.859,1.682
			C546.238,729.755,549.539,729.792,552.839,729.791z M434.903,780.244c1.726,0.116,3.865-0.253,5.902-1.066
			c6.59-2.628,8.198-10.311,4.084-14.944c-1.488-1.676-3.567-2.228-5.587-2.911c-2.889-0.977-5.953-1.409-8.724-2.739
			c-1.432-0.688-2.428-1.778-2.391-3.494c0.035-1.597,0.952-2.648,2.302-3.327c3.585-1.803,9.655-0.456,10.161,3.968
			c0.105,0.918,0.523,1.093,1.304,1.061c0.973-0.039,1.952-0.057,2.923-0.001c0.954,0.055,1.362-0.252,1.266-1.269
			c-0.286-3.009-1.647-5.392-3.998-7.262c-2.118-1.685-4.632-2.032-7.164-1.898c-3.131,0.166-6.286,0.005-9.059,2.268
			c-4.983,4.067-4.144,12.268,1.382,14.763c3.021,1.364,6.249,1.855,9.327,2.927c1.613,0.562,4.307,3.051,4.319,4.64
			c0.012,1.678-1.066,2.923-2.45,3.642c-3.669,1.906-8.432,0.57-10.367-3.041c-1.011-1.887-1.899-3.037-4.367-2.821
			c-1.928,0.169-2.308,0.777-1.925,2.404c0.12,0.509,0.224,1.027,0.399,1.518C424.051,777.768,428.03,780.238,434.903,780.244z
			 M647.362,711.469c0-3.707,0-6.968,0-10.23c0-3.56-0.039-3.328-3.497-3.908c-2.176-0.365-2.207,0.457-2.197,2.09
			c0.051,8.695,0.074,17.391,0.008,26.086c-0.04,5.272-0.519,4.107,4.297,4.297c1.091,0.043,1.422-0.386,1.403-1.436
			c-0.049-2.773-0.015-5.547-0.007-8.32c0.004-1.311,2.451-4.806,3.609-5.268c0.619-0.247,0.802,0.206,1.032,0.537
			c2.963,4.26,6.015,8.465,8.786,12.846c0.624,0.987,1.121,1.572,2.181,1.601c1.847,0.049,3.695,0.014,5.889,0.014
			c-0.726-1.09-1.233-1.891-1.778-2.665c-3.579-5.076-7.136-10.169-10.775-15.202c-0.768-1.062-0.777-1.732,0.211-2.625
			c1.877-1.695,3.688-3.47,5.457-5.278c1.985-2.028,4.144-3.906,6.011-6.514c-3.899-0.047-7.462-0.871-10.004,3.132
			c-1.624,2.556-4.75,3.937-6.479,6.569C650.489,708.747,649.118,709.933,647.362,711.469z M734.976,713.669
			c0.108-1.343,0.113-2.703,0.34-4.026c1.092-6.344,7.031-9.666,12.94-7.222c1.938,0.801,3.512,2.075,3.57,4.409
			c0.037,1.518,1.177,0.999,1.767,0.909c1.366-0.208,2.93,0.808,4.094-0.603c0.071-0.086,0.009-0.293-0.011-0.441
			c-0.422-3.09-1.728-6.086-4.22-7.606c-5.258-3.208-10.991-3.746-16.665-0.664c-1.022,0.555-2.12,0.896-2.962,1.892
			c-5.217,6.17-5.726,13.266-3.478,20.497c2.981,9.585,11.076,11.553,19.56,8.795c4.588-1.492,7.13-5.163,7.85-9.978
			c0.073-0.49,0.337-1.34-0.199-1.417c-1.464-0.21-2.971-0.217-4.456-0.159c-1.108,0.043-0.767,1.096-0.937,1.747
			c-1.399,5.348-9.382,7.771-13.308,3.954C736.056,721.027,734.813,717.605,734.976,713.669z M399.156,713.561
			c0.054,1.123,0.054,2.253,0.171,3.369c0.484,4.593,2.162,8.638,6.118,11.258c4.897,3.242,10.191,3.491,15.441,0.952
			c4.072-1.969,6.341-5.4,6.846-9.949c0.097-0.875-0.186-1.348-1.07-1.181c-1.568,0.297-3.315-0.736-4.727,0.64
			c-0.026,0.025,0.056,0.139,0.051,0.209c-0.241,3.319-2.398,5.787-5.572,6.38c-5.527,1.032-9.561-1.45-10.862-6.997
			c-1.225-5.223-1.366-10.399,3.113-14.385c4.511-4.014,10.818-2.605,13.265,2.884c0.382,0.856,0.884,1.162,1.706,1.041
			c1.34-0.198,2.837,0.564,4.002-0.573c0.227-0.222,0.275-0.647,0.076-1.179c-2.391-6.379-6.03-9.176-12.673-9.41
			c-4.701-0.165-8.966,1.157-12.247,4.625c-0.954,1.009-2.297,2.34-2.441,3.49C399.987,707.676,398.716,710.518,399.156,713.561z
			 M482.151,729.768c-1.503-4.049-2.933-7.846-4.323-11.657c-2.342-6.417-4.657-12.844-6.987-19.265
			c-0.402-1.109-6.14-2.213-6.923-1.329c-0.086,0.097-0.062,0.287-0.105,0.429c-1.1,3.617-2.848,7.019-3.929,10.606
			c-1.808,5.998-4.381,11.704-6.233,17.678c-1.121,3.616-1.285,3.474,2.458,3.599c1.724,0.058,2.628-0.273,2.924-2.183
			c0.259-1.668,1.11-3.236,1.601-4.877c0.288-0.961,0.797-1.248,1.781-1.224c2.845,0.068,5.693,0.041,8.539,0.02
			c1.325-0.01,2.117,0.555,2.745,1.766c0.863,1.666,1.314,3.467,2.007,5.184c0.266,0.66,0.377,1.272,1.273,1.26
			C478.674,729.751,480.369,729.768,482.151,729.768z M812.163,729.784c-1.471-4.064-2.889-7.831-4.199-11.635
			c-1.943-5.641-4.348-11.115-5.901-16.901c-0.964-3.593-1.508-3.656-5.279-3.899c-2.076-0.134-3.114,0.7-3.516,2.438
			c-0.256,1.104-1.035,1.981-1.212,2.997c-0.838,4.827-3.622,8.934-4.826,13.65c-1.036,4.057-2.808,7.927-4.26,11.878
			c-0.356,0.968-0.277,1.591,1,1.487c0.744-0.06,1.512-0.1,2.245,0.011c1.647,0.251,2.453-0.454,2.87-2.017
			c0.443-1.659,1.13-3.25,1.647-4.891c0.274-0.87,0.614-1.381,1.687-1.354c3.411,0.085,6.825,0.055,10.238,0.057
			c0.502,0,0.991,0.121,0.943,0.674c-0.115,1.346,0.718,2.402,1.199,3.474c0.62,1.378,0.145,3.633,2.282,3.981
			C808.663,729.991,810.321,729.784,812.163,729.784z M712.821,697.475c-1.167,0.368-2.942-0.957-3.647,1.255
			c-1.015,3.182-2.159,6.324-3.295,9.465c-2.445,6.76-4.904,13.516-7.401,20.257c-0.363,0.979-0.244,1.268,0.854,1.357
			c4.29,0.35,4.366,0.338,5.844-3.744c0.356-0.984,0.861-1.944,1.026-2.96c0.228-1.393,1.005-1.587,2.204-1.554
			c2.395,0.066,4.795-0.033,7.19,0.021c2.185,0.049,4.076,0.543,4.45,3.223c0.132,0.946,0.506,1.888,0.926,2.756
			c0.366,0.757,0.235,2.044,1.265,2.158c1.622,0.179,3.289,0.094,4.921-0.057c0.613-0.057,0.239-0.712,0.118-1.104
			c-1.384-4.48-2.992-8.912-4.625-13.276c-1.849-4.94-3.728-9.891-5.545-14.852C716.331,698.306,715.583,696.627,712.821,697.475z
			 M337.081,763.29c0,4.648,0.086,9.298-0.043,13.943c-0.051,1.815,0.532,2.459,2.274,2.194c0.439-0.067,0.906-0.061,1.346,0.004
			c1.562,0.232,2.09-0.376,2.028-1.97c-0.117-2.994,0.019-5.997-0.056-8.994c-0.032-1.28,0.409-1.708,1.674-1.688
			c2.697,0.043,5.403,0.073,8.093-0.094c4.824-0.3,6.703-2.35,7.983-6.434c0.769-2.454,0.548-5.043-0.297-7.53
			c-1.07-3.151-3.527-5.235-6.501-5.547c-4.787-0.502-9.669-0.06-14.51-0.124c-1.572-0.021-2.054,0.517-2.026,2.071
			C337.133,753.843,337.078,758.567,337.081,763.29z M484.939,713.43c0,4.872,0.048,9.744-0.03,14.614
			c-0.022,1.395,0.424,1.79,1.786,1.774c5.47-0.065,10.942,0.007,16.413-0.042c3.596-0.032,3.178,0.781,3.298-3.38
			c0.04-1.375-0.369-1.81-1.773-1.778c-3.97,0.091-7.946-0.044-11.915,0.062c-1.666,0.044-2.182-0.439-2.157-2.148
			c0.101-6.894,0.067-13.79,0.036-20.685c-0.006-1.4,0.543-3.064-0.363-4.128c-0.724-0.851-2.373,0.063-3.428-0.368
			c-2.08-0.849-1.856,0.486-1.859,1.689C484.935,703.837,484.941,708.633,484.939,713.43z M449.766,710.709c0.009,0,0.018,0,0.026,0
			c0-3.825,0.014-7.649-0.014-11.473c-0.004-0.616,0.318-1.603-0.569-1.709c-1.476-0.177-3.089-0.372-4.455,0.05
			c-1.123,0.347-0.483,1.856-0.497,2.827c-0.097,7.121-0.013,14.246-0.219,21.363c-0.084,2.924-1.59,4.06-4.313,4.005
			c-2.507-0.05-3.779-1.347-4.044-4.153c-0.049-0.521-0.07-1.052-0.028-1.572c0.089-1.106-0.256-1.71-1.497-1.607
			c-0.894,0.074-1.799,0.009-2.698,0.013c-0.544,0.002-1.113,0.044-1.153,0.754c-0.163,2.87-0.078,5.843,1.481,8.248
			c1.798,2.773,9.481,4.378,12.416,2.942c3.487-1.706,5.583-4.384,5.567-8.439C449.754,718.208,449.766,714.459,449.766,710.709z
			 M779.94,710.569c0-3.22,0.006-6.44-0.002-9.659c-0.01-4.14,0.181-3.31-3.48-3.532c-1.864-0.113-2.233,0.612-2.211,2.301
			c0.082,6.513,0.034,13.028,0.031,19.543c0,1.273-0.059,2.531-0.338,3.79c-0.38,1.715-1.423,2.523-3.114,2.688
			c-3.365,0.329-5.138-1.132-4.997-4.645c0.09-2.239-0.632-2.963-2.742-2.622c-0.584,0.094-1.196,0.019-1.794,0.027
			c-0.484,0.007-0.779,0.162-0.949,0.708c-1.323,4.224,1.422,9.948,5.698,10.923c7.995,1.823,14.138-0.024,13.909-10.086
			C779.88,716.86,779.94,713.713,779.94,710.569z M400.158,763.298c0,4.718,0.061,9.437-0.034,14.153
			c-0.032,1.572,0.431,2.036,2.011,2.008c5.39-0.093,10.783-0.016,16.175-0.039c3.735-0.016,2.93,0.307,3.17-3.079
			c0.124-1.755-0.545-2.134-2.179-2.081c-3.665,0.118-7.343-0.086-11.005,0.076c-2.064,0.092-2.662-0.521-2.625-2.606
			c0.13-7.486,0.019-14.977,0.092-22.465c0.016-1.603-0.374-2.436-2.109-2.192c-0.367,0.052-0.754,0.044-1.121-0.008
			c-1.795-0.253-2.484,0.343-2.419,2.305C400.266,754.009,400.162,758.655,400.158,763.298z"/>
		<path fill="#FEFDFD" d="M251.963,604.869c0.829-0.845,1.616-0.563,2.311-0.564c21.382-0.043,42.765-0.049,64.147-0.123
			c1.709-0.006,2.176,0.86,2.444,2.251c0.728,3.784,2.213,7.267,4.63,10.264c3.767,4.671,9.168,6.1,14.74,6.648
			c6.196,0.609,12.465,0.794,18.486-1.309c2.344-0.819,4.66-1.77,6.455-3.692c3.004-3.218,3.084-6.749,1.569-10.883
			c-1.463-3.992-4.576-5.063-7.859-6.124c-5.456-1.764-10.866-3.719-16.494-4.9c-6.6-1.386-12.954-3.723-19.507-5.184
			c-4.721-1.053-9.238-2.703-13.81-4.097c-5.759-1.756-11.568-3.594-17.014-6.339c-2.84-1.431-5.824-2.471-8.453-4.417
			c-4.57-3.383-8.583-7.263-12.159-11.659c-3.1-3.812-5.332-8.048-7.307-12.546c-1.603-3.65-2.721-7.479-3.186-11.237
			c-0.829-6.7-0.697-13.498-0.167-20.314c0.49-6.304,3.206-11.764,5.154-17.508c0.614-1.811,1.995-3.592,3.176-5.287
			c3.162-4.538,6.654-8.732,10.886-12.397c3.067-2.656,6.611-4.479,9.781-6.882c1.67-1.266,3.497-2.771,5.245-3.216
			c2.373-0.604,4.368-1.854,6.603-2.56c16.258-5.13,32.95-6.926,49.924-5.916c12.99,0.773,25.723,2.981,37.649,8.495
			c21.108,9.759,33.293,26.221,36.647,49.224c0.249,1.704,0.382,3.426,0.639,5.128c0.185,1.224-0.312,1.524-1.471,1.522
			c-19.583-0.034-39.166-0.048-58.748-0.005c-1.379,0.003-1.858-0.564-2.046-1.747c-1.536-9.651-7.561-13.52-15.947-14.764
			c-5.511-0.818-11.069-0.867-16.515,0.72c-5.922,1.725-8.695,6.467-7.3,12.482c0.832,3.585,3.703,5.133,6.684,6.395
			c8.042,3.403,16.636,4.946,25.011,7.225c13.284,3.615,26.822,6.388,39.606,11.675c12.628,5.223,22.807,13.468,29.588,25.414
			c5.169,9.107,6.628,19.173,6.222,29.538c-0.422,10.778-2.678,21.086-8.051,30.557c-5.223,9.206-12.63,16.247-21.655,21.664
			c-3.779,2.268-7.881,3.886-11.794,5.885c-1.942,0.992-4.129,1.423-6.187,2.024c-5.164,1.508-10.44,2.756-15.752,3.595
			c-4.708,0.743-9.522,0.849-14.295,1.139c-6.804,0.413-13.617,0.114-20.425,0.098c-1.313-0.003-2.325-0.726-3.083-1.854
			c-10.211-15.188-22.228-28.776-36.21-40.593c-11.102-9.383-23.27-17.124-36.558-23.029
			C255.699,606.834,253.889,605.972,251.963,604.869z"/>
		<path fill="#FEFDFD" d="M397.544,668.087c2.033-1.612,3.715-2.522,5.436-3.476c13.547-7.509,23.374-18.382,28.564-33.065
			c5.129-14.509,5.753-29.341,1.954-44.266c-2.169-8.52-6.558-15.9-12.704-22.149c-6.241-6.346-13.258-11.666-21.599-15.022
			c-1.253-0.504-1.626-1.293-1.599-2.592c0.067-3.298,0.067-6.602-0.035-9.899c-0.053-1.703,0.447-2.321,2.273-2.301
			c9.301,0.098,18.603,0.054,27.904,0.058c3.43,0.002,3.406,0.002,3.18-3.366c-0.623-9.255-2.297-18.271-6.002-26.837
			c-5.395-12.472-14.016-22.12-25.549-29.224c-0.313-0.193-0.667-0.322-0.973-0.525c-1.091-0.724-0.898-1.825-0.703-2.838
			c0.21-1.088,1.196-0.714,1.861-0.715c8.101-0.021,16.203-0.037,24.304,0.013c24.452,0.152,48.911-0.51,73.353,0.472
			c11.335,0.455,22.539,1.913,33.276,5.951c11.979,4.505,21.994,11.736,30.25,21.447c9.342,10.989,14.719,23.865,17.765,37.816
			c3.421,15.668,4.018,31.528,2.536,47.428c-1.688,18.101-6.689,35.13-17.797,49.927c-7.559,10.07-17.085,17.748-28.283,23.435
			c-3.194,1.622-6.378,3.41-9.831,4.209c-3.035,0.702-6.023,1.608-9.071,2.275c-2.794,0.611-5.718,0.539-8.406,1.624
			c-1.034,0.417-2.057-0.079-3.085,0.029c-13.747,1.442-27.546,1.573-41.346,1.59c-21.078,0.026-42.157,0.003-63.235,0
			C399.383,668.086,398.786,668.087,397.544,668.087z M463.126,569.984c0,3.6,0,7.2,0,10.799c0,10.874-0.004,21.748,0.009,32.623
			c0.001,0.97-0.391,2.147,1.403,2.098c8.608-0.233,17.226,0.356,25.82-0.935c13.402-2.013,21.741-9.884,24.151-23.207
			c2.534-14.01,2.813-28.065-0.081-42.013c-2.86-13.786-9.873-21.594-24.568-24.037c-8.204-1.364-16.462-0.59-24.691-0.889
			c-1.744-0.063-2.088,0.5-2.081,2.139C463.152,541.036,463.125,555.51,463.126,569.984z"/>
		<path fill="#FEFDFD" d="M528.464,471.878c24.605,0,49.21-0.002,73.816,0.001c13.726,0.001,27.461-0.219,41.14,1.228
			c13.815,1.462,27.209,4.321,38.924,12.395c14.508,9.998,22.818,23.816,25.301,41.202c2.021,14.152,1.453,28.134-3.373,41.694
			c-5.067,14.237-14.432,24.823-27.905,31.765c-5.295,2.728-10.899,4.533-16.598,6.164c-3.424,0.98-6.927,1.401-10.414,1.843
			c-15.942,2.024-31.969,0.602-47.954,1.011c-3.223,0.083-2.95-0.484-2.942,3.056c0.036,17.925,0.068,35.851,0.153,53.776
			c0.009,1.884-0.901,2.128-2.485,2.125c-20.18-0.042-40.36-0.024-60.54-0.069c-0.87-0.002-2.321,0.696-2.427-1.069
			c-0.09-1.51-0.446-2.953,1.609-3.896c10.75-4.935,20.092-11.814,27.891-20.757c9.658-11.076,15.763-23.963,19.32-38.103
			c4.371-17.372,4.741-34.994,2.973-52.73c-1.069-10.72-3.354-21.153-7.287-31.192c-7.797-19.897-21.166-34.694-40.498-43.976
			c-2.937-1.41-5.922-2.721-8.884-4.078C528.341,472.138,528.403,472.008,528.464,471.878z M598.448,540.33
			c0,5.246,0.067,10.494-0.038,15.739c-0.035,1.718,0.528,2.163,2.182,2.134c5.844-0.103,11.692-0.002,17.537-0.092
			c5.168-0.08,10.347-0.166,15.438-1.233c5.443-1.141,10.205-3.239,11.87-9.204c1.274-4.564,1.195-9.205,0.151-13.791
			c-1.068-4.692-4.036-7.703-8.652-9.113c-1.795-0.548-3.596-1.011-5.461-1.257c-10.526-1.389-21.107-0.615-31.662-0.846
			c-1.367-0.03-1.377,0.719-1.373,1.7C598.456,529.687,598.446,535.008,598.448,540.33z"/>
		<path fill="#FEFDFD" d="M667.202,471.74c7.65,0,15.301,0.002,22.951,0c12.604-0.004,25.209,0.025,37.812-0.059
			c1.86-0.012,2.411,0.494,2.409,2.377c-0.059,45.39-0.058,90.781-0.068,136.171c-0.001,3.004,0.002,3.013,3.042,3.012
			c26.109-0.01,52.218-0.005,78.326-0.073c1.863-0.005,2.383,0.516,2.375,2.385c-0.07,16.352-0.046,32.705-0.029,49.058
			c0.005,4.265,0.035,4.262-4.084,4.069c-2.017-0.095-4.035-0.219-6.052-0.22c-43.665-0.013-87.33-0.01-130.994-0.009
			c-1.897,0-3.802-0.095-5.688,0.052c-1.82,0.142-2.453-0.406-2.436-2.331c0.099-10.803,0.073-21.607,0.071-32.41
			c-0.001-7.427,0.008-14.854-0.085-22.279c-0.019-1.493,0.552-2.026,1.903-2.459c13.366-4.283,24.854-11.348,33.33-22.796
			c6.085-8.219,9.803-17.478,11.643-27.461c2.164-11.747,2.295-23.546,0.182-35.344c-3.369-18.812-13.065-33.337-29.254-43.543
			c-4.026-2.538-8.384-4.307-12.768-6.066c-0.974-0.391-1.812-1.12-2.713-1.694C667.117,471.993,667.159,471.867,667.202,471.74z"/>
		<path fill="#F2AC01" d="M140.497,425.577c2.067,4.379,4.131,8.417,6.704,12.127c5.142,7.415,10.842,14.383,17.337,20.676
			c3.477,3.37,6.865,6.835,10.408,10.132c3.474,3.233,7.168,6.231,10.635,9.47c5.244,4.899,10.859,9.362,16.246,14.09
			c6.055,5.316,12.339,10.376,17.881,16.262c3.119,3.314,5.763,6.931,8.05,10.876c3.068,5.291,5.14,10.922,6.202,16.899
			c1.564,8.802,0.874,17.449-2.434,25.81c-1.738,4.394-3.542,8.803-6.629,12.44c-2.208,2.601-4.764,4.908-7.199,7.313
			c-5.161,5.096-11.534,8.235-18.239,10.56c-5.027,1.744-10.409,1.563-15.724,1.718c-6.848,0.199-13.208-1.86-19.262-4.328
			c-5.308-2.165-10.184-5.521-14.807-9.15c-8.808-6.912-13.712-16.226-16.926-26.563c-4.631-14.893-4.58-30.214-3.842-45.611
			c0.312-6.517,0.835-13.018,1.389-19.502c0.62-7.258,1.989-14.455,3.114-21.665c1.245-7.981,2.534-15.956,3.896-23.918
			C138.282,437.448,138.874,431.609,140.497,425.577z"/>
		<path fill="#F2AC01" d="M187.903,596.764c-2.996,2.903-6.531,5.067-10.263,6.921c-11.274,5.6-23.221,6.737-35.467,4.857
			c-4.015-0.617-7.685-2.779-11.518-4.217c-4.841-1.815-8.565-5.286-12.032-8.695c-3.668-3.608-6.974-7.812-8.96-12.837
			c-0.775-1.962-2.026-3.786-2.942-5.74c-1.59-3.391-3.494-6.655-4.826-10.141c-1.768-4.626-3.786-9.117-5.889-13.594
			c-1.519-3.235-2.941-6.518-4.682-9.639c-3.398-6.091-6.384-12.392-10.252-18.253c-2.659-4.029-5.285-8.093-8.255-11.872
			c-3.378-4.298-7.071-8.369-11.51-11.684c-1.846-1.379-3.589-2.885-5.621-4.006c-0.407-0.224-1.135-0.385-0.969-1.057
			c0.142-0.572,0.781-0.642,1.295-0.704c3.493-0.422,6.977-0.993,10.483-1.207c17.128-1.046,34.243-2.588,51.439-1.575
			c1.774,0.105,2.305,0.597,2.064,2.431c-1.848,14.018-2.122,28.114-1.404,42.205c0.337,6.624,1.633,13.146,3.51,19.586
			c0.961,3.298,2.203,6.431,3.552,9.522c3.305,7.569,8.305,13.747,14.903,18.89c6.562,5.115,13.73,8.721,21.661,10.807
			c7.376,1.94,14.866,2.587,22.368,0.352C185.633,596.802,186.794,596.871,187.903,596.764z"/>
		<path fill="#FEFDFD" d="M190.537,648.038c1.992,0.065,3.654,0.927,5.383,1.538c6.936,2.45,14.024,2.004,21.134,1.159
			c5.255-0.625,10.46-1.66,15.529-3.085c5.511-1.548,11.112-2.717,16.593-4.465c6.934-2.212,14.375-3.09,21.46-1.013
			c7.532,2.208,13.749,6.814,17.898,13.695c5.609,9.303,6.441,18.937,1.2,28.67c-3.713,6.896-9.719,11.259-16.761,14.408
			c-6.767,3.026-13.881,3.121-20.815,1.666c-3.727-0.782-7.461-2.426-11.09-4.072c-3.823-1.734-7.326-4.089-10.602-6.362
			c-3.922-2.722-7.873-5.773-11.267-9.361c-3.217-3.401-7.072-6.221-10.113-9.756c-1.644-1.911-3.345-3.814-4.952-5.776
			c-3.908-4.772-7.795-9.561-11.672-14.358C191.743,650.037,191.47,648.853,190.537,648.038z"/>
		<path fill="#F2AC01" d="M323.005,746.049c-2.469-3.619-4.566-7.14-7.099-10.313c-4.887-6.123-8.426-13.183-13.44-19.183
			c-4.256-5.092-7.342-11.062-12.038-15.8c-1.148-1.158-1.344-2.956-2.889-3.881c-0.6-0.359-0.017-0.894,0.504-1.348
			c7.726-6.741,12.344-14.992,12.129-25.513c-0.087-4.245-1.729-8.051-3.184-11.969c-1.773-4.773-4.58-8.794-8.27-12.031
			c-3.573-3.134-7.558-5.736-12.047-7.732c-6.699-2.979-13.558-3.312-20.616-3.012c-2.409,0.103-4.739,0.704-7.042,1.318
			c-3.872,1.033-4.063,0.8-6.742-2.274c-2.741-3.145-5.948-5.85-9.204-8.517c-3.943-3.229-7.585-6.856-11.876-9.633
			c-4.527-2.929-9.052-5.859-13.753-8.541c-3.49-1.991-7.268-3.234-10.856-5.391c0.872-0.657,1.907-0.653,2.887-0.696
			c8.26-0.356,16.441,0.297,24.604,1.633c7.607,1.246,15.063,3.131,22.266,5.73c12.189,4.397,23.583,10.429,34.206,17.92
			c9.948,7.015,19.007,15.021,27.258,23.934c5.134,5.547,9.803,11.495,14.304,17.572c0.759,1.025,1.084,2.056,1.083,3.317
			c-0.019,24.001-0.009,48.002-0.014,72.002C323.175,744.363,323.076,745.082,323.005,746.049z"/>
		<path fill="#FEFDFD" d="M478.3,747.875c-1.958,1.821-3.889,3.673-5.884,5.453c-1.656,1.478-2.813,3.394-4.614,4.778
			c-2.396,1.842-2.331,2.698,0.45,5.626c0.852,0.897,1.425,1.845,2.079,2.843c2.497,3.811,5.191,7.493,7.911,11.365
			c0.886-0.965,1.083-2.064,1.401-3.073c1.265-4.024,2.675-8.029,4.164-11.94c1.864-4.896,3.535-9.879,5.555-14.721
			c0.252-0.604,0.57-0.972,1.248-1.118c3.71-0.8,5.427,0.094,6.691,3.585c3.233,8.928,6.406,17.879,9.727,26.775
			c0.661,1.771,0.182,2.118-1.434,1.99c-0.745-0.059-1.509-0.094-2.247-0.001c-1.327,0.168-1.822-0.528-2.203-1.665
			c-0.583-1.739-1.254-3.453-1.974-5.147c-0.599-1.407-1.229-1.471-2.381-1.454c-2.849,0.042-5.7,0.053-8.548-0.012
			c-1.075-0.025-1.645,0.358-1.964,1.37c-0.585,1.855-1.286,3.673-1.868,5.529c-0.314,1.002-0.833,1.414-1.936,1.385
			c-2.843-0.075-5.692-0.081-8.533,0.019c-1.27,0.045-1.881-0.637-2.499-1.525c-3.209-4.605-6.434-9.199-9.6-13.72
			c-3.292,1.956-4.786,4.661-4.143,8.453c0.198,1.166,0.046,2.395,0.028,3.594c-0.052,3.48,0.517,3.027-3.058,3.196
			c-1.967,0.093-2.688-0.363-2.657-2.533c0.132-9.221,0.15-18.448-0.006-27.668c-0.045-2.672,1.546-2.113,3.033-2.196
			c1.619-0.09,2.896-0.087,2.733,2.254c-0.213,3.06-0.075,6.145-0.035,9.219c0.008,0.612-0.385,1.505,0.442,1.781
			c0.756,0.252,1.166-0.573,1.555-1.065c2.001-2.53,4.486-4.603,6.531-7.131c1.336-1.651,3.082-3.455,5.04-4.575
			c1.992-1.14,4.354-0.318,6.55-0.475C478.003,747.342,478.152,747.608,478.3,747.875z M492.844,753.255
			c-1.518,4.42-2.806,8.203-4.12,11.976c-0.266,0.765-0.075,1.134,0.748,1.135c2.239,0.001,4.478,0.012,6.716-0.004
			c0.62-0.004,1.035-0.314,0.807-0.986C495.693,761.529,494.366,757.69,492.844,753.255z"/>
		<path fill="#FEFDFD" d="M574.913,706.568c0,1.314,0,2.628,0,3.942c-0.001,5.776-0.061,11.553,0.037,17.327
			c0.027,1.603-0.46,2.186-2.014,1.971c-0.516-0.071-1.056-0.071-1.572-0.006c-1.41,0.179-1.769-0.447-1.751-1.793
			c0.069-5.175,0.051-10.351,0.024-15.527c-0.023-4.45-0.044-8.901-0.196-13.347c-0.043-1.272,0.348-1.75,1.54-1.718
			c0.15,0.004,0.3,0,0.45-0.004c6.289-0.165,6.247-0.153,7.985,5.887c1.549,5.385,3.208,10.74,4.808,16.111
			c0.165,0.554,0.097,1.345,0.921,1.302c0.86-0.045,0.668-0.815,0.896-1.423c2.251-6.019,3.756-12.263,5.697-18.374
			c0.18-0.567,0.424-1.151,0.426-1.728c0.004-1.397,0.799-1.775,1.991-1.774c1.725,0.002,3.453,0.058,5.175-0.017
			c1.225-0.053,1.538,0.507,1.536,1.611c-0.021,9.752-0.026,19.503,0.005,29.254c0.004,1.175-0.419,1.664-1.575,1.527
			c-0.148-0.018-0.3,0.003-0.45,0.001c-4.159-0.05-3.352,0.365-3.378-3.251c-0.044-6.001-0.008-12.002-0.014-18.003
			c-0.001-0.66-0.058-1.32-0.09-1.984c-0.957-0.034-0.783,0.72-0.869,1.096c-1.103,4.828-3.042,9.405-4.07,14.283
			c-0.462,2.192-1.423,4.47-2.177,6.701c-0.276,0.816-0.698,1.13-1.602,1.186c-4.151,0.257-4.085,0.203-5.375-3.729
			c-1.511-4.608-2.442-9.38-4.303-13.908c-0.706-1.719-1.01-3.766-1.475-5.669C575.298,706.531,575.105,706.549,574.913,706.568z"/>
		<path fill="#FEFDFD" d="M636.619,715.243c-0.028,4.953-1.831,9.486-6.188,12.772c-6.299,4.75-17.553,3.163-21.815-3.452
			c-1.816-2.818-3.052-6.052-2.911-9.845c0.108-2.906,0.534-5.738,0.928-8.569c0.184-1.324,1.216-2.635,2.124-3.737
			c5.6-6.788,14.986-7.452,21.171-3.455C634.852,702.14,636.891,707.015,636.619,715.243z M611.656,713.33
			c-0.042,3.103,0.347,5.786,1.804,8.279c1.852,3.169,4.772,4.167,8.152,4.105c3.434-0.063,6.22-1.381,7.772-4.693
			c2.047-4.367,2.05-8.867,0.624-13.338c-1.18-3.699-3.903-5.693-7.827-5.989c-3.929-0.296-7.081,0.955-9.021,4.541
			C611.918,708.532,611.576,711.046,611.656,713.33z"/>
		<path fill="#FEFDFD" d="M395.056,764.47c-0.012,2.902-0.764,6.787-3.244,10.244c-2.073,2.889-4.92,4.479-8.259,5.24
			c-6.175,1.408-11.588-0.194-15.929-4.754c-2.257-2.371-2.794-5.624-3.26-8.78c-0.946-6.407,0.729-12.144,4.911-17
			c1.01-1.173,2.899-1.765,4.499-2.223c5.866-1.679,13.428-1.511,18.08,4.8C394.314,755.336,395.025,759.203,395.056,764.47z
			 M369.952,763.588c0.012,1.589,0.251,3.143,0.63,4.67c1.105,4.448,4.181,6.908,8.845,7.109c4.404,0.19,7.676-2.114,9.091-6.435
			c1.28-3.908,1.193-7.845-0.12-11.695c-1.97-5.776-9.365-7.966-14.289-4.294C370.525,755.618,370.136,759.574,369.952,763.588z"/>
		<path fill="#FEFDFD" d="M380.608,730.613c-5.606,0.623-10.137-1.593-13.147-6.051c-2.898-4.292-3.32-9.38-2.576-14.504
			c0.649-4.471,2.456-8.181,6.297-10.903c8.578-6.082,21.023-1.52,23.636,8.717c1.434,5.618,0.781,11.093-1.624,16.169
			c-1.254,2.646-4.141,4.161-6.788,5.643C384.51,730.745,382.536,730.418,380.608,730.613z M370.404,714.085
			c0.032,0.533,0.043,1.51,0.155,2.474c0.634,5.457,3.812,8.772,8.744,9.154c4.915,0.381,8.573-2.243,9.877-7.232
			c0.866-3.315,0.859-6.694-0.092-9.986c-1.878-6.502-9.511-9.181-14.708-5.122C371.077,705.953,370.446,709.722,370.404,714.085z"
			/>
		<path fill="#FEFDFD" d="M691.972,714.037c2.207,1.349,3.003,3.274,3.138,5.56c0.115,1.947,0.245,3.892,0.375,5.838
			c0.04,0.598,0.157,1.195,0.145,1.791c-0.017,0.89,1.69,1.369,0.608,2.451c-0.403,0.403-5.779,0.108-5.909-0.282
			c-0.257-0.777-0.448-1.596-0.521-2.411c-0.193-2.166-0.265-4.342-0.464-6.507c-0.25-2.705-1.281-3.723-3.982-3.831
			c-2.322-0.092-4.653,0.028-6.975-0.062c-1.34-0.052-1.659,0.547-1.643,1.742c0.045,3.15-0.059,6.303,0.042,9.451
			c0.048,1.512-0.323,2.088-1.962,2.055c-3.623-0.072-3.625,0.02-3.625-3.489c0-9.002,0.025-18.004-0.025-27.006
			c-0.008-1.379,0.242-2.001,1.818-1.961c4.432,0.113,8.871-0.012,13.304,0.086c4.881,0.107,7.994,1.948,9.052,5.597
			C696.557,707.225,696.144,710.715,691.972,714.037z M682.068,711.796c1.568-0.082,3.44,0.158,5.271-0.394
			c2.386-0.72,2.922-2.52,2.856-4.711c-0.063-2.089-0.87-3.499-3.089-4.038c-2.007-0.487-4.007-0.32-6.01-0.34
			c-4.385-0.042-4.385-0.013-4.379,4.313C676.724,711.796,676.724,711.796,682.068,711.796z"/>
		<path fill="#FEFDFD" d="M509.498,713.772c0-4.722,0.079-9.445-0.04-14.164c-0.046-1.823,0.584-2.301,2.316-2.231
			c3.143,0.127,6.294,0.031,9.442,0.041c9.002,0.029,13.39,3.614,14.642,12.499c0.756,5.362,0.559,10.718-3.29,15.168
			c-2.388,2.761-5.294,4.539-9.059,4.584c-4.045,0.049-8.091,0.026-12.133,0.15c-1.464,0.045-1.941-0.416-1.918-1.884
			c0.075-4.721,0.028-9.443,0.028-14.164C509.489,713.772,509.493,713.772,509.498,713.772z M515.036,713.312
			c0,3.297,0.033,6.595-0.018,9.892c-0.018,1.15,0.359,1.625,1.548,1.579c1.946-0.076,3.9,0.034,5.843-0.065
			c3.358-0.171,5.921-1.616,7.011-4.966c1.31-4.024,1.395-8.111,0.112-12.153c-0.916-2.885-2.916-4.728-5.98-5.044
			c-2.227-0.23-4.487-0.11-6.727-0.24c-1.354-0.078-1.858,0.382-1.819,1.78C515.094,707.165,515.035,710.239,515.036,713.312z"/>
		<path fill="#FEFDFD" d="M347.282,730.599c-4.439,0.123-8.013-1.61-10.431-5.639c-0.922-1.536-0.881-3.331-1.624-4.892
			c-0.054-0.113-0.048-0.364,0.024-0.412c1.367-0.925,2.911-0.363,4.375-0.499c0.861-0.08,1.294,0.258,1.575,1.17
			c1.47,4.76,6.875,6.847,11.374,4.636c1.756-0.863,2.093-2.419,2.124-3.871c0.03-1.406-0.75-2.817-2.26-3.487
			c-2.076-0.922-4.188-1.764-6.419-2.212c-2.452-0.493-4.653-1.558-6.736-2.858c-2.977-1.859-3.805-7.968-1.433-11.238
			c2.737-3.773,6.679-4.696,10.929-4.669c6.169,0.039,10.279,3.288,11.136,8.496c0.354,2.153,0.057,1.985-2.077,2.183
			c-2.476,0.23-3.309-0.513-3.879-2.823c-0.431-1.75-3.54-2.939-5.466-2.707c-0.591,0.071-1.199,0.047-1.797,0.02
			c-2.507-0.115-4.222,1.137-4.508,3.313c-0.26,1.982,1.645,3.842,3.901,4.483c3.767,1.071,7.675,1.744,11.145,3.76
			c5.564,3.233,4.777,12.516-0.911,15.38C353.508,730.15,350.579,730.836,347.282,730.599z"/>
		<path fill="#FEFDFD" d="M552.839,729.792c-3.3,0.001-6.601-0.037-9.9,0.02c-1.243,0.021-1.871-0.162-1.859-1.682
			c0.072-9.674,0.071-19.35,0.001-29.025c-0.011-1.493,0.569-1.723,1.84-1.714c6.525,0.046,13.05,0.054,19.575,0.004
			c1.339-0.01,1.833,0.371,1.837,1.777c0.008,3.439,0.078,3.388-3.307,3.341c-4.049-0.056-8.1,0.007-12.15-0.028
			c-0.909-0.008-1.727,0.138-1.915,1.097c-0.405,2.07-0.272,4.18-0.079,6.261c0.087,0.938,1.063,0.637,1.671,0.641
			c4.125,0.031,8.257,0.165,12.372-0.039c2.354-0.116,2.013,1.268,2.107,2.68c0.099,1.498-0.134,2.338-2.009,2.274
			c-4.195-0.145-8.399-0.003-12.598-0.071c-1.261-0.02-1.731,0.341-1.671,1.64c0.09,1.941,0.056,3.891-0.005,5.835
			c-0.045,1.429,0.474,1.958,1.974,1.929c4.648-0.09,9.301,0.03,13.949-0.065c1.685-0.034,2.382,0.355,2.292,2.209
			c-0.142,2.912-0.017,2.918-2.899,2.917C558.989,729.791,555.914,729.791,552.839,729.792z"/>
		<path fill="#FEFDFD" d="M434.903,780.244c-6.873-0.006-10.852-2.477-12.663-7.581c-0.174-0.491-0.279-1.009-0.399-1.518
			c-0.383-1.627-0.003-2.235,1.925-2.404c2.468-0.217,3.356,0.934,4.367,2.821c1.935,3.611,6.698,4.947,10.367,3.041
			c1.384-0.719,2.462-1.964,2.45-3.642c-0.012-1.589-2.706-4.078-4.319-4.64c-3.078-1.072-6.305-1.563-9.327-2.927
			c-5.526-2.496-6.364-10.697-1.382-14.763c2.773-2.263,5.929-2.102,9.059-2.268c2.532-0.135,5.046,0.213,7.164,1.898
			c2.351,1.87,3.712,4.253,3.998,7.262c0.097,1.018-0.312,1.324-1.266,1.269c-0.971-0.056-1.95-0.038-2.923,0.001
			c-0.781,0.031-1.199-0.143-1.304-1.061c-0.506-4.424-6.577-5.771-10.161-3.968c-1.35,0.679-2.268,1.73-2.302,3.327
			c-0.037,1.716,0.959,2.807,2.391,3.494c2.771,1.33,5.834,1.762,8.724,2.739c2.02,0.683,4.098,1.234,5.587,2.911
			c4.114,4.633,2.506,12.316-4.084,14.944C438.768,779.991,436.629,780.36,434.903,780.244z"/>
		<path fill="#FEFDFD" d="M647.362,711.469c1.755-1.537,3.126-2.723,4.147-4.275c1.73-2.632,4.856-4.012,6.479-6.569
			c2.542-4.003,6.105-3.179,10.004-3.132c-1.867,2.608-4.026,4.486-6.011,6.514c-1.77,1.809-3.58,3.583-5.457,5.278
			c-0.988,0.892-0.979,1.563-0.211,2.625c3.639,5.033,7.196,10.125,10.775,15.202c0.546,0.774,1.053,1.575,1.778,2.665
			c-2.193,0-4.042,0.035-5.889-0.014c-1.06-0.028-1.556-0.613-2.181-1.601c-2.772-4.382-5.823-8.587-8.786-12.846
			c-0.231-0.332-0.413-0.784-1.032-0.537c-1.159,0.462-3.605,3.957-3.609,5.268c-0.009,2.773-0.043,5.548,0.007,8.32
			c0.019,1.05-0.312,1.48-1.403,1.436c-4.816-0.19-4.337,0.975-4.297-4.297c0.066-8.695,0.043-17.391-0.008-26.086
			c-0.01-1.633,0.021-2.455,2.197-2.09c3.458,0.58,3.497,0.348,3.497,3.908C647.363,704.501,647.362,707.762,647.362,711.469z"/>
		<path fill="#FEFDFD" d="M734.976,713.669c-0.163,3.936,1.08,7.358,3.886,10.086c3.927,3.817,11.909,1.394,13.308-3.954
			c0.17-0.651-0.171-1.704,0.937-1.747c1.484-0.058,2.991-0.051,4.456,0.159c0.537,0.077,0.273,0.927,0.199,1.417
			c-0.719,4.815-3.262,8.487-7.85,9.978c-8.484,2.758-16.579,0.79-19.56-8.795c-2.249-7.23-1.74-14.327,3.478-20.497
			c0.842-0.995,1.94-1.337,2.962-1.892c5.674-3.082,11.407-2.543,16.665,0.664c2.492,1.52,3.797,4.517,4.22,7.606
			c0.02,0.148,0.082,0.355,0.011,0.441c-1.164,1.411-2.728,0.395-4.094,0.603c-0.59,0.09-1.73,0.608-1.767-0.909
			c-0.057-2.333-1.632-3.607-3.57-4.409c-5.909-2.444-11.849,0.879-12.94,7.222C735.088,710.966,735.083,712.327,734.976,713.669z"
			/>
		<path fill="#FEFDFD" d="M399.156,713.561c-0.44-3.043,0.831-5.885,1.197-8.826c0.143-1.15,1.486-2.482,2.441-3.49
			c3.281-3.468,7.546-4.79,12.247-4.625c6.643,0.234,10.282,3.031,12.673,9.41c0.2,0.532,0.151,0.957-0.076,1.179
			c-1.165,1.138-2.662,0.375-4.002,0.573c-0.822,0.122-1.324-0.185-1.706-1.041c-2.448-5.489-8.754-6.898-13.265-2.884
			c-4.479,3.986-4.337,9.162-3.113,14.385c1.301,5.547,5.335,8.03,10.862,6.997c3.174-0.593,5.331-3.061,5.572-6.38
			c0.005-0.07-0.077-0.184-0.051-0.209c1.412-1.376,3.159-0.343,4.727-0.64c0.884-0.167,1.167,0.305,1.07,1.181
			c-0.505,4.549-2.774,7.98-6.846,9.949c-5.249,2.538-10.544,2.29-15.441-0.952c-3.956-2.62-5.635-6.665-6.118-11.258
			C399.21,715.813,399.21,714.684,399.156,713.561z"/>
		<path fill="#FEFDFD" d="M482.151,729.768c-1.782,0-3.478-0.017-5.172,0.007c-0.896,0.013-1.007-0.599-1.273-1.26
			c-0.693-1.717-1.143-3.517-2.007-5.184c-0.628-1.212-1.419-1.776-2.745-1.766c-2.847,0.021-5.694,0.048-8.539-0.02
			c-0.985-0.024-1.494,0.263-1.781,1.224c-0.492,1.641-1.342,3.21-1.601,4.877c-0.296,1.91-1.201,2.241-2.924,2.183
			c-3.743-0.126-3.579,0.017-2.458-3.599c1.851-5.974,4.425-11.68,6.233-17.678c1.081-3.587,2.829-6.989,3.929-10.606
			c0.043-0.142,0.019-0.332,0.105-0.429c0.783-0.885,6.521,0.22,6.923,1.329c2.33,6.421,4.646,12.848,6.987,19.265
			C479.219,721.922,480.648,725.719,482.151,729.768z M467.443,704.289c-0.167-0.005-0.333-0.01-0.5-0.014
			c-1.245,3.667-2.47,7.341-3.749,10.996c-0.362,1.036-0.245,1.486,0.99,1.441c2.014-0.073,4.033-0.057,6.048-0.003
			c1.001,0.026,1.394-0.254,1.04-1.277C469.989,711.72,468.719,708.004,467.443,704.289z"/>
		<path fill="#FEFDFD" d="M812.163,729.784c-1.843,0-3.5,0.207-5.081-0.051c-2.136-0.348-1.662-2.603-2.282-3.981
			c-0.482-1.072-1.315-2.128-1.199-3.474c0.047-0.553-0.441-0.673-0.943-0.674c-3.413-0.002-6.827,0.027-10.238-0.057
			c-1.073-0.027-1.413,0.484-1.687,1.354c-0.517,1.641-1.205,3.232-1.647,4.891c-0.417,1.563-1.223,2.267-2.87,2.017
			c-0.733-0.112-1.5-0.072-2.245-0.011c-1.277,0.104-1.356-0.519-1-1.487c1.452-3.951,3.224-7.82,4.26-11.878
			c1.204-4.716,3.988-8.823,4.826-13.65c0.176-1.016,0.956-1.892,1.212-2.997c0.402-1.738,1.44-2.571,3.516-2.438
			c3.771,0.243,4.315,0.306,5.279,3.899c1.553,5.786,3.958,11.26,5.901,16.901C809.275,721.953,810.692,725.72,812.163,729.784z
			 M797.551,704.332c-0.182,0.008-0.365,0.016-0.547,0.024c-1.265,3.725-2.518,7.453-3.802,11.171
			c-0.312,0.904-0.027,1.186,0.888,1.173c2.452-0.034,4.905-0.012,7.643-0.012C800.288,712.418,798.92,708.375,797.551,704.332z"/>
		<path fill="#FEFDFD" d="M712.821,697.475c2.762-0.849,3.51,0.831,4.284,2.944c1.817,4.961,3.696,9.912,5.545,14.852
			c1.633,4.364,3.241,8.796,4.625,13.276c0.121,0.393,0.495,1.047-0.118,1.104c-1.632,0.151-3.3,0.236-4.921,0.057
			c-1.03-0.114-0.899-1.401-1.265-2.158c-0.42-0.868-0.794-1.81-0.926-2.756c-0.374-2.68-2.265-3.173-4.45-3.223
			c-2.396-0.054-4.795,0.045-7.19-0.021c-1.199-0.033-1.977,0.161-2.204,1.554c-0.166,1.016-0.67,1.976-1.026,2.96
			c-1.478,4.082-1.554,4.094-5.844,3.744c-1.097-0.09-1.216-0.378-0.854-1.357c2.497-6.741,4.956-13.496,7.401-20.257
			c1.136-3.142,2.28-6.284,3.295-9.465C709.879,696.519,711.654,697.844,712.821,697.475z M712.821,703.543
			c-1.486,4.391-2.73,8.133-4.026,11.858c-0.368,1.056,0.018,1.314,1.002,1.299c2.09-0.032,4.18-0.029,6.27,0.003
			c0.934,0.014,1.185-0.313,0.874-1.203C715.617,711.709,714.322,707.908,712.821,703.543z"/>
		<path fill="#FEFDFD" d="M337.08,763.29c-0.002-4.723,0.053-9.447-0.033-14.168c-0.028-1.553,0.454-2.092,2.026-2.071
			c4.84,0.064,9.722-0.378,14.51,0.124c2.974,0.312,5.43,2.395,6.501,5.547c0.844,2.487,1.066,5.076,0.297,7.53
			c-1.28,4.084-3.159,6.134-7.983,6.434c-2.69,0.167-5.396,0.137-8.093,0.094c-1.265-0.02-1.707,0.408-1.674,1.688
			c0.075,2.997-0.061,6,0.056,8.994c0.062,1.594-0.465,2.202-2.028,1.97c-0.44-0.065-0.907-0.071-1.346-0.004
			c-1.742,0.264-2.325-0.379-2.274-2.194C337.167,772.588,337.081,767.938,337.08,763.29z M347.619,752.162c0-0.011,0-0.023,0-0.034
			c-1.048,0-2.108,0.097-3.143-0.023c-1.557-0.181-1.914,0.516-1.85,1.923c0.096,2.093,0.057,4.193,0.014,6.289
			c-0.02,0.985,0.205,1.558,1.348,1.514c2.467-0.095,4.947,0.007,7.401-0.21c2.503-0.221,3.624-1.624,3.752-4.2
			c0.174-3.496-1.31-5.12-4.828-5.255C349.417,752.133,348.517,752.162,347.619,752.162z"/>
		<path fill="#FEFDFD" d="M484.94,713.43c0.001-4.797-0.005-9.593,0.005-14.39c0.003-1.203-0.221-2.538,1.859-1.689
			c1.055,0.431,2.704-0.482,3.428,0.368c0.906,1.064,0.357,2.728,0.363,4.128c0.031,6.895,0.065,13.791-0.036,20.685
			c-0.025,1.709,0.491,2.193,2.157,2.148c3.969-0.106,7.945,0.03,11.915-0.062c1.404-0.032,1.813,0.403,1.773,1.778
			c-0.119,4.16,0.298,3.348-3.298,3.38c-5.471,0.049-10.943-0.024-16.413,0.042c-1.361,0.016-1.808-0.379-1.786-1.774
			C484.987,723.174,484.939,718.302,484.94,713.43z"/>
		<path fill="#FEFDFD" d="M449.766,710.709c0,3.749-0.012,7.499,0.003,11.248c0.016,4.056-2.08,6.733-5.567,8.439
			c-2.935,1.436-10.618-0.168-12.416-2.942c-1.559-2.404-1.644-5.378-1.481-8.248c0.04-0.71,0.609-0.751,1.153-0.754
			c0.9-0.004,1.805,0.061,2.698-0.013c1.241-0.103,1.586,0.501,1.497,1.607c-0.042,0.52-0.021,1.052,0.028,1.572
			c0.265,2.806,1.538,4.103,4.044,4.153c2.723,0.054,4.229-1.081,4.313-4.005c0.205-7.117,0.122-14.242,0.219-21.363
			c0.013-0.971-0.626-2.48,0.497-2.827c1.367-0.422,2.979-0.227,4.455-0.05c0.888,0.106,0.565,1.093,0.569,1.709
			c0.027,3.824,0.014,7.649,0.014,11.473C449.784,710.709,449.775,710.709,449.766,710.709z"/>
		<path fill="#FEFDFD" d="M779.94,710.569c0,3.145-0.06,6.291,0.011,9.434c0.229,10.062-5.913,11.909-13.909,10.086
			c-4.277-0.975-7.021-6.7-5.698-10.923c0.171-0.545,0.465-0.701,0.949-0.708c0.599-0.008,1.21,0.067,1.794-0.027
			c2.109-0.341,2.832,0.383,2.742,2.622c-0.142,3.513,1.632,4.974,4.997,4.645c1.691-0.165,2.734-0.973,3.114-2.688
			c0.279-1.259,0.337-2.518,0.338-3.79c0.003-6.514,0.051-13.029-0.031-19.543c-0.021-1.689,0.348-2.414,2.211-2.301
			c3.661,0.222,3.471-0.608,3.48,3.532C779.946,704.129,779.94,707.349,779.94,710.569z"/>
		<path fill="#FEFDFD" d="M400.16,763.298c0.002-4.643,0.106-9.289-0.048-13.927c-0.065-1.962,0.625-2.559,2.419-2.305
			c0.368,0.052,0.754,0.06,1.121,0.008c1.735-0.244,2.125,0.589,2.109,2.192c-0.073,7.488,0.038,14.978-0.092,22.465
			c-0.036,2.085,0.561,2.698,2.625,2.606c3.662-0.162,7.339,0.042,11.005-0.076c1.633-0.053,2.303,0.326,2.179,2.081
			c-0.24,3.386,0.565,3.063-3.17,3.079c-5.392,0.023-10.785-0.054-16.175,0.039c-1.579,0.027-2.043-0.437-2.011-2.008
			C400.219,772.735,400.158,768.016,400.16,763.298z"/>
		<path fill="#D5312D" d="M463.126,569.984c0-14.474,0.027-28.948-0.038-43.422c-0.007-1.639,0.336-2.202,2.081-2.139
			c8.229,0.299,16.487-0.475,24.691,0.889c14.695,2.443,21.708,10.251,24.568,24.037c2.894,13.948,2.615,28.003,0.081,42.013
			c-2.41,13.323-10.749,21.194-24.151,23.207c-8.593,1.291-17.211,0.702-25.82,0.935c-1.794,0.049-1.402-1.128-1.403-2.098
			c-0.013-10.874-0.009-21.748-0.009-32.623C463.126,577.184,463.126,573.584,463.126,569.984z"/>
		<path fill="#D5312D" d="M598.447,540.33c-0.001-5.321,0.009-10.643-0.009-15.964c-0.003-0.981,0.007-1.73,1.373-1.7
			c10.555,0.231,21.136-0.543,31.662,0.846c1.865,0.246,3.667,0.709,5.461,1.257c4.616,1.41,7.583,4.421,8.652,9.113
			c1.044,4.586,1.124,9.227-0.151,13.791c-1.665,5.965-6.427,8.063-11.87,9.204c-5.091,1.067-10.27,1.153-15.438,1.233
			c-5.845,0.091-11.692-0.01-17.537,0.092c-1.654,0.029-2.216-0.416-2.182-2.134C598.515,550.824,598.448,545.576,598.447,540.33z"
			/>
		<path fill="#D5312D" d="M492.844,753.255c1.523,4.436,2.85,8.274,4.151,12.121c0.228,0.673-0.187,0.982-0.807,0.986
			c-2.239,0.016-4.478,0.004-6.716,0.004c-0.823,0-1.014-0.37-0.748-1.135C490.037,761.457,491.326,757.675,492.844,753.255z"/>
		<path fill="#D5312D" d="M611.656,713.33c-0.081-2.284,0.261-4.798,1.504-7.095c1.94-3.586,5.092-4.837,9.021-4.541
			c3.924,0.296,6.648,2.289,7.827,5.989c1.426,4.471,1.423,8.97-0.624,13.338c-1.552,3.312-4.338,4.63-7.772,4.693
			c-3.38,0.062-6.3-0.936-8.152-4.105C612.003,719.116,611.615,716.433,611.656,713.33z"/>
		<path fill="#D5312D" d="M369.952,763.588c0.184-4.014,0.574-7.971,4.158-10.644c4.923-3.673,12.319-1.482,14.289,4.294
			c1.313,3.85,1.4,7.787,0.12,11.695c-1.415,4.321-4.687,6.625-9.091,6.435c-4.664-0.201-7.741-2.661-8.845-7.109
			C370.203,766.731,369.964,765.178,369.952,763.588z"/>
		<path fill="#D5312D" d="M370.404,714.085c0.042-4.364,0.673-8.132,3.976-10.711c5.197-4.059,12.83-1.38,14.708,5.122
			c0.951,3.292,0.958,6.67,0.092,9.986c-1.303,4.989-4.961,7.613-9.877,7.232c-4.932-0.382-8.11-3.697-8.744-9.154
			C370.448,715.595,370.436,714.619,370.404,714.085z"/>
		<path fill="#D5312D" d="M682.068,711.796c-5.345,0-5.345,0-5.352-5.169c-0.006-4.327-0.006-4.356,4.379-4.313
			c2.003,0.019,4.004-0.148,6.01,0.34c2.219,0.539,3.026,1.948,3.089,4.038c0.066,2.191-0.47,3.991-2.856,4.711
			C685.509,711.953,683.636,711.714,682.068,711.796z"/>
		<path fill="#D5312D" d="M515.036,713.312c-0.001-3.073,0.059-6.147-0.028-9.217c-0.039-1.398,0.464-1.859,1.819-1.78
			c2.24,0.13,4.5,0.01,6.727,0.24c3.064,0.316,5.064,2.158,5.98,5.044c1.283,4.043,1.198,8.129-0.112,12.153
			c-1.09,3.351-3.653,4.795-7.011,4.966c-1.944,0.099-3.898-0.011-5.843,0.065c-1.189,0.046-1.566-0.429-1.548-1.579
			C515.07,719.907,515.036,716.609,515.036,713.312z"/>
		<path fill="#D5312D" d="M467.443,704.289c1.276,3.714,2.546,7.431,3.831,11.142c0.354,1.023-0.039,1.303-1.04,1.277
			c-2.015-0.053-4.035-0.07-6.048,0.003c-1.235,0.045-1.353-0.405-0.99-1.441c1.279-3.655,2.503-7.329,3.749-10.996
			C467.11,704.28,467.277,704.284,467.443,704.289z"/>
		<path fill="#D5312D" d="M797.551,704.332c1.368,4.043,2.737,8.087,4.182,12.356c-2.738,0-5.191-0.023-7.643,0.012
			c-0.915,0.013-1.2-0.269-0.888-1.173c1.283-3.718,2.537-7.446,3.802-11.171C797.187,704.348,797.369,704.34,797.551,704.332z"/>
		<path fill="#D5312D" d="M712.821,703.543c1.501,4.365,2.796,8.166,4.12,11.958c0.311,0.89,0.06,1.217-0.874,1.203
			c-2.09-0.032-4.181-0.036-6.27-0.003c-0.984,0.015-1.37-0.243-1.002-1.299C710.091,711.677,711.336,707.934,712.821,703.543z"/>
		<path fill="#D5312D" d="M347.619,752.162c0.898,0,1.798-0.029,2.695,0.005c3.519,0.135,5.002,1.759,4.828,5.255
			c-0.128,2.576-1.248,3.979-3.752,4.2c-2.454,0.217-4.935,0.115-7.401,0.21c-1.143,0.044-1.368-0.53-1.348-1.514
			c0.043-2.096,0.081-4.197-0.014-6.289c-0.064-1.408,0.292-2.104,1.85-1.923c1.034,0.12,2.094,0.023,3.143,0.023
			C347.619,752.14,347.619,752.151,347.619,752.162z"/>
	</g>
</g>
</svg>
