<?xml version="1.0" encoding="utf-8"?>
<!-- Generator: Adobe Illustrator 17.0.0, SVG Export Plug-In . SVG Version: 6.00 Build 0)  -->
<!DOCTYPE svg PUBLIC "-//W3C//DTD SVG 1.1//EN" "http://www.w3.org/Graphics/SVG/1.1/DTD/svg11.dtd">
<svg version="1.1" id="Warstwa_1" xmlns="http://www.w3.org/2000/svg" xmlns:xlink="http://www.w3.org/1999/xlink" x="0px" y="0px"
	 width="252.029px" height="252.029px" viewBox="0 0 252.029 252.029" enable-background="new 0 0 252.029 252.029"
	 xml:space="preserve">
<g>
	<defs>
		<rect id="SVGID_1_" x="0" y="0" width="251.219" height="251.219"/>
	</defs>
	<clipPath id="SVGID_2_">
		<use xlink:href="#SVGID_1_"  overflow="visible"/>
	</clipPath>
	<g clip-path="url(#SVGID_2_)">
		<g>
			<path fill="#F7D205" d="M251.969,113.236c0,8.999,0,17.998,0,26.997c-1.515,1.299-1.116,3.197-1.346,4.815
				c-7.014,49.417-45.346,91.563-93.802,103.274c-5.754,1.391-11.737,1.602-17.338,3.647c-8.749,0-17.498,0-26.247,0
				c-1.645-1.376-3.736-1.082-5.621-1.349c-50.557-7.173-93.237-47.056-103.948-97.075c-1.003-4.682-0.996-9.575-2.917-14.062
				c0-8.749,0-17.498,0-26.247c1.467-1.336,1.037-3.235,1.275-4.856C9.871,54.996,50.661,12.623,103.629,2.802
				c2.964-0.55,6.169-0.253,8.857-2.052c8.749,0,17.498,0,26.247,0c0.611,1.151,1.752,0.71,2.666,0.83
				c54.09,7.094,96.31,45.86,107.979,99.074C250.295,104.839,250.234,109.224,251.969,113.236z M67.718,218.451
				c-0.222-0.192-0.444-0.384-0.666-0.575c0.9-2.979,1.754-5.973,2.711-8.933c1.012-3.13-1.883-3.323-3.368-4.486
				c-1.795-1.406-2.372,0.472-3.049,1.492c-2.897,4.362-5.686,8.796-8.572,13.165c-0.833,1.261-0.909,2.136,0.491,3.079
				c1.427,0.961,2.205,0.523,3.004-0.765c1.286-2.076,2.672-4.09,4.443-6.777c0.545,3.758-1.078,6.105-1.819,8.631
				c-0.474,1.616-0.039,2.537,1.318,3.414c1.358,0.877,2.228,0.413,3.277-0.512c1.444-1.273,2.563-3.025,4.724-3.644
				c0.768,2.357-1.017,3.595-1.894,5.097c-0.811,1.388-1.11,2.341,0.534,3.373c1.608,1.009,2.246,0.032,2.949-1.041
				c2.8-4.277,5.61-8.548,8.358-12.859c0.738-1.158,2.216-2.463,0.085-3.701c-1.783-1.036-3.301-3.319-5.763-0.808
				C72.4,214.721,69.985,216.513,67.718,218.451z M43.53,159.917l-0.096-0.099c1.576,5.466,4.64,10.185,7.643,14.905
				c22.215,34.926,59.862,50.807,99.178,41.137c29.324-7.213,48.771-26.603,61.88-53.002c1.213-2.442,2.605-3.539,5.222-3.89
				c6.183-0.829,12.314-2.054,18.5-2.852c2.285-0.295,3.069-1.233,3.581-3.393c3.322-14.004,4.267-28.075,2.216-42.377
				c-9.322-65.009-69.785-109.622-134.153-98.902C41.422,22.449-1.6,86.158,12.663,151.737c0.616,2.831,1.848,3.832,4.589,4.203
				C26.031,157.127,34.774,158.575,43.53,159.917z M131.641,245.348c2.966-0.399,5.977-0.598,8.889-1.24
				c4.888-1.077,6.528-6.251,3.009-9.709c-1.255-1.233-1.255-1.796-0.604-3.319c1.565-3.661-0.491-6.876-4.491-7.092
				c-2.852-0.154-5.73,0.28-8.598,0.295c-2.452,0.012-3.28,1.067-3.013,3.477c0.537,4.836,1.026,9.685,1.283,14.541
				C128.25,244.814,129.253,245.692,131.641,245.348z M202.059,206.997c-4.672-1.46-8.567-2.61-12.411-3.908
				c-1.876-0.633-2.804,0.581-3.78,1.654c-1.185,1.302,0.253,2.018,0.89,2.766c3.392,3.983,6.876,7.886,10.273,11.865
				c1.042,1.22,1.904,1.793,3.344,0.46c1.369-1.267,0.644-2.157-0.202-3.153c-1.742-2.052-3.484-4.103-5.282-6.221
				c1.63-0.942,2.779-0.37,3.944-0.013c2.499,0.766,5.016,1.479,7.496,2.302c1.798,0.597,2.859-0.513,3.864-1.587
				c1.358-1.452-0.267-2.231-0.967-3.059c-3.296-3.9-6.686-7.722-10.019-11.592c-0.938-1.089-1.693-2.122-3.296-0.73
				c-1.523,1.323-0.879,2.245,0.094,3.417C197.96,201.552,200.271,203.64,202.059,206.997z M159.166,219.354
				c-2.962,0.408-6.551,1.431-10.133,2.5c-1.799,0.537-1.421,1.805-1.09,3.001c1.395,5.039,2.846,10.063,4.266,15.095
				c0.401,1.422,0.844,2.569,2.797,2.035c2.092-0.572,1.983-1.862,1.486-3.441c-0.224-0.712-0.477-1.425-0.596-2.157
				c-0.186-1.146-1.355-2.464,0.003-3.419c1.295-0.911,2.66-0.176,3.781,0.667c1.791,1.347,3.531,2.764,5.265,4.184
				c1.729,1.416,3.768,0.688,4.783-0.369c1.347-1.403-0.921-2.054-1.686-2.927c-0.809-0.923-1.825-1.728-2.886-2.354
				c-1.887-1.113-2.781-2.019-0.738-4.032c1.658-1.635,1.485-3.891,0.324-5.91C163.688,220.394,162.213,219.149,159.166,219.354z
				 M79.494,229.538c0.005,5.65,4.507,9.804,10.52,9.709c5.713-0.09,9.852-5.062,9.875-11.861c0.018-5.511-4.645-9.846-10.518-9.777
				C83.829,217.673,79.488,222.917,79.494,229.538z M123.01,233.612c0.077-6.289-3.857-10.295-10.162-10.35
				c-5.92-0.051-9.899,4.337-10.049,11.083c-0.136,6.115,4.043,10.355,10.236,10.385C119,244.759,122.927,240.382,123.01,233.612z
				 M168.56,220.271c0.054,6.046,5.036,11.623,10.372,11.612c5.702-0.012,10.678-4.638,10.625-9.879
				c-0.061-6.007-5.479-11.775-10.928-11.634C173.013,210.516,168.513,214.941,168.56,220.271z M46.427,185.627
				c-0.073-2.931-1.411-5.155-3.173-7.155c-1.926-2.186-4.296-3.035-7.036-1.711c-2.763,1.336-3.502,3.723-2.918,6.595
				c0.398,1.954,0.918,3.884,1.286,5.843c0.185,0.983,0.226,2.071-0.981,2.535c-1.052,0.403-1.982-0.012-2.733-0.735
				c-1.582-1.523-2.344-3.392-1.143-5.38c1.167-1.934,0.267-3.313-1.126-4.09c-1.772-0.989-2.269,1.024-2.849,2.051
				c-1.849,3.272-0.252,8.302,3.38,11.289c2.296,1.887,4.753,2.151,7.276,0.619c2.356-1.43,3.436-3.537,2.824-6.347
				c-0.478-2.192-0.968-4.383-1.397-6.585c-0.145-0.744-0.082-1.535,0.774-1.883c0.807-0.328,1.445,0.078,1.986,0.64
				c1.325,1.376,1.776,2.908,1.059,4.787c-0.659,1.726,0.411,3.247,1.695,3.693c1.647,0.573,2.042-1.351,2.632-2.504
				C46.258,186.751,46.308,186.099,46.427,185.627z M207.633,183.666c-2.549,0.125-4.008,3.014-2.739,5.215
				c2.799,4.857,5.664,9.677,8.6,14.452c0.527,0.858,0.759,2.913,2.493,1.732c1.162-0.791,2.488-2.238,1.244-3.796
				c-1.978-2.479-0.753-4.175,0.738-6.235c1.601-2.212,3.2-3.181,5.918-2.027c1.933,0.821,2.774-1.078,3.286-2.262
				c0.887-2.05-1.296-1.672-2.219-1.97c-4.145-1.34-8.345-2.512-12.528-3.736C210.756,184.55,209.079,184.08,207.633,183.666z
				 M47.334,210.219c-0.349,0.799-0.843,1.802-1.229,2.846c-0.712,1.924,0.859,2.802,2.023,3.5c1.336,0.801,1.582-0.786,1.954-1.554
				c2.551-5.27,5.007-10.587,7.543-15.864c0.6-1.247,0.763-2.277-0.396-3.317c-1.018-0.914-1.782-2.04-3.493-1.336
				c-5.757,2.371-11.538,4.687-17.344,6.937c-1.68,0.651-1.331,1.337-0.449,2.406c1.069,1.297,2.073,1.801,3.836,1.043
				C42.203,203.838,47.217,207.362,47.334,210.219z"/>
			<path fill="#FEFDFC" d="M112.486,0.75c-2.688,1.799-5.893,1.502-8.857,2.052C50.661,12.623,9.871,54.996,2.025,108.38
				c-0.238,1.621,0.191,3.52-1.275,4.856c0-36.559,0.026-73.119-0.06-109.678C0.685,1.22,1.216,0.684,3.557,0.69
				C39.866,0.776,76.176,0.75,112.486,0.75z"/>
			<path fill="#FEFDFC" d="M251.969,113.236c-1.735-4.012-1.673-8.396-2.591-12.582C237.708,47.439,195.489,8.674,141.399,1.58
				c-0.914-0.12-2.054,0.321-2.666-0.83c36.809,0,73.619,0.025,110.428-0.06c2.338-0.005,2.874,0.526,2.868,2.867
				C251.943,40.116,251.969,76.676,251.969,113.236z"/>
			<path fill="#FEFDFC" d="M0.75,139.483c1.921,4.487,1.914,9.38,2.917,14.062c10.711,50.019,53.392,89.902,103.948,97.075
				c1.885,0.267,3.975-0.026,5.621,1.349c-36.56,0-73.119-0.026-109.678,0.06c-2.34,0.005-2.873-0.528-2.868-2.868
				C0.776,212.602,0.75,176.042,0.75,139.483z"/>
			<path fill="#FEFDFC" d="M139.483,251.969c5.601-2.045,11.584-2.256,17.338-3.647c48.456-11.712,86.788-53.857,93.802-103.274
				c0.23-1.618-0.169-3.516,1.346-4.815c0,36.31-0.026,72.62,0.06,108.929c0.006,2.341-0.531,2.872-2.868,2.867
				C212.601,251.943,176.042,251.969,139.483,251.969z"/>
			<path fill="#29176C" d="M43.531,159.923c-8.757-1.348-17.5-2.796-26.279-3.983c-2.742-0.371-3.973-1.372-4.589-4.203
				C-1.6,86.158,41.422,22.449,107.501,11.443c64.368-10.72,124.831,33.893,134.153,98.902c2.051,14.302,1.106,28.373-2.216,42.377
				c-0.512,2.16-1.296,3.098-3.581,3.393c-6.186,0.798-12.317,2.023-18.5,2.852c-2.617,0.351-4.01,1.448-5.222,3.89
				c-13.109,26.399-32.556,45.789-61.88,53.002c-39.316,9.67-76.963-6.211-99.178-41.137c-3.002-4.72-6.066-9.44-7.643-14.908
				c1.183-0.881,2.433-0.2,3.592-0.033c14.321,2.065,28.633,4.203,42.946,6.324c34.302,5.083,68.608,10.144,102.899,15.3
				c2.541,0.382,3.445-0.407,4.066-2.795c3.923-15.083,7.993-30.127,12.015-45.183c4.207-0.806,8.466-0.386,12.699-0.463
				c2.097-0.038,2.937-0.716,2.68-2.876c-0.384-3.223-0.642-6.463-0.865-9.703c-0.832-12.108-2.487-24.073-5.642-35.826
				c-0.639-2.381-1.42-3.013-3.817-2.349c-3.602,0.998-7.309,1.622-10.971,2.404c-3.307-12.415-6.745-24.797-9.831-37.267
				c-0.817-3.299-1.996-3.669-5.052-2.834c-22.259,6.089-44.568,11.996-66.862,17.956c-3.272,0.874-6.588,1.454-9.991,1.208
				c-6.245-0.452-8.498-3.674-6.499-9.582c0.871-2.574,2.192-4.995,3.308-7.486c0.151-0.163,0.302-0.325,0.454-0.488
				c-0.314-0.01-0.629-0.019-0.943-0.029c-24.436,6.411-48.866,12.845-73.318,19.194c-2.126,0.552-2.352,1.681-2.108,3.522
				c0.9,6.791,1.706,13.594,2.547,20.393c-3.399,1.826-6.777,3.692-10.205,5.46c-1.666,0.86-2.335,1.987-1.947,3.905
				c2.6,12.836,4.226,25.825,5.895,38.803c0.243,1.89,0.852,2.335,2.646,1.54c3.069-1.359,6.223-2.527,9.341-3.776
				C41.491,143.398,42.511,151.66,43.531,159.923z"/>
			<path fill="#3E3D38" d="M67.718,218.451c2.267-1.938,4.682-3.73,6.762-5.851c2.462-2.51,3.98-0.228,5.763,0.808
				c2.131,1.238,0.653,2.543-0.085,3.701c-2.748,4.31-5.558,8.582-8.358,12.859c-0.703,1.074-1.341,2.05-2.949,1.041
				c-1.644-1.031-1.345-1.985-0.534-3.373c0.877-1.502,2.662-2.741,1.894-5.097c-2.161,0.619-3.28,2.37-4.724,3.644
				c-1.05,0.925-1.919,1.389-3.277,0.512c-1.357-0.877-1.792-1.798-1.318-3.414c0.741-2.526,2.364-4.873,1.819-8.631
				c-1.77,2.687-3.156,4.701-4.443,6.777c-0.799,1.289-1.577,1.726-3.004,0.765c-1.4-0.943-1.324-1.818-0.491-3.079
				c2.886-4.369,5.675-8.803,8.572-13.165c0.677-1.02,1.254-2.898,3.049-1.492c1.485,1.163,4.38,1.357,3.368,4.486
				c-0.957,2.96-1.811,5.954-2.71,8.933c-0.02,0.292-0.042,0.585-0.063,0.877C67.233,218.652,67.475,218.552,67.718,218.451z"/>
			<path fill="#3E3D38" d="M131.641,245.348c-2.389,0.344-3.391-0.534-3.524-3.047c-0.257-4.857-0.746-9.705-1.283-14.541
				c-0.268-2.411,0.561-3.465,3.013-3.477c2.867-0.015,5.746-0.449,8.598-0.295c4,0.216,6.056,3.431,4.491,7.092
				c-0.651,1.523-0.651,2.086,0.604,3.319c3.519,3.458,1.879,8.632-3.009,9.709C137.618,244.75,134.608,244.95,131.641,245.348z
				 M136.589,235.824c-1.964,0.454-5.204-0.715-4.15,3.538c0.769,3.101,2.857,1.467,4.456,1.407
				c1.744-0.065,3.822-0.222,3.703-2.625C140.479,235.728,138.346,235.965,136.589,235.824z M134.07,232.223
				c1.447-0.813,4.553,0.494,4.86-2.491c0.251-2.433-2.135-2.005-3.599-1.938c-1.481,0.068-3.849-0.805-3.631,2.235
				C131.796,231.355,131.915,232.615,134.07,232.223z"/>
			<path fill="#3E3D38" d="M202.059,206.997c-1.789-3.357-4.1-5.445-6.052-7.799c-0.973-1.172-1.617-2.094-0.094-3.417
				c1.603-1.392,2.358-0.358,3.296,0.73c3.333,3.87,6.722,7.692,10.019,11.592c0.7,0.828,2.325,1.607,0.967,3.059
				c-1.005,1.075-2.067,2.185-3.864,1.587c-2.48-0.824-4.997-1.536-7.496-2.302c-1.165-0.357-2.315-0.929-3.944,0.013
				c1.798,2.117,3.54,4.169,5.282,6.221c0.846,0.997,1.571,1.886,0.202,3.153c-1.44,1.333-2.303,0.76-3.344-0.46
				c-3.396-3.979-6.881-7.882-10.273-11.865c-0.637-0.748-2.074-1.465-0.89-2.766c0.977-1.073,1.904-2.287,3.78-1.654
				C193.493,204.387,197.387,205.537,202.059,206.997z"/>
			<path fill="#3E3D38" d="M159.166,219.354c3.047-0.205,4.522,1.04,5.577,2.874c1.161,2.019,1.334,4.275-0.324,5.91
				c-2.043,2.014-1.149,2.919,0.738,4.032c1.061,0.626,2.077,1.431,2.886,2.354c0.765,0.873,3.033,1.523,1.686,2.927
				c-1.015,1.057-3.054,1.785-4.783,0.369c-1.734-1.421-3.474-2.837-5.265-4.184c-1.122-0.844-2.486-1.578-3.781-0.667
				c-1.358,0.955-0.189,2.273-0.003,3.419c0.119,0.732,0.372,1.445,0.596,2.157c0.497,1.579,0.606,2.87-1.486,3.441
				c-1.952,0.534-2.396-0.613-2.797-2.035c-1.42-5.032-2.871-10.056-4.266-15.095c-0.331-1.196-0.709-2.465,1.09-3.001
				C152.615,220.785,156.204,219.762,159.166,219.354z M157.587,223.508c-1.04,1.063-4.154-0.486-4.504,2.595
				c-0.132,1.164,0.132,3.207,2.03,2.883c2.214-0.377,5.054-0.499,5.712-3.309C161.193,224.1,159.783,223.314,157.587,223.508z"/>
			<path fill="#3E3D38" d="M79.494,229.538c-0.006-6.621,4.335-11.865,9.876-11.929c5.873-0.068,10.537,4.266,10.518,9.777
				c-0.022,6.799-4.162,11.771-9.875,11.861C84.001,239.342,79.5,235.187,79.494,229.538z M95.339,227.294
				c0.082-3.355-1.893-5.449-5.147-5.456c-3.306-0.007-6.001,3.316-6.149,7.584c-0.112,3.208,2.07,5.752,4.996,5.824
				C92.324,235.326,95.232,231.657,95.339,227.294z"/>
			<path fill="#3E3D38" d="M123.01,233.612c-0.083,6.77-4.01,11.147-9.975,11.118c-6.193-0.03-10.372-4.27-10.236-10.385
				c0.15-6.746,4.129-11.134,10.049-11.083C119.153,223.317,123.086,227.323,123.01,233.612z M118.413,233.115
				c-0.003-3.686-2.005-5.955-5.225-5.924c-3.411,0.033-5.658,2.938-5.72,7.395c-0.052,3.709,2.21,6.235,5.498,6.141
				C116.272,240.631,118.417,237.634,118.413,233.115z"/>
			<path fill="#3E3D38" d="M168.56,220.271c-0.048-5.329,4.453-9.754,10.069-9.9c5.449-0.142,10.868,5.626,10.928,11.634
				c0.053,5.24-4.923,9.867-10.625,9.879C173.596,231.894,168.615,226.316,168.56,220.271z M173.054,219.436
				c-0.175,3.885,3.262,8.238,6.571,8.322c2.808,0.072,5.347-2.341,5.386-5.118c0.05-3.631-3.398-7.935-6.474-8.08
				C175.573,214.419,173.184,216.545,173.054,219.436z"/>
			<path fill="#3E3D38" d="M46.427,185.627c-0.119,0.471-0.169,1.124-0.444,1.662c-0.59,1.153-0.985,3.077-2.632,2.504
				c-1.284-0.447-2.353-1.967-1.695-3.693c0.717-1.879,0.266-3.412-1.059-4.787c-0.541-0.561-1.18-0.968-1.986-0.64
				c-0.856,0.349-0.919,1.139-0.774,1.883c0.429,2.202,0.92,4.392,1.397,6.585c0.612,2.81-0.468,4.917-2.824,6.347
				c-2.523,1.532-4.981,1.268-7.276-0.619c-3.632-2.987-5.23-8.017-3.38-11.289c0.58-1.027,1.077-3.04,2.849-2.051
				c1.392,0.777,2.293,2.156,1.126,4.09c-1.2,1.988-0.439,3.857,1.143,5.38c0.751,0.723,1.681,1.139,2.733,0.735
				c1.207-0.463,1.166-1.551,0.981-2.535c-0.368-1.959-0.888-3.889-1.286-5.843c-0.584-2.872,0.155-5.26,2.918-6.595
				c2.74-1.325,5.11-0.475,7.036,1.711C45.017,180.472,46.354,182.696,46.427,185.627z"/>
			<path fill="#3E3D38" d="M207.633,183.666c1.447,0.414,3.124,0.883,4.795,1.373c4.182,1.225,8.382,2.397,12.528,3.736
				c0.923,0.298,3.106-0.08,2.219,1.97c-0.512,1.184-1.354,3.083-3.286,2.262c-2.718-1.154-4.317-0.185-5.918,2.027
				c-1.491,2.06-2.716,3.756-0.738,6.235c1.243,1.558-0.083,3.005-1.244,3.796c-1.734,1.18-1.965-0.875-2.493-1.732
				c-2.937-4.775-5.801-9.595-8.6-14.452C203.625,186.68,205.083,183.792,207.633,183.666z M209.541,188.708
				c1.748,2.43,2.018,4.805,4.105,5.212c0.895,0.174,2.43-1.756,1.978-2.641C214.672,189.415,212.363,189.656,209.541,188.708z"/>
			<path fill="#3E3D38" d="M47.334,210.219c-0.118-2.857-5.131-6.382-7.555-5.34c-1.763,0.758-2.766,0.254-3.836-1.043
				c-0.882-1.069-1.23-1.755,0.449-2.406c5.806-2.25,11.587-4.566,17.344-6.937c1.711-0.705,2.475,0.422,3.493,1.336
				c1.159,1.041,0.995,2.07,0.396,3.317c-2.537,5.277-4.993,10.594-7.543,15.864c-0.372,0.769-0.618,2.356-1.954,1.554
				c-1.164-0.698-2.734-1.576-2.023-3.5C46.492,212.022,46.986,211.019,47.334,210.219z M52.797,199.478
				c-2.803,1.182-5.099,1.174-5.893,3.061c-0.358,0.852,1.388,2.69,2.226,2.459C51.209,204.427,51.232,202.014,52.797,199.478z"/>
			<path fill="#FAD401" d="M208.952,133.427c-4.022,15.057-8.093,30.101-12.015,45.183c-0.621,2.388-1.526,3.177-4.066,2.795
				c-34.291-5.156-68.597-10.216-102.899-15.3c-14.313-2.121-28.624-4.259-42.946-6.324c-1.159-0.167-2.409-0.848-3.592,0.033
				c0.001,0.003,0.097,0.102,0.098,0.105c-1.02-8.259-2.04-16.522-3.06-24.785c4.529-2.138,9.308-3.59,14.072-5.068
				c17.136-5.316,34.69-8.244,52.593-9.26c3.034-0.172,4.284,0.623,4.083,3.863c-0.255,4.105-0.009,8.239-0.078,12.358
				c-0.036,2.152,0.669,2.62,2.673,1.766c4.018-1.711,8.087-3.306,12.17-4.859c19.66-7.474,39.793-12.361,61.048-11.194
				c6.947,0.382,8.483,1.709,8.752,8.524c0.07,1.776,0.877,2.073,2.314,2.074C201.716,133.342,205.334,133.394,208.952,133.427z"/>
			<path fill="#D9281E" d="M208.952,133.427c-3.618-0.032-7.236-0.084-10.854-0.087c-1.437-0.001-2.244-0.298-2.314-2.074
				c-0.269-6.815-1.805-8.142-8.752-8.524c-21.255-1.167-41.388,3.72-61.048,11.194c-4.083,1.552-8.152,3.147-12.17,4.859
				c-2.004,0.854-2.71,0.385-2.673-1.766c0.069-4.12-0.178-8.253,0.078-12.358c0.202-3.24-1.048-4.035-4.083-3.863
				c-17.903,1.017-35.457,3.945-52.593,9.26c-4.764,1.478-9.543,2.93-14.072,5.068c-3.118,1.249-6.272,2.417-9.341,3.776
				c-1.794,0.794-2.403,0.349-2.646-1.54c-1.669-12.979-3.294-25.967-5.895-38.803c-0.389-1.918,0.281-3.046,1.947-3.905
				c3.428-1.769,6.806-3.635,10.204-5.461c0.936-0.336,1.892-0.625,2.805-1.014c23.071-9.822,47.082-14.773,72.211-14.071
				c8.756,0.244,8.759,0.156,8.836,8.957c0.002,0.25,0.014,0.501-0.01,0.749c-0.214,2.237,0.759,2.436,2.678,1.838
				c15.203-4.737,30.846-7.28,46.64-8.859c8.441-0.844,16.932-1.311,25.413-1.604c5.376-0.186,7.613,2.251,6.737,7.329
				c-0.637,3.693,1.24,2.49,2.986,2.088c3.662-0.783,7.368-1.406,10.971-2.404c2.397-0.664,3.178-0.032,3.817,2.349
				c3.156,11.753,4.811,23.717,5.642,35.826c0.222,3.239,0.481,6.48,0.865,9.703c0.257,2.16-0.583,2.838-2.68,2.876
				C217.418,133.04,213.16,132.621,208.952,133.427z M196.773,88.022c-0.359-1.48,0.438-2.239,0.755-3.124
				c2.11-5.883,0.724-7.904-5.544-7.708c-22.527,0.705-44.807,3.239-66.611,9.198c-2.749,0.751-6.605,2.989-7.979,1.945
				c-2.113-1.605-0.604-5.549-0.474-8.458c0.124-2.769-0.67-3.628-3.447-3.769c-11.404-0.577-22.72,0.112-33.979,1.876
				c-18.277,2.863-35.633,8.541-51.961,17.269c-1.308,0.699-3.288,1.004-2.883,3.312c0.871,4.965,1.715,9.936,2.632,15.258
				c9.179-4.461,18.213-7.992,27.55-10.738c19.69-5.79,39.799-8.212,60.299-7.833c2.85,0.053,3.698,0.909,3.459,3.676
				c-0.251,2.905-0.056,5.849-0.056,8.978c23.385-9.616,47.542-11.314,72.027-10.664c5.916,0.157,6.604,0.758,7.775,6.293
				c0.354,1.675,0.9,1.944,2.467,1.614c5.616-1.181,11.258-2.245,16.9-3.3c1.581-0.296,1.981-0.927,1.543-2.566
				c-1.128-4.216-2.172-8.466-2.968-12.755c-0.441-2.377-1.343-2.641-3.539-2.074C207.469,85.813,202.114,86.85,196.773,88.022z"/>
			<path fill="#FAD401" d="M203.036,84.614c-1.746,0.402-3.623,1.605-2.986-2.088c0.876-5.077-1.361-7.515-6.737-7.329
				c-8.48,0.293-16.971,0.759-25.413,1.604c-15.794,1.58-31.437,4.123-46.64,8.859c-1.919,0.598-2.893,0.399-2.678-1.838
				c0.024-0.248,0.012-0.499,0.01-0.749c-0.077-8.801-0.079-8.712-8.836-8.957c-25.129-0.702-49.14,4.249-72.211,14.071
				c-0.913,0.389-1.869,0.678-2.805,1.014c-0.841-6.798-1.647-13.602-2.547-20.392c-0.244-1.841-0.018-2.97,2.108-3.522
				c24.452-6.349,48.882-12.783,73.318-19.194c0.156,0.179,0.319,0.351,0.49,0.516c-1.116,2.491-2.437,4.912-3.308,7.486
				c-1.999,5.908,0.254,9.13,6.499,9.582c3.404,0.246,6.72-0.333,9.991-1.208c22.294-5.959,44.603-11.866,66.862-17.956
				c3.055-0.836,4.235-0.465,5.052,2.834C196.291,59.817,199.729,72.199,203.036,84.614z"/>
			<path fill="#FAD401" d="M107.618,46.093c0.314,0.01,0.629,0.019,0.943,0.029c-0.151,0.162-0.302,0.325-0.454,0.488
				C107.938,46.444,107.774,46.272,107.618,46.093z"/>
			<path fill="#F7D205" d="M67.718,218.451c-0.243,0.101-0.485,0.201-0.728,0.302c0.021-0.293,0.043-0.585,0.063-0.877
				C67.274,218.067,67.496,218.259,67.718,218.451z"/>
			<path fill="#F7D205" d="M136.589,235.824c1.756,0.142,3.889-0.095,4.009,2.32c0.119,2.403-1.959,2.56-3.703,2.625
				c-1.599,0.06-3.687,1.694-4.456-1.407C131.386,235.109,134.625,236.278,136.589,235.824z"/>
			<path fill="#F7D205" d="M134.07,232.223c-2.155,0.392-2.274-0.868-2.369-2.194c-0.219-3.04,2.15-2.167,3.631-2.235
				c1.464-0.067,3.85-0.495,3.599,1.938C138.622,232.717,135.517,231.41,134.07,232.223z"/>
			<path fill="#F7D205" d="M157.587,223.508c2.196-0.193,3.607,0.592,3.238,2.169c-0.658,2.81-3.499,2.932-5.712,3.309
				c-1.898,0.324-2.162-1.719-2.03-2.883C153.432,223.021,156.546,224.571,157.587,223.508z"/>
			<path fill="#F7D205" d="M95.339,227.294c-0.107,4.363-3.015,8.033-6.301,7.952c-2.925-0.072-5.108-2.616-4.996-5.824
				c0.149-4.268,2.844-7.591,6.149-7.584C93.446,221.845,95.421,223.939,95.339,227.294z"/>
			<path fill="#F7D205" d="M118.413,233.115c0.004,4.52-2.141,7.517-5.447,7.612c-3.288,0.095-5.55-2.431-5.498-6.141
				c0.062-4.456,2.31-7.362,5.72-7.395C116.408,227.16,118.41,229.429,118.413,233.115z"/>
			<path fill="#F7D205" d="M173.054,219.436c0.13-2.891,2.519-5.017,5.482-4.876c3.076,0.146,6.524,4.45,6.474,8.08
				c-0.039,2.777-2.577,5.19-5.386,5.118C176.316,227.674,172.879,223.321,173.054,219.436z"/>
			<path fill="#F7D205" d="M209.541,188.708c2.823,0.948,5.131,0.707,6.083,2.572c0.452,0.885-1.084,2.815-1.978,2.641
				C211.558,193.513,211.288,191.138,209.541,188.708z"/>
			<path fill="#F7D205" d="M52.797,199.478c-1.565,2.537-1.588,4.949-3.666,5.521c-0.838,0.23-2.585-1.608-2.226-2.459
				C47.698,200.652,49.994,200.66,52.797,199.478z"/>
			<path fill="#FEFDFC" d="M196.773,88.022c5.341-1.172,10.695-2.209,15.966-3.57c2.196-0.567,3.099-0.303,3.539,2.074
				c0.795,4.289,1.84,8.539,2.968,12.755c0.438,1.638,0.039,2.27-1.543,2.566c-5.642,1.055-11.284,2.119-16.9,3.3
				c-1.567,0.329-2.113,0.061-2.467-1.614c-1.171-5.534-1.859-6.136-7.775-6.293c-24.485-0.65-48.642,1.048-72.027,10.664
				c0-3.128-0.195-6.072,0.056-8.978c0.239-2.767-0.61-3.623-3.459-3.676c-20.5-0.379-40.609,2.043-60.299,7.833
				c-9.337,2.746-18.371,6.276-27.55,10.738c-0.916-5.322-1.76-10.293-2.632-15.258c-0.405-2.309,1.575-2.613,2.883-3.312
				c16.328-8.728,33.684-14.406,51.961-17.269c11.259-1.764,22.575-2.452,33.979-1.876c2.777,0.141,3.571,0.999,3.447,3.769
				c-0.13,2.91-1.639,6.853,0.474,8.458c1.373,1.044,5.23-1.194,7.979-1.945c21.804-5.959,44.084-8.492,66.611-9.198
				c6.269-0.196,7.654,1.825,5.544,7.708C197.212,85.783,196.414,86.542,196.773,88.022z"/>
		</g>
	</g>
</g>
</svg>
