<?xml version="1.0" encoding="utf-8"?>
<!-- Generator: Adobe Illustrator 17.0.0, SVG Export Plug-In . SVG Version: 6.00 Build 0)  -->
<!DOCTYPE svg PUBLIC "-//W3C//DTD SVG 1.1//EN" "http://www.w3.org/Graphics/SVG/1.1/DTD/svg11.dtd">
<svg version="1.1" id="Warstwa_1" xmlns="http://www.w3.org/2000/svg" xmlns:xlink="http://www.w3.org/1999/xlink" x="0px" y="0px"
	 width="409.878px" height="409.878px" viewBox="-217.122 -217.122 409.878 409.878"
	 enable-background="new -217.122 -217.122 409.878 409.878" xml:space="preserve">
<g>
	<polygon fill="#FFFFFF" points="-217.122,-217.122 192.756,-217.122 192.756,192.756 -217.122,192.756 	"/>
	<path fill="#E30613" d="M52.596-146.381c73.927,0,134.132,60.333,134.132,134.261S126.521,122.015,52.596,122.015
		c-35.439,0-67.828-13.845-91.833-36.455l151.151-19.18h-323.008V-10.85h386.264l0.253-1.269
		c0-67.703-55.125-122.957-122.828-122.957c-35.439,0-67.573,15.242-90.056,39.377h-14.861
		C-27.68-126.567,10.172-146.381,52.596-146.381L52.596-146.381z"/>
	<polygon points="-34.921,-52.387 -34.921,-17.837 -56.387,-17.837 -77.598,-49.973 -77.598,-17.837 -99.953,-17.837 
		-99.953,-86.429 -78.106,-86.429 -57.656,-55.053 -57.656,-87.064 -34.921,-87.064 	"/>
	<polygon points="36.973,-52.387 36.973,-17.837 14.618,-17.837 14.618,-87.064 36.973,-87.064 	"/>
	<path d="M-144.537-41.081c-0.381,15.878-14.226,23.627-33.153,23.627c-18.672,0-32.645-7.876-33.153-23.12v-44.457h21.847v40.519
		c0,6.477,5.208,8.637,11.304,8.637s11.176-2.033,11.049-8.257v-40.899h21.849L-144.537-41.081L-144.537-41.081z"/>
	<path d="M119.663-43.241h6.096l-2.794-7.24l-3.302-9.271v-27.312h12.193l13.337,34.675l13.339,34.552h-22.483l-4.191-9.909h-12.193
		v-15.495H119.663z M116.105-50.482l-2.413,7.24h5.969v15.497h-11.687l-3.683,9.909H81.809l26.674-69.227h11.179v27.309
		l-0.128-0.381L116.105-50.482L116.105-50.482z"/>
	<path fill="#FFFFFF" d="M-20.82,45.041v-7.874h12.701L-20.695,9.221h-0.128V1.347h10.035l25.021,53.73H-0.12l-4.699-10.035H-20.82
		V45.041z M69.363,19.384c-0.253-5.969-1.272-8.891-7.113-9.526c-6.352-0.636-17.656-0.889-21.974,2.541
		c-5.08,3.938-3.685,17.528-3.43,22.608c0.508,12.448,10.16,11.94,20.703,11.687c9.018-0.128,12.576-0.636,12.576-10.796h13.845
		c0.128,6.732-1.144,13.464-5.335,16.131c-3.685,2.286-7.874,3.428-13.717,3.683c-12.067,0.381-37.852,3.938-41.282-13.337
		c-1.397-7.113-1.269-17.147-0.508-24.388C24.523,1.981,40.909,0.965,53.991,0.965c15.497,0,29.215-1.144,29.215,18.419
		L69.363,19.384L69.363,19.384z M118.011,55.075V34.498L91.462,1.345h16.005l17.403,22.991h0.381l17.783-22.991h16.259
		l-27.182,33.153v20.577H118.011L118.011,55.075z M-20.82,1.347v7.874l-12.701,27.945h12.701v7.874h-15.75l-4.699,10.035h-14.606
		l24.515-53.73h10.541V1.347z M-95.761,37.292v-8.763h4.446c8.002,0,11.304-1.525,11.304-9.526c0-8.765-3.811-8.891-11.687-8.891
		h-4.064V1.347h6.224c12.067,0,23.752,1.016,23.752,16.005c0,9.907-2.541,13.973-13.082,15.242
		c14.734,1.778,12.448,10.415,12.448,22.483h-14.226c0-3.683,0.508-8.637-0.125-12.195c-1.272-5.969-7.876-5.588-12.576-5.588
		h-2.416V37.292z M-169.178,1.347h2.539c9.654,0,23.754-0.255,26.04,11.94c3.43,18.797-5.08,24.515-22.608,24.515h-5.971v-8.637
		c2.922,0,5.716-0.128,8.51-0.508c7.24-0.889,7.621-6.858,6.479-13.084c-1.142-5.588-7.874-5.461-12.193-5.461h-2.794V1.347
		H-169.178z M-95.761,1.347v8.765h-15.75v18.419h15.75v8.763h-15.75v17.783h-14.098V1.347L-95.761,1.347L-95.761,1.347z
		 M-184.548,37.803v17.275h-14.1V1.347h29.468v8.765h-15.37v18.8c4.955,0,10.288,0.253,15.37,0.253v8.637L-184.548,37.803
		L-184.548,37.803z"/>
</g>
</svg>
