<?xml version="1.0" encoding="utf-8"?>
<!-- Generator: Adobe Illustrator 17.0.0, SVG Export Plug-In . SVG Version: 6.00 Build 0)  -->
<!DOCTYPE svg PUBLIC "-//W3C//DTD SVG 1.1//EN" "http://www.w3.org/Graphics/SVG/1.1/DTD/svg11.dtd">
<svg version="1.1" id="Warstwa_1" xmlns="http://www.w3.org/2000/svg" xmlns:xlink="http://www.w3.org/1999/xlink" x="0px" y="0px"
	 width="552.028px" height="172.239px" viewBox="0 0 552.028 172.239" enable-background="new 0 0 552.028 172.239"
	 xml:space="preserve">
<path fill-rule="evenodd" clip-rule="evenodd" fill="#FFFFFF" d="M99.242,51.286l-12.417-2.257l-7.525,4.703l-6.773,0.565
	L58.04,74.99l0.564,6.961l0.188,2.822l-0.376,4.891l1.694,2.069l-3.01,6.773l5.08,5.456l14.298,12.04l15.803,3.01l28.973-10.159
	l9.783-19.566l-0.188-15.238l-2.257-4.704l-3.198-6.396c-1.021-0.456-1.087-1.629-2.108-2.085c-1.022-0.456-1.446-1.031-3.065-2.443
	c-0.843-0.734-2.642-0.672-3.663-1.127c-1.021-0.455-2.762,0.403-3.782-1.248c-1.083-1.751-3.177-0.952-4.927-2.039
	C104.142,51.706,101.99,52.512,99.242,51.286L99.242,51.286z"/>
<path fill-rule="evenodd" clip-rule="evenodd" fill="#005CA9" d="M190.43,124.739v20.997c0,4.476-0.489,8.057-2.279,10.336
	c-2.523,3.092-6.185,5.046-11.72,5.208c-3.825,0-7.488-0.895-10.418-4.313c-1.953-1.953-2.686-6.429-2.686-8.871v-26.939
	c0-6.592,3.418-5.289,6.756-5.941v-1.383h-21.242v1.383c4.232,0.733,6.755-0.244,6.755,6.755v25.23c0,3.825,1.139,8.464,4.07,11.801
	c3.255,3.744,7.813,5.535,14.731,5.535c6.347,0,11.557-1.547,14.812-4.884c2.849-3.092,4.395-8.057,4.395-13.428v-22.87
	c0-8.138,3.256-7.487,7.081-8.138v-1.383h-17.335v1.383C188.883,115.38,190.43,116.926,190.43,124.739L190.43,124.739z
	 M199.22,133.529c0.651-0.244,1.709-0.244,2.441-0.244c1.465,0,2.36,0.814,2.36,5.208v18.963c0,3.5-1.301,4.802-4.639,4.802v1.22
	h15.87v-1.22c-4.15-0.163-4.964-1.547-4.964-3.906v-20.998c2.93-2.93,5.29-4.232,7.569-4.394c3.093,0,5.698,1.465,5.698,6.917
	v16.115c0,3.825-0.652,6.266-4.721,6.266v1.22h15.545v-1.22c-4.558-0.325-4.558-2.034-4.558-5.697v-16.685
	c0-5.778-2.441-11.068-9.034-11.068c-3.744,0-6.918,2.523-10.743,6.185v-6.022l-0.489-0.163c-3.906,1.709-6.999,2.36-10.335,3.418
	V133.529L199.22,133.529z M238.773,155.665c0,6.104-1.221,6.429-6.023,6.593v1.22h17.824v-1.22
	c-2.768-0.163-3.988-0.488-4.721-1.383c-0.651-0.977-0.814-2.523-0.977-3.907c0.163-0.57,0.163-0.895,0.163-1.139v-26.695
	l-0.325-0.325c-4.395,1.709-7.813,2.93-11.72,4.151v1.139c0.977-0.163,1.872-0.163,2.686-0.163c2.441,0,3.093,1.791,3.093,4.313
	V155.665L238.773,155.665z M241.215,112.124c-2.035,0-3.826,1.872-3.826,3.825c0,2.197,1.791,3.906,3.826,3.906
	c2.034,0,3.825-1.709,3.825-3.906C245.04,113.996,243.249,112.124,241.215,112.124L241.215,112.124z M269.863,141.423
	c-6.918,2.849-18.149,5.779-18.963,14.65c0.325,4.476,3.255,8.138,8.138,8.138c3.093,0,6.674-1.465,10.988-5.453
	c0.325,3.011,1.057,5.453,5.127,5.453c2.686,0,4.72-1.79,6.266-3.662v-2.035c-0.814,0.814-1.872,1.383-3.092,1.547
	c-0.163-0.163-0.244-0.163-0.244-0.163c-1.791-0.081-2.035-0.895-2.035-4.476V140.69c0-8.138-2.686-11.394-11.15-11.882
	c-5.453,0-11.312,2.767-12.452,8.382c0.162,1.954,1.546,3.337,3.174,3.337c1.465,0,3.418-0.977,3.418-3.174
	c0-0.733-0.162-2.035-0.488-2.686c0.163-2.93,3.418-3.988,5.616-3.988c2.441,0,5.697,1.22,5.697,6.104V141.423L269.863,141.423z
	 M257.654,155.259c0-7.081,6.592-10.011,12.208-11.964v11.72c0,3.337-4.639,4.639-7.406,4.883
	C259.852,159.328,258.305,158.189,257.654,155.259L257.654,155.259z M323.008,164.374h1.058l11.72-31.822
	c4.15,10.662,7.975,20.754,11.963,31.822h1.14c4.72-15.545,10.417-30.683,14.731-42.239c0.57-1.383,1.302-3.988,2.197-4.965
	c0.733-0.732,1.791-1.465,4.721-1.953v-1.383H355.48v1.383c2.604,0.163,5.209,0.896,5.209,3.663c0,1.872-0.733,3.907-1.058,4.802
	l-9.523,25.799l-11.394-29.38c-0.163-0.733-0.326-1.465-0.488-2.034c0.162-2.116,1.546-2.849,5.697-2.849v-1.383h-20.021v1.383
	c4.151,0,4.965,1.058,6.104,3.418c1.464,2.93,2.849,6.348,3.907,9.441l-7.976,21.16c-3.744-9.685-6.756-17.742-11.231-29.136
	c-0.244-0.895-0.407-1.628-0.488-2.278c0.081-2.116,1.872-2.605,4.964-2.605v-1.383h-18.393v1.383
	c3.825,0.163,5.127,2.441,6.511,5.616C311.451,131.575,319.182,152.898,323.008,164.374L323.008,164.374z M363.375,146.225
	c0,13.428,9.848,17.986,16.44,17.986c14.08-0.57,16.44-13.103,16.766-17.823c0-3.744-1.709-17.58-17.091-17.58
	C368.34,128.808,363.375,138.656,363.375,146.225L363.375,146.225z M370.13,142.806c0-3.662,1.628-11.801,8.79-11.801
	c8.708,0,10.743,11.069,10.743,17.824c0,10.335-4.964,13.103-8.627,13.265C372.246,162.095,370.13,148.585,370.13,142.806
	L370.13,142.806z M402.033,122.134v34.101c0,5.697-1.953,5.616-5.778,6.022v1.22h17.824v-1.22c-2.768-0.325-5.698,0.325-5.698-4.802
	c0-14.812,0-29.787,0-45.169l-0.325-0.162c-4.72,1.546-7.976,2.441-11.882,3.418v1.221c0.814,0,1.628-0.163,2.197-0.163
	C402.033,116.6,402.033,118.798,402.033,122.134L402.033,122.134z M412.695,133.529c0.652-0.244,1.71-0.244,2.442-0.244
	c1.465,0,2.36,0.814,2.36,5.208v18.963c0,3.5-1.301,4.802-4.72,4.802v1.22h15.952v-1.22c-4.232-0.163-4.965-1.547-4.965-3.906
	v-20.998c2.93-2.93,5.29-4.232,7.569-4.394c3.012,0,5.698,1.465,5.698,6.917v16.115c0,3.825-0.652,6.266-4.721,6.266v1.22h15.545
	v-1.22c-4.558-0.325-4.558-2.034-4.558-5.697v-16.685c0-5.778-2.442-11.068-9.034-11.068c-3.744,0-6.918,2.523-10.743,6.185v-6.022
	l-0.488-0.163c-3.907,1.709-6.999,2.36-10.336,3.418V133.529L412.695,133.529z M447.203,146.225c0,13.428,9.847,17.986,16.44,17.986
	c14.08-0.57,16.44-13.103,16.766-17.823c0-3.744-1.709-17.58-17.091-17.58C452.167,128.808,447.203,138.656,447.203,146.225
	L447.203,146.225z M453.958,142.806c0-3.662,1.628-11.801,8.79-11.801c8.708,0,10.743,11.069,10.743,17.824
	c0,10.335-4.965,13.103-8.627,13.265C456.074,162.095,453.958,148.585,453.958,142.806L453.958,142.806z M482.361,138.086
	c0,6.917,6.756,9.685,12.127,12.777c3.581,2.035,4.802,3.5,4.802,6.267c0,3.255-2.442,5.453-5.942,5.453
	c-6.347,0-8.708-4.639-9.685-10.499h-1.139v11.72h0.814c0.325-0.652,0.895-0.977,1.791-0.977c1.872,0,4.801,1.383,8.627,1.383
	c4.883,0,10.906-3.336,10.906-9.685c0-10.906-16.033-9.359-17.661-18.8c0.732-2.93,2.116-5.127,5.697-5.127
	c3.581,0,6.918,2.197,8.464,9.277h0.976l-0.244-10.254h-0.732c-0.326,0.57-0.651,0.733-1.384,0.895
	c-1.302-0.162-3.5-1.709-6.917-1.709C486.349,128.971,482.525,132.796,482.361,138.086L482.361,138.086z M490.989,125.797h2.929
	l8.953-5.453c2.279-1.465,3.988-2.197,4.639-3.987c0-0.163,0.163-0.407,0.163-0.815c0-1.383-0.977-2.278-2.36-2.523
	c-2.034,0-2.93,1.302-3.825,2.197L490.989,125.797L490.989,125.797z M506.615,140.365c-0.569,1.547-1.058,4.639-1.058,7.406
	c0,8.22,5.046,16.44,14.161,16.44c8.464,0,12.941-7.243,14.975-11.719l-1.058-0.733c-2.93,4.639-6.023,6.999-10.58,6.999
	c-8.138,0-11.475-7.569-11.719-14.08c0-5.371,2.523-13.673,9.441-13.673c4.069,0,4.639,1.383,5.371,3.988
	c0.733,3.255,2.035,4.883,3.988,4.883c1.464,0,3.499-1.22,3.499-3.499c-0.244-4.313-5.616-7.406-11.475-7.406
	C516.299,128.971,509.708,132.389,506.615,140.365L506.615,140.365z M540.145,155.665c0,6.104-1.22,6.429-6.022,6.593v1.22h17.905
	v-1.22c-2.767-0.163-3.988-0.488-4.721-1.383c-0.651-0.977-0.814-2.523-0.976-3.907c0.162-0.57,0.162-0.895,0.162-1.139v-26.695
	l-0.326-0.325c-4.395,1.709-7.813,2.93-11.72,4.151v1.139c0.977-0.163,1.872-0.163,2.605-0.163c2.523,0,3.092,1.791,3.092,4.313
	V155.665L540.145,155.665z M542.669,112.124c-2.035,0-3.825,1.872-3.825,3.825c0,2.197,1.79,3.906,3.825,3.906
	c2.035,0,3.825-1.709,3.825-3.906C546.494,113.996,544.704,112.124,542.669,112.124L542.669,112.124z"/>
<path fill-rule="evenodd" clip-rule="evenodd" fill="#E63027" d="M109.931,115.182l-20.343,2.116l-4.129-2.327
	c-2.039-1.8-4.724-2.284-5.963-4.668c-2.51,0.186-3.832-0.815-5.9-2.158l-0.171-1.249h0.682l0.34-0.624
	c-3.734-1.547-6.654-0.93-6.24-5.621l-0.908,0.114l-1.134-1.079l-0.567-3.009l0.453-0.228l-0.057-0.738l2.554-0.681l0.567,0.51
	l2.099-0.17l0.114-0.568c-2.579-0.752-2.2-3.294-5.333-4.257l-1.701-1.306l0.51-0.228l-0.34-1.533l-0.964,0.114l0.228-2.497
	l1.531-1.022c3.392,0.848,6.501,2.753,9.53,4.485l2.723-1.362l3.801,1.987l2.382-0.511l-0.68,1.874l2.382,0.114l2.723-3.123
	l2.382,1.306l-0.51,0.851c1.531,2.489,3.921,1.88,5.9,3.86l0.34-0.397l0.567,0.568h2.382l0.397,0.397l0.567-0.739l0.568-0.057
	l1.077,0.965l-1.418,0.114l0.056,0.625l1.589,0.51l1.532-2.384l0.567,0.738l1.418-0.284l0.851-1.363l2.326,1.646l0.567-0.227
	l0.681,0.454l0.567-0.397l0.057-1.704l2.269,0.114l-0.795-1.192h1.419l0.51-0.795c1.056,0.452,1.748,0.102,3.007,0.795l1.986-1.192
	l3.403,1.646l0.907,3.86l-1.986,2.271l0.828,4.071l0.606,4.311L109.931,115.182L109.931,115.182z"/>
<path fill-rule="evenodd" clip-rule="evenodd" fill="#FFD500" d="M103.254,113.786c6.954-4.238,12.485-4.987,18.73-12.054
	c2.943-4.123,4.495-5.575,2.666-10.389l0.511-0.114l0.17-0.795l-0.681-0.568l1.135-3.52l1.305-0.114l-0.171-3.974h0.795l0.17-0.681
	l-1.305-0.454l1.135-1.022l-1.645-0.795v-1.363l0.567-0.284l-0.34-2.555l1.986-1.93l0.114-1.93
	c-1.142-0.544-2.319-0.707-3.404-1.249l0.227-0.397l0.738,0.113l0.907-1.986l-2.042-0.398l-1.929-3.633
	c0.79-0.158,2.215-1.974,3.063-2.668c0.353,1.837,1.051,2.102,2.155,3.576l-0.907,0.227l0.228,1.25l1.587,0.624l0.568-1.76
	l1.531-0.171c1.072,1.523,2.345,2.869,2.155,4.769l-0.851-0.228l-0.397,1.76l0.738-0.511l1.021,1.306l1.191,0.057l0.171,1.476
	l-0.625-0.34l-0.227,0.34c1.462,0.995,1.481,1.035,2.156,2.554l0.794-0.057c-0.484,0.762-0.821,6.892-0.681,7.835l-0.681,0.454
	l0.51,1.192l-0.964,0.965l0.34,1.59l-0.964,0.738l0.567,3.746l-1.305,0.171l0.34,1.646l0.851,0.397l-0.738,0.965l-0.908-0.227
	l-0.17,0.625l1.305,0.624l-0.681,0.397l0.227,0.397l-1.702-0.795l-0.34,0.34l2.326,1.703l-1.077,1.079l-1.419-1.192l-0.795,0.454
	l0.057,0.908l-0.907,0.454l0.34,0.568l2.099,0.113l0.51,1.533l-1.872,0.284l-1.816-1.589l-0.567,0.965l3.347,1.817l-3.517,0.284
	l0.17,0.397l-0.624,0.851l0.454,0.227l-0.227,0.34l-1.135,0.057l0.51,1.76l-1.475,0.738l0.51,1.192
	c-1.253,0.457-1.209,1.588-1.305,2.782l-1.815,1.476l-0.964-0.511l-0.17-0.965l-0.511,0.057l-0.624-0.624l-1.134,1.249l-0.738-0.114
	l-1.475,2.839h-0.738l-0.171-0.851l-0.624-0.228v1.76l-2.439-0.227l0.057,1.817l-3.46,0.34l-1.078,1.589l-3.801-0.624l-1.816,2.781
	l-3.97-0.284v-0.397l1.815-0.454l-0.284-0.511l-2.666-0.114l-1.702,2.044l0.228,0.738l-0.454,0.171l-0.454-0.965l-0.34,0.851
	l-1.588-0.057l-0.114-0.965l-0.624-0.34l0.227,0.795l-1.986-1.135c-0.954,0.882-4.961,1.267-6.07,0.908l-0.51-1.136l-2.61-0.511
	l-0.454,1.136c-2.19-2.466-2.898-1.586-5.559-3.065l-1.078,0.738l-1.248-0.795l0.113-2.157l-1.872-0.454l-0.738,1.249
	c-1.532-0.959-2.139-1.566-1.928-3.463c-2.725,0.199-4.643-0.662-7.034-2.157l0.794-0.511l-0.907-0.341v-0.624l-1.021-0.965
	l0.567-1.192l-1.758-1.93l0.397-0.965c-0.923-0.718-0.724-1.217-1.986-1.532l-0.397,1.249l-0.795-0.34l0.624-0.739l-2.552-1.703
	l0.794-0.738c-0.911-1.114-2.574-2.473-2.666-3.861l2.042-0.624l-0.34-1.193l-1.134,0.114l-0.228-1.079l0.907-0.284l1.078,0.851
	l0.567-0.397l-0.056-1.135l1.02-0.397l-0.17-0.852l1.305-0.681L59.47,91.74l-2.496-1.249l-1.816,1.249l-0.17-0.908l-1.248-0.795
	l0.624-0.682l-0.114-1.135h1.191l-1.191-1.363l1.021-0.397l0.17,0.511l1.078-0.057l0.171,0.511l-1.588,1.76l0.453,0.795l2.042,0.057
	v-2.214l0.34-0.171l0.851,1.079l0.227-0.739l-0.907-1.078l0.964,0.17l0.397,0.568l0.284-0.34l-0.567-1.136
	c-1.925,0.241-3.192-0.293-5.105-0.17l0.227-0.34l-0.51-0.908l0.624-1.079l0.567,0.454l-0.114,0.511l0.795,0.795l-0.34-2.1
	l0.453-0.284l1.192,0.852l1.248-0.455l0.227-0.624l-1.077-0.454l-0.511,0.681l-1.021-0.851l-1.418,0.625l-0.171-3.179l1.305-2.214
	l-0.681,0.454l-0.567-0.171l1.248-3.917l1.078,0.681l0.397-0.51l-1.532-1.874l2.44-2.782l-1.021-1.817l-0.681,0.228l-0.34-0.454
	l1.135-1.192l0.964,0.34c1.339-1.607,2.197-3.064,4.142-3.86l0.284-1.76l1.986-1.475l-1.192-1.59l0.568-0.171l-0.057-0.567
	l0.907-0.228l-0.171-0.795l0.397-0.057l0.567,0.965l0.397-0.114l0.795-2.1c-1.981-0.641-2.516-0.814-4.369,0.114l0.738,0.511
	l0.738-0.511l0.17,0.397l-1.645,0.681l-0.794-1.022l-0.568,1.022L57.655,56.6l-2.212-1.193l-0.851-2.554l-2.212-2.328l0.114-0.454
	l-1.816-1.192l0.624-0.738l-0.17-0.511l-1.475,0.453l-1.135-2.156l0.681-0.795l-0.114-0.795l-0.964,0.568l-3.971-2.611l0.568-0.341
	l-0.454-0.567l-1.531,0.056l0.624-1.078l-0.795-0.397l-0.567-1.703l-0.567,0.113l-0.397-0.34l0.738-1.703l-3.403-0.851l-0.511-1.362
	l-0.851,0.511l-0.454-0.908l0.624-0.965l0.34,0.171l0.284-0.397l-1.021-0.966l0.284-0.851l1.929,1.362l-0.228-1.646
	c-1.489,0.458-2.593-0.365-3.234-1.646c0.834-1.896,1.552-1.61,2.837-2.896l-1.078-2.554l1.134-0.908l2.893,1.192
	c0.642,2.022,2.371,2.779,2.269,4.712l-0.34,0.171l-0.737-0.739l-0.284,0.511l1.419,1.475l0.795-0.284
	c1.48,1.058,2.206,2.873,1.815,4.599l0.795,0.171l0.567,1.419l2.383,0.851l-0.171,0.908c1.613,0.98,2.406,1.451,3.063,3.236
	l1.249-0.17l-0.057,1.306l0.794,0.227l0.34,0.682l1.248-0.228l1.021,1.022l-0.51,2.1l0.964,0.739l0.737-0.965h0.964l0.908,1.192
	c1.821-0.331,2.697,1.891,4.198,2.725l-0.228,0.908l-0.624-0.34l-0.51,0.17c1.139,1.368,2.368,1.375,3.744,2.555l-0.795,1.362
	l1.362,0.795c-1.158,0.724-1.075,1.081-1.021,2.385c1.376-1.837,2.426-0.206,3.178-3.861l2.042-1.078
	c3.128,0.534,5.018-1.056,8.055-0.341l-0.113-0.795c2.282-1.14,3.282-1.564,5.899-2.044l0.114-1.703l1.078,0.455l2.439-1.079
	l0.794,0.34l0.171,1.136l1.532,0.397l0.681-0.625l3.404,0.965l0.51-0.568l3.346,0.34l-0.567,0.398
	c1.691,0.281,5.315,0.253,6.41,1.248l-3.914-0.397l-0.227,1.193l2.44,0.511l-0.228,1.249c-0.712,0.194-1.627,0.795-2.212,0.795
	l0.227-1.249l-2.836,1.532l-0.227,0.908l-3.971-3.406c-2.148,1.075-6.428-0.266-7.715-2.271l-0.567,0.397l0.454,2.498l-1.645,0.227
	l2.042,0.568l-0.68,0.738l-1.249-0.795c-2.504,1.404-3.042,2.949-6.07,3.804l-4.311-1.703C70.964,60.89,63.345,66.349,62.59,74.084
	l-0.453,0.171l-0.397,1.93l0.567,0.568l-1.758,2.498l-1.078-0.34l-0.511,0.568l0.34,1.192l0.568-0.511l-0.228,2.271l-0.681-0.057
	l0.34,1.192l0.908,0.284c-0.478,2.185-0.971,5.535,0.567,7.266l-0.851,4.087l0.511-0.17l-0.284,0.227l0.17,0.851l-0.738,0.682
	l1.192,0.454l0.113,0.454l-1.644,0.284l1.248,1.306l0.907-0.114c2.221,5.188,7.922,10.384,12.934,13
	c2.39,3.348,9.004,3.3,12.707,3.407C91.779,115.248,97.897,116.744,103.254,113.786L103.254,113.786z"/>
<path fill-rule="evenodd" clip-rule="evenodd" fill="#FFD500" d="M96.854,45.643l6.24,0.114l1.532-2.385l0.964,1.703l2.44,0.625
	l-2.95-2.385l0.51-2.271l-1.872,0.057l-0.17-1.987l1.361-0.056l0.624,0.625l0.738-0.284l0.511,0.397l-0.284-1.079l-3.517-0.51
	l1.475-0.454l-1.929-0.625l0.17-0.567l2.269,0.113l0.851,1.306l0.737-0.454l-1.191-1.589l-1.588,0.227l-0.113-0.51l2.155-0.739
	v-0.34l-1.702-0.34l0.34-0.397h1.134l-1.304-1.93l0.794-0.965l0.851,0.851l0.227-0.114l-0.454-1.135l-1.418,0.34l0.396-3.86
	l3.007-1.022l0.453,1.419l1.532-1.193l-2.44-0.851l-0.567,0.284l-0.51-0.682c2.252-1.741,0.585-2.994,2.553-4.087l1.701,1.419
	l-1.475-1.532l0.34-0.625l0.964-0.227l-0.397-1.761l-0.851-0.17l-0.454,0.34v-1.362l1.929-0.397l-0.057-0.681l-1.361,0.624
	l-1.249-0.681l3.631-1.419l-1.021-1.817c1.051-1.579-0.37-2.407,0.114-3.86l1.191,0.34l0.34-0.397l-2.098-0.568
	c-0.687-1.813-0.602-1.954-2.212-2.952l-0.057-2.497c-1.089-0.545,0.253-1.298-2.099-2.384l-0.737,0.795L102.641,0l-0.624,0.511
	l0.624,0.624L102.3,1.76l-1.078-0.511c-0.126,1.766,1.355,2.468,0.908,4.258l-0.567-0.511l0.114-0.511l-1.135,0.114l0.397,1.589
	l-1.248,2.839l-0.511,0.17c-1.081,2.987-1.37,2.915-0.396,5.621l1.588-0.057l-0.795-4.428l2.95,2.044
	c-0.761,2.134-3.064,2.786-3.064,4.314l-2.155,1.078c0.795,0.7,1.69,1.79,2.836,1.647l-0.396,0.851l0.851,0.113l0.283,0.455
	l-1.248,1.589l-0.738-0.795l0.511-0.228l-0.908-0.738l-0.056-1.419l-0.908-0.057l0.454,1.136l-1.588,2.27l0.908,0.455l-1.021,0.964
	l0.625,0.455l-2.383,0.681h1.702l0.056,0.511l-2.269,1.078c0.791,2.661,0.97,2.151-0.396,4.599l0.794,1.59l-1.134,0.681
	c0.067,2.08,0.013,5.28,1.815,6.756l-0.738,0.567l0.114,1.363l1.191,0.624L96.854,45.643L96.854,45.643z M126.75,58.472l3.801,0.171
	l1.248-2.043l0.851,0.113l-0.284,1.249c1.851-1.259,3.511-1.22,4.652-3.122c1.434-0.538,0.74-3.52,3.744-3.52l1.191-1.419
	l-0.907-0.795c2.159,0.188,3.48-1.413,4.255-3.406l-0.51-1.136l1.134,0.228v-1.589l0.851,0.17l0.795-1.135l-0.397-1.193l1.305-0.964
	l-0.17-0.795l0.51-0.284l-0.964-0.625l0.057-0.397l1.645,0.454l0.51-1.419l2.043-1.078l-0.057-0.454l1.077-1.362l1.021,0.908
	c1.614-2.692,3.093-3.494,4.085-6.756l-0.454-0.795l-1.872,0.454L155,26.909l1.248-0.227l0.057-0.455l-1.135-1.249l-0.681,0.114
	l-0.51-0.511l-0.397,2.328l-0.681-0.908h-1.361l-0.284-0.284l-0.056,0.058l0.396,1.532c-1.524,0.897-2.585,0.195-4.141-0.454
	l0.397,1.136l-0.397,0.34l-0.51-0.34l-0.568,1.192l-1.872-0.057l0.171,0.511h0.851c0.785,1.714,0.53,2.058,0.171,3.86l-1.249,0.228
	l0.114,0.908l-1.701-1.93l-0.738,0.057l-0.738,1.021l0.114,0.568l-0.227,0.228h-0.624l-0.227-0.568
	c-1.211,2.062-1.595,4.659-3.517,5.62l-0.057,0.966l-0.454,0.34l-0.623-0.624l-0.34,0.795l1.815,0.795l-0.851,0.284v0.567
	l-2.042-0.397v1.817l-0.454,0.284l-0.396-0.284l-1.135,0.397c-0.279,2.455-1.181,4.149-0.567,6.529l-1.191,0.965l-0.738-0.739
	l0.681,1.647c-0.795,0.529-3.18,0.775-4.369,1.135l-0.396-0.34l-2.043,2.554C124.147,57.393,125.603,58.472,126.75,58.472
	L126.75,58.472z M148.079,91.683c3.46-2.272,8.111-2.044,12.196-3.406c2.605,0.318,4.313-0.228,6.524-1.93
	c1.168,0.519,2.178-0.636,3.177,0.114c1.556-1.055,3.858-1.836,5.786-1.249c0.657-0.949,1.148-1.178,1.532-2.328l-3.064-0.739
	l-1.362,0.908l-1.021-1.76c3.079-0.791,4.754,0.942,7.602,0.284l-1.135-2.1l-1.475,0.397l-0.34-0.625l-3.12-0.568l-0.511,0.511
	l-0.624-0.738l-1.419,0.511l-0.624-0.682l-0.681,0.171l-0.567-0.397c-2.693,1.225-6.445,0.044-9.587,0.567
	c-1.738,0.062-3.133,0.57-4.651-0.114c-1.226,0.701-4.992,1.615-6.24,1.079c-2.416,1.209-6.414,1.214-9.246,1.703l0.624,1.59
	l0.681,0.057c-0.064,0.771-1.773,2.649-2.44,3.065l1.135,0.795l-0.227,0.284l-0.567-0.397c0.259,1.298,2.849,3.1,4.028,3.69
	l0.907-2.1c2.59,0.691,3.185,1.432,4.595,3.406H148.079L148.079,91.683z M125.445,171.841c3.176-0.381,1.72-2.203,4.141-2.896
	c-0.861-1.507-1.096-4.701-0.171-6.245c-1.036-1.508-1.654-2.692-2.439-4.428l0.795-0.34l0.056-0.454l-1.021-0.34l0.454-0.908
	l0.738-0.228l0.738-3.86c-1.163,0.09-2.221-0.469-3.234-1.022l0.397-0.567l0.738,0.397l-0.057-1.306l1.645-1.022
	c-0.208-0.733-0.739-1.482-1.021-2.328h-0.284l-0.397,0.511l-0.851-0.681l0.284-0.795l-0.681-0.568l-0.624,0.284l1.021-1.703
	l-0.907-1.306l-0.228,0.964l-0.964,0.454l0.114-1.078l-1.021-0.227l0.284-0.908l-0.737-0.454l0.51-1.021l-0.567-1.59l0.227-0.454
	l-1.361-0.908l0.851-2.157l-1.419-1.93l0.454-0.908l-2.042-2.327l0.057-0.341l0.908,0.341l-0.964-3.122l-2.382-1.306
	c-0.848,0.933-2.896,1.02-4.085,0.624l-0.056,0.397l0.68,0.511l-0.34,0.511l-0.851-0.795c-4.003,0.445-2.885,4.854-3.971,6.756
	l0.964,0.795l-0.794,1.192l0.227,0.739l-1.305,0.795l0.397,1.532l1.419-0.454l-0.795,2.839l2.043,2.043l-0.681-0.964l0.284-0.739
	l1.588,0.795l1.362,3.52l-1.021,1.362l2.666,1.646v0.681l-1.135,0.171v0.397l0.624-0.114l-0.396,1.647l1.872,0.454l-0.625,0.795
	l1.475,0.454l-1.305,1.874l1.702-0.397l0.284,0.51l0.567,3.577h0.624l1.362,2.157l0.454-0.511l1.02,1.363l-0.51,1.76l0.454,0.568
	l0.567-0.057c0.847,1.102,1.762,2.025,2.61,3.122l0.567-0.171c0,1.811,0.648,3.138,0.227,4.825L125.445,171.841L125.445,171.841z
	 M71.781,172.239l1.361-0.738l0.795,0.397l0.227-2.1l1.191-0.454l1.362-3.407l-1.191-0.284l0.057-0.682l1.588-0.397
	c0.043-0.698,0.291-1.361,0.057-1.986l1.134-0.682l0.34-1.817l0.511-0.114l-1.249-0.964l0.057-1.533l0.624,0.171l0.511-1.022
	l-0.568-0.625c0.329-4.468-0.474-3.409,3.347-4.939l-0.511-0.964c1.168-1.754,0.887-4.407,3.007-5.734l-2.609-0.681l0.283-0.568
	l1.305,0.284l1.249-1.704l-0.568-0.397l0.171-0.965l1.305-0.51l0.284-1.76l-0.738-0.568l-0.851,0.227l-0.171-0.397l2.043-2.839
	l-0.567-1.362l0.681-0.454l-1.816-1.761l0.284-0.964l0.568,0.113l-0.114,0.625l3.688,0.057l0.17-0.228l-0.794-0.908l1.418,0.114
	l-0.567-0.908l0.681-0.34l-0.114-0.965l-3.12-1.135l-1.645,1.021l-0.397-0.34l0.171-0.908l-1.475-0.511l-0.567,1.079l-1.078-0.454
	l-0.34,0.681l-1.191-0.851l-0.51,0.795l-4.085-0.284l0.908,0.908l-0.113,0.625l2.382-0.568l0.908,0.681l-1.532,1.022l-2.269-0.057
	l-0.453,2.725l-1.021,0.682l1.305,0.397l0.227,2.214l-1.134,1.306l0.51,1.703l-1.02,1.363l0.51,0.795
	c-1.358,1.36-0.447,1.793-1.929,2.782v0.625l-0.567,0.34l0.227,0.511l0.681,0.113l-1.816,2.158l0.851,1.135l-1.305,2.554
	l-1.135-0.624l0.171-1.646l-0.738-0.057c-0.897,2.615,0.011,3.69,0.51,6.414c-0.541,2.44-0.517,5.238-0.34,7.721l-1.021,0.568
	l0.51,1.817l-1.986,1.817l-0.227-0.682l-0.227,0.397l2.496,1.93l-0.34,0.34l-1.815-0.511l-0.454,0.908
	c0.865,0.363,5.144,2.575,5.446,3.179L71.781,172.239L71.781,172.239z M16.243,147.885l0.284-0.682l1.531,0.908l-0.624-0.625
	l0.397-1.306l0.623-0.17l0.397,0.284l0.624-1.533l1.816,0.455l0.056-0.682l-1.872-2.1l0.397-0.511l2.212,2.1l1.135-0.681l1.191,0.34
	l-0.17-1.079l0.453-0.113l0.624,0.397l0.907-2.952l1.078,0.454l1.532-1.135l1.475,0.397l1.758-3.122l2.326,0.284l0.51-2.952
	l0.454,0.227l0.113,1.93l1.135,0.114l1.929-3.576l-0.851,0.057l-0.284-1.079l0.964-0.114l0.851,1.704l0.567-0.568l0.851,0.397
	l0.851-2.157l0.964,0.511l0.17-0.114v-2.214l0.681,0.568l0.624-1.022l-0.17-0.625l0.907-0.908l0.907,1.193
	c0.857-1.327,2.033-3.972,3.631-4.315c0.458-2.384,4.671-6.684,6.751-7.493l-0.454-1.533l1.588-0.908l0.567,0.171v-0.625
	l-2.382-0.795l0.057-1.192l-0.795-0.682l-0.851,0.625l-2.44-1.306l-1.587,0.851l-0.795-0.34l-0.851,0.511l0.283,0.965l-1.247,0.227
	c0.115,1.035-0.959,2.095-1.702,2.782l0.51,0.851l-1.077,0.568l-0.568-0.795l0.228-0.908l-1.192,0.568l-0.396-0.227l-0.454,0.738
	l0.624,0.114l0.34,0.965l-1.362,1.078l-0.284-0.738l-0.17,0.397l0.284,0.568l-4.085,4.087l-1.588-1.079l1.419,1.817l-0.227,0.624
	c-3.692,0.528-3.275,2.63-5.843,3.576l-0.624,1.362l0.51,0.568l-0.227,0.34l-1.419-0.624l-0.681,0.284l0.284-1.078l1.02-0.341
	l-0.17-0.284c-3.418,1.113-5.582,3.836-7.885,6.699l-1.021-0.057l0.113,1.192l-1.191-0.34l-1.588,2.441l-1.078,0.17l0.511,1.079
	l-0.851,2.498l0.738,2.328l-1.077-0.908l-1.135,0.908l0.397,0.511l0.397-0.114l-0.114,0.851l-1.475,0.965l0.284,0.228l1.191-0.682
	l0.454,0.227l-0.795,2.214L16.243,147.885L16.243,147.885z M30.936,90.263c4.688-0.707,7.432-0.356,12.14,0.965l3.801-1.363
	l-0.17-0.738l-0.681,0.114l-0.228-1.193l-1.134,0.228c-0.615-2.802-0.748-4.176,1.645-6.018l-0.511-2.043l-1.02,0.227l-0.284-0.795
	l-0.964,0.114l-0.624-1.362h-1.531l-0.396,1.76c-3.551,0-3.573-0.402-6.297-2.554l-1.021,0.681l-0.737-0.397
	c-1.687,0.954-2.962,0.935-3.801,2.782l-1.929-1.362l-0.681,0.227l-0.851-1.419c-3.142,0.755-4.004-1.941-7.886,0l-0.907-1.362
	l-1.021,0.34l-1.078-1.022c-4.106,0.183-4.947-0.558-8.736-2.328l-1.191,0.397l-1.248-1.419l-0.795,0.17l-1.531-1.419
	c-2.848,2.216,0.108,4.223-0.681,7.38c2.342,2.092,4.271,4.034,7.488,3.86l2.61,2.839l0.851-0.171l0.567,0.454l1.078-0.738
	l2.155,1.078l2.893-0.908c2.472,1.557,6.552,3.786,9.587,3.179l0.397,0.851L30.936,90.263L30.936,90.263z"/>
</svg>
