<?xml version="1.0" encoding="utf-8"?>
<!-- Generator: Adobe Illustrator 17.0.0, SVG Export Plug-In . SVG Version: 6.00 Build 0)  -->
<!DOCTYPE svg PUBLIC "-//W3C//DTD SVG 1.1//EN" "http://www.w3.org/Graphics/SVG/1.1/DTD/svg11.dtd">
<svg version="1.1" id="Warstwa_1" xmlns="http://www.w3.org/2000/svg" xmlns:xlink="http://www.w3.org/1999/xlink" x="0px" y="0px"
	 width="375.821px" height="375.822px" viewBox="0 0 375.821 375.822" enable-background="new 0 0 375.821 375.822"
	 xml:space="preserve">
<g>
	<g>
		<path fill="#FDFDFD" d="M188.25,375.75c-61.5,0-123-0.021-184.5,0.072c-2.568,0.004-3.073-0.504-3.071-3.072
			c0.081-123,0.081-246,0-369C0.677,1.183,1.182,0.677,3.75,0.679c123,0.081,246,0.081,369,0c2.567-0.002,3.073,0.503,3.071,3.071
			c-0.081,123-0.081,246,0,369c0.002,2.567-0.502,3.076-3.071,3.072C311.25,375.729,249.75,375.75,188.25,375.75z M296.322,81.768
			c-1.54,0.252-3.077,0.527-4.622,0.747c-1.256,0.179-1.555,0.931-1.497,2.081c0.073,1.431,1.091,1.17,1.856,1.009
			c1.823-0.382,3.84-0.455,4.932-2.381c0.162-0.19,0.351-0.563,0.482-0.543c7.927,1.163,18.799-6.452,20.259-14.366
			c0.538-2.914-0.5-5.384-3.051-7.111c-1.967-1.331-2.879,0.316-4.081,1.29c3.832,4.071,3.835,5.363,0.247,9.785
			c-1.91,2.354-4.513,3.883-6.744,5.854c-2.194,1.938-4.267,1.934-5.995-0.703c-0.41-0.626-0.539-2.005-1.718-1.219
			c-0.839,0.56-2.108,1.231-1.605,2.631C295.155,79.868,295.8,80.796,296.322,81.768z M314.932,104.91
			c5.913,5.038,11.97,0.667,13.35-4.968c0.266-1.085,0.332-2.228,0.686-3.279c0.802-2.38,1.837-4.926,4.764-4.916
			c3.022,0.011,1.851,3.156,2.784,4.768c4.157-1.799,4.541-4.264,1.102-6.835c-4.756-3.555-11.06-1.044-12.523,4.954
			c-0.5,2.049-1.04,4.099-1.748,6.082c-0.439,1.231-1.498,1.963-2.869,2.071c-1.521,0.12-2.066-1.075-2.864-2.029
			c-0.499-0.596,0.372-2.441-1.516-1.785c-1.315,0.457-2.038,1.344-1.754,2.812c0.207,1.074,0.449,2.142,0.677,3.215
			c-1.732-0.086-3.464-0.164-5.195-0.26c-1.11-0.062-1.582,0.398-1.482,1.545c0.065,0.753-0.066,1.631,0.967,1.673
			C311.759,108.057,314.38,108.355,314.932,104.91z M111.993,342.895c0.273,0.296,0.546,0.593,0.819,0.889
			c0.41,1.23,0.185,2.383-0.12,3.637c-0.667,2.751-0.039,4.862,3.494,5.039c0.364-3.772,0.734-7.456,1.069-11.142
			c0.111-1.224,0.02-2.553,1.597-2.92c3.95-0.92,5.816-4.068,6.049-7.442c0.233-3.379-2.794-5.156-5.754-6.574
			c-1.907-0.914-2.626-0.283-3.429,1.321c-3.229,6.452-6.528,12.869-9.837,19.281c-0.673,1.304-1.25,2.197,0.655,3.225
			c2.134,1.151,2.519-0.057,3.218-1.483C110.405,345.402,111.24,344.169,111.993,342.895z M133.461,128.865
			c-1.362,0.181-1.654-0.671-2.204-1.1c-4.762-3.719-13.973-3.772-16.916,0.043c-3.973,5.148-7.584,10.578-9.923,16.664
			c-7.784,20.253-15.247,40.626-22.106,61.215c-5.119,15.365-9.949,30.8-12.956,46.765c-1.058,5.615,0.42,9.805,5.149,12.795
			c5.5,3.477,11.16,5.693,17.38,1.459c5.036-3.428,8.208-8.356,10.782-13.64c3.439-7.06,6.551-14.281,9.745-21.458
			c1.178-2.648,3.075-4.058,5.984-4.363c2.972-0.312,4.267,1.747,5.525,3.717c1.58,2.471,2.062,5.369,2.098,8.231
			c0.059,4.698,1.733,8.756,4.413,12.458c4.54,6.272,11.281,7.124,17.124,2.053c5.725-4.969,8.014-11.693,9.16-18.932
			c0.424-2.681-0.105-5.666,1.589-7.965c9.35-12.692,15.93-27.078,24.708-40.113c0.546-0.811,1.237-1.566,1.99-2.191
			c2.223-1.845,3.788-1.698,5.009,1.304c3.662,9.007,7.823,17.832,10.644,27.145c1.282,4.232,3.925,8.238,3.194,12.929
			c-0.622,3.99-0.511,7.997-0.271,11.955c0.338,5.574,3.059,10.027,8.155,12.552c4.415,2.187,8.516,0.806,12.242-1.986
			c2.142-1.605,3.636-3.659,4.463-6.261c0.221-0.696-0.16-2.071,1.054-2.081c1.598-0.014,0.692,1.56,1.133,2.335
			c0.353,0.62,0.281,1.465,0.541,2.157c2.422,6.438,4.166,13.003,12.071,15.692c9.421,3.204,18.801,5.378,28.793,4.662
			c4.406-0.316,8.733-0.615,13.139-1.431c6.22-1.152,11.52-3.634,15.3-8.249c9.678-11.819,14.165-25.4,12.586-40.884
			c-1.367-13.405-6.043-24.825-17.445-32.846c-4.071-2.864-7.953-6-11.862-9.088c-9.551-7.546-11.444-15.912-6.25-26.286
			c1.742-3.48,4.59-5.062,8.093-5.992c3.854-1.023,7.849-1.498,11.573-3.024c3.607-1.478,5.011-4.265,4.827-8.01
			c-0.175-3.561-2.116-5.922-5.442-6.719c-3.25-0.779-6.667-1.54-9.956-1.353c-12.093,0.686-23.201,4.373-32.82,11.993
			c-0.746,0.591-1.36,1.51-2.798,1.295c0.135-6.817,1.21-13.55,2.173-20.278c0.742-5.182-0.329-8.635-7.253-9.243
			c-1.421-0.125-2.508-0.486-2.822-1.899c-0.671-3.018-1.808-6.087-1.7-9.097c0.41-11.42,1.806-22.772,3.328-34.093
			c1.223-9.097,2.689-18.161,4.081-27.234c0.432-2.812-0.551-5.223-3.099-6.052c-2.754-0.897-3.309,1.958-4.155,3.765
			c-0.627,1.339-0.994,2.825-1.304,4.282c-1.268,5.955-1.924,12.039-3.816,17.865c-1.615,4.973-2.955,5.816-8.034,6.054
			c-8.065,0.379-16.073-1.777-24.189-0.129c-6.361,1.292-12.645,0.366-18.712-2.045c-20.26-8.049-41.316-9.33-62.744-7.205
			c-2.836,0.281-5.705,0.696-8.438,1.475c-6.601,1.882-10.134,7.165-9.47,13.704c0.606,5.966,5.452,10.691,11.783,11.422
			c7.652,0.883,15.144-0.47,22.601-1.865c4.06-0.759,7.825-0.522,11.657,1.153c5.708,2.495,11.467,4.935,17.365,6.922
			c9.104,3.067,18.609,4.456,26.985-1.275c4.317-2.954,8.833-4.222,13.539-5.59c6.723-1.955,13.507-3.229,20.582-2.3
			c1.974,0.26,2.696,1.08,2.434,2.877c-1.052,7.223-1.519,14.606-3.367,21.623c-3.62,13.741-5.855,27.703-8.127,41.685
			c-1.743,10.727-3.282,21.504-6.285,32.624c-2.245-3.37-2.982-6.756-3.677-9.968c-1.951-9.013-3.993-17.983-6.968-26.725
			c-0.519-1.525-1.321-2.757-2.809-3.279c-6.046-2.121-16.26-2.467-21.477,4.631c-4.315,5.871-7.836,12.127-11.173,18.549
			c-1.487,2.862-2.501,6.069-5.114,8.454c-0.665-1.345-0.619-2.453-0.416-3.545c3.149-16.916-0.23-33.412-3.315-49.902
			c-0.925-4.941-5.061-7.749-9.811-7.318c-7.331,0.665-15.771,9.99-15.771,17.425C133.461,122.767,133.461,125.758,133.461,128.865z
			 M119.6,22.346c0.737,0.381,1.032,0.651,1.351,0.682c20.054,1.988,40.075,4.371,60.206,5.479
			c6.972,0.384,13.968,0.538,20.95,0.476c7.584-0.067,15.016-2.288,22.667-1.832c1.098,0.066,2.22-0.246,3.329-0.395
			c0.685-0.092,1.727,0.168,1.643-0.949c-0.068-0.91-0.661-1.531-1.79-1.45c-9.961,0.715-19.842-1.6-29.861-0.63
			c-3.341,0.323-6.375,1.892-9.8,1.606c-8.686-0.725-17.383-1.318-26.08-1.897c-11.923-0.793-23.849-1.561-35.779-2.249
			C124.262,21.062,121.946,20.599,119.6,22.346z M28.975,241.941c-2.124-0.005-2.704,2.502-4.748,2.478
			c-2.048-0.024-3.274,1.654-4.997,2.285c-1.393,0.511-0.98,1.463-0.647,2.449c0.248,0.735,0.374,1.369,1.458,1.211
			c8.544-1.249,17.095-2.447,25.61-3.656c-0.153-3.145-1.371-3.99-4.251-3.286c-3.819,0.933-7.762,1.359-11.652,2.004
			c0.559-1.338,1.003-2.115,2.103-2.454c2.686-0.827,5.3-1.9,7.913-2.951c1.604-0.645,3.479-1.412,2.846-3.592
			c-0.644-2.219-2.556-0.654-3.83-0.721c-3.911-0.206-7.369,2.586-11.408,1.924c0.61-2.265,2.285-3.344,4.397-3.503
			c2.873-0.215,4.994-2.109,7.547-3.023c2.081-0.745,0.703-2.377,0.322-3.486c-0.614-1.786-1.503-0.313-2.248,0.044
			c-5.779,2.77-10.882,6.838-17.079,8.828c-1.279,0.411-2.38,1.349-3.607,1.955c-1.173,0.58-1.148,1.454-0.867,2.515
			c0.29,1.096,1.097,1.414,1.996,1.162c2.11-0.591,4.353-0.137,6.451-1.147C25.72,240.288,27.543,239.805,28.975,241.941z
			 M350.484,155.719c0.139,0.319,0.279,0.639,0.418,0.958c-3.365,1.754-6.739,3.491-10.092,5.27c-1.167,0.619-2.566,0.789-2.04,3
			c0.597,2.512,2.335,1.656,3.443,1.482c6.966-1.093,13.892-2.442,20.845-3.628c1.744-0.298,2.677-0.779,2.18-2.862
			c-0.519-2.174-1.747-1.469-3.083-1.181c-3.726,0.803-7.468,1.529-11.215,2.287c-0.147-1.025,0.354-1.153,0.797-1.371
			c3.462-1.706,6.869-3.534,10.393-5.098c1.88-0.834,1.807-2.229,1.52-3.691c-0.362-1.847-1.86-0.862-2.744-0.719
			c-7.209,1.163-14.401,2.43-21.59,3.712c-1.48,0.264-2.449,0.839-1.989,2.8c0.432,1.844,1.464,1.675,2.728,1.395
			C343.534,157.301,347.008,156.505,350.484,155.719z M352.499,258.588c0.176-4.557-0.01-4.362-2.581-6.816
			c-3.491-3.333-7.787-4.758-12.225-5.96c-5.455-1.478-7.721-0.302-10.09,4.766c-1.216,2.601-0.941,4.193,2.014,5.421
			c5.62,2.336,11.095,5.022,16.603,7.621c4.274,2.016,4.299,2.07,5.828-2.373C352.436,260.118,352.455,258.865,352.499,258.588z
			 M288.904,334.981c4.673,0.02,7.556-3.649,6.142-7.988c-1.863-5.714-5.559-10.11-10.001-14.168
			c-2.564-2.342-4.867-2.841-7.509-1.35c-2.941,1.66-3.67,4.355-2.575,7.7c1.833,5.599,5.373,10.04,9.322,14.177
			C285.423,334.547,287.176,335.293,288.904,334.981z M51.672,101.726c2.881,0.067,4.269,1.646,5.801,2.74
			c1.644,1.173,2.238,0.42,3.2-0.829c1.199-1.557,0.295-2.047-0.86-2.788c-6.183-3.969-12.349-7.965-18.478-12.018
			c-1.224-0.809-1.999-1.642-3.209,0.216c-1.257,1.929-0.34,2.672,1.118,3.455c1.47,0.79,2.975,1.517,4.431,2.331
			c0.842,0.47,1.902,1.061,1.139,2.211c-0.549,0.826-1.63,0.649-2.277,0.041c-1.696-1.593-3.985-1.123-5.908-1.876
			c-2.345-0.919-3.535,0.937-3.887,2.398c-0.493,2.047,1.723,1.534,2.778,1.592c7.872,0.433,13.894,3.549,17.179,11.097
			c0.382,0.877,1.201,2.706,2.609,1.392c0.942-0.879,2.472-2.164,0.637-4.027C54.371,106.062,53.272,103.997,51.672,101.726z
			 M354.876,123.134c-0.07-3.76-2.031-6.22-5.519-6.159c-7.181,0.126-13.712,2.592-18.995,7.45c-3.416,3.14-1.615,8.708,2.839,9.984
			c5.265,1.509,18.417-4.022,20.962-8.759C354.658,124.729,354.913,123.821,354.876,123.134z M76.438,326.677
			c-0.079,4.597,5.589,7.402,9.915,4.665c5.179-3.277,8.406-8.381,11.155-13.653c1.562-2.995,0.912-6.079-2.13-8.19
			c-2.945-2.043-5.48-0.952-8.192,0.786c-2.078,1.331-3.191,3.419-4.599,5.162C79.914,318.759,76.531,321.87,76.438,326.677z
			 M74.558,293.547c0.034-2.752-2.248-4.339-3.297-6.553c-0.885-1.867-2.004-1.859-3.642-0.308
			c-4.616,4.372-9.314,8.683-14.253,12.678c-4.399,3.558-4.561,3.359-0.55,7.145c0.362,0.342,0.733,0.674,1.11,0.999
			c1.657,1.43,3.477,1.923,5.487,0.809c2.264-1.255,5.259-2.363,5.116-5.308c-0.14-2.899,1.063-2.862,3.148-2.935
			C70.138,299.988,74.516,295.633,74.558,293.547z M357.131,192.801c0.003-0.386,0.007-0.772,0.01-1.158
			c3.146-0.845,6.297-1.674,9.438-2.539c2.214-0.61,1.523-2.479,1.203-3.716c-0.427-1.653-1.679-0.299-2.414-0.066
			c-2.846,0.9-5.657,1.929-8.43,3.038c-1.155,0.462-1.784,0.551-2.825-0.528c-2.823-2.93-6.446-3.054-10.004-1.652
			c-3.304,1.302-2.952,4.498-3.238,7.332c-0.236,2.343,0.372,3.163,2.994,3.2c6.941,0.097,13.914-0.831,20.839,0.497
			c0.895,0.172,2.499,0.531,2.347-1.68c-0.118-1.72,0.093-2.999-2.335-2.778C362.206,192.979,359.66,192.801,357.131,192.801z
			 M77.211,81.631c-0.379-0.607-0.884-1.459-1.431-2.283c-3.77-5.682-7.48-11.406-11.4-16.983c-0.577-0.821-0.558-3.427-2.867-1.986
			c-1.82,1.136-2.166,2.485-0.515,4.133c1.928,1.926,0.885,3.438-0.868,4.668c-1.566,1.099-2.565-0.443-3.529-1.144
			c-2.032-1.479-2.684,0.436-3.55,1.335c-1.568,1.628,0.641,1.645,1.241,2.202c0.799,0.742,1.872,1.185,2.819,1.771
			c5.488,3.395,10.976,6.79,16.458,10.196c0.873,0.542,1.747,1.103,2.688,0.222C76.778,83.277,77.469,82.825,77.211,81.631z
			 M201.66,364.452c0.426,0.684-0.8,2.405,1.435,2.514c1.767,0.086,2.584-0.557,2.407-2.364c-0.036-0.362,0.066-0.741,0.129-1.108
			c0.281-1.645,1.27-1.987,2.885-2.128c1.703-0.148,2.669,0.238,2.868,1.852c0.254,2.057,1.453,2.901,3.215,2.257
			c1.887-0.689,0.794-2.374,0.423-3.476c-2.301-6.842-4.731-13.64-7.13-20.449c-0.358-1.016-0.438-2.208-2.181-1.845
			c-1.429,0.298-1.67,1.016-1.789,2.288C203.231,349.395,202.443,356.789,201.66,364.452z M341.198,218.215
			c-1.169,0.576-2.829-0.837-3.571,1.066c-0.795,2.041,1.218,2.396,2.01,3.523c0.496,0.705,1.188,0.922,1.734,1.175
			c5.833,2.709,11.709,5.33,17.617,7.872c0.984,0.424,2.21,2.381,3.253,0.174c0.818-1.733,0.732-3.357-1.701-3.828
			c-3.153-0.611-2.177-2.74-1.495-4.547c0.678-1.796,2.416-0.994,3.594-0.894c2.114,0.179,2.194-1.407,2.404-2.557
			c0.371-2.039-1.415-1.252-2.284-1.286C355.565,218.638,348.343,219.414,341.198,218.215z M10.852,178.994
			c-0.576,0.899-2.207-0.713-2.602,0.982c-0.365,1.567,0.762,2.04,2.124,2.406c1.829,0.492,2.506,1.706,2.487,3.784
			c-0.021,2.322-1.553,2.322-2.888,2.457c-2.132,0.216-1.831,1.629-1.77,2.969c0.093,2.057,1.533,1.142,2.454,0.968
			c7.402-1.396,14.79-2.867,22.189-4.28c1.119-0.214,1.777-0.626,1.807-1.903c0.027-1.162-0.279-1.871-1.49-2.152
			C25.815,182.52,18.473,180.784,10.852,178.994z M177.218,344.486c-2.9,6.867-5.695,13.476-8.48,20.088
			c-0.413,0.981-1.349,2.204,0.746,2.353c3.091,0.22,6.192,0.308,9.279,0.57c1.543,0.131,2.001-0.655,2.082-1.938
			c0.094-1.486-0.904-1.536-1.984-1.471c-0.621,0.037-1.246,0.022-1.866,0.073c-3.83,0.314-3.859,0.254-2.353-3.298
			c2.47-5.827,4.879-11.68,7.375-17.495c0.568-1.322,1.064-2.381-1.061-2.478c-2.726-0.124-5.449-0.348-8.175-0.389
			c-0.624-0.009-1.964-0.762-1.855,0.863c0.066,0.992-0.387,2.365,1.343,2.541C173.742,344.055,175.21,344.248,177.218,344.486z
			 M59.144,271.344c-3.113-6.911-7.567,0.053-12.12-1.952c1.804-1.44,3.518-2.619,5.004-4.036c2.759-2.629,2.704-2.687-0.317-5.689
			c-5.547,5.924-9.943,13.139-17.962,16.319c-1.269,0.503-2.411,0.954-1.335,2.63c0.84,1.308,1.362,2.148,3.407,1.159
			c3.172-1.534,5.63-4.077,9.082-5.295C49.461,272.871,54.418,273.589,59.144,271.344z M256.586,349.014
			c1.215,3.948,2.483,4.473,5.744,2.507c2.338-1.41,3.343-3.316,3.107-6.161c-0.275-3.314-1.776-5.661-4.594-7.148
			c-1.861-0.982-3.913-1.594-5.827-2.486c-1.557-0.726-2.736-2.046-2.71-3.739c0.022-1.419,1.233-2.267,2.694-2.698
			c0.809-0.239,2.056-0.516,1.401-1.965c-0.47-1.042-0.776-1.777-2.417-1.513c-3.135,0.505-5.165,2.09-5.69,5.059
			c-0.626,3.539,1.063,6.34,4.02,8.192c1.557,0.975,3.397,1.504,5.125,2.196c2.236,0.896,4.184,2.42,4.052,4.833
			C261.345,348.791,258.558,348.565,256.586,349.014z M26.45,120.449c-4.086-0.212-7.598,2.787-7.724,6.357
			c-0.058,1.639,0.807,2.2,2.035,2.614c2.009,0.677,0.967-1.117,1.327-1.736c1.073-1.846,2.479-3.354,4.727-2.932
			c3.682,0.691,7.54,1.158,10.594,3.582c2.023,1.605,4.114,3.541,2.716,6.552c-0.502,1.082-1.393,1.708,0.284,2.492
			c1.294,0.605,2.213,0.728,3.212-0.541c2.137-2.714,1.722-7.181-1.231-9.751C37.833,123.121,32.281,121.421,26.45,120.449z
			 M148.284,359.77c-4.737-0.898-5.667-2.31-5.039-7.094c0.257-1.958,0.719-3.876,0.971-5.841c0.516-4.022,3.887-6.624,7.285-6.381
			c0.695,0.05,1.661,0.788,2.155-0.258c0.48-1.018,0.006-1.839-0.784-2.627c-2.442-2.438-6.914-1.812-9.245,1.901
			c-3.405,5.424-5.009,11.494-4.603,17.954c0.065,1.041,0.588,2.265,1.308,3.011c1.582,1.641,3.555,2.683,5.988,2.414
			C148.303,362.631,147.856,360.954,148.284,359.77z M299.151,292.367c-0.837,0.935-1.64,1.574-2.096,2.403
			c-0.667,1.213,0.567,1.771,1.22,2.409c4.846,4.734,9.808,9.352,14.568,14.17c2.076,2.102,3.727,2.065,5.588-0.066
			c0.738-0.845,1.615-1.567,2.365-2.403c0.815-0.909,2.61-1.547,0.917-3.236c-1.51-1.506-2.881-0.926-3.677,0.517
			c-1.527,2.767-2.871,1.716-4.43,0.151c-3.087-3.099-6.121-6.259-9.355-9.199C302.584,295.596,300.749,294.245,299.151,292.367z
			 M15.391,150.847c0.037-2.099-0.052-2.215-1.21-2.465c-1.74-0.375-2.104,0.813-2.512,2.045c-1.225,3.697,0.318,6.493,4.132,7.198
			c6.347,1.173,12.713,2.244,19.066,3.387c0.849,0.153,1.833,0.653,2.241-0.457c0.328-0.892,0.579-2.037,0.292-2.875
			c-0.347-1.014-1.797-1.025-2.546-0.787c-1.135,0.36-2.514,0.948-3.349,0.494c-4.425-2.406-9.312-2.827-14.093-3.771
			C16.229,153.383,15.038,152.717,15.391,150.847z M338.291,286.853c-0.38-0.495-0.621-1.135-0.944-1.179
			c-2.531-0.341-3.828-2.541-5.682-3.831c-4.635-3.224-9.924-5.403-14.244-9.094c-1.122-0.958-1.803-0.683-2.628,0.565
			c-0.871,1.317-1.023,2.302,0.42,3.058c6.834,3.582,12.83,8.459,19.378,12.481C337.147,290.424,336.943,287.59,338.291,286.853z"/>
		<path fill="#F60303" d="M133.461,128.865c0-3.107,0-6.098,0-9.089c0-7.434,8.44-16.76,15.771-17.425
			c4.75-0.431,8.886,2.377,9.811,7.318c3.086,16.49,6.465,32.986,3.315,49.902c-0.203,1.092-0.249,2.2,0.416,3.545
			c2.613-2.385,3.627-5.592,5.114-8.454c3.337-6.422,6.858-12.678,11.173-18.549c5.216-7.097,15.43-6.752,21.477-4.631
			c1.488,0.522,2.29,1.754,2.809,3.279c2.975,8.742,5.017,17.712,6.968,26.725c0.695,3.211,1.431,6.598,3.677,9.968
			c3.003-11.12,4.541-21.897,6.285-32.624c2.272-13.982,4.507-27.943,8.127-41.685c1.849-7.017,2.315-14.4,3.367-21.623
			c0.262-1.798-0.46-2.618-2.434-2.877c-7.075-0.93-13.859,0.344-20.582,2.3c-4.706,1.369-9.222,2.637-13.539,5.59
			c-8.376,5.731-17.881,4.342-26.985,1.275c-5.898-1.987-11.657-4.426-17.365-6.922c-3.832-1.675-7.597-1.913-11.657-1.153
			c-7.457,1.394-14.949,2.748-22.601,1.865c-6.332-0.731-11.177-5.455-11.783-11.422c-0.664-6.54,2.869-11.823,9.47-13.704
			c2.732-0.779,5.601-1.193,8.438-1.475c21.428-2.125,42.484-0.844,62.744,7.205c6.067,2.411,12.352,3.336,18.712,2.045
			c8.116-1.648,16.123,0.508,24.189,0.129c5.078-0.239,6.418-1.081,8.034-6.054c1.892-5.825,2.548-11.909,3.816-17.865
			c0.31-1.457,0.677-2.943,1.304-4.282c0.847-1.808,1.402-4.662,4.155-3.765c2.548,0.83,3.53,3.24,3.099,6.052
			c-1.392,9.073-2.858,18.137-4.081,27.234c-1.522,11.322-2.917,22.673-3.328,34.093c-0.108,3.01,1.029,6.079,1.7,9.097
			c0.314,1.413,1.402,1.774,2.822,1.899c6.924,0.608,7.995,4.061,7.253,9.243c-0.963,6.728-2.038,13.462-2.173,20.278
			c1.438,0.215,2.052-0.705,2.798-1.295c9.619-7.62,20.727-11.307,32.82-11.993c3.289-0.187,6.706,0.574,9.956,1.353
			c3.326,0.797,5.267,3.158,5.442,6.719c0.184,3.744-1.22,6.532-4.827,8.01c-3.724,1.526-7.72,2.001-11.573,3.024
			c-3.503,0.93-6.35,2.512-8.093,5.992c-5.194,10.374-3.301,18.74,6.25,26.286c3.908,3.088,7.791,6.225,11.862,9.088
			c11.402,8.021,16.078,19.441,17.445,32.846c1.579,15.484-2.908,29.065-12.586,40.884c-3.779,4.615-9.08,7.098-15.3,8.249
			c-4.406,0.816-8.733,1.115-13.139,1.431c-9.992,0.716-19.373-1.458-28.793-4.662c-7.905-2.689-9.649-9.254-12.071-15.692
			c-0.26-0.691-0.188-1.537-0.541-2.157c-0.44-0.774,0.465-2.348-1.133-2.335c-1.214,0.01-0.833,1.385-1.054,2.081
			c-0.827,2.602-2.32,4.656-4.463,6.261c-3.727,2.792-7.827,4.173-12.242,1.986c-5.096-2.525-7.817-6.978-8.155-12.552
			c-0.24-3.958-0.351-7.965,0.271-11.955c0.731-4.691-1.912-8.697-3.194-12.929c-2.821-9.313-6.982-18.138-10.644-27.145
			c-1.22-3.001-2.786-3.149-5.009-1.304c-0.753,0.625-1.444,1.379-1.99,2.191c-8.778,13.034-15.358,27.421-24.708,40.113
			c-1.694,2.299-1.165,5.284-1.589,7.965c-1.146,7.24-3.435,13.963-9.16,18.932c-5.843,5.071-12.585,4.219-17.124-2.053
			c-2.68-3.702-4.353-7.76-4.413-12.458c-0.036-2.862-0.519-5.76-2.098-8.231c-1.259-1.969-2.554-4.029-5.525-3.717
			c-2.91,0.306-4.806,1.716-5.984,4.363c-3.195,7.177-6.306,14.398-9.745,21.458c-2.574,5.284-5.746,10.212-10.782,13.64
			c-6.22,4.234-11.88,2.018-17.38-1.459c-4.729-2.99-6.207-7.18-5.149-12.795c3.007-15.965,7.838-31.401,12.956-46.765
			c6.859-20.588,14.321-40.962,22.106-61.215c2.339-6.085,5.95-11.516,9.923-16.664c2.943-3.814,12.154-3.761,16.916-0.043
			C131.807,128.195,132.099,129.046,133.461,128.865z M244.927,173.35c-2.947,17.574-6.508,34.03-11.026,50.796
			c1.481-0.463,2.277-0.733,3.085-0.962c9.596-2.71,18.453-1.753,26.039,5.326c2.669,2.491,4.678,5.496,6.426,8.674
			c0.975,1.772,1.996,2.295,3.737,0.764c3.768-3.315,6.594-7.063,6.942-12.316c0.836-12.602-4.445-22.765-12.896-31.448
			C260.326,187.087,251.52,182.027,244.927,173.35z M128.34,186.585c0.034-5.47,0.08-10.325-0.886-15.133
			c-0.276-1.375-0.289-2.981-1.783-3.425c-1.944-0.577-2.382,1.434-3.201,2.533c-4.264,5.723-6.048,12.171-5.649,19.311
			c0.298,5.329,1.557,6.881,6.736,8.322c2.837,0.789,3.855-0.317,4.38-2.893C128.569,192.195,128.22,189.083,128.34,186.585z"/>
		<path fill="#F60303" d="M119.6,22.346c2.346-1.748,4.662-1.285,6.836-1.159c11.93,0.688,23.855,1.456,35.779,2.249
			c8.697,0.579,17.394,1.172,26.08,1.897c3.425,0.286,6.459-1.283,9.8-1.606c10.02-0.97,19.901,1.345,29.861,0.63
			c1.129-0.081,1.722,0.54,1.79,1.45c0.084,1.118-0.958,0.857-1.643,0.949c-1.109,0.149-2.231,0.461-3.329,0.395
			c-7.65-0.457-15.082,1.765-22.667,1.832c-6.982,0.062-13.978-0.092-20.95-0.476c-20.131-1.108-40.152-3.491-60.206-5.479
			C120.633,22.997,120.337,22.728,119.6,22.346z"/>
		<path fill="#13118D" d="M28.975,241.941c-1.432-2.136-3.255-1.653-4.692-0.962c-2.097,1.01-4.341,0.556-6.451,1.147
			c-0.9,0.252-1.706-0.066-1.996-1.162c-0.281-1.062-0.306-1.935,0.867-2.515c1.227-0.607,2.328-1.545,3.607-1.955
			c6.197-1.99,11.3-6.058,17.079-8.828c0.745-0.357,1.634-1.829,2.248-0.044c0.381,1.109,1.76,2.74-0.322,3.486
			c-2.553,0.914-4.673,2.807-7.547,3.023c-2.112,0.158-3.787,1.238-4.397,3.503c4.038,0.662,7.497-2.13,11.408-1.924
			c1.274,0.067,3.186-1.498,3.83,0.721c0.633,2.179-1.241,2.946-2.846,3.592c-2.612,1.051-5.226,2.124-7.913,2.951
			c-1.1,0.339-1.544,1.116-2.103,2.454c3.89-0.644,7.833-1.07,11.652-2.004c2.88-0.704,4.098,0.141,4.251,3.286
			c-8.515,1.209-17.066,2.406-25.61,3.656c-1.084,0.158-1.21-0.476-1.458-1.211c-0.333-0.986-0.746-1.938,0.647-2.449
			c1.723-0.632,2.949-2.309,4.997-2.285C26.272,244.443,26.851,241.936,28.975,241.941z"/>
		<path fill="#13118D" d="M350.484,155.719c-3.476,0.786-6.95,1.582-10.43,2.354c-1.263,0.28-2.296,0.449-2.728-1.395
			c-0.46-1.961,0.509-2.536,1.989-2.8c7.189-1.282,14.381-2.549,21.59-3.712c0.884-0.143,2.382-1.128,2.744,0.719
			c0.287,1.463,0.36,2.857-1.52,3.691c-3.525,1.564-6.932,3.392-10.393,5.098c-0.443,0.218-0.944,0.346-0.797,1.371
			c3.747-0.759,7.49-1.484,11.215-2.287c1.336-0.288,2.564-0.992,3.083,1.181c0.497,2.082-0.435,2.564-2.18,2.862
			c-6.953,1.186-13.878,2.535-20.845,3.628c-1.108,0.174-2.846,1.03-3.443-1.482c-0.526-2.211,0.873-2.381,2.04-3
			c3.352-1.778,6.726-3.516,10.092-5.27C350.763,156.358,350.624,156.038,350.484,155.719z"/>
		<path fill="#13118D" d="M352.499,258.588c-0.044,0.276-0.063,1.53-0.451,2.657c-1.529,4.444-1.554,4.39-5.828,2.373
			c-5.508-2.599-10.984-5.285-16.603-7.621c-2.955-1.228-3.23-2.82-2.014-5.421c2.37-5.068,4.635-6.244,10.09-4.766
			c4.438,1.203,8.734,2.628,12.225,5.96C352.489,254.226,352.675,254.032,352.499,258.588z M335.831,249.625
			c-1.887-0.011-3.814-0.177-4.24,1.49c-0.471,1.844,1.704,1.677,2.778,2.3c4.292,2.489,9.32,3.615,13.198,6.801
			c1.689,1.387,0.841-0.931,1.525-0.732c0.345-1.816-0.177-3.988-1.384-4.679C343.864,252.607,340.041,250.134,335.831,249.625z"/>
		<path fill="#13118D" d="M288.904,334.981c-1.728,0.311-3.481-0.435-4.621-1.629c-3.949-4.137-7.489-8.578-9.322-14.177
			c-1.095-3.345-0.366-6.04,2.575-7.7c2.642-1.491,4.945-0.993,7.509,1.35c4.442,4.058,8.138,8.454,10.001,14.168
			C296.46,331.332,293.577,335.002,288.904,334.981z M290.993,327.446c-1.875-3.939-4.761-8.307-8.775-11.897
			c-0.711-0.636-1.592-1.453-2.649-0.822c-1.22,0.728-0.933,2.146-0.566,3.043c1.953,4.77,4.776,9.006,8.552,12.542
			c0.677,0.634,1.602,1.229,2.699,0.578C291.224,330.315,290.967,329.404,290.993,327.446z"/>
		<path fill="#13118D" d="M51.672,101.726c1.6,2.271,2.699,4.336,4.273,5.934c1.835,1.862,0.305,3.148-0.637,4.027
			c-1.408,1.314-2.227-0.515-2.609-1.392c-3.285-7.549-9.308-10.665-17.179-11.097c-1.056-0.058-3.271,0.455-2.778-1.592
			c0.352-1.462,1.542-3.318,3.887-2.398c1.923,0.754,4.212,0.283,5.908,1.876c0.647,0.608,1.729,0.786,2.277-0.041
			c0.763-1.15-0.297-1.741-1.139-2.211c-1.457-0.813-2.961-1.541-4.431-2.331c-1.458-0.783-2.375-1.526-1.118-3.455
			c1.211-1.857,1.986-1.025,3.209-0.216c6.128,4.053,12.294,8.049,18.478,12.018c1.154,0.741,2.058,1.231,0.86,2.788
			c-0.962,1.249-1.557,2.002-3.2,0.829C55.941,103.372,54.553,101.793,51.672,101.726z"/>
		<path fill="#13118D" d="M354.876,123.134c0.037,0.687-0.218,1.595-0.713,2.516c-2.545,4.737-15.698,10.268-20.962,8.759
			c-4.454-1.277-6.255-6.844-2.839-9.984c5.283-4.858,11.815-7.324,18.995-7.45C352.845,116.914,354.807,119.374,354.876,123.134z
			 M336.347,130.523c4.017-0.631,8.406-3.004,12.955-4.884c1.225-0.506,2.222-1.809,1.495-3.35
			c-0.698-1.478-2.171-1.554-3.564-1.257c-4.76,1.015-9.094,3.036-13.099,5.772c-0.931,0.636-1.877,1.403-1.294,2.736
			C333.32,130.639,334.363,130.672,336.347,130.523z"/>
		<path fill="#13118D" d="M76.438,326.677c0.093-4.807,3.476-7.919,6.149-11.23c1.408-1.744,2.521-3.831,4.599-5.162
			c2.712-1.737,5.247-2.829,8.192-0.786c3.042,2.11,3.691,5.195,2.13,8.19c-2.749,5.272-5.975,10.376-11.155,13.653
			C82.027,334.08,76.359,331.274,76.438,326.677z M82.703,328.658c0.354-0.183,0.859-0.327,1.211-0.642
			c4.079-3.654,7.589-7.763,9.871-12.794c0.349-0.77,0.352-1.695-0.416-2.404c-0.964-0.89-1.949-0.454-2.707,0.14
			c-4.276,3.355-7.408,7.668-9.837,12.467C80.064,326.928,80.45,328.397,82.703,328.658z"/>
		<path fill="#13118D" d="M111.993,342.895c-0.753,1.273-1.588,2.507-2.237,3.831c-0.699,1.426-1.084,2.634-3.218,1.483
			c-1.905-1.027-1.327-1.921-0.655-3.225c3.309-6.412,6.608-12.829,9.837-19.281c0.803-1.604,1.522-2.234,3.429-1.321
			c2.959,1.418,5.987,3.195,5.754,6.574c-0.233,3.374-2.099,6.522-6.049,7.442c-1.577,0.367-1.486,1.696-1.597,2.92
			c-0.335,3.686-0.704,7.37-1.069,11.142c-3.534-0.178-4.162-2.288-3.494-5.039c0.304-1.254,0.529-2.407,0.119-3.637
			c0.6-0.781,1.061-1.829,0.214-2.418C112.585,341.059,112.312,342.321,111.993,342.895z M117.072,335.796
			c1.782-0.152,4.027-4.168,3.189-5.727c-0.374-0.695-1.216-1.48-1.677-0.716c-1.067,1.772-1.801,3.759-2.526,5.712
			C115.863,335.589,116.509,335.846,117.072,335.796z"/>
		<path fill="#13118D" d="M74.558,293.547c-0.041,2.086-4.42,6.442-6.882,6.528c-2.085,0.073-3.288,0.037-3.148,2.935
			c0.142,2.944-2.853,4.053-5.116,5.308c-2.01,1.114-3.83,0.621-5.487-0.809c-0.377-0.325-0.748-0.658-1.11-0.999
			c-4.011-3.786-3.849-3.587,0.55-7.145c4.94-3.996,9.638-8.306,14.253-12.678c1.638-1.552,2.757-1.559,3.642,0.308
			C72.31,289.208,74.592,290.795,74.558,293.547z M62.829,295.452c4.23,1.835,6.194,1.068,7.285-2.419
			c0.199-0.636,0.361-1.168-0.096-1.694c-0.538-0.619-1.146-0.318-1.638,0.033C66.618,292.628,64.89,293.931,62.829,295.452z
			 M61.072,297.915c-1.692,1.414-2.992,2.494-4.283,3.584c-0.281,0.238-0.55,0.497-0.786,0.779
			c-0.357,0.426-1.067,0.765-0.544,1.488c0.408,0.564,1.022,0.597,1.662,0.513C59.988,303.902,61.508,301.738,61.072,297.915z"/>
		<path fill="#13118D" d="M357.131,192.801c2.53,0,5.076,0.178,7.585-0.051c2.428-0.221,2.217,1.057,2.335,2.778
			c0.152,2.211-1.452,1.851-2.347,1.68c-6.926-1.328-13.898-0.4-20.839-0.497c-2.622-0.036-3.23-0.857-2.994-3.2
			c0.286-2.834-0.067-6.03,3.238-7.332c3.558-1.402,7.18-1.278,10.004,1.652c1.04,1.079,1.67,0.99,2.825,0.528
			c2.773-1.109,5.584-2.138,8.43-3.038c0.735-0.233,1.987-1.587,2.414,0.066c0.32,1.237,1.011,3.107-1.203,3.716
			c-3.141,0.865-6.291,1.694-9.438,2.539C357.137,192.029,357.134,192.415,357.131,192.801z M352.27,192.584
			c-0.73-2.548-5.349-4.046-7.12-2.368c-0.485,0.459-0.673,1.022-0.401,1.658c0.258,0.604,0.674,0.638,1.364,0.692
			C348.17,192.726,350.204,193.027,352.27,192.584z"/>
		<path fill="#13118D" d="M77.211,81.631c0.258,1.193-0.433,1.645-0.953,2.132c-0.941,0.881-1.815,0.32-2.688-0.222
			c-5.482-3.406-10.97-6.801-16.458-10.196c-0.947-0.586-2.02-1.029-2.819-1.771c-0.6-0.557-2.809-0.575-1.241-2.202
			c0.866-0.899,1.518-2.814,3.55-1.335c0.964,0.702,1.963,2.243,3.529,1.144c1.753-1.23,2.796-2.742,0.868-4.668
			c-1.651-1.648-1.306-2.998,0.515-4.133c2.31-1.441,2.291,1.165,2.867,1.986c3.92,5.576,7.63,11.301,11.4,16.983
			C76.327,80.173,76.832,81.025,77.211,81.631z M69.195,76.592c-0.754-2.446-2.332-3.708-3.389-5.275
			c-0.501-0.743-0.663-2.458-2.283-0.797c-1.263,1.294-0.859,2.232,0.232,2.983C65.305,74.571,67.03,75.383,69.195,76.592z"/>
		<path fill="#13118D" d="M201.66,364.452c0.783-7.663,1.571-15.056,2.263-22.459c0.119-1.272,0.36-1.99,1.789-2.288
			c1.743-0.363,1.823,0.829,2.181,1.845c2.398,6.809,4.829,13.607,7.13,20.449c0.371,1.102,1.464,2.787-0.423,3.476
			c-1.762,0.644-2.961-0.201-3.215-2.257c-0.199-1.615-1.165-2.001-2.868-1.852c-1.615,0.141-2.604,0.482-2.885,2.128
			c-0.063,0.367-0.165,0.746-0.129,1.108c0.178,1.807-0.639,2.449-2.407,2.364C200.861,366.857,202.086,365.136,201.66,364.452z
			 M207.154,349.792c-0.251-0.001-0.501-0.002-0.752-0.002c-0.151,2.293-0.299,4.587-0.455,6.88
			c-0.105,1.549,0.99,1.439,1.983,1.417c1.139-0.025,1.504-0.593,1.166-1.696C208.426,354.198,207.799,351.992,207.154,349.792z"/>
		<path fill="#13118D" d="M341.198,218.215c7.144,1.199,14.366,0.423,21.56,0.699c0.869,0.033,2.655-0.753,2.284,1.286
			c-0.209,1.15-0.29,2.736-2.404,2.557c-1.178-0.1-2.916-0.902-3.594,0.894c-0.682,1.806-1.657,3.936,1.495,4.547
			c2.433,0.471,2.519,2.095,1.701,3.828c-1.042,2.208-2.269,0.25-3.253-0.174c-5.908-2.543-11.784-5.163-17.617-7.872
			c-0.545-0.253-1.238-0.47-1.734-1.175c-0.792-1.126-2.806-1.482-2.01-3.523C338.37,217.378,340.03,218.791,341.198,218.215z
			 M346.052,222.324c2.273,0.9,4.524,1.864,6.833,2.662c0.704,0.244,1.566,1.211,2.27,0.273c0.391-0.521,0.555-1.542,0.313-2.128
			c-0.319-0.775-1.189-1.019-2.173-1.014C350.891,222.131,348.476,222.334,346.052,222.324z"/>
		<path fill="#13118D" d="M10.852,178.994c7.622,1.79,14.963,3.525,22.312,5.23c1.211,0.281,1.517,0.991,1.49,2.152
			c-0.029,1.277-0.688,1.689-1.807,1.903c-7.399,1.413-14.787,2.884-22.189,4.28c-0.922,0.174-2.361,1.089-2.454-0.968
			c-0.061-1.34-0.361-2.754,1.77-2.969c1.336-0.135,2.868-0.135,2.888-2.457c0.018-2.078-0.659-3.292-2.487-3.784
			c-1.362-0.366-2.489-0.839-2.124-2.406C8.644,178.282,10.276,179.893,10.852,178.994z M26.215,186.273
			c-3.436-1.649-6.264-1.337-8.865-2.017c-1.302-0.341-1.242,0.798-1.301,1.674c-0.068,1.005,0.059,1.708,1.38,1.509
			C20.031,187.046,22.646,186.74,26.215,186.273z"/>
		<path fill="#13118D" d="M177.218,344.486c-2.008-0.238-3.476-0.431-4.948-0.582c-1.731-0.177-1.277-1.55-1.343-2.541
			c-0.108-1.626,1.231-0.873,1.855-0.863c2.726,0.041,5.449,0.265,8.175,0.389c2.125,0.097,1.628,1.155,1.061,2.478
			c-2.496,5.816-4.905,11.668-7.375,17.495c-1.506,3.553-1.477,3.613,2.353,3.298c0.62-0.051,1.245-0.036,1.866-0.073
			c1.081-0.065,2.079-0.015,1.984,1.471c-0.081,1.283-0.539,2.069-2.082,1.938c-3.087-0.262-6.188-0.35-9.279-0.57
			c-2.096-0.149-1.159-1.372-0.746-2.353C171.523,357.962,174.318,351.354,177.218,344.486z"/>
		<path fill="#13118D" d="M59.144,271.344c-4.726,2.245-9.682,1.527-14.242,3.136c-3.452,1.218-5.91,3.762-9.082,5.295
			c-2.045,0.989-2.567,0.148-3.407-1.159c-1.076-1.677,0.067-2.127,1.335-2.63c8.019-3.18,12.416-10.394,17.962-16.319
			c3.021,3.002,3.076,3.06,0.317,5.689c-1.487,1.417-3.2,2.596-5.004,4.036C51.576,271.397,56.031,264.433,59.144,271.344z"/>
		<path fill="#13118D" d="M315.02,104.999c-0.226-1.071-0.468-2.139-0.676-3.213c-0.283-1.468,0.439-2.355,1.754-2.812
			c1.889-0.656,1.017,1.188,1.516,1.785c0.798,0.954,1.342,2.149,2.864,2.029c1.371-0.108,2.43-0.84,2.869-2.071
			c0.707-1.983,1.248-4.033,1.748-6.082c1.463-5.998,7.766-8.509,12.523-4.954c3.439,2.571,3.054,5.036-1.102,6.835
			c-0.933-1.611,0.238-4.757-2.784-4.768c-2.927-0.011-3.962,2.535-4.764,4.916c-0.354,1.05-0.42,2.194-0.686,3.279
			c-1.379,5.635-7.436,10.006-13.35,4.968L315.02,104.999z"/>
		<path fill="#13118D" d="M256.586,349.014c1.972-0.449,4.759-0.223,4.907-2.922c0.132-2.413-1.815-3.937-4.052-4.833
			c-1.728-0.692-3.569-1.221-5.125-2.196c-2.957-1.852-4.646-4.653-4.02-8.192c0.525-2.969,2.555-4.554,5.69-5.059
			c1.641-0.265,1.946,0.471,2.417,1.513c0.654,1.449-0.593,1.726-1.401,1.965c-1.46,0.432-2.672,1.279-2.694,2.698
			c-0.026,1.693,1.153,3.013,2.71,3.739c1.914,0.892,3.966,1.504,5.827,2.486c2.818,1.488,4.319,3.834,4.594,7.148
			c0.236,2.845-0.769,4.752-3.107,6.161C259.069,353.487,257.802,352.961,256.586,349.014z"/>
		<path fill="#13118D" d="M296.322,81.768c-0.522-0.972-1.167-1.899-1.536-2.926c-0.503-1.399,0.766-2.071,1.605-2.631
			c1.179-0.787,1.308,0.593,1.718,1.219c1.729,2.638,3.801,2.642,5.995,0.703c2.231-1.971,4.834-3.501,6.744-5.854
			c3.588-4.422,3.586-5.714-0.247-9.785c1.202-0.974,2.114-2.621,4.081-1.29c2.552,1.727,3.589,4.197,3.051,7.111
			c-1.46,7.913-12.332,15.528-20.259,14.366c-0.131-0.019-0.32,0.353-0.482,0.543l0.02,0.062c0.862-1.083,0.026-1.33-0.783-1.591
			C296.228,81.695,296.322,81.768,296.322,81.768z"/>
		<path fill="#13118D" d="M26.451,120.446c5.83,0.974,11.382,2.674,15.939,6.639c2.953,2.57,3.369,7.036,1.231,9.751
			c-0.999,1.269-1.918,1.146-3.212,0.541c-1.678-0.785-0.787-1.411-0.284-2.492c1.399-3.011-0.693-4.947-2.716-6.552
			c-3.054-2.424-6.912-2.891-10.594-3.582c-2.247-0.422-3.654,1.087-4.727,2.932c-0.36,0.619,0.683,2.413-1.327,1.736
			c-1.228-0.414-2.093-0.975-2.035-2.614C18.852,123.236,22.364,120.236,26.451,120.446z"/>
		<path fill="#13118D" d="M148.284,359.77c-0.428,1.185,0.019,2.862-1.963,3.08c-2.433,0.269-4.406-0.773-5.988-2.414
			c-0.719-0.746-1.242-1.97-1.308-3.011c-0.406-6.46,1.198-12.53,4.603-17.954c2.331-3.713,6.803-4.339,9.245-1.901
			c0.79,0.788,1.264,1.61,0.784,2.627c-0.494,1.046-1.459,0.308-2.155,0.258c-3.399-0.244-6.77,2.359-7.285,6.381
			c-0.252,1.965-0.714,3.883-0.971,5.841C142.617,357.459,143.548,358.872,148.284,359.77z"/>
		<path fill="#13118D" d="M299.151,292.367c1.597,1.879,3.433,3.23,5.1,4.746c3.233,2.94,6.268,6.1,9.355,9.199
			c1.559,1.566,2.903,2.616,4.43-0.151c0.796-1.442,2.167-2.022,3.677-0.517c1.694,1.689-0.102,2.327-0.917,3.236
			c-0.75,0.836-1.627,1.558-2.365,2.403c-1.861,2.131-3.512,2.167-5.588,0.066c-4.76-4.818-9.722-9.436-14.568-14.17
			c-0.653-0.638-1.887-1.196-1.22-2.409C297.512,293.941,298.314,293.302,299.151,292.367z"/>
		<path fill="#13118D" d="M15.391,150.847c-0.353,1.87,0.838,2.537,2.021,2.77c4.782,0.944,9.668,1.366,14.093,3.771
			c0.835,0.454,2.213-0.134,3.349-0.494c0.749-0.238,2.198-0.227,2.546,0.787c0.287,0.837,0.036,1.982-0.292,2.875
			c-0.408,1.109-1.392,0.609-2.241,0.457c-6.353-1.143-12.719-2.213-19.066-3.387c-3.814-0.705-5.357-3.501-4.132-7.198
			c0.408-1.232,0.772-2.42,2.512-2.045C15.339,148.631,15.428,148.748,15.391,150.847z"/>
		<path fill="#13118D" d="M338.291,286.853c-1.348,0.737-1.144,3.571-3.7,2.001c-6.548-4.022-12.544-8.9-19.378-12.481
			c-1.443-0.756-1.29-1.742-0.42-3.058c0.825-1.248,1.507-1.523,2.628-0.565c4.32,3.691,9.61,5.87,14.244,9.094
			c1.854,1.289,3.151,3.489,5.682,3.831C337.67,285.718,337.911,286.358,338.291,286.853z"/>
		<path fill="#13118D" d="M314.932,104.91c-0.552,3.445-3.173,3.148-5.621,3.049c-1.032-0.042-0.901-0.92-0.967-1.673
			c-0.099-1.147,0.372-1.607,1.482-1.545c1.731,0.096,3.464,0.174,5.195,0.259C315.02,104.999,314.932,104.91,314.932,104.91z"/>
		<path fill="#13118D" d="M296.992,83.224c-1.092,1.926-3.109,1.999-4.932,2.381c-0.766,0.161-1.783,0.422-1.856-1.009
			c-0.059-1.149,0.24-1.902,1.497-2.081c1.545-0.22,3.082-0.496,4.622-0.748c0,0-0.094-0.073-0.094-0.073
			c-0.489,0.9-0.161,1.397,0.783,1.591L296.992,83.224z"/>
		<path fill="#FDFDFD" d="M244.927,173.35c6.593,8.677,15.399,13.737,22.307,20.834c8.451,8.683,13.731,18.846,12.896,31.448
			c-0.348,5.252-3.174,9.001-6.942,12.316c-1.741,1.531-2.762,1.009-3.737-0.764c-1.748-3.178-3.757-6.183-6.426-8.674
			c-7.586-7.078-16.443-8.036-26.039-5.326c-0.808,0.228-1.604,0.499-3.085,0.962C238.419,207.381,241.98,190.925,244.927,173.35z"
			/>
		<path fill="#FDFDFD" d="M128.34,186.585c-0.12,2.498,0.229,5.609-0.403,8.715c-0.524,2.575-1.543,3.681-4.38,2.893
			c-5.179-1.44-6.438-2.992-6.736-8.322c-0.399-7.14,1.384-13.588,5.649-19.311c0.819-1.099,1.257-3.11,3.201-2.533
			c1.494,0.444,1.507,2.05,1.783,3.425C128.42,176.261,128.374,181.116,128.34,186.585z"/>
		<path fill="#FDFDFD" d="M335.831,249.625c4.211,0.509,8.034,2.982,11.876,5.18c1.207,0.691,1.729,2.863,1.384,4.679
			c-0.684-0.199,0.164,2.12-1.525,0.732c-3.878-3.187-8.906-4.312-13.198-6.801c-1.074-0.623-3.249-0.456-2.778-2.3
			C332.017,249.448,333.944,249.615,335.831,249.625z"/>
		<path fill="#FDFDFD" d="M290.993,327.446c-0.026,1.958,0.231,2.869-0.738,3.444c-1.097,0.651-2.022,0.057-2.699-0.578
			c-3.776-3.536-6.599-7.772-8.552-12.542c-0.367-0.897-0.655-2.314,0.566-3.043c1.057-0.631,1.938,0.186,2.649,0.822
			C286.231,319.139,289.118,323.507,290.993,327.446z"/>
		<path fill="#FDFDFD" d="M336.347,130.523c-1.985,0.149-3.027,0.117-3.508-0.984c-0.583-1.334,0.363-2.1,1.294-2.736
			c4.005-2.735,8.339-4.756,13.099-5.772c1.393-0.297,2.866-0.222,3.564,1.257c0.728,1.541-0.269,2.844-1.495,3.35
			C344.754,127.518,340.364,129.891,336.347,130.523z"/>
		<path fill="#FDFDFD" d="M82.703,328.658c-2.253-0.26-2.639-1.729-1.878-3.232c2.429-4.799,5.561-9.112,9.837-12.467
			c0.758-0.595,1.743-1.03,2.707-0.14c0.768,0.708,0.765,1.634,0.416,2.404c-2.282,5.031-5.792,9.14-9.871,12.794
			C83.562,328.331,83.058,328.475,82.703,328.658z"/>
		<path fill="#FDFDFD" d="M117.074,335.792c-0.566,0.054-1.211-0.203-1.016-0.727c0.725-1.953,1.459-3.94,2.526-5.712
			c0.461-0.765,1.303,0.02,1.677,0.716C121.099,331.628,118.854,335.644,117.074,335.792z"/>
		<path fill="#FDFDFD" d="M111.993,342.895c0.318-0.574,0.592-1.836,1.033-1.529c0.847,0.588,0.386,1.637-0.214,2.418
			C112.54,343.488,112.267,343.192,111.993,342.895z"/>
		<path fill="#FDFDFD" d="M62.829,295.452c2.061-1.521,3.789-2.824,5.552-4.08c0.492-0.351,1.101-0.652,1.638-0.033
			c0.456,0.526,0.295,1.058,0.096,1.694C69.023,296.52,67.059,297.287,62.829,295.452z"/>
		<path fill="#FDFDFD" d="M61.072,297.915c0.436,3.823-1.084,5.987-3.951,6.365c-0.641,0.084-1.255,0.051-1.662-0.513
			c-0.523-0.723,0.188-1.062,0.544-1.488c0.236-0.282,0.505-0.542,0.786-0.779C58.08,300.408,59.38,299.329,61.072,297.915z"/>
		<path fill="#FDFDFD" d="M352.27,192.584c-2.066,0.443-4.1,0.142-6.158-0.019c-0.69-0.054-1.106-0.088-1.364-0.692
			c-0.271-0.636-0.083-1.198,0.401-1.658C346.921,188.537,351.54,190.035,352.27,192.584z"/>
		<path fill="#FDFDFD" d="M69.195,76.592c-2.165-1.209-3.89-2.021-5.44-3.089c-1.091-0.751-1.495-1.69-0.232-2.983
			c1.621-1.661,1.782,0.054,2.283,0.797C66.863,72.884,68.442,74.146,69.195,76.592z"/>
		<path fill="#FDFDFD" d="M207.154,349.792c0.645,2.2,1.272,4.406,1.943,6.599c0.337,1.103-0.027,1.671-1.166,1.696
			c-0.993,0.022-2.088,0.132-1.983-1.417c0.156-2.293,0.303-4.586,0.455-6.88C206.652,349.79,206.903,349.791,207.154,349.792z"/>
		<path fill="#FDFDFD" d="M346.052,222.324c2.424,0.009,4.84-0.194,7.243-0.206c0.984-0.005,1.854,0.238,2.173,1.014
			c0.241,0.587,0.078,1.607-0.313,2.128c-0.705,0.938-1.567-0.03-2.27-0.273C350.576,224.188,348.325,223.225,346.052,222.324z"/>
		<path fill="#FDFDFD" d="M26.215,186.273c-3.569,0.467-6.184,0.774-8.786,1.166c-1.321,0.199-1.448-0.504-1.38-1.509
			c0.059-0.876-0.001-2.014,1.301-1.674C19.95,184.936,22.779,184.624,26.215,186.273z"/>
		<path fill="#FDFDFD" d="M297.012,83.286c-0.945-0.194-1.272-0.691-0.783-1.591C297.037,81.956,297.873,82.203,297.012,83.286z"/>
	</g>
</g>
</svg>
