<?xml version="1.0" encoding="utf-8"?>
<!-- Generator: Adobe Illustrator 17.0.0, SVG Export Plug-In . SVG Version: 6.00 Build 0)  -->
<!DOCTYPE svg PUBLIC "-//W3C//DTD SVG 1.1//EN" "http://www.w3.org/Graphics/SVG/1.1/DTD/svg11.dtd">
<svg version="1.1" id="Warstwa_1" xmlns="http://www.w3.org/2000/svg" xmlns:xlink="http://www.w3.org/1999/xlink" x="0px" y="0px"
	 width="466.322px" height="468.699px" viewBox="0 0 466.322 468.699" enable-background="new 0 0 466.322 468.699"
	 xml:space="preserve">
<path fill="#666666" d="M465.888,0c0,0,0.046,2.197,0.049,5.749c0.06,85.153,0.325,170.306,0.379,255.459
	c0.043,66.822-0.143,133.645-0.242,200.467c-0.01,7.024-0.057,7.033-7.279,7.023c-120.977-0.172-241.954-0.343-362.932-0.525
	c-29.818-0.045-59.637-0.233-89.454-0.098c-5.05,0.023-6.308-1.523-6.297-6.528C0.282,385.56,0.23,309.573,0.23,233.586
	C-0.207,157.264,0.112,0,0.112,0h5.389 M25.847,326.251c0.245,32.156,0.155,64.315,0.271,96.472
	c0.017,4.821-0.091,9.644,0.707,14.455c0.567,3.421,1.812,5.491,5.69,5.357c3.153-0.109,6.321,0.326,9.482,0.327
	c105.468,0.018,210.936,0.049,316.404-0.017c24.989-0.016,49.977-0.448,74.966-0.485c4.012-0.006,5.896-1.241,5.937-5.303
	c0.042-4.16,0.432-8.318,0.441-12.477c0.257-128.461,0.491-256.922,0.711-385.382c0.022-12.683-0.044-13.47-0.044-13.47H258.708
	c0,0-24,0.33-24,0h-91.333c0,0-76.654-0.575-113.473-0.373"/>
<path fill="none" d="M432.229,26.379c12.578,0.009,12.629,0.134,12.608,12.818c-0.22,128.461-0.454,256.922-0.711,385.382
	c-0.008,4.159-0.399,8.317-0.441,12.477c-0.041,4.062-1.925,5.297-5.937,5.303c-24.989,0.037-49.977,0.469-74.966,0.485
	c-105.468,0.066-210.936,0.035-316.404,0.017c-3.161-0.001-6.329-0.436-9.482-0.327c-3.878,0.134-5.123-1.935-5.69-5.357
	c-0.798-4.811-0.69-9.634-0.707-14.455c-0.115-32.157-0.026-64.316-0.271-96.472c-0.744-97.79-0.154-195.573,1.127-293.355
	c0.09-6.854,0.102-7.131,7.013-7.168 M61.322,350.651c0,17.164,0.08,34.328-0.072,51.49c-0.028,3.18,0.704,4.168,4.053,4.157
	c27.327-0.093,54.656-0.052,81.982,0.166c3.745,0.03,4.749-0.928,4.712-4.693c-0.195-19.995-0.036-39.992-0.151-59.988
	c-0.018-3.05,0.78-5.311,2.954-7.504c11.143-11.24,22.137-22.629,33.201-33.948c5.128-5.245,5.461-5.222,10.621-0.002
	c34.441,34.839,68.886,69.675,103.323,104.517c1.512,1.53,2.809,3.023,5.393,3.017c33.494-0.087,66.988-0.08,100.482-0.013
	c2.539,0.005,3.548-0.669,3.494-3.356c-0.114-5.662-0.12-11.341,0.218-16.99c0.188-3.145-0.903-5.234-3.058-7.403
	c-23.25-23.408-46.406-46.91-69.586-70.388c-25.053-25.375-50.069-50.786-75.21-76.073c-2.482-2.497-3.031-4.614-0.845-7.295
	c0.943-1.157,2.07-2.165,3.126-3.23c43.771-44.124,87.546-88.244,131.313-132.372c4.685-4.724,11.201-8.748,13.464-14.448
	c2.341-5.896,0.329-13.449,0.623-20.259c0.161-3.729-0.946-4.73-4.717-4.719c-31.993,0.098-63.987,0.017-95.979-0.173
	c-3.431-0.02-5.83,0.93-8.256,3.377c-34.142,34.433-68.382,68.769-102.605,103.121c-4.19,4.205-5.164,4.243-9.368,0.188
	c-11.031-10.643-21.961-21.393-33.093-31.928c-2.292-2.169-3.011-4.362-2.966-7.4c0.313-20.827,0.378-41.658,0.745-62.483
	c0.066-3.771-0.703-5.104-4.828-5.027c-27.985,0.523-55.975,0.82-83.965,1.017c-3.209,0.023-4.135,0.783-4.153,4.083
	c-0.176,33.493-0.498,66.985-0.902,100.476c-0.035,2.906,0.839,4.875,2.89,6.915c19.613,19.505,39.121,39.115,58.64,58.714
	c5.251,5.272,5.233,7.733,0.063,12.903c-19.56,19.558-39.088,39.149-58.729,58.626c-2.065,2.047-2.902,4.043-2.879,6.936
	C61.389,317.323,61.322,333.987,61.322,350.651z"/>
<path fill="#666666" d="M61.322,350.651c0-16.664,0.067-33.328-0.064-49.991c-0.023-2.893,0.814-4.889,2.879-6.936
	c19.641-19.476,39.169-39.067,58.729-58.626c5.17-5.17,5.189-7.63-0.063-12.903c-19.519-19.599-39.027-39.209-58.64-58.714
	c-2.052-2.041-2.925-4.009-2.89-6.915c0.404-33.491,0.726-66.983,0.902-100.476c0.017-3.3,0.944-4.06,4.153-4.083
	c27.99-0.197,55.98-0.494,83.965-1.017c4.125-0.077,4.894,1.255,4.828,5.027c-0.367,20.826-0.432,41.656-0.745,62.483
	c-0.046,3.038,0.674,5.231,2.966,7.4c11.133,10.535,22.062,21.286,33.093,31.928c4.204,4.056,5.178,4.018,9.368-0.188
	c34.223-34.352,68.463-68.688,102.605-103.121c2.427-2.447,4.826-3.398,8.256-3.377c31.993,0.19,63.986,0.271,95.979,0.173
	c3.771-0.011,4.878,0.99,4.717,4.719c-0.294,6.811,1.719,14.363-0.623,20.259c-2.264,5.7-8.779,9.724-13.464,14.448
	c-43.767,44.128-87.542,88.248-131.313,132.372c-1.056,1.064-2.183,2.073-3.126,3.23c-2.187,2.682-1.638,4.799,0.845,7.295
	c25.141,25.287,50.157,50.699,75.21,76.073c23.18,23.478,46.335,46.98,69.586,70.388c2.155,2.169,3.246,4.258,3.058,7.403
	c-0.337,5.649-0.332,11.328-0.218,16.99c0.054,2.687-0.955,3.361-3.494,3.356c-33.494-0.067-66.988-0.074-100.482,0.013
	c-2.584,0.007-3.881-1.487-5.393-3.017c-34.438-34.842-68.882-69.678-103.323-104.517c-5.16-5.219-5.493-5.243-10.621,0.002
	c-11.065,11.319-22.058,22.708-33.201,33.948c-2.174,2.193-2.972,4.454-2.954,7.504c0.116,19.996-0.044,39.994,0.151,59.988
	c0.037,3.766-0.967,4.723-4.712,4.693c-27.326-0.218-54.655-0.259-81.982-0.166c-3.349,0.011-4.081-0.977-4.053-4.157
	C61.402,384.979,61.322,367.815,61.322,350.651z"/>
</svg>
