<?xml version="1.0" encoding="utf-8"?>
<!-- Generator: Adobe Illustrator 17.0.0, SVG Export Plug-In . SVG Version: 6.00 Build 0)  -->
<!DOCTYPE svg PUBLIC "-//W3C//DTD SVG 1.1//EN" "http://www.w3.org/Graphics/SVG/1.1/DTD/svg11.dtd">
<svg version="1.1" id="Warstwa_1" xmlns="http://www.w3.org/2000/svg" xmlns:xlink="http://www.w3.org/1999/xlink" x="0px" y="0px"
	 width="612.354px" height="588.57px" viewBox="0 0 612.354 588.57" enable-background="new 0 0 612.354 588.57"
	 xml:space="preserve">
<path fill="none" d="M306.177,0.181c99.477,0,198.954,0.078,298.431-0.18c6.45-0.017,7.754,1.299,7.747,7.749
	c-0.218,191.024-0.218,382.049,0,573.074c0.007,6.447-1.295,7.754-7.745,7.747c-198.954-0.216-397.908-0.216-596.862,0
	C1.3,588.576-0.007,587.276,0,580.824C0.218,389.8,0.218,198.774,0,7.75C-0.007,1.301,1.295-0.017,7.746,0
	C107.223,0.259,206.7,0.181,306.177,0.181z M510.431,486.929c3.223,2.857,4.57-0.792,5.72-2.188
	c6.841-8.309,13.839-16.558,19.895-25.435c46.494-68.153,66.571-142.378,50.125-224.528C575.445,181.2,550.849,134.52,513.38,94.865
	c-36.544-38.677-81.096-64.387-132.253-78.553c-40.994-11.352-82.84-13.426-124.619-6.671c-53.096,8.585-100.781,30.12-142.466,64.6
	c-33.444,27.664-59.065,61.395-76.886,100.659C12.125,230.048,4.755,287.539,17.355,347.3
	c12.241,58.057,38.563,108.039,81.957,149.004c43.359,40.933,93.902,66.679,152.594,78.029c41.712,8.066,82.548,6.231,123.173-4.325
	c47.849-12.434,89.364-36.739,125.45-70.29c3.906-3.631,10.311-6.011,10.17-13.057L510.431,486.929z"/>
<path fill="#060606" d="M510.698,486.661c0.141,7.046-6.264,9.425-10.17,13.057c-36.086,33.551-77.601,57.856-125.45,70.29
	c-40.624,10.557-81.461,12.391-123.173,4.325c-58.692-11.35-109.234-37.096-152.594-78.029
	C55.918,455.339,29.596,405.357,17.355,347.3c-12.6-59.761-5.231-117.252,19.801-172.399
	c17.822-39.264,43.443-72.995,76.886-100.659c41.684-34.48,89.369-56.015,142.466-64.6c41.778-6.755,83.624-4.681,124.619,6.671
	c51.157,14.166,95.709,39.876,132.253,78.553c37.468,39.655,62.065,86.335,72.791,139.913
	c16.446,82.151-3.631,156.375-50.125,224.528c-6.055,8.876-13.054,17.125-19.895,25.435c-1.15,1.397-2.497,5.045-5.72,2.188
	c5.093-13.313,16.318-22.257,24.102-33.697c42.177-61.981,60.572-129.651,49.452-204.288
	c-8.868-59.519-34.444-111.126-77.005-153.793C438.237,26.238,354.106,0.513,259.241,14.018
	C185.818,24.47,123.707,58.936,77.619,118.565C21.132,191.65,1.941,273.122,25.81,363.205c14.08,53.139,40.94,98.954,82.569,135.447
	c55.46,48.619,119.303,75.17,193.923,75.097c66.772-0.065,125.809-20.507,177.615-62.505
	C490.114,502.978,498.782,492.773,510.698,486.661z"/>
<path fill="none" d="M510.698,486.661c-11.916,6.111-20.585,16.316-30.781,24.582c-51.807,41.998-110.844,62.44-177.615,62.505
	c-74.62,0.073-138.463-26.478-193.923-75.097C66.751,462.159,39.89,416.344,25.81,363.205
	c-23.869-90.083-4.679-171.555,51.809-244.64c46.088-59.63,108.199-94.095,181.622-104.548
	c94.865-13.505,178.995,12.22,247.739,81.134c42.561,42.666,68.138,94.273,77.005,153.793
	c11.12,74.637-7.275,142.306-49.452,204.288c-7.784,11.439-19.01,20.383-24.102,33.697
	C510.431,486.929,510.698,486.661,510.698,486.661z M193.068,58.116c1.998-0.033,4.416,1.596,5.843-0.835
	c1.66-2.828-1.665-3.329-2.745-4.86c-2.529-3.586-5.971-3.578-9.567-2.024c-6.166,2.666-12.29,5.43-18.4,8.223
	c-3.035,1.387-5.582,4.257-1.107,5.697c8.464,2.724,10.905,11.035,10.963,16.366c0.198,18.309,9.246,5.7,14.695,5.056
	c1.395-0.165,2.646-1.544,4.399-2.637c-4.151-3.556-11.155-3.518-10.687-10.521c3.516-3.705,6.262,2.962,10.374,0.236
	c-1.949-4.282-3.935-8.647-5.921-13.012C191.633,59.242,192.351,58.679,193.068,58.116z M147.069,89.028
	c-8.111-1.824-16.364-7.893-23.952,1.532c-2.08,2.583-4.314,4.678,0.161,6.108c11.38,3.637,15.03,13.156,18.453,23.547
	c2.928-1.844,5.844-3.254,8.218-5.294c2.531-2.176,2.193-4.656-0.678-4.908c-8.911-0.78-8.735-9.116-13.175-13.63
	c7.488,2.042,14.259,4.829,21.019,7.643c2.767,1.152,5.421,1.802,7.434-1.281c1.952-2.989-1.135-4.274-2.015-6.384
	c-3.179-7.619-14.18-11.072-11.648-21.815c0.127-0.538-1.526-3.783-3.622-1.742c-2.738,2.666-7.982,3.351-8.343,7.545
	c-0.371,4.315,5.022,0.423,6.614,3.187c0.879,1.525,2.268,2.756,3.427,4.119C148.331,88.112,147.7,88.57,147.069,89.028z
	 M511.722,427.936c-0.529-0.725-1.057-1.45-1.586-2.176c-3.371-9.996-9.448-10.223-18.117-0.677
	c-7.122,7.843-7.143,17.224-0.056,24.738c7.353,7.796,17.834,9.378,24.677,2.767c4.443-4.292,8.385-9.567,10.993-15.132
	c1.795-3.831-5.32-4.538-5.797-7.772C520.108,417.977,515.914,423.618,511.722,427.936z M241.423,58.431
	c-0.524-0.809-1.048-1.618-1.572-2.426c-1.117-6.257-10.488-14.765,5.174-16.009c-3.705-7.184-8.131-9.489-15.156-6.008
	c-3.764,1.865-7.943,2.999-12.039,4.062c-6.975,1.81-12.312,3.118-2.858,10.189c3.132,2.343,5.476,8.498,4.957,12.492
	c-2.363,18.192,8.297,9.149,15.287,7.833c2.085-0.392,4.143-0.994,6.165-1.646c10.206-3.292,11.373-5.877,7.642-16.97
	C244.738,51.235,244.9,56.504,241.423,58.431z M118.3,483.683l-0.122-0.171c0.458,6.003,5.113,8.667,9.467,11.258
	c2.158,1.284,3.769,5.187,7.169,2.861c3.202-2.19-0.677-4.225-0.682-6.509c-0.014-6.15-0.684-12.87,2.626-17.817
	c3.035-4.537,8.333-0.757,12.663,0.299c1.016,0.248,2.764-0.73,3.538-1.669c1.251-1.519-0.374-2.634-1.392-3.465
	c-8.799-7.188-17.655-14.306-27.81-22.508c0.404,12.461-7.979,18.067-13.945,25.183c-1.561,1.862-9.191-2.096-5.361,3.434
	C107.07,478.359,109.534,487.319,118.3,483.683z M82.045,289.04C80.32,402.182,174.88,502.7,291.989,508.286
	c138.921,6.627,229.292-100.681,235.436-207.736c7.257-126.446-92.339-224.678-206.947-231.134
	C184.374,61.75,79.871,171.881,82.045,289.04z M70.816,181.949c-3.035,0.309-5.859,0.241-6.534-3.367
	c-0.515-2.751-3.108-4.395-4.167-2.884c-2.756,3.933-4.979,8.527-6.144,13.176c-0.664,2.651,2.36,1.795,4.545,1.941
	c8.583,0.574,16.998,1.933,22.093,10.455c1.555,2.601,4.188,3.993,6.089-0.229c4.367-9.695,8.738-19.389,13.18-29.049
	c0.629-1.367,1.072-2.522,0.04-3.86c-1.119-1.45-2.59-1.506-3.566-0.3c-3.968,4.901-10.145,2.35-14.953,4.645
	c-4.763,2.274-7.654,0.323-9.171-5.054c-0.91-3.225,1.966-8.901-2.39-9.314c-4.887-0.463-4.337,6.229-6.765,9.393
	c-1.034,1.348-1.377,3.227-2.281,5.48C67.603,172.132,70.462,175.592,70.816,181.949z M270.804,522.482
	c4.165,4.225,4.713,8.386,4.755,13.204c0.066,7.549-6.344,18.065-3.148,20.51c5.297,4.052,14.881,2.515,22.664,3.291
	c1.728,0.172,4.52,0.88,5.035,0.124c2.597-3.815,8.149-8.075,5.371-12.289c-2.696-4.089-4.656,2.797-7.596,3.59
	c-1.691,0.457-3.209,1.52-4.868,2.142c-3.689,1.383-7.25,1.444-9.132-2.683c-1.092-2.395-0.488-5.304,1.518-6.929
	c5.191-4.206,3.411,5.264,7.923,3.773c3.151-4.099,2.738-9.911,3.546-14.891c4.251,0.152,4.466,5.365,8.206,3.804
	c1.473-0.615,2.158-1.864,1.125-3.369c-2.069-3.017-1.13-9.32-5.916-8.947C291.005,524.534,282.092,519.886,270.804,522.482z
	 M475.564,495.005c23.463-15.377,27.281-23.099,14.942-33.139c0.57,6.111-0.683,11.149-3.316,15.77
	c-1.392,2.443-3.441,3.922-6.2,2.495c-2.217-1.147-4.771-3.036-4.523-5.568c0.469-4.78,3.422-1.387,5.5-1.186
	c3.469,0.334,3.625-2.291,2.296-4.047c-3.204-4.233-6.392-8.766-12.79-9.367c4.253-3.115,9.854-0.383,14.852-6.685
	c-6.413,0.371-9.428-6.688-15.493-1.367c-6.445,5.654-13.027,11.153-20.963,17.927C465.775,474.392,471.267,484.157,475.564,495.005
	z M381.776,54.473c3.198,3.895,3.796,8.865,5.613,13.324c2.042,5.009,7.583,7.486,11.313,5.694c5.518-2.651-1.15-5.416-2.004-8.238
	c-1.313-4.341-4.219-7.489,3.107-10.535c7.891-3.281,6.501-11.868-2.462-15.813c-7.846-3.453-16.289-5.549-26.571-8.937
	c6.155,10.466,3.475,21.383-1.574,26.003c-13.642,12.484,1.804,8.833,5.289,10.999c1.232,0.766,3.848,3.788,6.983,0.194
	C380.471,63.382,375.463,58.637,381.776,54.473z M402.51,534.778c-2.105,6.449,0.351,6.782,5.449,3.907
	c4.665-2.63,9.745-4.596,14.176-7.552c8.23-5.491,10.718-12.851,6.073-22.168c-4.224-8.474-11.964-12.227-21.396-9.112
	c-5.707,1.885-11.106,4.803-16.465,7.599c-3.395,1.771-5.615,3.053,0.091,6.105C398.275,517.747,399.128,527.117,402.51,534.778z
	 M342.359,33.056c4.461-0.866,5.007,5.471,9.032,3.106c0.651-0.382,1.256-2.168,0.923-2.682c-2.014-3.104-1.725-8.088-6.874-8.73
	c-1.06-0.132-2.091-0.684-3.139-0.692c-7.856-0.06-15.712-0.033-24.077-0.033c7.951,11.524,2.76,21.811-1.453,32.33
	c7.503,3.477,15.567,1.469,23.334,2.309c10.207,1.104,11.373-5.312,12.538-14.324c-6.886,4.65-12,11.363-19.679,8.084
	c-3.732-1.594-2.136-5.896-1.028-9.044c4.096-0.311,5.422,6.502,8.369,3.853C344.18,43.751,340.706,37.745,342.359,33.056z
	 M542.563,351.689c-13.959-1.239-18.096,5.149-20.523,29.257c9.217-5.336,20.234-1.782,24.667,3.027
	c11.712,12.706,8.76-2.037,11.154-4.977c1.8-2.211,1.154-6.243,2.538-8.992c5.002-9.936-0.621-13.563-10-17.245
	c1.694,6.473,4.21,11.203,3.867,16.543c-0.218,3.399-1.038,5.542-4.988,4.997c-2.127-0.293-4.914-0.045-5.547-2.424
	c-1.364-5.127,6.249-2.568,6.348-7.427c-4.358-1.411-8.9-2.871-13.424-4.383c-0.221-0.074-0.284-0.618-0.617-1.41
	C537.698,356.883,539.507,354.951,542.563,351.689z M389.444,533.339c0.202-10.277-8.289-20.06-17.908-20.631
	c-9.9-0.588-20.887,9.392-21.011,19.086c-0.125,9.773,8.457,19.397,17.685,19.832C378.897,552.129,389.249,543.214,389.444,533.339z
	 M283.281,24.074c-1.797,0-3.622-0.206-5.388,0.033c-13.823,1.87-13.911,1.969-11.693,14.34c0.501,2.795,0.803,5.854,2.181,8.217
	c2.784,4.774-6.198,10.792,0.554,13.616c4.858,2.032,10.964-1.65,16.758-1.984c10.156-0.586,15.748-8.23,15.084-18.346
	C300.139,30.246,293.411,24.096,283.281,24.074z M88.579,134.96c0.08,9.452,9.316,18.938,18.247,18.741
	c9.936-0.22,19.54-10.373,19.481-20.596c-0.057-9.997-9.264-18.523-19.776-18.314C97.235,114.974,88.493,124.797,88.579,134.96z
	 M215.71,519.848c2.355,7.998,5.027,15.922,6.905,24.031c0.724,3.127,2.644,4.514,4.842,4.811c3.214,0.435,3.096-3.05,3.99-5.068
	c3.544-8,1.395-18.458,10.508-24.141c0.632-0.394,0.554-3.534,0.199-3.658c-3.624-1.267-7.336-2.683-11.106-2.969
	c-1.962-0.149-1.971,2.236-1.001,4.113c2.195,4.249,2.939,8.348-2.006,11.843c-3.713-19.96-4.024-20.299-20.394-21.906
	c4.258,12.805-0.688,23.184-8.585,33.129c3.462,1.003,6.763,2.257,10.179,2.835c1.937,0.328,5.206-0.48,3.223-3.294
	C207.074,531.921,215.086,526.596,215.71,519.848z M62.219,354.829c-10.973,0.103-18.976,7.566-18.798,17.53
	c0.182,10.224,9.358,19.552,18.93,19.245c10.934-0.351,18.479-7.728,18.532-18.118C80.941,362.429,73.236,354.726,62.219,354.829z
	 M110.476,450.575c0.745-4.676-3.17-7.701-4.144-11.738c-0.574-2.377-4.242-5.788,0.284-7.048c3.554-0.99,5.31,2.739,5.898,5.988
	c0.378,2.088,0.088,4.298,0.097,6.453c0.006,1.39-0.262,2.907,1.386,3.649c2.305,1.038,3.219-0.878,4.229-2.207
	c1.687-2.219,4.799-5.151,2.465-7.44c-4.787-4.696-5.429-13.593-14.266-14.225c-7.502-0.536-11.652,2.522-11.667,10.312
	c-0.008,4.413,1.81,8.279,3.763,12.104c1.353,2.649,2.515,5.965-0.871,7.338c-3.193,1.295-5.351-1.892-6.32-4.462
	c-1.206-3.198-2.744-6.55-0.716-10.29c1.027-1.893,0.651-4.695-1.76-5.487c-2.798-0.92-2.769,2.431-4.163,3.715
	c-8.896,8.193,0.995,12.863,4.013,18.01c3.583,6.108,10.161,7.467,16.948,4.138C109.28,457.605,110.812,454.575,110.476,450.575z
	 M445.855,67.591c-0.542-4.098,0.852-7.698-3.951-9.725c-4.727-1.994-6.057,1.885-8.789,3.489
	c-6.717,3.945-11.705,10.568-19.441,12.83c-2.132,0.624-6.058-0.933-4.829,3.095c1.441,4.726,6.928,5.367,10.769,7.382
	c2.44,1.28,3.822-1.155,3.032-3.656c-0.913-2.89-0.77-5.126,2.687-5.522c3.48-0.399,6.528,1.467,8.17,4.102
	c2.271,3.643-0.721,4.483-3.754,5.541c-3.635,1.268-2.547,3.902-0.218,5.579c3.17,2.282,6.584,4.267,10.049,6.083
	c2.343,1.228,4.899,0.248,4.29-2.424C441.723,84.928,444.984,75.986,445.855,67.591z M313.108,558.123
	c5.175,0,9.376-0.078,13.573,0.02c5.126,0.119,5.728-2.531,3.199-5.962c-5.947-8.069-2.138-9.195,5.61-9.364
	c6.302-0.137,10.703-3.666,10.68-10.736c-0.022-6.672-4.495-10.018-10.15-10.451c-8.014-0.614-16.265-1.154-24.842,1.904
	C320.224,534.497,320.509,545.585,313.108,558.123z M35.624,340.13c9.089-8.495,9.796-8.381,14.265,3.007
	c2.093,5.334,5.355,8.36,11.288,7.337c5.736-0.989,8.639-4.372,8.498-10.379c-0.189-8.056-1.016-15.95-4.366-24.818
	c-6.95,9.429-17.066,10.882-25.234,8.644c-9.893-2.71-7.844,2.017-7.182,7.12C33.255,333.827,34.498,336.499,35.624,340.13z
	 M526.064,204.84c3.288-11.238,12.053-16.376,17.795-23.864c1.93-2.516,5.806-3.476,3.935-8.707c-2.005-5.606-5.714-3.14-8.63-3.293
	c-8.22-0.43-16.472-0.186-24.708-0.383c-1.896-0.045-3.69-3.404-5.544-1.092c-1.678,2.093-0.296,4.427,1.233,6.618
	c1.678,2.405,2.669,5.289,4.363,8.803c3.137-3.26,2.985-10.102,8.909-7.116c2.951,1.488,4.433,5.25,3.992,8.087
	c-1.026,6.607-6.611,1.719-10.733,2.872C518.983,193.027,520.733,198.901,526.064,204.84z M482.333,119.78
	c-1.679-4.315-4.416-2.727-6.746-2.891c-10.631-0.747-14.461-8.184-8.685-16.925c2.91-4.404,6.873-7.521,12.501-6.705
	c6.142,0.89,5.948,6.286,6.528,10.675c0.278,2.108-0.406,4.399,1.89,5.588c0.576,0.298,2.465-0.444,2.529-0.887
	c0.587-4.025,4.747-7.278,2.32-11.981c-4.694-9.095-16.491-14.132-24.981-10.467c-10.135,4.376-14.46,14.727-10.324,24.709
	C461.362,120.54,469.995,123.677,482.333,119.78z M524.896,394.766c-2.901,1.678,0.615,6.548-3.117,6.946
	c-2.99,0.319-4.444-2.227-4.97-5.655c-0.673-4.379-3.478-2.844-5.049-0.454c-2.138,3.252-4.054,6.742-5.428,10.372
	c-0.979,2.585,0.003,5.76,3.47,4.305c7.19-3.016,10.788,1.839,13.619,6.29c2.524,3.968,10.434-0.424,9.723,7.085
	c6.841-0.107,6.025-6.697,8.614-10.352c1.605-2.267,2.058-5.401,3.797-7.513c5.583-6.78-0.104-10.252-3.824-14.343
	c-0.854-0.939-1.802-2.308-3.284-0.68c-0.931,1.023-1.823,1.731-0.547,3.428c1.232,1.638,2.048,3.818,2.363,5.865
	c0.559,3.638,0.129,8.194-3.672,8.945c-3.826,0.756-7.452-1.695-7.852-6.681C528.523,399.66,529.554,396.333,524.896,394.766z
	 M87.857,389.19c-6.627,9.562-14.979,14.715-25.811,14.456c-4.233-0.101-4.506,1.783-3.361,4.281
	c3.26,7.11,6.514,14.307,10.706,20.872c2.413,3.779,7.232,1.512,10.969,1.243c0.903-0.065,2.523-2.008,2.375-2.829
	c-0.699-3.879-4.542-2.499-6.895-3.712c-2.856-1.472-6.004-3.231-6.525-6.714c-0.593-3.968,3.663-4.031,5.788-5.234
	c6.43-3.638,12.733-8.566,21.501-4.647C94.804,399.864,92.081,394.644,87.857,389.19z M528.612,141.039
	c-0.248-7.057-5.536-9.915-8.644-14.074c-1.645-2.2-4.816-2.913-4.892,1.423c-0.166,9.443-9.29,10.171-14.147,14.997
	c-2.39,2.375-4.719-0.309-6.393-1.694c-1.602-1.325-2.383-3.761,0.417-5.081c2.786-1.314,4.978-2.694,3.48-6.291
	c-1.028-2.469-3.106-2.893-5.314-2.475c-3.504,0.664-5.834,3.084-6.254,6.452c-0.868,6.955,2.047,12.445,7.678,16.515
	c5.486,3.966,10.171,2.936,15.161-1.484C514.789,144.822,519.663,139.071,528.612,141.039z M569.217,334.366
	c0.587-8.788-2.151-13.156-11.002-14.52c-5.535-0.853-13.218,1.145-16.468-6.698c-0.749-1.808-3.71-2.052-4.25-0.124
	c-1.415,5.053-2.303,10.306-2.802,15.536c-0.195,2.047,2.137,3.21,3.702,1.437c6.507-7.372,13.319,0.46,20.031-0.429
	c3.154-0.418,4.857,3.521,4.038,7.349c-0.943,4.406-3.065,2.538-5.351,1.318c-2.553-1.363-4.261,0.312-4.973,2.36
	c-0.517,1.485-0.55,3.946,0.346,4.946c1.88,2.098,4.609,3.791,7.644,2.433C566.273,345.223,569.543,340.463,569.217,334.366z
	 M462.568,489.494c-1.016,2.521-1.612,3.413-1.717,4.359c-0.534,4.822-2.232,10.247-6.447,11.487
	c-5.21,1.532-5.361-5.383-8.031-8.31c-3.033-3.324-6.287-6.62-4.162-12.231c0.711-1.876-1.581-7.17-4.573-3.336
	c-3.302,4.231-9.615,4.538-11.854,10.45c10.981,2.632,15.975,11.83,16.734,20.484c0.777,8.861,3.451,4.749,6.584,2.994
	c3.397-1.903,6.282-4.864,9.817-6.348C468.755,504.914,468.882,498.861,462.568,489.494z M246.548,517.743
	c5.082,8.927,5.325,24.261-1.023,28.816c-6.462,4.637-1.76,5.425,1.173,6.464c3.624,1.284,7.612,1.826,11.477,2.034
	c2.178,0.117,4.275-1.237,2.622-4.151c-5.531-9.748-2.904-18.155,4.021-26.01c2.088-2.368,1.91-5.46-1.578-5.347
	C257.811,519.726,253.025,515.783,246.548,517.743z M155.606,514.308c-0.157-12.587,5.182-21.621,18.155-26.103
	c-4.394-3.594-7.155-8.058-12.074-10.583c-3.413-1.752-6.134-1.653-4.927,2.312c3.101,10.191-4.981,17.481-9.926,20.133
	c-12.27,6.58-2.414,7.402,1.172,10.323C150.17,512.155,152.02,514.515,155.606,514.308z"/>
<path fill="#060606" d="M82.045,289.04C79.871,171.881,184.374,61.75,320.478,69.416c114.608,6.455,214.204,104.688,206.947,231.134
	c-6.144,107.055-96.515,214.363-235.436,207.736C174.88,502.7,80.32,402.182,82.045,289.04z M307.217,501.816
	c5.007,4.126,9.993,0.536,15.087,0.2c31.72-2.093,61.65-9.913,89.221-26.152c17.332-10.208,33.986-21.446,47.532-36.331
	c23.13-25.418,41.999-53.409,52.788-86.703c7.14-22.031,9.765-44.428,11.303-67.199c-0.491-20.709-3.835-40.712-10.165-60.671
	C477.228,112.225,359.977,49.925,245.638,82.27c-47.746,13.507-86.299,40.345-115.963,79.822
	c-27.905,37.137-43.987,78.523-42.63,125.701c-1.745,16.887,1.262,33.411,5.121,49.605c11.158,46.818,36.953,85.018,73.007,115.963
	c18.545,15.917,39.984,28.162,62.988,37.141c15.543,6.067,32.187,8.423,48.348,10.513
	C286.204,502.269,296.949,508.015,307.217,501.816z"/>
<path fill="#060606" d="M70.816,181.949c-0.353-6.357-3.213-9.817-10.025-8.968c0.904-2.253,1.247-4.132,2.281-5.48
	c2.428-3.164,1.878-9.856,6.765-9.393c4.357,0.413,1.48,6.089,2.39,9.314c1.517,5.378,4.408,7.328,9.171,5.054
	c4.808-2.295,10.985,0.256,14.953-4.645c0.976-1.205,2.447-1.15,3.566,0.3c1.033,1.338,0.589,2.493-0.04,3.86
	c-4.442,9.661-8.814,19.354-13.18,29.049c-1.901,4.222-4.534,2.83-6.089,0.229c-5.095-8.523-13.51-9.881-22.093-10.455
	c-2.184-0.146-5.209,0.71-4.545-1.941c1.165-4.649,3.388-9.243,6.144-13.176c1.058-1.51,3.652,0.134,4.167,2.884
	C64.957,182.19,67.78,182.258,70.816,181.949z"/>
<path fill="#060606" d="M118.3,483.683c-8.766,3.636-11.229-5.323-13.848-9.104c-3.83-5.53,3.8-1.572,5.361-3.434
	c5.966-7.116,14.349-12.722,13.945-25.183c10.155,8.202,19.011,15.32,27.81,22.508c1.018,0.832,2.644,1.947,1.392,3.465
	c-0.774,0.939-2.522,1.917-3.538,1.669c-4.329-1.056-9.627-4.836-12.663-0.299c-3.31,4.947-2.64,11.667-2.626,17.817
	c0.005,2.285,3.884,4.319,0.682,6.509c-3.4,2.326-5.011-1.577-7.169-2.861c-4.355-2.592-9.01-5.255-9.461-11.25
	c2.416,1.712,5.543,3.261,7.003-0.095c1.166-2.681,0.619-6.285,0.212-9.399c-0.214-1.633-2.242-1.553-3.493-0.749
	c-3.159,2.028-5.58,4.413-2.925,8.55C119.196,482.162,118.547,483.051,118.3,483.683z"/>
<path fill="#060606" d="M270.804,522.482c11.288-2.596,20.201,2.052,29.483,1.329c4.786-0.373,3.847,5.93,5.916,8.947
	c1.033,1.506,0.349,2.755-1.125,3.369c-3.741,1.561-3.955-3.652-8.206-3.804c-0.808,4.98-0.395,10.792-3.546,14.891
	c-4.512,1.491-2.732-7.979-7.923-3.773c-2.006,1.626-2.609,4.534-1.518,6.929c1.881,4.127,5.443,4.066,9.132,2.683
	c1.659-0.622,3.176-1.686,4.868-2.142c2.941-0.794,4.901-7.679,7.596-3.59c2.778,4.214-2.774,8.474-5.371,12.289
	c-0.514,0.756-3.307,0.048-5.035-0.124c-7.782-0.775-17.366,0.761-22.664-3.291c-3.196-2.445,3.213-12.961,3.148-20.51
	C275.517,530.868,274.969,526.707,270.804,522.482z"/>
<path fill="#060606" d="M475.564,495.005c-4.297-10.848-9.789-20.613-25.696-25.169c7.936-6.773,14.518-12.272,20.963-17.927
	c6.065-5.321,9.08,1.738,15.493,1.367c-4.997,6.302-10.599,3.57-14.852,6.685c6.398,0.602,9.587,5.134,12.79,9.367
	c1.328,1.755,1.173,4.381-2.296,4.047c-2.077-0.2-5.031-3.593-5.5,1.186c-0.248,2.532,2.306,4.421,4.523,5.568
	c2.76,1.428,4.808-0.051,6.2-2.495c2.633-4.621,3.886-9.659,3.316-15.77C502.844,471.905,499.027,479.627,475.564,495.005z"/>
<path fill="#060606" d="M381.776,54.473c-6.312,4.164-1.304,8.909-0.305,12.691c-3.135,3.594-5.75,0.572-6.983-0.194
	c-3.486-2.166-18.932,1.484-5.289-10.999c5.048-4.619,7.729-15.537,1.574-26.003c10.282,3.388,18.725,5.484,26.571,8.937
	c8.963,3.945,10.353,12.532,2.462,15.813c-7.326,3.046-4.42,6.194-3.107,10.535c0.854,2.823,7.522,5.587,2.004,8.238
	c-3.73,1.792-9.271-0.685-11.313-5.694C385.572,63.338,384.974,58.368,381.776,54.473z M387.94,49.918
	c2.337-0.19,5.338,0.586,5.691-3.016c0.343-3.5-2.001-5.084-5.053-5.518c-3.515-0.5-5.223,1.478-5.513,4.817
	C382.74,49.947,385.362,49.913,387.94,49.918z"/>
<path fill="#060606" d="M241.423,58.431c3.477-1.927,3.315-7.196,7.601-8.484c3.731,11.093,2.564,13.678-7.642,16.97
	c-2.023,0.652-4.08,1.254-6.165,1.646c-6.991,1.315-17.651,10.359-15.287-7.833c0.519-3.994-1.825-10.149-4.957-12.492
	c-9.454-7.071-4.117-8.379,2.858-10.189c4.096-1.063,8.275-2.197,12.039-4.062c7.025-3.481,11.451-1.176,15.156,6.008
	c-15.661,1.244-6.291,9.752-5.174,16.009c-3.738,1.763-6.371-2.487-9.911-1.973c-0.945,3.471-1.247,7.043,2.457,8.489
	C236.264,64.03,239.098,61.346,241.423,58.431z"/>
<path fill="#060606" d="M402.51,534.778c-3.381-7.661-4.235-17.03-12.071-21.222c-5.706-3.052-3.486-4.334-0.091-6.105
	c5.359-2.796,10.759-5.714,16.465-7.599c9.431-3.115,17.172,0.639,21.396,9.112c4.644,9.318,2.157,16.677-6.073,22.168
	c-4.431,2.956-9.511,4.922-14.176,7.552C402.86,541.56,400.405,541.227,402.51,534.778z M419.969,519.827
	c-0.38-2.076-0.215-4.485-1.243-6.165c-3.09-5.052-7.484-10.161-13.708-6.82c-6.582,3.533,0.375,7.675,1.369,11.515
	c0.423,1.634,1.772,3.004,2.43,4.605c1.153,2.805,1.603,7.319,5.5,6.162C417.904,528.059,420.796,524.643,419.969,519.827z"/>
<path fill="#060606" d="M342.359,33.056c-1.653,4.689,1.821,10.695-2.054,14.178c-2.947,2.649-4.273-4.164-8.369-3.853
	c-1.108,3.148-2.705,7.45,1.028,9.044c7.679,3.279,12.793-3.434,19.679-8.084c-1.164,9.012-2.331,15.428-12.538,14.324
	c-7.767-0.84-15.831,1.168-23.334-2.309c4.213-10.519,9.403-20.806,1.453-32.33c8.365,0,16.222-0.028,24.077,0.033
	c1.047,0.008,2.079,0.56,3.139,0.692c5.148,0.642,4.86,5.625,6.874,8.73c0.334,0.514-0.272,2.3-0.923,2.682
	C347.366,38.527,346.819,32.19,342.359,33.056z"/>
<path fill="#060606" d="M542.563,351.689c-3.056,3.262-4.866,5.194-6.526,6.966c0.333,0.793,0.397,1.337,0.617,1.41
	c4.524,1.513,9.066,2.972,13.424,4.383c-0.099,4.859-7.712,2.299-6.348,7.427c0.633,2.379,3.421,2.131,5.547,2.424
	c3.95,0.545,4.77-1.597,4.988-4.997c0.342-5.341-2.173-10.071-3.867-16.543c9.379,3.681,15.002,7.309,10,17.245
	c-1.383,2.748-0.738,6.781-2.538,8.992c-2.394,2.94,0.558,17.684-11.154,4.977c-4.433-4.809-15.45-8.363-24.667-3.027
	C524.467,356.838,528.604,350.449,542.563,351.689z"/>
<path fill="#060606" d="M389.444,533.339c-0.194,9.875-10.547,18.79-21.234,18.286c-9.228-0.435-17.81-10.059-17.685-19.832
	c0.124-9.694,11.111-19.674,21.011-19.086C381.155,513.279,389.646,523.062,389.444,533.339z M378.48,532.704
	c-1.051-4.008-1.26-12.028-9.843-12.713c-4.882-0.39-7.772,4.18-7.342,9.787c0.543,7.088,2.13,14.056,10.231,15.067
	C377.386,545.576,378.904,540.469,378.48,532.704z"/>
<path fill="#060606" d="M283.281,24.074c10.13,0.023,16.858,6.172,17.496,15.876c0.664,10.116-4.928,17.759-15.084,18.346
	c-5.794,0.334-11.901,4.017-16.758,1.984c-6.751-2.824,2.23-8.842-0.554-13.616c-1.378-2.363-1.68-5.421-2.181-8.217
	c-2.218-12.371-2.13-12.471,11.693-14.34C279.659,23.868,281.484,24.074,283.281,24.074z M289.983,42.933
	c0.086-7.393-2.197-12.31-9.549-12.386c-10.005-0.103-0.891,6.949-3.364,9.866c-0.529,0.624-0.203,2.103-0.048,3.155
	c0.581,3.944-0.458,9.694,5.605,9.405C288.737,52.681,290.722,47.924,289.983,42.933z"/>
<path fill="#060606" d="M88.579,134.96c-0.086-10.163,8.656-19.986,17.952-20.17c10.512-0.209,19.719,8.318,19.776,18.314
	c0.058,10.224-9.545,20.377-19.481,20.596C97.895,153.898,88.659,144.412,88.579,134.96z M118.548,137.777
	c-2.314-8.014-6.861-13.383-14.8-14.152c-5.449-0.528-7.37,3.411-6.598,8.441c1.214,7.906,6.711,11.748,13.944,12.516
	C115.403,145.04,118.113,141.799,118.548,137.777z"/>
<path fill="#060606" d="M215.71,519.848c-0.624,6.748-8.636,12.073-3.246,19.725c1.983,2.814-1.287,3.621-3.223,3.294
	c-3.416-0.578-6.718-1.832-10.179-2.835c7.897-9.945,12.843-20.324,8.585-33.129c16.37,1.607,16.681,1.947,20.394,21.906
	c4.945-3.495,4.201-7.594,2.006-11.843c-0.969-1.877-0.961-4.262,1.001-4.113c3.77,0.287,7.482,1.703,11.106,2.969
	c0.355,0.124,0.433,3.264-0.199,3.658c-9.113,5.683-6.964,16.142-10.508,24.141c-0.894,2.018-0.775,5.502-3.99,5.068
	c-2.198-0.297-4.118-1.685-4.842-4.811C220.737,535.77,218.065,527.846,215.71,519.848z"/>
<path fill="#060606" d="M511.722,427.936c4.192-4.318,8.386-9.959,10.114,1.748c0.477,3.235,7.592,3.941,5.797,7.772
	c-2.607,5.565-6.55,10.84-10.993,15.132c-6.843,6.611-17.324,5.03-24.677-2.767c-7.087-7.514-7.065-16.895,0.056-24.738
	c8.668-9.546,14.746-9.319,18.117,0.677c-5.55,1.542-14.629-2.502-14.802,7.788c-0.132,7.784,6.037,11.864,12.726,14.1
	c3.703,1.238,7.201-0.508,8.608-4.506c1.046-2.973,0.378-5.793-2.776-7.223C508.47,433.462,508.435,433.541,511.722,427.936z"/>
<path fill="#060606" d="M62.219,354.829c11.017-0.103,18.722,7.599,18.664,18.657c-0.054,10.39-7.599,17.766-18.532,18.118
	c-9.572,0.308-18.748-9.021-18.93-19.245C43.244,362.395,51.246,354.932,62.219,354.829z M59.187,381.187
	c6.489-0.742,13.362-1.049,14.431-9.539c0.751-5.963-4.011-7.661-8.21-7.302c-6.717,0.573-14.21,2.141-15.212,10.503
	C49.501,380.646,54.867,380.935,59.187,381.187z"/>
<path fill="#060606" d="M148.961,87.655c-1.159-1.363-2.548-2.594-3.427-4.119c-1.592-2.764-6.985,1.128-6.614-3.187
	c0.361-4.195,5.605-4.88,8.343-7.545c2.096-2.04,3.749,1.205,3.622,1.742c-2.532,10.743,8.47,14.196,11.648,21.815
	c0.88,2.11,3.966,3.396,2.015,6.384c-2.013,3.083-4.667,2.433-7.434,1.281c-6.76-2.814-13.532-5.601-21.019-7.643
	c4.441,4.513,4.264,12.85,13.175,13.63c2.871,0.251,3.208,2.732,0.678,4.908c-2.374,2.041-5.29,3.45-8.218,5.294
	c-3.422-10.391-7.073-19.909-18.453-23.547c-4.475-1.43-2.241-3.525-0.161-6.108c7.589-9.425,15.842-3.357,23.952-1.532
	c0.634,2.05,2,2.288,3.77,1.523C150.214,89.586,149.588,88.62,148.961,87.655z"/>
<path fill="#060606" d="M110.467,450.57c0.344,4.004-1.188,7.035-4.812,8.813c-6.787,3.329-13.366,1.971-16.948-4.138
	c-3.018-5.146-12.908-9.817-4.013-18.01c1.394-1.283,1.365-4.635,4.163-3.715c2.41,0.793,2.786,3.594,1.76,5.487
	c-2.029,3.74-0.49,7.092,0.716,10.29c0.969,2.571,3.127,5.758,6.32,4.462c3.385-1.373,2.224-4.689,0.871-7.338
	c-1.953-3.825-3.771-7.691-3.763-12.104c0.014-7.79,4.165-10.848,11.667-10.312c8.837,0.632,9.478,9.529,14.266,14.225
	c2.334,2.289-0.778,5.221-2.465,7.44c-1.01,1.329-1.924,3.246-4.229,2.207c-1.647-0.742-1.38-2.259-1.386-3.649
	c-0.01-2.155,0.281-4.365-0.097-6.453c-0.589-3.249-2.345-6.977-5.898-5.988c-4.526,1.26-0.857,4.671-0.284,7.048
	C107.307,442.874,111.221,445.899,110.467,450.57z"/>
<path fill="#060606" d="M445.855,67.591c-0.87,8.395-4.132,17.336-1.983,26.775c0.608,2.672-1.947,3.652-4.29,2.424
	c-3.465-1.816-6.879-3.801-10.049-6.083c-2.33-1.677-3.417-4.311,0.218-5.579c3.033-1.058,6.025-1.899,3.754-5.541
	c-1.642-2.634-4.69-4.501-8.17-4.102c-3.457,0.396-3.6,2.632-2.687,5.522c0.79,2.501-0.592,4.937-3.032,3.656
	c-3.841-2.015-9.328-2.656-10.769-7.382c-1.229-4.029,2.697-2.472,4.829-3.095c7.735-2.263,12.724-8.885,19.441-12.83
	c2.731-1.604,4.061-5.484,8.789-3.489C446.707,59.893,445.312,63.493,445.855,67.591z"/>
<path fill="#060606" d="M313.108,558.123c7.401-12.539,7.117-23.626-1.93-34.59c8.577-3.057,16.828-2.518,24.842-1.904
	c5.655,0.433,10.128,3.78,10.15,10.451c0.023,7.071-4.378,10.599-10.68,10.736c-7.748,0.169-11.557,1.296-5.61,9.364
	c2.529,3.431,1.927,6.081-3.199,5.962C322.484,558.045,318.283,558.123,313.108,558.123z M335.371,532.043
	c-0.232-2.881-1.865-4.029-4.788-4.227c-4.681-0.318-3.909,2.88-3.81,5.569c0.087,2.366-0.191,5.504,3.739,4.487
	C333.267,537.16,335.907,535.871,335.371,532.043z"/>
<path fill="#060606" d="M35.624,340.13c-1.127-3.63-2.369-6.303-2.73-9.089c-0.662-5.103-2.711-9.831,7.182-7.12
	c8.167,2.238,18.284,0.784,25.234-8.644c3.35,8.867,4.176,16.762,4.366,24.818c0.141,6.007-2.762,9.391-8.498,10.379
	c-5.933,1.023-9.195-2.003-11.288-7.337C45.42,331.748,44.713,331.635,35.624,340.13z M63.788,334.607
	c-0.631-2.897-2.361-4.139-5.255-3.318c-2.308,0.655-5.029,1.159-4.311,4.59c0.594,2.835,2.594,3.866,5.398,3.775
	C63.009,339.544,63.131,336.869,63.788,334.607z"/>
<path fill="#060606" d="M526.064,204.84c-5.331-5.939-7.081-11.814-9.387-18.074c4.122-1.153,9.707,3.735,10.733-2.872
	c0.44-2.836-1.041-6.599-3.992-8.087c-5.925-2.987-5.772,3.856-8.909,7.116c-1.695-3.514-2.686-6.398-4.363-8.803
	c-1.529-2.191-2.911-4.525-1.233-6.618c1.854-2.312,3.648,1.046,5.544,1.092c8.236,0.197,16.488-0.047,24.708,0.383
	c2.915,0.152,6.625-2.313,8.63,3.293c1.871,5.231-2.005,6.191-3.935,8.707C538.117,188.464,529.352,193.603,526.064,204.84z"/>
<path fill="#060606" d="M190.916,59.805c1.986,4.365,3.973,8.73,5.921,13.012c-4.113,2.725-6.859-3.941-10.374-0.236
	c-0.468,7.003,6.537,6.965,10.687,10.521c-1.753,1.093-3.005,2.472-4.399,2.637c-5.449,0.644-14.497,13.252-14.695-5.056
	c-0.058-5.331-2.499-13.642-10.963-16.366c-4.475-1.44-1.928-4.31,1.107-5.697c6.11-2.793,12.234-5.557,18.4-8.223
	c3.595-1.554,7.038-1.562,9.567,2.024c1.08,1.532,4.405,2.032,2.745,4.86c-1.427,2.431-3.845,0.802-5.843,0.835
	c-2.633-2.841-5.897-2.204-8.633-0.782c-1.785,0.928-5.138,2.105-3.12,5.53c0.66,1.121,1.831,2.841,2.68,2.791
	c3.23-0.192,1.834-2.994,2.271-4.843C187.055,57.467,189.006,58.51,190.916,59.805z"/>
<path fill="#060606" d="M482.333,119.78c-12.338,3.897-20.971,0.76-24.966-8.883c-4.136-9.982,0.189-20.334,10.324-24.709
	c8.49-3.666,20.287,1.372,24.981,10.467c2.427,4.703-1.733,7.956-2.32,11.981c-0.065,0.442-1.954,1.185-2.529,0.887
	c-2.296-1.189-1.612-3.48-1.89-5.588c-0.58-4.39-0.386-9.785-6.528-10.675c-5.628-0.816-9.591,2.301-12.501,6.705
	c-5.776,8.741-1.946,16.177,8.685,16.925C477.917,117.053,480.654,115.465,482.333,119.78z"/>
<path fill="#060606" d="M524.896,394.766c4.658,1.567,3.627,4.894,3.841,7.557c0.401,4.986,4.026,7.437,7.852,6.681
	c3.801-0.751,4.232-5.307,3.672-8.945c-0.315-2.047-1.131-4.227-2.363-5.865c-1.276-1.697-0.384-2.405,0.547-3.428
	c1.482-1.628,2.43-0.259,3.284,0.68c3.721,4.09,9.407,7.562,3.824,14.343c-1.739,2.112-2.192,5.246-3.797,7.513
	c-2.589,3.656-1.773,10.246-8.614,10.352c0.711-7.509-7.199-3.117-9.723-7.085c-2.832-4.451-6.429-9.306-13.619-6.29
	c-3.467,1.455-4.449-1.72-3.47-4.305c1.374-3.629,3.29-7.12,5.428-10.372c1.571-2.39,4.376-3.925,5.049,0.454
	c0.527,3.428,1.98,5.974,4.97,5.655C525.51,401.314,521.994,396.444,524.896,394.766z"/>
<path fill="#060606" d="M87.857,389.19c4.223,5.454,6.947,10.675,8.748,17.718c-8.768-3.92-15.071,1.008-21.501,4.647
	c-2.125,1.202-6.381,1.266-5.788,5.234c0.52,3.482,3.669,5.242,6.525,6.714c2.353,1.213,6.196-0.168,6.895,3.712
	c0.148,0.82-1.471,2.764-2.375,2.829c-3.737,0.269-8.556,2.536-10.969-1.243c-4.193-6.565-7.446-13.762-10.706-20.872
	c-1.145-2.497-0.873-4.382,3.361-4.281C72.878,403.905,81.231,398.752,87.857,389.19z"/>
<path fill="#060606" d="M528.612,141.039c-8.949-1.968-13.822,3.783-18.908,8.288c-4.99,4.421-9.675,5.451-15.161,1.484
	c-5.631-4.071-8.546-9.56-7.678-16.515c0.42-3.368,2.75-5.788,6.254-6.452c2.207-0.418,4.285,0.006,5.314,2.475
	c1.499,3.597-0.694,4.978-3.48,6.291c-2.799,1.32-2.018,3.756-0.417,5.081c1.675,1.385,4.003,4.068,6.393,1.694
	c4.857-4.825,13.98-5.554,14.147-14.997c0.076-4.336,3.247-3.624,4.892-1.423C523.076,131.123,528.363,133.982,528.612,141.039z"/>
<path fill="#060606" d="M569.217,334.366c0.326,6.097-2.944,10.858-9.085,13.606c-3.036,1.359-5.765-0.334-7.644-2.433
	c-0.896-1-0.862-3.461-0.346-4.946c0.713-2.047,2.42-3.722,4.973-2.36c2.286,1.22,4.408,3.088,5.351-1.318
	c0.819-3.827-0.884-7.767-4.038-7.349c-6.712,0.889-13.524-6.943-20.031,0.429c-1.565,1.773-3.897,0.61-3.702-1.437
	c0.499-5.23,1.386-10.484,2.802-15.536c0.54-1.927,3.501-1.684,4.25,0.124c3.25,7.843,10.932,5.845,16.468,6.698
	C567.066,321.209,569.804,325.578,569.217,334.366z"/>
<path fill="#060606" d="M462.568,489.494c6.314,9.367,6.187,15.42-3.648,19.548c-3.535,1.484-6.421,4.445-9.817,6.348
	c-3.133,1.756-5.807,5.867-6.584-2.994c-0.759-8.654-5.752-17.852-16.734-20.484c2.24-5.912,8.552-6.219,11.854-10.45
	c2.993-3.834,5.284,1.46,4.573,3.336c-2.125,5.611,1.129,8.907,4.162,12.231c2.67,2.927,2.821,9.842,8.031,8.31
	c4.215-1.239,5.913-6.664,6.447-11.487C460.956,492.907,461.553,492.015,462.568,489.494z"/>
<path fill="#060606" d="M246.548,517.743c6.476-1.961,11.262,1.983,16.691,1.806c3.489-0.113,3.666,2.979,1.578,5.347
	c-6.924,7.855-9.552,16.262-4.021,26.01c1.653,2.913-0.444,4.268-2.622,4.151c-3.866-0.208-7.853-0.75-11.477-2.034
	c-2.932-1.039-7.635-1.827-1.173-6.464C251.873,542.004,251.63,526.67,246.548,517.743z"/>
<path fill="#060606" d="M155.606,514.308c-3.586,0.206-5.435-2.153-7.601-3.918c-3.586-2.922-13.442-3.743-1.172-10.323
	c4.945-2.652,13.027-9.941,9.926-20.133c-1.207-3.966,1.515-4.064,4.927-2.312c4.919,2.525,7.681,6.989,12.074,10.583
	C160.788,492.687,155.449,501.721,155.606,514.308z"/>
<path fill="#FAFAFA" d="M87.044,287.793c-1.357-47.178,14.725-88.564,42.63-125.701c29.664-39.477,68.217-66.315,115.963-79.822
	c114.339-32.345,231.591,29.955,267.346,142.691c6.33,19.958,9.674,39.961,10.165,60.67c-19.34,0.12-38.68,0.24-58.02,0.36
	c-3.555-9.206-7.11-18.411-10.86-28.121c4.423-0.217,8.356-0.409,12.924-0.633c-2.985-5.409-10.648-5.053-10.709-12.471
	c4.598,0.431,8.076-2.007,11.832-3.808c2.889-1.385,7.224-2.653,6.97-5.627c-0.264-3.09-3.502-5.991-7.503-6.433
	c-3.545-2.271-7.089-4.542-10.862-6.958c2.746-4.179,8.853-7.123,5.744-14.335c-5.56,4.583-10.982,7.446-17.048,1.878
	c1.612-3.006,6.656-2.588,6.82-8.071c-5.666,1.421-9.628,5.146-16.041,4.368c4.808,6.079,9.17,9.907,15.178,11.522
	c-1.533,2.529-5.029-0.207-6.314,3.648c6.618,3.251,13.212,6.491,19.806,9.73c9.634,11.336-4.264,7.536-7.091,10.686
	c-2.55,2.841-17.818-1.659-5.059,9.475c0.731,0.638,1.401,1.752-0.181,2.216c-9.012,2.64-2.687,6.432-0.803,9.933
	c4.137,7.688,6.098,16.082,8.503,23.874c-13.163-1.999-21.717-12.742-36.026-18.105c4.421,11.995,9.339,20.042,17.67,25.811
	c1.173,1.942,2.791,3.099,5.165,2.927c-4.252,2.015,1.424,4.719-0.538,7.119c-6.812-1.566-12.504-6.602-20.47-6.682
	c2.367,8.117,2.654,16.237,2.696,24.402c0.038,7.37-0.709,10.914-9.275,5.546c-8.734-5.474-14.143-14.135-22.205-19.978
	c-3.272-2.371-6.447-6.712-11.204-4.788c-5.895,2.384-5.733,2.787-10.614-3.33c1.98-1.942,6.481-0.657,6.618-5.528
	c-4.435,0.742-9.493,5.081-13.283-1.904c4.311-0.723,9.825,0.506,11.222-5.306c1.378-5.735,3.958-5.714,9.321-4.172
	c10.544,3.031,13.107,0.865,12.756-9.747c-0.22-6.652,1.169-10.281,8.639-9.357c4.842,0.599,9.107-1.729,5.819-6.5
	c-7.545-10.95,1.044-13.022,7.771-16.542c6.671-2.509,3.958-5.993,0.988-9.504c-1.04-4.709-4.098-5.359-9.607-4.61
	c3.322,3.133,5.589,5.271,7.856,7.409c-0.29,1.428-0.579,2.855-0.869,4.283c-14.854,5.414-14.854,5.414-9.772,21.528
	c-14.096-3.49-16.078,4.071-15.212,15.324c0.635,8.25-5.786,4.789-8.869,3.286c-5.931-2.891-9.632-1.99-11.39,4.365
	c-2.283,8.256-6.241,3.469-9.641,1.295c-3.224-2.062-1.959-6.39-4.631-11.182c-1.096,5.231-9.629,4.289-4.971,11.299
	c-0.522,0.481-1.016,0.99-1.481,1.527c-7.152-2.11-13.662-0.838-20.046,3.857c3.74,5.831,12.452,3.62,15.769,10.027
	c-8.621,2.855-7.66,6.39-1.659,11.593c4.363,3.782,10.122,8.609,10.705,13.512c1.042,8.754,2.331,18.413-3.214,26.792
	c-3.126,4.724-8.037,7.885-12.904,8.654c-5.39,0.852-2.685-5.926-4.875-8.763c-2.808-3.64-4.317-8.45-7.53-11.581
	c-14.285-13.919-12.835-28.638-3.278-44.163c1.111-1.804,2.016-3.774,2.75-5.765c2.7-7.329,2.825-17.937,12.301-18.77
	c8.18-0.719,16.323-3.986,24.397-2.474c4.193,0.785,6.829,0.625,10.187-1.855c13.561-10.012,22.112-21.91,16.584-39.788l-0.37,0.373
	c5.575-1.81,6.929-2.684,6.61-7.415c-1.563-23.193-0.276-25.209-24.397-29.42c-7.865-1.373-9.018-3.71-5.375-9.697
	c2.016-3.312,3.114-7.731,7.163-8.911c5.603,3.446,2.936,15.977,14.994,10.909c9.24-3.884,11.675-1.427,8.831,8.273
	c-2.344,7.994-1.685,12.562,7.988,12.437c3.577-0.046,7.83,0.89,9.198,4.391c1.099,2.813-3.339,4.194-4.41,6.623
	c-1.41,3.197-9.014,6.291-2.336,9.971c6.11,3.367,0.897-5.452,4.609-6.021c0.583-0.089,1.102-0.893,1.564-1.44
	c8.702-10.302,8.464-12.173-4.24-15.858c-7.961-2.309-10.962-5.15-7.965-14.011c2.926-8.653-2.2-12.536-11.268-9.457
	c-4.181,1.419-7.749,3.933-10.23-2.573c-1.385-3.633-1.444-10.135-5.678-10.098c-5.048,0.044-7.362,6.16-9.939,10.337
	c-1.893,3.068-2.934,6.661-4.372,10.059c-3.458-5.735,2.809-10.796,0.56-17.561c-7.786,13.777-2.02,29.218-9.347,41.421
	c-10.608-10.805-11.196-27.722-0.493-41.599c15.115-19.599,36.289-27.945,59.957-31.28c4.363-0.615,6.225,0.843,3.666,5.344
	c-2.831,4.979-6.91,9.453-7.621,16.903c6.744-2.761,13.193-4.586,18.636-2.433c9.641,3.813-3.309,9.922,1.115,15.641
	c4.928-4.641,9.539-13.348,7.528-16.165c-4.065-5.692-13.019-4.165-20.561-3.579c3.326-6.73,6.257-12.661,9.329-18.877
	c-40.682-6.251-79.757,23.436-84.375,63.636c-3.932-1.797-7.698-3.518-11.424-5.221c-0.055-2.987,3.908-3.383,2.858-7.972
	c-3.316-14.489,4.226-29.794-2.377-44.418c-0.447-0.99,1.431-3.021,2.213-4.575c0.788-1.567,3.891-4.135,0.134-4.501
	c-4.073-0.396-1.934-8.815-8.328-5.187c-9.336,5.298-18.771,1.352-28.105-0.821c-5.322-1.239-12.289-2.93-15.039,1.925
	c-3.832,6.766-9.407,8.661-15.688,10.774c-1.022,0.344-3.353,1.979-1.127,4.041l0.197-0.194c-6.219-0.905-4.155,3.909-3.926,6.469
	c0.284,3.175,2.975,2.097,4.973,1.404c5.715-1.984,11.154-3.163,15.975,5.48c-6.439-1.088-10.844-4.568-15.181-0.857
	c-3.985,3.409-9.476,1.534-14.055,3.53c5.085,4.03,9.84,3.962,16.029,2.512c8.249-1.933,18.061-1.653,24.857,3.467
	c6.553,4.937-2.724,26.149-11.193,27.755c-3.129,0.593-8.933-3.073-8.562,4.164c0.216,4.222-3.02,10.67,5.801,10.742
	c3.454,0.028,2.284,2.412,1.288,4.528c-1.347,2.86-2.316,5.898-3.448,8.86l0.237-0.088c-5.185,9.32-11.056,16.716-22.726,8.224
	c-0.14-0.102-0.978,0.756-1.474,1.167c0.297,1.944,1.905,2.617,3.125,3.819c2.464,2.427,8.496,0.115,8.11,5.204
	c-0.365,4.818-5.793,1.242-7.643,3.099c-1.877,1.885-6.176,2.278-5.264,6.338c0.538,2.397-1.354,6.272,3.267,6.53
	c2.617,0.146,4.524,1.34,3.382,3.748c-1.107,2.335-3.818,0.677-5.65,0.266c-4.732-1.063-8.385-5.825-15.376-4.552
	c7.054,5.715,14.279,8.399,21.008,12.281c-4.005,0.213-7.262,4.784-11.466,1.322c-1.549-3.071-2.583-4.561-7.111-2.707
	c-6.249,2.557-14.27-1.399-14.759-6.809c-0.778-8.605-6.161-9.87-11.639-12.441c-2.024-5.173,3.07-11.348-2.261-16.055
	c-3.908-5.003-3.08-9.763,0.739-14.37c16.705,33.762,16.705,33.762,25.48,36.822c-20.821-30.789-22.077-34.136-18.436-48.516
	c7.513,2.395,2.521,7.802,2.756,12.088c-0.454,0.343-0.908,0.687-1.362,1.03c0.836,0.006,1.672,0.012,2.507,0.018
	c6.454-3.014,11.704-2.89,13.852,5.316c-3.06,1.494-2.632,5.367-1.255,5.895c2.682,1.029,0.816-3.214,2.725-4.036
	c2.111-1.851,4.221-3.702,6.361-5.579c2.373,3.36,1.751,8.67,9.071,9.638c-4.447-6.021-3.285-10.104,0.987-14.435
	c2.798-2.837,4.436-7.23,5.575-11.217c3.814-13.347-1.109-29.281-10.235-34.399c-1.081,2.493,0.878,3.784,1.92,5.583
	c6.93,11.97,6.356,30.668-1.262,38.155c-1.717,1.687-3.293,5.889-6.61,3.06c-2.352-2.006-0.604-4.696,1.472-6.422
	c2.22-1.846,3.192-6.036,1.848-6.353c-9.525-2.246-3.201-8.602-3.95-13.056c-0.549-3.264,2.024-7.531-5.393-11.757
	c3.568,5.479,3.845,8.714,2.217,12.625c-2.902-9.262-6.399-17.581-15.313-22.672c-1.088,1.773-2.495,3.371-3.136,5.234
	c-2.573,7.475-5.532,11.505-14.83,7.106c-7.983-3.776-9.616,3-8.833,9.278c1.079,8.661-1.149,14.044-10.747,15.557
	c-5.198,0.819-11.93,3.5-8.635,10.448c3.432,7.238,2.038,14.24,1.555,21.91c14.927-9.593,15.037-9.668,6.099-22.714
	c-3.969-5.794,1.197-6.425,4.096-6.675c10.948-0.944,13.758-6.885,11.95-16.796c-1.122-6.149,1.114-9.14,7.579-5.905
	c7.04,3.523,11.044,0.791,13.465-6.018c0.6-1.688,0.876-5.416,3.621-3.62c4.168,2.728,6.955,7.063,7.627,12.255
	c0.252,1.942,0.307,5.691-2.399,4.437c-6.432-2.979-9.302,11.203-16.143,2.839c-0.688,0.825-1.302,1.728-2.076,2.462
	c-8.191,7.767-7.049,18.693-9.421,28.381c-0.581,2.373,1.566,4.59,3.977,5.808c3.425,4.996-3.538,11.477,2.305,16.127
	c1.073,4.697,10.567,1.441,8.555,8.573c-2.164,7.667,2.405,10.83,7.793,13.983c4.651,2.721,9.091,5.88,13.946,0.184
	c0.575-0.674,2.732,0,4.156,0.05c2.371,4.796,5.843,3.507,9.78,2.219c1.93-0.632,5.045-1.462,5.628,2.65
	c0.61,4.305-2.246,3.328-4.578,3.632c-1.792,0.233-4.044-1.083-5.568,1.57c5.414,1.756,14.427-2.483,14.022,8.911
	c-6.126-0.725-12.323-1.202-18.375,2.265c0-2.053-0.242-2.848,0.039-3.354c1.858-3.348,5.237-7.231-0.319-9.654
	c-6.119-2.669-3.832,3.962-5.707,6.101c-3.777,4.31-8.198,8.637-11.401-0.227c-2.235-6.184-5.351-6.506-10.475-3.689
	c-7.928,4.359-10.486,1.53-9.79-7.068c0.424-5.237-0.422-10.599-8.056-10.968c-6.622-0.32-8.204-3.738-4.73-9.677
	c1.844-3.153,5.056-8.053-1.933-8.601c-6.395-0.502-10.471-4.691-15.633-7.109c-2.149,0.792-2.623,1.837-0.494,3.275
	c11.277,4.783,17.621,11.836,11.222,24.966c7.511,0.589,17.358-1.987,15.498,11.32c-1.297,9.281,2.949,11.803,11.324,8.586
	c5.279-2.028,9.921-1.884,11.216,4.726c1.146,5.847,6.636,2.341,9.403,4.813c-3.414,4.578-7.219,4.156-11.311,1.504
	c-1.133-0.848-2.267-1.696-3.401-2.543c-0.503-0.563-1.006-1.126-1.509-1.689c-0.105,0.312-0.373,0.682-0.286,0.926
	c0.392,1.097,1.093,1.284,1.993,0.49c-2.119,2.62-0.06,3.64,1.812,4.731c1.708,4.167,6.044,0.528,7.475,1.952
	c-2.543,3.746-5.101,7.514-9.453,13.924c0.785-9.485-1.162-10.93-6.782-7.711c-6.99,4.004-12.542,9.434-17.894,15.223
	c-1.884,2.037-3.998,6.051-6.553,3.971c-2.407-1.959-4.694-6.028-2.951-10.011c2.377-5.43,5.149-10.686,7.639-16.069
	c3.221-6.964,8.375-13.646,2.191-24.365c2.442,13.904-4.612,22.481-9.739,31.459c-5.127,8.979-0.054,21.644-11,30.195
	c-0.316-13.383-1.411-24.85,3.287-37.599c-6.442,2.914-10.651,4.733-14.781,6.719c-2.431,1.169-5.34,1.604-7.068,0.046
	c-1.689-1.522,4.697-2.419,1.52-5.4l-0.236,0.234c9.854-3.157,13.16-12.439,18.25-19.925c1.538-2.261,5.37-5.462,1.785-8.3
	c-2.457-1.945-5.164,1.14-7.47,2.776c-8.111,5.755-16.322,11.341-27.291,16.361c3.088-10.723,4.334-19.996,10.317-27.285
	c5.046-6.147,0.726-7.188-3.803-8.394c1.022-3.741,5.874-4.447,6.179-8.78c-7.16-3.296-15.942-2.74-22.175-8.962
	c7.297-7.819,17.817-9.053,25.564-14.996c-2.066-2.101-5.468,0.529-6.992-2.21c5.05-3.473,11.189-5.574,14.153-11.978
	c-10.199-1.251-16.919-6.39-21.882-15.182c8.093-3,15.716-0.921,23.24-2.303c0.021-4.254-3.932-6.385-5.4-10.306
	c9.069,0.233,16.769,5.374,25.606,4.123c3.132-0.443,1.896,3.113,1.897,4.838c0.001,2.194,1.29,5.238-2.499,6.048
	c-2.531,0.541-5.642-0.623-7.608,2.378c13.468,1.23,16.394-4.723,10.656-21.181c-3.031,0.411,2.366,8.655-3.761,4.883
	c-5.627-3.463-11.94-6.959-15.437-13.042c-1.31-2.278-3.841-4.762-2.589-7.817c1.504-3.669,4.979-1.609,7.505-1.783
	c5.101-0.351,10.244-0.105,15.637-0.105c-2.561-7.598-9.039-11.981-10.164-19.5c23.187-1.279,41.994,9.03,60.518,20.255
	c-18.426-18.825-41.256-25.188-66.637-24.902c-0.598,7.806,7.145,12.145,7.4,19.397c-1.665,0.176-2.741,0.236-3.799,0.41
	c-5.468,0.901-13.687-2.999-15.825,2.451c-2.02,5.15,2.466,11.893,6.787,16.769c0.458,0.517,0.689,1.234,1.025,1.858
	c-0.474,0.478-0.945,0.959-1.413,1.442c-5.196-0.98-9.315-4.273-13.772-6.892c-2.323,6.481,4.252,10.533,3.746,16.498
	c-7.336,1.186-14.481,2.34-22.465,3.631c5.816,9.161,11.692,16.477,20.557,20.918c-6.366,7.485-11.728,2.05-17.189-0.693
	c-1.793,6.67,2.275,10.181,6.405,13.714c-4.552,2.35-8.573,3.928-11.998,6.349c-2.817,1.992-6.875,5.019-6.832,7.527
	c0.048,2.839,4.273,4.773,8.173,5.559c4.146,0.836,7.978,3.223,11.775,4.859c-2.329,5.579-9.157,5.971-11.504,11.144
	c4.568,2.627,8.794-1.018,13.222-0.621c-1.992,5.393-3.703,10.354-5.654,15.219c-1.957,4.878-4.154,9.659-6.246,14.483
	C124.148,287.885,105.596,287.839,87.044,287.793z M173.949,263.337c1.677,2.296,3.364,1.608,4.919-0.089
	c0.213-0.233-0.191-1.031-0.31-1.567c-1.539,0.565-3.078,1.129-4.616,1.692c0.271,0.222,0.792,0.468,0.773,0.661
	c-0.123,1.232,0.141,1.389,0.952,0.486C175.094,264.126,174.522,263.731,173.949,263.337z M444.478,275.064
	c0.619,1.325,1.878,2.298,2.86,1.086c1.057-1.305,0.723-3.087-1.152-4.001c-0.915-3.758-2.067-7.448-5.796-9.324
	c-0.382-0.192-2.311,1.69-2.811,2.903C434.791,272.485,441.914,272.122,444.478,275.064z M438.149,178.156
	c0.285,0.604,0.662,1.142,1.134,1.615c-3.12,6.049-2.781,9.005,5.514,9.345c5.046,0.207,14.198-2.78,13.204,8.58
	c4.168-2.358,7.812-5.768,6.708-9.393c-1.425-4.68-6.74-1.422-10.281-2.061c-3.609-0.651-7.351-0.572-10.827-0.8
	c-0.391-6.395,6.734-10.334,3.18-16.578c-5.024,1.78-9.579,8.535-13.499,5.962c-9.983-6.551-10.585,3.257-17.042,6.776
	C425.399,182.55,431.867,180.877,438.149,178.156z M338.495,95.567c-6.316-1.039-11.021,1.283-14.322,4.789
	c-3.937,4.182-3.5,4.747-6.031-0.659c-1.911-4.082-3.496-8.317-5.582-13.34c-2.897,5.797-10.773,8.244-7.753,16.476
	c0.647,1.764-1.579,4.449-2.157,3.096c-2.162-5.06-8.041,1.577-8.232-2.333c-0.573-11.731-11.356-7.811-16.286-12.659
	c3.477,6.886,7.64,12.998,9.471,20.163c1.108,4.336,1.963,8.219,7.449,8.751c9.486,0.92,18.762,4.177,28.447,2.562
	c0.596-0.099,0.867-1.84,1.386-2.763C329.232,111.927,333.602,104.217,338.495,95.567z M242.409,242.484
	c1.919-1.173,5.337-1.916,4.615-3.779c-1.524-3.93-4.232-7.39-9.237-7.861c-2.087-0.196-3.99,0.048-3.415,2.34
	C235.453,237.493,238.53,240.425,242.409,242.484z M187.695,267.643c0-3.35,0-8.759,0-15.06
	C175.566,259.183,190.515,264.264,187.695,267.643z M172.212,236.535c-4.795-2.531-11.261,2.365-15.312-3.477
	c-1.061,0.769-2.317,1.39-3.074,2.389c-0.256,0.337,0.839,2.411,1.173,2.375C160.727,237.195,167.033,243.575,172.212,236.535z
	 M421.033,252.842c0.37,4.7,0.688,8.752,1.036,13.17c3.83-1.838,1.292-5.376,4.376-8.034
	C430.242,254.707,424.471,254.078,421.033,252.842z M229.961,223.928c0.884,2.843,0.689,6.356,4.972,8.404
	C235.238,227.434,233.243,225.281,229.961,223.928z M191.884,170.819c-0.694,1.076-1.587,1.848-1.518,2.521
	c0.075,0.728,1.048,1.364,1.629,2.04c0.595-0.587,2.261-0.317,1.634-1.856C193.288,172.685,192.643,171.97,191.884,170.819z"/>
<path fill="#FE0000" d="M465.128,285.992c19.34-0.12,38.68-0.24,58.02-0.36c-1.538,22.77-4.163,45.168-11.303,67.199
	c-10.79,33.294-29.658,61.285-52.788,86.703c-13.546,14.885-30.2,26.123-47.532,36.331c-27.571,16.239-57.501,24.059-89.221,26.152
	c-5.093,0.336-10.08,3.926-15.087-0.2c0,0,0.115,0.179,0.115,0.179c5.518-12.306,8.109-25.402,9.373-38.585
	c3.991-0.105,4.995,2.671,6.958,4.03c10.114,7.003,23.622,5.251,28.707-3.739l0.236-0.423c7.211-3.643,12.561-14.838,8.224-19.652
	c-4.115-4.567-8.067,2.175-12.34,3.012c-6.796,1.331-13.809,3.647-17.61-5.155c0.52-0.53,1.039-1.061,1.559-1.591
	c8.738,5.619,17.952,4.977,22.567-1.334c6.245-8.538,6.516-22.01-5.54-28.587c-2.854,1.645,1.123,7.339-4.699,7.664
	c-5.108,0.285-5.599-3.514-7.13-6.415c-4.104-7.773-11.481-16.287,4.422-19.89c-1.346-1.62-1.879-2.905-2.73-3.171
	c-3.16-0.987-5.365-3.47-4.624-6.155c0.735-2.664,4.329-0.542,6.512-1.279c7.619-2.574,15.745-3.712,22.264-9.287
	c1.947-1.665,5.721-5.642,8.091-2.206c8.238,11.945,16.234,24.182,20.594,39.678c-8.385-3.969-15.293-1.667-14.236,4.85
	c1.435,8.85,1.956,19.914,12.606,24.978c2.071-3.194-1.432-4.803-1.126-7.38c0.567-4.778,1.516-9.9,6.428-11.213
	c5.001-1.337,7.418,3.039,9.025,7.295c3.121,8.262,5.499,16.47-2.094,24.193c11.656,0.516,12.259,0.142,14.591-8.455l-0.12,0.12
	c9.029,0.049,4.86-8.59,8.268-12.505c6.111,2.869,13.501,4.469,12.134,14.16c8.269-4.069,5.179-10.902,5.904-16.601
	c0.916-7.207-4.081-9.829-11.753-12.722c6.039,0.438,8.731-3.566,12.509-1.987c3.012,1.259,4.882,5.873,9.235,2.992
	c-5.076-16.504-10.033-18.739-27.305-15.967c-4.304,0.691-11.6,5.959-15.111-2.652c-5.134-7.417-10.268-14.834-15.402-22.25
	c-0.606-0.554-1.213-1.108-1.819-1.662c-1.359-9.615-9.542-15.971-12.977-25.228c9.213,1.44,17.426,2.724,25.639,4.009
	c0.594,1.635,2.137,2.517,3.237,1.437c1.55-1.521-0.884-2.013-1.513-2.998c-6.384-6.691-15.041-10.367-21.867-16.364
	c-3.519-3.091-9.862-7.173-0.233-11.812c4.814-2.319,6.827-7.624,4.142-15.39c12.203,10.486,20.199,21.75,32.672,27.911
	c3.207,1.584,5.923,2.523,8.954,1.122c4.015-1.856,0.626-4.967,0.698-7.455c0.227-7.833,0.084-15.677,0.084-24.024
	c8.368,0.899,16.293,8.75,23.728-0.42c-3.232-2.593-6.226-4.994-9.219-7.396c-2.372,0.174-3.99-0.983-5.163-2.925
	c-0.974-9.29,3.403-7.242,9.247-5.012C456.141,291.395,463.526,298.383,465.128,285.992z"/>
<path fill="#FE0000" d="M87.044,287.793c18.552,0.046,37.104,0.092,55.655,0.138c0.759,4.278,1.643,6.216,7.528,5.267
	c6.676-1.076,11.122-6.901,18.025-7.157c1.025,6.059-7.845,7.183-5.544,13.155c0,0,0.236-0.234,0.235-0.233
	c-5.965-0.49-10.479,3.732-9.736,8.052c0.875,5.084,6.229,5.408,11.339,2.725c2.88-1.512,6.678-1.273,10.776-1.939
	c0,5.388-0.35,10.429,0.094,15.399c0.484,5.417-3.063,13.196,2.219,15.677c5.155,2.422,10.77-3.86,16.13-6.322
	c3.086-1.418,5.449-4.615,7.855-7.267c4.943-5.45,9.695-11.073,14.878-17.029c4.008,7.642,0.231,10.369-2.704,13.571
	c-2.914,3.18-3.06,3.628-1.783,4.647c9.929,7.926,3.772,13.841-2.812,18.82c-3.409,2.578-6.989,4.631-9.238,8.665
	c2.936,1.323,5.294,0.846,8.064-0.227c4.378-1.696,8.894-2.468,12.475,2.318c3.727,4.982-1.138,7.772-2.729,11.075
	c-5.523,11.46-13.838,21.42-18.283,33.499c0.056,0.594-0.106,1.12-0.486,1.579c-8.596,2.437-16.808-1.221-25.228-1.587l0.48,0.144
	c-1.438-2.58-2.874-2.576-4.31,0.002c0.176,0.407,0.47,0.703,0.882,0.889c-7.48,3.544-16.37,5.967-14.448,17.757
	c7.687-4.25,14.813-4.184,22.354-0.456c-4.796,2.085-12.973-2.095-13.345,5.868c-0.361,7.725-4.452,17.735,7.14,22.025
	c0.199-0.708,0.624-1.418,0.541-2.062c-0.482-3.715-4.177-7.539,2.736-10.101c6.325-2.345,7.754,0.503,10.201,5.116
	c2.596,4.896,5.536,9.949,11.173,12.474c2.653,1.188,4.562,2.392,7.641,0.174c5.081-3.66-3.127-2.44-1.79-5.841
	c1.084-2.755-1.827-7.081-2.966-10.71c0.438,0.085,0.66,0.35,0.665,0.796c0.699-0.362,1.398-0.724,2.096-1.085
	c-0.683-0.608-1.366-1.215-2.048-1.823l0.145,0.584l-0.47,0.376c0.844-4.923,5.329-7.414,7.852-11.223
	c2.911-4.394,6.099-3.823,10.287,1.011c5.103,5.891-3.151,10.897,0.868,15.786c8.176-7.028,15.25-24.187,11.657-29.709
	c-3.427-5.267-8.978-3.538-14.928-1.565c6.451-10.97,9.811-21.948,16.805-31.022c1.425-1.849,1.36-4.162,5.314-2.647
	c12.764,4.894,25.953,8.014,41.863,2.357c-5.478,7.677-9.962,13.49,0.426,17.348c1.616,0.6,0.371,3.769-0.75,5.771
	c-2.417,4.316-4.235,8.981-6.817,13.185c-3.305,5.38-7.023,12.328-14.381,9.988c-8.208-2.61-0.501-9.666-1.962-14.946
	c-4.621,0.482-7.324,4.125-10.78,6.173c-6.156,3.648-7.256,9.928-5.136,15.985c2.036,5.816,6.647,9.893,13.4,10.07
	c5.39,0.142,10.789-0.079,16.184-0.139c0.53,0.52,1.061,1.039,1.591,1.559c-5.411,4.558-9.918,11.888-18.345,3.522
	c-2.239-2.222-7.006-1.032-8.778,3.275c-4.948,12.024,3.435,23.736,16.676,24.409c10.816,0.55,18.387-5.937,27.047-11.437
	c1.313,4.415,2.473,7.993,3.43,11.625c0.986,3.741,1.059,7.926,2.85,11.195c1.814,3.312,1.79,9.558,8.493,7.97l-0.202-0.168
	c-2.17,4.658,0.745,6.898,4.22,8.871c0,0-0.116-0.179-0.115-0.179c-10.268,6.199-21.013,0.452-30.709-0.801
	c-16.161-2.089-32.805-4.446-48.348-10.513c-23.004-8.98-44.443-21.224-62.988-37.141c-36.053-30.945-61.849-69.146-73.007-115.963
	C88.306,321.204,85.3,304.68,87.044,287.793z"/>
<path fill="#FAFAFA" d="M118.3,483.683c0.247-0.632,0.896-1.521,0.681-1.856c-2.655-4.137-0.235-6.522,2.925-8.55
	c1.252-0.804,3.28-0.884,3.493,0.749c0.407,3.113,0.954,6.717-0.212,9.399c-1.459,3.357-4.587,1.807-7.003,0.095
	C118.178,483.512,118.3,483.683,118.3,483.683z"/>
<path fill="#FAFAFA" d="M387.938,49.909c-2.576,0.004-5.198,0.038-4.873-3.708c0.29-3.34,1.998-5.318,5.513-4.817
	c3.052,0.434,5.396,2.018,5.053,5.518C393.278,50.503,390.277,49.728,387.938,49.909z"/>
<path fill="#FAFAFA" d="M241.423,58.431c-2.325,2.915-5.159,5.599-9.026,4.089c-3.704-1.446-3.402-5.018-2.457-8.489
	c3.541-0.514,6.173,3.737,9.911,1.973C240.375,56.813,240.899,57.622,241.423,58.431z"/>
<path fill="#FAFAFA" d="M419.969,519.827c0.827,4.816-2.064,8.232-5.651,9.297c-3.897,1.157-4.347-3.357-5.5-6.162
	c-0.658-1.601-2.008-2.971-2.43-4.605c-0.994-3.84-7.951-7.981-1.369-11.515c6.224-3.341,10.618,1.768,13.708,6.82
	C419.753,515.342,419.588,517.751,419.969,519.827z"/>
<path fill="#FAFAFA" d="M378.48,532.704c0.424,7.765-1.094,12.872-6.955,12.14c-8.101-1.011-9.688-7.979-10.231-15.067
	c-0.43-5.607,2.46-10.177,7.342-9.787C377.22,520.676,377.429,528.696,378.48,532.704z"/>
<path fill="#FAFAFA" d="M289.983,42.933c0.739,4.991-1.246,9.748-7.357,10.04c-6.062,0.289-5.024-5.461-5.605-9.405
	c-0.155-1.052-0.481-2.53,0.048-3.155c2.473-2.918-6.641-9.97,3.364-9.866C287.785,30.623,290.068,35.541,289.983,42.933z"/>
<path fill="#FAFAFA" d="M118.548,137.777c-0.435,4.021-3.145,7.262-7.453,6.805c-7.233-0.768-12.73-4.609-13.944-12.516
	c-0.772-5.03,1.149-8.969,6.598-8.441C111.687,124.394,116.234,129.763,118.548,137.777z"/>
<path fill="#FAFAFA" d="M511.722,427.936c-3.287,5.605-3.252,5.526,2.169,7.983c3.154,1.43,3.822,4.25,2.776,7.223
	c-1.406,3.999-4.905,5.744-8.608,4.506c-6.689-2.237-12.857-6.316-12.726-14.1c0.174-10.29,9.253-6.246,14.802-7.788
	C510.665,426.486,511.193,427.211,511.722,427.936z"/>
<path fill="#FAFAFA" d="M59.187,381.187c-4.321-0.251-9.686-0.541-8.991-6.338c1.002-8.362,8.495-9.93,15.212-10.503
	c4.199-0.358,8.961,1.339,8.21,7.302C72.55,380.138,65.676,380.445,59.187,381.187z"/>
<path fill="#FAFAFA" d="M148.961,87.655c0.626,0.965,1.252,1.931,1.879,2.896c-1.771,0.765-3.137,0.526-3.77-1.523
	C147.7,88.57,148.331,88.112,148.961,87.655z"/>
<path fill="#FAFAFA" d="M335.371,532.043c0.536,3.827-2.104,5.117-4.858,5.829c-3.931,1.017-3.653-2.121-3.739-4.487
	c-0.099-2.69-0.871-5.887,3.81-5.569C333.506,528.015,335.139,529.162,335.371,532.043z"/>
<path fill="#FAFAFA" d="M63.803,334.604c-0.672,2.265-0.794,4.94-4.183,5.05c-2.804,0.091-4.804-0.94-5.398-3.775
	c-0.718-3.431,2.003-3.936,4.311-4.59C61.427,330.468,63.157,331.71,63.803,334.604z"/>
<path fill="#FAFAFA" d="M190.916,59.805c-1.91-1.295-3.861-2.338-4.651,1.008c-0.437,1.85,0.959,4.652-2.271,4.843
	c-0.849,0.05-2.019-1.67-2.68-2.791c-2.018-3.425,1.335-4.602,3.12-5.53c2.736-1.423,6-2.06,8.633,0.782
	C192.351,58.679,191.633,59.242,190.916,59.805z"/>
<path fill="#060606" d="M270.353,441.174c-5.395,0.06-10.794,0.281-16.184,0.139c-6.752-0.178-11.364-4.254-13.4-10.07
	c-2.12-6.057-1.02-12.337,5.136-15.985c3.456-2.048,6.159-5.691,10.78-6.173c1.461,5.28-6.246,12.336,1.962,14.946
	c7.357,2.339,11.076-4.608,14.381-9.988c2.582-4.204,4.401-8.87,6.817-13.185c1.121-2.002,2.366-5.17,0.75-5.771
	c-10.388-3.857-5.904-9.671-0.426-17.348c-15.911,5.657-29.099,2.537-41.863-2.357c-3.953-1.516-3.888,0.797-5.314,2.647
	c-6.994,9.075-10.354,20.053-16.805,31.022c5.95-1.973,11.501-3.702,14.928,1.565c3.593,5.521-3.481,22.68-11.657,29.709
	c-4.019-4.889,4.235-9.895-0.868-15.786c-4.188-4.835-7.376-5.405-10.287-1.011c-2.523,3.809-7.008,6.299-7.857,11.217
	c-5.949,0.104-1.375-4.87-3.136-6.804c-9.363,6.262-9.544,8.676-1.432,17.105c3.283-2.181-1.995-8.252,4.185-9.144
	c1.139,3.629,4.049,7.955,2.966,10.71c-1.338,3.4,6.87,2.181,1.79,5.841c-3.079,2.218-4.989,1.014-7.641-0.174
	c-5.637-2.525-8.576-7.578-11.173-12.474c-2.446-4.614-3.876-7.461-10.201-5.116c-6.913,2.562-3.218,6.386-2.736,10.101
	c0.084,0.644-0.342,1.354-0.541,2.062c-11.593-4.291-7.501-14.301-7.14-22.025c0.372-7.963,8.549-3.783,13.345-5.868
	c-7.542-3.728-14.668-3.795-22.354,0.456c-1.922-11.79,6.968-14.213,14.435-17.754c1.509,4.746-3.548,5.667-5.824,9.048
	c12.995,2.176,25.726-1.329,38.452,5.353c0.027,0.123-3.834,2.399-1.217,5.408c5.897-2.647,11.241-8.855,18.663-4.331
	c1.771,1.08,2.962,3.639,5.039,1.279c0.979-1.113,1.418-3.451,0.993-4.911c-1.29-4.435-3.545-0.855-5.603-0.526
	c-2.723,0.435-5.923,1.255-8.123-1.216c-2.906-3.265,0.282-6.045,1.364-8.817c2.036-5.221,6.578-9.428,6.274-15.606
	c2.286-0.656,2.513-2.039,1.375-3.902c-0.925,0.909-1.85,1.818-2.775,2.727c-1.658,1.748-4.468,3.314-4.779,5.276
	c-1.491,9.393-7.769,10.021-15.165,9.188c4.444-12.079,12.76-22.039,18.283-33.499c1.592-3.303,6.457-6.092,2.729-11.075
	c-3.581-4.786-8.097-4.014-12.475-2.318c-2.77,1.073-5.128,1.55-8.064,0.227c2.249-4.035,5.829-6.087,9.238-8.665
	c6.584-4.979,12.741-10.894,2.812-18.82c-1.277-1.02-1.131-1.468,1.783-4.647c2.934-3.202,6.711-5.929,2.704-13.571
	c-5.183,5.956-9.935,11.578-14.878,17.029c-2.406,2.653-4.768,5.849-7.855,7.267c-5.36,2.463-10.974,8.744-16.13,6.322
	c-5.281-2.481-1.734-10.26-2.219-15.677c-0.444-4.97-0.094-10.012-0.094-15.399c-4.098,0.666-7.897,0.427-10.776,1.939
	c-5.11,2.683-10.464,2.359-11.339-2.725c-0.743-4.319,3.771-8.542,9.736-8.052c3.179,2.98-3.207,3.877-1.518,5.399
	c1.729,1.558,4.637,1.123,7.068-0.046c4.13-1.985,8.339-3.805,14.781-6.719c-4.698,12.748-3.604,24.216-3.287,37.599
	c10.946-8.551,5.873-21.217,11-30.195c5.127-8.978,12.181-17.555,9.739-31.459c6.184,10.718,1.03,17.4-2.191,24.365
	c-2.49,5.383-5.262,10.639-7.639,16.069c-1.743,3.983,0.544,8.052,2.951,10.011c2.555,2.079,4.669-1.934,6.553-3.971
	c5.353-5.788,10.905-11.219,17.894-15.223c5.62-3.219,7.567-1.774,6.782,7.711c4.352-6.41,6.91-10.178,9.453-13.924
	c-1.431-1.425-5.767,2.214-7.475-1.952c0.463-0.639,0.927-1.277,1.39-1.916c4.092,2.651,7.897,3.073,11.311-1.504
	c-2.766-2.471-8.257,1.035-9.403-4.813c-1.295-6.611-5.937-6.754-11.216-4.726c-8.375,3.217-12.621,0.695-11.324-8.586
	c1.86-13.307-7.988-10.731-15.498-11.32c6.399-13.13,0.056-20.182-11.222-24.966c0.165-1.092,0.329-2.183,0.494-3.275
	c5.162,2.419,9.238,6.608,15.633,7.11c6.989,0.548,3.777,5.448,1.933,8.601c-3.474,5.939-1.892,9.357,4.73,9.677
	c7.634,0.369,8.48,5.731,8.056,10.968c-0.697,8.598,1.862,11.427,9.79,7.068c5.124-2.817,8.24-2.494,10.475,3.689
	c3.203,8.863,7.624,4.536,11.401,0.227c1.874-2.139-0.412-8.77,5.707-6.101c5.556,2.424,2.177,6.307,0.319,9.654
	c-0.281,0.506-0.039,1.301-0.039,3.354c6.053-3.467,12.249-2.991,18.375-2.265c0.406-11.394-8.608-7.155-14.022-8.911
	c1.524-2.653,3.776-1.336,5.568-1.57c2.332-0.304,5.188,0.673,4.578-3.632c-0.582-4.112-3.697-3.282-5.628-2.65
	c-3.937,1.288-7.409,2.578-9.78-2.219c0.525-0.77,1.049-1.541,1.574-2.311c4.204,3.462,7.461-1.109,11.466-1.322
	c-6.729-3.882-13.954-6.566-21.008-12.281c6.991-1.273,10.644,3.489,15.376,4.552c1.832,0.412,4.543,2.07,5.65-0.266
	c1.142-2.409-0.765-3.602-3.382-3.748c-4.621-0.258-2.729-4.133-3.267-6.53c-0.912-4.06,3.387-4.453,5.264-6.338
	c1.85-1.857,7.277,1.719,7.643-3.099c0.386-5.089-5.645-2.777-8.11-5.204c-1.221-1.202-2.829-1.875-3.125-3.819
	c0.496-0.41,1.334-1.268,1.474-1.167c11.669,8.493,17.541,1.096,22.741-8.236c0.64,0.188,1.735,0.277,1.813,0.607
	c0.567,2.389-1.012,6.195,4.004,5.321c2.466-0.43,3.922-1.812,4.045-4.201c0.103-1.996,1.004-4.643-1.458-5.709
	c-3.698-1.601-3.193,2.899-5.121,4.049c-1.294,0.772-2.333,1.497-3.536,0.034c1.131-2.962,2.101-6,3.448-8.86
	c0.996-2.116,2.167-4.5-1.288-4.528c-8.82-0.072-5.584-6.52-5.801-10.742c-0.371-7.237,5.433-3.571,8.562-4.164
	c8.469-1.606,17.746-22.818,11.193-27.755c-6.796-5.12-16.608-5.4-24.857-3.467c-6.189,1.45-10.943,1.518-16.029-2.512
	c4.579-1.995,10.07-0.12,14.055-3.53c4.338-3.711,8.742-0.231,15.181,0.857c-4.821-8.643-10.26-7.463-15.975-5.48
	c-1.998,0.693-4.689,1.771-4.973-1.404c-0.229-2.56-2.292-7.374,3.932-6.474c1.147,1.471,1.526,2.772,4.521,2.647
	c13.841-0.581,22.275,9.305,28.766,19.054c4.874,7.32,2.753,16.618-5.243,22.899c-2.251,1.768-1.971,4.638,0.684,4.646
	c10.057,0.032,20.139-0.429,30.159-1.308c2.682-0.235,4.45-2.507,4.167-6.32c-1.037-13.997,4.7-27.775-1.528-42.277
	c-4.152-9.668-4.926-11.953-13.808-5.318c-3.523,2.632-6.551,1.64-9.823,0.764c-3.6-0.964-7.089-2.339-11.198-3.728
	c1.405,4.451,2.775,7.877-0.649,12.448c-2.886-5.379-5.188-9.672-7.441-13.87c-6.2,4.46,2.54,7.969-0.06,13.14
	c-5.629-7.014-12.182-4.891-18.751-2.578c-2.226-2.062,0.105-3.697,1.127-4.041c6.28-2.113,11.855-4.008,15.688-10.774
	c2.75-4.855,9.717-3.165,15.039-1.925c9.334,2.174,18.768,6.12,28.105,0.821c6.394-3.628,4.255,4.79,8.328,5.187
	c3.756,0.366,0.654,2.934-0.134,4.501c-0.782,1.554-2.66,3.586-2.213,4.575c6.604,14.624-0.938,29.929,2.377,44.418
	c1.05,4.588-2.913,4.985-2.858,7.972c3.726,1.703,7.492,3.424,11.424,5.221c4.618-40.2,43.694-69.887,84.375-63.636
	c-3.072,6.216-6.003,12.147-9.329,18.877c7.541-0.586,16.496-2.113,20.561,3.579c2.012,2.817-2.599,11.523-7.528,16.165
	c-4.425-5.719,8.526-11.828-1.115-15.641c-5.444-2.153-11.892-0.328-18.636,2.433c0.71-7.45,4.79-11.924,7.621-16.903
	c2.559-4.501,0.697-5.959-3.666-5.344c-23.669,3.336-44.842,11.681-59.957,31.28c-10.703,13.877-10.115,30.794,0.493,41.599
	c7.327-12.203,1.561-27.644,9.347-41.421c2.25,6.766-4.017,11.826-0.56,17.561c1.438-3.399,2.48-6.991,4.372-10.059
	c2.577-4.178,4.891-10.293,9.939-10.337c4.234-0.037,4.293,6.465,5.678,10.098c2.481,6.506,6.049,3.993,10.23,2.573
	c9.067-3.078,14.194,0.804,11.268,9.457c-2.997,8.861,0.004,11.702,7.965,14.011c12.704,3.685,12.942,5.556,4.24,15.858
	c-0.462,0.547-0.981,1.351-1.564,1.44c-3.712,0.569,1.5,9.388-4.609,6.021c-6.678-3.68,0.926-6.774,2.336-9.971
	c1.071-2.429,5.509-3.81,4.41-6.623c-1.368-3.501-5.621-4.437-9.198-4.391c-9.673,0.124-10.332-4.443-7.988-12.437
	c2.844-9.7,0.409-12.157-8.831-8.273c-12.058,5.068-9.39-7.463-14.994-10.909c-4.049,1.181-5.147,5.599-7.163,8.911
	c-3.643,5.987-2.49,8.324,5.375,9.697c24.12,4.211,22.834,6.227,24.397,29.42c0.319,4.731-1.035,5.605-6.61,7.416
	c2.765-5.163,4.024-10-2.799-13.929c-2.561,8.495-2.863,17.173-10.148,22.603c-3.532-3.41,0.746-5.573,1.494-8.176
	c2.624-9.129,7.254-17.902,4.335-28.004c-7.984,3.246-4.657,9.046-2.143,16.601c-7.584-5.757-12.771-3.839-17.726,0.62
	c-0.457-2.007-0.92-3.03-0.877-4.031c0.153-3.535-0.809-7.636-4.616-6.608c-4.223,1.14-0.866,4.611,0.235,6.877
	c3.076,6.334,1.427,13.381,2.896,19.736c3.468,1.299,5.182-4.566,8.842-1.582c-1.328,5.718-6.26,8.492-9.89,12.317
	c-3.386,3.566-3.337,3.612-1.83,9.111c1.441,6.991-5.753,4.825-8.172,7.717c-1.251,1.496-4.015,2.626-1.944,5.133
	c0.617,0.747,2.245,2.522,3.501,0.906c3.908-5.031,8.703-3.144,13.871-3.177c4.864-0.031,9.947-3.014,11.896-9.174
	c2.806-8.869,14.732-13.971,10.835-25.808c-0.064-0.194,1.698-0.99,2.609-1.505c5.527,17.878-3.024,29.776-16.584,39.788
	c-3.358,2.48-5.995,2.641-10.187,1.855c-8.074-1.513-16.216,1.754-24.397,2.474c-9.475,0.833-9.601,11.441-12.301,18.77
	c-0.733,1.991-1.639,3.961-2.75,5.765c-9.557,15.525-11.007,30.244,3.278,44.163c3.213,3.131,4.722,7.941,7.53,11.581
	c2.19,2.838-0.515,9.615,4.875,8.763c4.867-0.77,9.778-3.931,12.904-8.654c5.545-8.379,4.256-18.038,3.214-26.792
	c-0.584-4.903-6.343-9.73-10.705-13.512c-6.001-5.203-6.962-8.738,1.659-11.593c-3.317-6.407-12.03-4.196-15.769-10.027
	c6.384-4.695,12.894-5.967,20.046-3.857c0.77,2.224,2.571,2.853,3.864,1.151c0.83-1.093-0.977-2.255-2.382-2.678
	c-4.658-7.009,3.875-6.067,4.971-11.299c2.672,4.792,1.407,9.12,4.631,11.182c3.4,2.174,7.358,6.961,9.641-1.295
	c1.758-6.355,5.459-7.256,11.39-4.365c3.083,1.503,9.504,4.964,8.869-3.286c-0.866-11.253,1.116-18.814,15.212-15.324
	c-5.082-16.113-5.082-16.113,9.772-21.528c0.544,0.807,1.088,1.615,1.632,2.422c-6.727,3.52-15.317,5.591-7.771,16.542
	c3.288,4.771-0.977,7.1-5.819,6.5c-7.469-0.925-8.859,2.705-8.639,9.357c0.351,10.612-2.212,12.778-12.756,9.747
	c-5.364-1.542-7.943-1.563-9.321,4.172c-1.397,5.812-6.911,4.582-11.222,5.306c3.79,6.985,8.848,2.646,13.283,1.904
	c-0.137,4.871-4.638,3.586-6.618,5.528c4.881,6.117,4.718,5.715,10.614,3.33c4.758-1.924,7.932,2.417,11.204,4.788
	c8.062,5.843,13.471,14.504,22.205,19.978c8.566,5.368,9.314,1.823,9.275-5.546c-0.043-8.166-0.33-16.285-2.696-24.402
	c7.966,0.08,13.658,5.115,20.47,6.682c1.962-2.401-3.714-5.104,0.538-7.119c2.992,2.399,5.986,4.801,9.218,7.394
	c-7.434,9.17-15.36,1.319-23.728,0.42c0,8.346,0.143,16.19-0.084,24.024c-0.072,2.488,3.317,5.598-0.698,7.455
	c-3.03,1.401-5.746,0.462-8.954-1.122c-12.473-6.162-20.47-17.425-32.672-27.911c2.685,7.766,0.672,13.071-4.142,15.39
	c-9.629,4.639-3.286,8.721,0.233,11.812c6.827,5.997,15.483,9.674,21.867,16.364c-0.575,0.52-1.149,1.04-1.724,1.561
	c-8.213-1.284-16.425-2.568-25.639-4.009c3.435,9.257,11.617,15.613,12.977,25.228c-4.818,0.485-9.625,0.89-14.159-2.455
	c3.469,5.497,4.559,11.907,9.752,15.76l-0.16-0.187c-0.855,4.722,1.922,8.318,4.456,11.5c2.496,3.136,3.857,8.392,2.718,9.681
	c-6.572,7.433-0.869,6.484,3.978,7.207c1.822,0.272,3.369,2.385,5.042,3.659c0.978,0.726,1.956,1.451,2.934,2.177
	c0.625-1.743,0.732-3.358-1.102-4.499c0.362-2.036-3.454-7.045,3.366-4.537c1.359,0.5,2.886,4.43,4.582,0.777
	c3.201-6.895,9.763-5.371,13.699-3.602c5.689,2.556,9.398,0.278,13.581-1.532c-5.326-9.489-12.293-3.319-19.006-2.212
	c-5.968,0.984-14.659,4.995-12.538-7.719l0.079-0.104c3.511,8.611,10.807,3.343,15.111,2.652
	c17.272-2.772,22.229-0.536,27.305,15.967c-4.353,2.881-6.222-1.733-9.235-2.992c-3.778-1.58-6.47,2.425-12.509,1.987
	c7.671,2.893,12.669,5.515,11.753,12.722c-0.725,5.698,2.366,12.531-5.904,16.601c1.367-9.69-6.023-11.29-12.134-14.16
	c-3.408,3.915,0.761,12.554-8.267,12.506c2.014-6.63,5.532-13.742-5.745-16.402c1.042,5.927-2.304,13.007,5.865,16.281
	c-2.331,8.598-2.935,8.971-14.591,8.455c7.593-7.722,5.215-15.931,2.094-24.193c-1.608-4.256-4.024-8.632-9.025-7.295
	c-4.912,1.313-5.86,6.435-6.428,11.213c-0.306,2.577,3.198,4.186,1.126,7.38c-10.65-5.063-11.171-16.127-12.606-24.978
	c-1.057-6.516,5.851-8.818,14.236-4.85c-4.36-15.497-12.355-27.733-20.594-39.678c-2.37-3.436-6.144,0.542-8.091,2.206
	c-6.519,5.574-14.645,6.713-22.264,9.287c-2.184,0.738-5.777-1.385-6.512,1.279c-0.741,2.685,1.464,5.168,4.624,6.155
	c0.851,0.266,1.384,1.551,2.73,3.171c-15.903,3.603-8.526,12.116-4.422,19.89c1.532,2.901,2.022,6.7,7.13,6.415
	c5.822-0.325,1.846-6.019,4.699-7.664c12.056,6.577,11.786,20.049,5.54,28.587c-4.616,6.31-13.829,6.953-22.569,1.339
	c-0.937-0.711-1.873-1.427-2.808-2.142c-1.14,1.765-0.515,2.939,1.251,3.729c3.801,8.802,10.814,6.487,17.61,5.155
	c4.273-0.837,8.225-7.579,12.34-3.012c4.337,4.814-1.013,16.009-8.22,19.654c-0.05-2.881,4.492-5.287,0.285-9.109
	c-7.055,12.009-15.422,2.274-20.705-0.874c-6.746-4.02-15.03-10.167-12.614-21.416c1.107-5.156-5.449-6.703-7.398-11.234
	c-1.712-3.98-1.268,4.246-4.65,3.87c-3.618-0.402-7.579,2.986-9.33-4.372c-2.04-8.574-0.186-17.796-4.495-25.825
	c-10.082,8.615-16.053,19.931-22.222,30.817c10.36,5.205,9.613-10.473,19.01-8.708c-4.185,11.684-4.047,24.19-15.679,33.13
	c-10.997,8.452-15.837,10.158-25.317,1.208c-0.774,6.038-3.601,12.497,3.582,16.19c6.533,3.358,12.799,4.371,19.595-1.397
	c5.906-5.013,13.551-7.976,21.796-12.614c-1.6,15.657,3.457,28.045,8.848,40.349c-6.702,1.587-6.679-4.658-8.493-7.97
	c-1.791-3.269-1.864-7.454-2.85-11.195c-0.957-3.632-2.117-7.21-3.43-11.625c-8.66,5.5-16.23,11.987-27.047,11.437
	c-13.24-0.673-21.624-12.385-16.676-24.409c1.772-4.307,6.54-5.497,8.778-3.275c8.427,8.365,12.935,1.036,18.341-3.524
	c0.711-0.937,1.427-1.873,2.142-2.808C272.316,438.783,271.143,439.408,270.353,441.174z M248.728,296.284
	c-3.901,4.78-6.24,10.281-8.608,16.813c6.39-2.389,12.601-2.068,16.861-6.901c-3.406-2.257-6.769-0.129-10.482-0.404
	c1.428-2.965,2.628-5.455,3.819-7.948c1.76-1.346,3.572-1.912,5.525-0.369c4.48,5.274,14.761,10.388-0.643,15.708
	c6.628,2.89,11.871-0.743,17.58-0.718c-0.638,5.5-3.382,9.569-6.018,13.684l-0.01,0.024c-5.332-3.775,3.923-6.079,0.657-9.795
	c-1.818,0.317-4.594,1.724-5.883,0.874c-7.75-5.109-12.936,3.276-19.758,3.48c-4.002,0.12-5.041,5.722-5.581,9.362
	c-0.581,3.919,3.439,2.512,5.532,2.974c5.913,1.305,2.798,4.561,0.564,5.321c-11.756,3.997-3.734,8.786-1.179,14.064
	c0.882-1.015,1.474-1.447,1.727-2.028c1.497-3.429,3.911-6.247,7.631-4.054c3.795,2.238-3.686,2.171-1.596,5.058
	c2.229,3.079,4.879,10.068,5.519,9.377c3.961-4.275,12.425,3.81,14.404-6.475c1.438-7.471,5.759-15.009,13.506-19.047
	c2.473,2.885-0.421,4.244-1.605,6.268c-3.569,6.099-8.988,11.414-8.82,19.615c10.65-3.013,15.145-10.799,17.165-20.493
	c1.179-5.656-0.291-8.71-6.661-5.445c7.334-11.168,2.414-20.157-4.918-28.891c-1.517-1.808-2.248-4.328-3.14-6.598
	c-2.237-5.693-5.876-7.229-11.47-4.446c-2.035,1.012-3.868,3.308-6.668,1.9c0.068-1.45,0.473-4.076,0.154-4.168
	C253.064,292.093,250.887,294.262,248.728,296.284z M323.787,336.099c-0.936-0.716-1.871-1.432-2.807-2.148
	c-1.141,1.765-0.516,2.939,1.25,3.729c0.818,5.571,1.39,11.193,2.541,16.694c0.774,3.698,3.334,6.354,7.29,6.765
	c1.597,0.166,4.243-0.201,4.782-1.203c1.635-3.035,0.635-6.258-1.387-8.931C331.649,345.972,327.688,341.055,323.787,336.099z
	 M311.409,240.421c-5.494,4.937,1.428,9.825,0.069,14.96c-0.998,3.768-0.394,5.946,5.497,6.912
	c13.586,2.227,15.47-7.972,18.74-15.86c1.717-4.142,2.168-10.21-1.632-14.612c-1.101-1.275-2.493-1.532-1.808-4.051
	c3.007-11.05-2.663-14.225-12.593-13.019c2.391-6.654,9.302,0.181,12.9-4.49c-5.494-7.432-13.587-4.496-20.547-5.193
	c-3.147-0.315-2.511,2.784-2.566,4.781c-0.059,2.12-0.237,4.442,3.026,4.411c2.513-0.024,5.028,0.092,7.541,0.146
	c0.076,1.942-1.386,2.077-2.736,2.29c-5.276,0.834-9.476,2.367-7.906,9.258c2.052,9.007,7.564-1.576,8.503-0.419
	c5.687,9.576-16.871,1.071-4.549,13.369C312.701,239.409,312.055,239.915,311.409,240.421z M302.613,413.544
	c4.347-4.595,7.776-13.307,9.839-0.773c0.185,1.127,3.097,1.583,4.255,2.81c5.137,5.443,14.112,7.772,16.343,14.864
	c2.25,7.153,6.385,6.894,11.288,6.224c7.239-0.989,5.576-9.46,10.009-13.272c1.143-0.983-1.188-5.006-5.304-2.803
	c-6.876,3.679-11.597,0.093-16.728-4.725c-6.802-6.387-2.548-15.777-7.494-22.603c-1.249-1.724-3.771-5.171-0.65-8.83
	c1.688-1.979,0.745-6.011-2.762-6.86c-3.148-0.761-5.656-5.105-9.515-2.036c-0.715,0.569-0.977,1.707-1.448,2.583
	c-0.374-0.762-1.17-1.594-1.056-2.274c1.297-7.759-6.924-7.504-10.652-11.793c0,3.939,0,7.877,0,12.069
	c-4.594-1.564,0.284-7.549-4.304-7.459c-4.362,0.086-5.016,4.326-5.127,7.944c-0.131,4.278-0.228,7.544,4.654,10.966
	c7.614,5.336,3.71,15.616,5.294,25.353c2.87-6.357-0.083-11.557,3.358-17.378C302.613,401.921,302.613,406.873,302.613,413.544z
	 M288.575,247.141c-5.844,3.141-10.274,1.906-14.387,2.568c-6.321,1.018-8.001,4.098-7.954,9.25
	c0.145,16.008,7.65,29.763,14.082,43.757c1.741,3.789,6.695,3.515,9.549,2.181c3.97-1.856,2.97-6.752,1.142-9.373
	c-1.586-2.273-3.05-1.56-0.292-4.941c3.816-4.679-1.583-12.259-8.166-12.553c-6.223-0.279-9.548-5.185-10.143-9.292
	c-0.948-6.537,4.493-7.644,10.264-7.018c2.63,0.285,5.694,1.124,8.117-1.113c1.066-3.26-4.661-3.529-3.168-5.905
	c5.994-9.534,3.724-14.669-8.143-15.94c2.335-0.728,4.033-0.712,5.73-0.73c5.099-0.055,5.685-3.587,5.475-7.433
	c-0.301-5.513-4.859-3.443-7.271-3.16c-8.854,1.037-7.497,10.218-9.86,15.46c-1.91,4.238,5.428,3.263,8.989,3.791
	C283.893,246.888,285.274,246.902,288.575,247.141z M331.888,277.601c-6.343,0-12.046-0.06-17.747,0.032
	c-2.09,0.034-5.646,0.751-4.368,2.959c3.291,5.687-1.809,10.783-0.064,16.169c0.914,2.821-3.104,7.581,3.054,8.249
	c4.609,0.5,9.043,0.85,10.866-5.545C325.721,292.12,328.991,285.111,331.888,277.601z M309.432,336.923
	c5.869-1.806,4.293-5.997,4.203-9.227c-0.131-4.683-0.341-9.083,3.261-12.871c1.298-1.365,2.869-3.775,1.059-5.569
	c-0.913-0.905-3.247-0.399-4.941-0.487c-3.795-0.199-3.591,2.466-3.587,5.016C309.44,321.407,309.432,329.031,309.432,336.923z
	 M338.272,212.57c-1.426,1.473-4.182,3.265-2.196,5.134c3.607,3.396-2.214,12.114,6.874,11.887c2.934-0.073,6.412-0.966,4.906-4.918
	C345.99,219.778,343.25,215.168,338.272,212.57z M250.376,419.376c-5.751,0.952-6.629,5.156-5.249,9.322
	c0.931,2.81,2.04,8.022,7.905,5.092C249.667,429.29,251.991,424.083,250.376,419.376z M184.559,423.527
	c-3.403,0.218-5.759,0.459-8.117,0.501c-4.137,0.073-9.606,0.9-4.381,5.678C175.888,433.205,180.958,429.169,184.559,423.527z
	 M360.654,293.978c-3.59-1.999-6.52-6.57-12.882-4.979C351.268,293.81,355.558,294.416,360.654,293.978z"/>
<path fill="#060606" d="M162.707,299.196c-2.301-5.972,6.57-7.096,5.544-13.155c-6.903,0.256-11.349,6.081-18.025,7.157
	c-5.885,0.948-6.769-0.989-7.528-5.267c2.092-4.824,4.289-9.605,6.246-14.483c1.952-4.865,3.663-9.826,5.654-15.219
	c-4.428-0.397-8.654,3.247-13.222,0.621c2.348-5.174,9.176-5.565,11.504-11.144c-3.797-1.636-7.63-4.024-11.775-4.859
	c-3.9-0.786-8.124-2.721-8.173-5.559c-0.043-2.508,4.015-5.534,6.832-7.527c3.425-2.422,7.446-3.999,11.998-6.349
	c-4.13-3.533-8.197-7.044-6.405-13.714c5.461,2.744,10.823,8.178,17.189,0.693c-8.865-4.441-14.741-11.758-20.557-20.918
	c7.985-1.29,15.129-2.445,22.465-3.631c0.507-5.965-6.068-10.018-3.746-16.498c4.457,2.62,8.576,5.912,13.772,6.892
	c0.991,1.034,2.038,1.506,3.248,0.32c-0.612-0.587-1.223-1.175-1.835-1.762c-0.336-0.624-0.568-1.341-1.025-1.858
	c-4.321-4.876-8.807-11.619-6.787-16.769c2.138-5.45,10.357-1.55,15.825-2.451c1.057-0.174,2.133-0.234,3.799-0.41
	c-0.254-7.252-7.998-11.591-7.4-19.397c25.381-0.285,48.211,6.078,66.637,24.902c-18.524-11.225-37.331-21.534-60.518-20.255
	c1.126,7.52,7.604,11.902,10.164,19.5c-5.393,0-10.535-0.246-15.637,0.105c-2.526,0.174-6.002-1.886-7.505,1.783
	c-1.252,3.056,1.279,5.539,2.589,7.817c3.497,6.084,9.81,9.579,15.437,13.042c6.127,3.771,0.73-4.472,3.761-4.883
	c5.738,16.459,2.813,22.412-10.656,21.181c1.966-3.001,5.077-1.837,7.608-2.378c3.788-0.81,2.499-3.854,2.499-6.048
	c0-1.726,1.235-5.281-1.897-4.838c-8.837,1.25-16.537-3.89-25.606-4.123c1.467,3.921,5.42,6.052,5.4,10.306
	c-7.525,1.382-15.147-0.697-23.24,2.303c4.963,8.792,11.683,13.931,21.882,15.182c-2.964,6.404-9.102,8.505-14.153,11.978
	c1.525,2.739,4.926,0.109,6.992,2.21c-7.747,5.943-18.268,7.177-25.564,14.996c6.233,6.222,15.014,5.665,22.175,8.962
	c-0.305,4.332-5.157,5.039-6.179,8.78c4.528,1.207,8.849,2.247,3.803,8.394c-5.983,7.288-7.229,16.561-10.317,27.285
	c10.969-5.02,19.18-10.606,27.291-16.361c2.306-1.636,5.013-4.721,7.47-2.776c3.585,2.838-0.247,6.038-1.785,8.3
	C175.868,286.757,172.562,296.039,162.707,299.196z"/>
<path fill="#060606" d="M225.025,214.222c-0.235-4.286,4.758-9.693-2.756-12.088c-3.642,14.379-2.385,17.727,18.436,48.516
	c-8.775-3.06-8.775-3.06-25.48-36.822c-3.819,4.607-4.647,9.367-0.739,14.37c-0.852,0.469-1.704,0.938-2.556,1.407
	c-2.411-1.217-4.558-3.435-3.977-5.808c2.373-9.688,1.23-20.614,9.421-28.381c0.774-0.734,1.388-1.637,2.076-2.462
	c6.841,8.364,9.711-5.819,16.143-2.839c2.706,1.253,2.651-2.496,2.399-4.437c-0.673-5.192-3.46-9.527-7.627-12.255
	c-2.745-1.796-3.021,1.932-3.621,3.62c-2.421,6.808-6.425,9.541-13.465,6.018c-6.465-3.235-8.701-0.244-7.579,5.905
	c1.809,9.911-1.002,15.852-11.95,16.796c-2.899,0.25-8.066,0.881-4.096,6.675c8.937,13.046,8.828,13.121-6.099,22.714
	c0.483-7.67,1.877-14.672-1.555-21.91c-3.294-6.948,3.438-9.628,8.635-10.448c9.598-1.513,11.826-6.897,10.747-15.557
	c-0.782-6.278,0.851-13.055,8.833-9.278c9.298,4.399,12.257,0.369,14.83-7.106c0.641-1.862,2.048-3.461,3.136-5.234
	c8.915,5.091,12.412,13.41,15.313,22.672c1.627-3.91,1.351-7.145-2.217-12.625c7.416,4.226,4.844,8.493,5.393,11.757
	c0.749,4.455-5.576,10.81,3.95,13.056c1.345,0.317,0.373,4.507-1.848,6.353c-2.076,1.726-3.824,4.416-1.472,6.422
	c3.317,2.829,4.894-1.373,6.61-3.06c7.618-7.488,8.191-26.186,1.262-38.155c-1.042-1.799-3.001-3.09-1.92-5.583
	c9.126,5.118,14.049,21.052,10.235,34.399c-1.139,3.987-2.777,8.38-5.575,11.217c-4.272,4.331-5.434,8.414-0.987,14.435
	c-7.321-0.968-6.699-6.277-9.071-9.638c-2.14,1.877-4.251,3.728-6.361,5.579c-0.49-0.62-0.98-1.24-1.47-1.859
	c-2.148-8.206-7.398-8.33-13.852-5.316C225.803,214.906,225.421,214.556,225.025,214.222z"/>
<path fill="#060606" d="M338.495,95.567c-4.892,8.65-9.263,16.361-13.61,24.084c-0.519,0.922-0.79,2.663-1.386,2.763
	c-9.686,1.615-18.961-1.642-28.447-2.562c-5.486-0.532-6.341-4.415-7.449-8.751c-1.831-7.165-5.994-13.277-9.471-20.163
	c4.93,4.847,15.713,0.928,16.286,12.659c0.191,3.91,6.071-2.727,8.232,2.333c0.578,1.353,2.804-1.332,2.157-3.096
	c-3.02-8.231,4.856-10.679,7.753-16.476c2.086,5.023,3.671,9.258,5.582,13.34c2.531,5.407,2.095,4.841,6.031,0.659
	C327.473,96.849,332.178,94.527,338.495,95.567z M315.121,119.171c3.586-0.224,7.196,0.446,6.972-3.903
	c-0.154-2.991-2.919-3.55-5.495-3.765c-8.437-0.702-8.556-0.766-4.774-8.527c0.933-1.914,2.836-3.421,1.101-5.634
	c-0.603-0.77-2.272-1.778-2.56-1.55c-2.01,1.594-3.271,3.672-3.11,6.447c0.401,6.912-0.314,12.326-9.596,7.906
	c-1.043-0.496-4.577,0.675-4.96,3.116c-0.418,2.669,1.885,3.766,4.11,3.599C303.355,116.371,309.616,117.857,315.121,119.171z"/>
<path fill="#060606" d="M465.128,285.992c-1.602,12.392-8.987,5.404-13.802,3.566c-5.844-2.23-10.222-4.278-9.247,5.012
	c-8.331-5.769-13.25-13.816-17.671-25.811c14.309,5.363,22.863,16.106,36.026,18.105c-2.405-7.791-4.365-16.186-8.503-23.874
	c-1.884-3.501-8.209-7.293,0.803-9.933c1.581-0.463,0.912-1.578,0.181-2.216c-12.759-11.135,2.51-6.634,5.059-9.475
	c2.827-3.15,16.725,0.65,7.091-10.686c0.905-0.594,1.811-1.188,2.716-1.782c4.001,0.443,7.239,3.343,7.503,6.433
	c0.254,2.974-4.081,4.242-6.97,5.627c-3.757,1.801-7.234,4.24-11.832,3.808c0.061,7.419,7.724,7.062,10.709,12.471
	c-4.568,0.224-8.5,0.416-12.924,0.633C458.018,267.58,461.573,276.786,465.128,285.992z"/>
<path fill="#060606" d="M438.149,178.156c-6.282,2.722-12.75,4.394-21.908,3.446c6.457-3.519,7.059-13.327,17.042-6.776
	c3.92,2.573,8.475-4.182,13.499-5.962c3.554,6.244-3.571,10.183-3.18,16.578c3.476,0.227,7.217,0.148,10.827,0.8
	c3.54,0.639,8.856-2.619,10.281,2.061c1.104,3.625-2.54,7.035-6.708,9.393c0.994-11.359-8.158-8.373-13.204-8.58
	c-8.295-0.34-8.634-3.295-5.514-9.345c0.502-0.546,1.004-1.093,1.507-1.639C439.909,178.139,439.029,178.147,438.149,178.156z"/>
<path fill="#060606" d="M465.066,230.68c-6.594-3.24-13.189-6.479-19.806-9.73c1.285-3.855,4.781-1.119,6.314-3.648
	c-6.008-1.615-10.37-5.444-15.178-11.522c6.414,0.778,10.375-2.947,16.041-4.368c-0.164,5.483-5.207,5.065-6.82,8.071
	c6.066,5.569,11.488,2.705,17.048-1.878c3.109,7.212-2.999,10.156-5.744,14.335c3.772,2.417,7.317,4.687,10.862,6.958
	C466.877,229.492,465.971,230.086,465.066,230.68z"/>
<path fill="#060606" d="M216.747,244.253c5.479,2.571,10.862,3.836,11.639,12.441c0.489,5.411,8.51,9.366,14.759,6.809
	c4.529-1.853,5.562-0.363,7.111,2.707c-0.524,0.77-1.049,1.541-1.573,2.311c-1.424-0.049-3.581-0.724-4.156-0.05
	c-4.855,5.695-9.295,2.537-13.946-0.184c-5.388-3.153-9.957-6.316-7.793-13.983c2.013-7.132-7.482-3.876-8.555-8.573
	C215.072,245.239,215.91,244.746,216.747,244.253z"/>
<path fill="#060606" d="M242.409,242.484c-3.879-2.058-6.956-4.99-8.037-9.299c-0.575-2.292,1.328-2.537,3.415-2.34
	c5.005,0.47,7.713,3.931,9.237,7.861C247.746,240.567,244.328,241.31,242.409,242.484z"/>
<path fill="#060606" d="M187.695,267.643c2.82-3.379-12.129-8.46,0-15.06C187.695,258.884,187.695,264.293,187.695,267.643z"/>
<path fill="#060606" d="M172.218,236.543c-5.185,7.032-11.491,0.652-17.218,1.278c-0.334,0.036-1.428-2.038-1.173-2.375
	c0.757-0.999,2.013-1.62,3.074-2.389C160.951,238.899,167.417,234.003,172.218,236.543z"/>
<path fill="#060606" d="M444.478,275.064c-2.563-2.943-9.686-2.579-6.899-9.336c0.5-1.213,2.43-3.095,2.811-2.903
	c3.729,1.876,4.881,5.566,5.796,9.324C445.617,273.121,445.047,274.092,444.478,275.064z"/>
<path fill="#060606" d="M214.486,228.198c5.331,4.707,0.237,10.882,2.261,16.055c-0.838,0.493-1.675,0.986-2.513,1.479
	c-5.843-4.65,1.12-11.131-2.305-16.127C212.782,229.136,213.634,228.667,214.486,228.198z"/>
<path fill="#060606" d="M421.033,252.842c3.437,1.235,9.209,1.864,5.412,5.136c-3.084,2.657-0.546,6.195-4.376,8.034
	C421.722,261.595,421.403,257.543,421.033,252.842z"/>
<path fill="#060606" d="M425.484,231.228c2.97,3.511,5.683,6.995-0.988,9.504c-0.544-0.807-1.088-1.615-1.632-2.422
	c0.29-1.428,0.579-2.855,0.869-4.283C424.317,233.094,424.901,232.161,425.484,231.228z"/>
<path fill="#060606" d="M423.734,234.027c-2.267-2.138-4.534-4.276-7.856-7.409c5.508-0.749,8.567-0.099,9.607,4.61
	C424.901,232.161,424.317,233.094,423.734,234.027z"/>
<path fill="#060606" d="M229.961,223.928c3.282,1.353,5.277,3.506,4.972,8.404C230.65,230.284,230.845,226.771,229.961,223.928z"/>
<path fill="#060606" d="M241.492,222.445c-1.909,0.822-0.043,5.065-2.725,4.036c-1.377-0.528-1.805-4.401,1.255-5.895
	C240.512,221.206,241.002,221.826,241.492,222.445z"/>
<path fill="#060606" d="M191.884,170.819c0.759,1.151,1.404,1.867,1.745,2.705c0.627,1.54-1.039,1.269-1.634,1.856
	c-0.581-0.676-1.554-1.312-1.629-2.04C190.297,172.667,191.191,171.895,191.884,170.819z"/>
<path fill="#060606" d="M446.186,272.149c1.875,0.914,2.209,2.696,1.152,4.001c-0.982,1.212-2.241,0.239-2.86-1.086
	C445.047,274.092,445.617,273.121,446.186,272.149z"/>
<path fill="#060606" d="M227.055,296.627c-1.872-1.091-3.931-2.111-1.812-4.731l-0.198,0.272c1.133,0.848,2.267,1.696,3.4,2.543
	C227.982,295.35,227.518,295.989,227.055,296.627z"/>
<path fill="#060606" d="M173.941,263.374c1.539-0.565,3.078-1.129,4.617-1.694c0.118,0.536,0.523,1.335,0.31,1.567
	c-1.555,1.697-3.242,2.385-4.919,0.089L173.941,263.374z"/>
<path fill="#060606" d="M181.093,238.796c-2.129-1.438-1.655-2.482,0.494-3.275C181.423,236.613,181.258,237.704,181.093,238.796z"
	/>
<path fill="#060606" d="M226.171,215.27c-0.836-0.006-1.672-0.012-2.507-0.018c0.454-0.343,0.908-0.687,1.362-1.03
	C225.421,214.556,225.803,214.906,226.171,215.27z"/>
<path fill="#060606" d="M225.243,291.896c-0.9,0.794-1.601,0.607-1.993-0.49c-0.087-0.244,0.181-0.614,0.286-0.926
	c0.503,0.563,1.005,1.126,1.509,1.689C225.045,292.168,225.243,291.896,225.243,291.896z"/>
<path fill="#060606" d="M173.949,263.337c0.573,0.394,1.145,0.789,1.718,1.183c-0.81,0.903-1.075,0.746-0.952-0.486
	c0.019-0.193-0.502-0.439-0.774-0.66C173.941,263.374,173.949,263.337,173.949,263.337z"/>
<path fill="#FAFAFA" d="M303.315,493.293c-5.392-12.304-10.448-24.692-8.848-40.349c-8.244,4.638-15.89,7.601-21.796,12.614
	c-6.796,5.768-13.062,4.756-19.595,1.397c-7.183-3.692-4.356-10.152-3.582-16.19c9.48,8.95,14.32,7.244,25.317-1.208
	c11.632-8.94,11.495-21.446,15.679-33.13c-9.396-1.765-8.65,13.913-19.01,8.708c6.17-10.886,12.141-22.201,22.222-30.817
	c4.308,8.029,2.455,17.251,4.495,25.825c1.751,7.359,5.712,3.97,9.33,4.372c3.382,0.376,2.938-7.85,4.65-3.87
	c1.949,4.531,8.505,6.077,7.398,11.234c-2.416,11.248,5.868,17.396,12.614,21.416c5.284,3.148,13.65,12.883,20.705,0.874
	c4.207,3.823-0.335,6.229-0.285,9.109c-0.004-0.001-0.24,0.422-0.24,0.422c-16,6.804-28.762,2.783-38.516-14.818
	c-0.99,16.457-11.743,27.84-6.811,42.181c0.792,2.303-2.382,1.716-3.932,2.06L303.315,493.293z"/>
<path fill="#060606" d="M303.113,493.125c1.55-0.344,4.724,0.243,3.932-2.06c-4.933-14.341,5.821-25.724,6.811-42.181
	c9.754,17.6,22.516,21.621,38.516,14.818c-5.086,8.99-18.594,10.742-28.707,3.739c-1.963-1.359-2.967-4.135-6.958-4.03
	c-1.263,13.184-3.855,26.279-9.373,38.585C303.858,500.022,300.943,497.783,303.113,493.125z"/>
<path fill="#060606" d="M395.717,375.764c5.134,7.417,10.268,14.834,15.402,22.25c0,0-0.079,0.104-0.079,0.104
	c-7.006,4.099-11.504,2.041-15.181-5.078c-2.685-5.199,3.113-2.572,3.705-5.821c-3.524,0-6.879,0-10.233,0
	c0,0,0.16,0.187,0.16,0.187c2.671-4.22-3.384-6.116-2.228-10.335C389.768,376.684,392.743,376.224,395.717,375.764z"/>
<path fill="#FAFAFA" d="M395.717,375.764c-2.975,0.46-5.949,0.92-8.454,1.308c-1.156,4.219,4.899,6.115,2.228,10.335
	c-5.193-3.853-6.283-10.263-9.752-15.76c4.534,3.345,9.341,2.941,14.159,2.455C394.504,374.656,395.111,375.21,395.717,375.764z"/>
<path fill="#060606" d="M408.284,351.322c0.63,0.985,3.064,1.477,1.513,2.998c-1.1,1.079-2.643,0.198-3.237-1.437
	C407.135,352.362,407.709,351.842,408.284,351.322z"/>
<path fill="#FAFAFA" d="M220.83,387.339c0.304,6.178-4.238,10.385-6.274,15.606c-1.081,2.772-4.27,5.552-1.364,8.817
	c2.2,2.472,5.4,1.651,8.123,1.216c2.058-0.328,4.312-3.909,5.603,0.526c0.425,1.46-0.014,3.798-0.993,4.911
	c-2.077,2.361-3.268-0.199-5.039-1.279c-7.422-4.524-12.767,1.684-18.663,4.331c-2.617-3.008,1.244-5.285,1.217-5.408
	c-12.727-6.682-25.458-3.177-38.452-5.353c2.276-3.381,7.334-4.302,5.824-9.048c-0.398-0.189-0.692-0.486-0.867-0.893
	c1.437,1.615,2.873,1.615,4.309-0.001c0,0-0.48-0.144-0.478-0.144c5.591,9.695,15.53,5.47,23.577,7.039
	c1.457,0.284,2.301-3.186,1.648-5.452c0.38-0.459,0.542-0.986,0.486-1.579c7.395,0.833,13.674,0.205,15.165-9.188
	c0.311-1.962,3.121-3.527,4.779-5.276C219.89,386.565,220.356,386.957,220.83,387.339z"/>
<path fill="#FAFAFA" d="M200.063,435.901c-6.18,0.892-0.902,6.963-4.185,9.144c-8.112-8.429-7.931-10.843,1.432-17.105
	c1.761,1.934-2.812,6.907,3.136,6.804c0.005,0.005,0.475-0.371,0.475-0.371s-0.145-0.584-0.145-0.583
	c-1.095,0.951-1.112,1.92-0.049,2.907C200.723,436.251,200.501,435.986,200.063,435.901z"/>
<path fill="#060606" d="M199.001,402.208c0.653,2.266-0.191,5.736-1.648,5.452c-8.047-1.568-17.986,2.657-23.577-7.039
	C182.193,400.987,190.405,404.644,199.001,402.208z"/>
<path fill="#060606" d="M174.254,400.765c-1.436,1.616-2.872,1.616-4.309,0.001C171.38,398.189,172.816,398.185,174.254,400.765z"/>
<path fill="#060606" d="M200.728,436.697c-1.063-0.987-1.047-1.956,0.049-2.907c0.682,0.607,1.365,1.214,2.047,1.822
	C202.126,435.974,201.427,436.336,200.728,436.697z"/>
<path fill="#FAFAFA" d="M267.973,140.994c6.569-2.313,13.122-4.436,18.751,2.578c2.6-5.171-6.139-8.68,0.06-13.14
	c2.252,4.198,4.555,8.491,7.441,13.87c3.425-4.571,2.054-7.998,0.649-12.448c4.109,1.389,7.599,2.764,11.198,3.728
	c3.272,0.876,6.299,1.868,9.823-0.764c8.882-6.635,9.656-4.351,13.808,5.318c6.228,14.503,0.49,28.281,1.528,42.277
	c0.283,3.813-1.485,6.085-4.167,6.32c-10.02,0.879-20.102,1.341-30.159,1.308c-2.656-0.009-2.935-2.878-0.684-4.646
	c7.996-6.281,10.117-15.579,5.243-22.899c-6.491-9.748-14.924-19.634-28.766-19.054c-2.995,0.126-3.374-1.176-4.521-2.647
	C268.171,140.8,267.973,140.994,267.973,140.994z"/>
<path fill="#FAFAFA" d="M266.762,326.148c2.636-4.116,5.38-8.185,6.018-13.684c-5.71-0.024-10.952,3.609-17.58,0.718
	c15.405-5.321,5.123-10.434,0.634-15.71c-0.009-0.001,0.361-0.278,0.361-0.278c2.784,1.408,4.617-0.888,6.652-1.9
	c5.594-2.783,9.233-1.247,11.47,4.446c0.892,2.271,1.623,4.791,3.14,6.598c7.332,8.734,12.253,17.724,4.918,28.891l-0.077,0.051
	c-7.749,4.042-12.071,11.58-13.509,19.051c-1.979,10.285-10.444,2.201-14.404,6.475c-0.64,0.691-3.29-6.298-5.519-9.377
	c-2.09-2.887,5.391-2.82,1.596-5.058c-3.72-2.193-6.134,0.626-7.631,4.054c-0.253,0.58-0.845,1.013-1.727,2.028
	c-2.556-5.279-10.577-10.067,1.179-14.064c2.234-0.76,5.349-4.016-0.564-5.321c-2.093-0.462-6.113,0.945-5.532-2.974
	c0.54-3.64,1.579-9.243,5.581-9.362c6.822-0.204,12.008-8.589,19.758-3.48c1.289,0.85,4.065-0.557,5.883-0.874
	c3.265,3.716-5.99,6.02-0.658,9.794c-0.275-0.592-0.55-1.184-0.825-1.775c-0.26,0.209-0.52,0.418-0.78,0.627
	C265.685,325.398,266.224,325.773,266.762,326.148z"/>
<path fill="#FAFAFA" d="M302.613,413.544c0-6.671,0-11.623,0-17.992c-3.44,5.821-0.488,11.021-3.358,17.378
	c-1.584-9.737,2.32-20.016-5.294-25.353c-4.882-3.422-4.785-6.688-4.654-10.966c0.111-3.618,0.766-7.859,5.127-7.944
	c4.588-0.09-0.29,5.895,4.304,7.459c0-4.192,0-8.13,0-12.069c3.728,4.288,11.948,4.033,10.652,11.793
	c-0.114,0.68,0.683,1.512,1.056,2.274c0.471-0.876,0.733-2.015,1.448-2.583c3.859-3.069,6.367,1.275,9.515,2.036
	c3.507,0.848,4.45,4.88,2.762,6.86c-3.121,3.659-0.599,7.107,0.65,8.83c4.945,6.825,0.692,16.216,7.494,22.603
	c5.131,4.818,9.852,8.404,16.728,4.725c4.116-2.202,6.447,1.821,5.304,2.803c-4.434,3.812-2.77,12.283-10.009,13.272
	c-4.903,0.67-9.038,0.929-11.288-6.224c-2.231-7.092-11.206-9.421-16.343-14.864c-1.158-1.227-4.069-1.683-4.255-2.81
	C310.39,400.237,306.961,408.949,302.613,413.544z"/>
<path fill="#FAFAFA" d="M288.575,247.141c-3.301-0.239-4.682-0.253-6.036-0.453c-3.562-0.528-10.9,0.447-8.989-3.791
	c2.362-5.242,1.006-14.422,9.86-15.46c2.412-0.283,6.97-2.353,7.271,3.16c0.21,3.847-0.376,7.378-5.475,7.433
	c-1.697,0.018-3.395,0.003-5.73,0.73c11.867,1.271,14.137,6.406,8.143,15.94c-1.493,2.375,4.234,2.645,3.168,5.905
	c-2.423,2.237-5.487,1.398-8.117,1.113c-5.772-0.626-11.212,0.481-10.264,7.018c0.595,4.107,3.921,9.013,10.143,9.292
	c6.582,0.295,11.982,7.875,8.166,12.553c-2.758,3.382-1.293,2.668,0.292,4.941c1.828,2.621,2.829,7.517-1.142,9.373
	c-2.854,1.334-7.807,1.608-9.549-2.181c-6.432-13.994-13.937-27.749-14.082-43.757c-0.047-5.152,1.633-8.233,7.954-9.25
	C278.301,249.046,282.731,250.282,288.575,247.141z"/>
<path fill="#FAFAFA" d="M313.347,238.903c-12.322-12.298,10.236-3.793,4.549-13.369c-0.939-1.157-6.451,9.426-8.503,0.419
	c-1.57-6.89,2.631-8.424,7.906-9.258c1.349-0.213,2.811-0.348,2.736-2.29l-0.37,0.361c9.946-1.222,15.616,1.954,12.609,13.004
	c-0.685,2.519,0.707,2.776,1.808,4.051c3.8,4.402,3.349,10.47,1.632,14.612c-3.27,7.888-5.154,18.087-18.74,15.86
	c-5.891-0.966-6.495-3.144-5.497-6.912c1.36-5.135-5.563-10.023-0.069-14.96c2.567,3.719,5.523,1.596,10.699,1.124
	C317.684,240.211,315.516,239.557,313.347,238.903z M316.708,253.885l-0.368,0.554l0.673,0.036L316.708,253.885z"/>
<path fill="#FAFAFA" d="M363.486,252.936c-1.505-5.499-1.554-5.545,1.832-9.111c3.631-3.824,8.563-6.599,9.89-12.317
	c-3.661-2.984-5.374,2.881-8.842,1.582c-1.469-6.355,0.18-13.402-2.896-19.736c-1.101-2.267-4.457-5.738-0.235-6.877
	c3.807-1.028,4.769,3.073,4.616,6.608c-0.043,1.001,0.42,2.025,0.877,4.031c4.955-4.459,10.142-6.377,17.726-0.62
	c-2.515-7.555-5.842-13.356,2.143-16.601c2.919,10.102-1.711,18.875-4.335,28.004c-0.748,2.603-5.027,4.766-1.494,8.176
	c0,0,0.285-0.245,0.285-0.245c-5.295-0.296-5.462,2.83-4.481,6.719l0.204-0.219c-5.658-1.441-5.773,4.687-8.989,6.582l0.251-0.216
	c-2.811,0.673-5.551,1.452-6.733,4.541L363.486,252.936z M379.004,224.401c-0.586-0.151-1.172-0.302-1.759-0.453
	c-0.626,1.554-1.253,3.108-1.879,4.662c0.854,0.205,1.709,0.409,2.563,0.614C378.288,227.616,378.646,226.008,379.004,224.401z"/>
<path fill="#FAFAFA" d="M396.083,227.029c-0.91,0.515-2.673,1.31-2.609,1.505c3.897,11.837-8.029,16.939-10.835,25.808
	c-1.949,6.16-7.032,9.143-11.896,9.174c-5.168,0.033-9.963-1.854-13.871,3.177c-1.256,1.616-2.884-0.159-3.501-0.906
	c-2.071-2.507,0.693-3.637,1.944-5.133c2.419-2.891,9.613-0.726,8.172-7.717c-0.002,0-0.183,0.301-0.183,0.302
	c4.389,1.667,6.853,0.478,6.733-4.541c0,0-0.251,0.216-0.252,0.217c5.476,1.193,7.941-1.728,8.989-6.583c0,0-0.204,0.219-0.204,0.22
	c3.268-1.056,5.178-3.019,4.482-6.72c0,0-0.286,0.245-0.285,0.245c7.285-5.43,7.586-14.108,10.148-22.603
	c6.823,3.929,5.564,8.766,2.799,13.929C395.714,227.401,396.083,227.029,396.083,227.029z"/>
<path fill="#FAFAFA" d="M389.331,387.22c3.355,0,6.709,0,10.233,0c-0.592,3.249-6.39,0.622-3.705,5.821
	c3.676,7.119,8.175,9.177,15.181,5.078c-2.122,12.714,6.57,8.703,12.538,7.719c6.713-1.107,13.68-7.277,19.006,2.212
	c-4.182,1.81-7.892,4.088-13.581,1.532c-3.937-1.769-10.499-3.293-13.699,3.602c-1.696,3.653-3.223-0.277-4.582-0.777
	c-6.82-2.507-3.004,2.501-3.366,4.537c-0.611,0.774-1.221,1.548-1.831,2.321c-1.673-1.274-3.22-3.388-5.042-3.659
	c-4.847-0.722-10.549,0.227-3.978-7.207c1.139-1.289-0.221-6.545-2.718-9.681C391.254,395.537,388.476,391.942,389.331,387.22z"/>
<path fill="#FAFAFA" d="M331.888,277.601c-2.896,7.51-6.167,14.519-8.26,21.863c-1.823,6.395-6.257,6.045-10.866,5.545
	c-6.158-0.668-2.139-5.428-3.054-8.249c-1.745-5.386,3.355-10.482,0.064-16.169c-1.278-2.207,2.278-2.925,4.368-2.959
	C319.841,277.54,325.545,277.601,331.888,277.601z"/>
<path fill="#FE0000" d="M282.376,335.229c6.37-3.266,7.84-0.212,6.661,5.445c-2.02,9.694-6.515,17.48-17.165,20.493
	c-0.168-8.201,5.251-13.516,8.82-19.615c1.184-2.024,4.078-3.383,1.606-6.27C282.299,335.28,282.376,335.229,282.376,335.229z"/>
<path fill="#FE0000" d="M323.79,336.089c3.898,4.965,7.859,9.883,11.667,14.916c2.022,2.673,3.022,5.895,1.387,8.931
	c-0.54,1.002-3.185,1.37-4.782,1.203c-3.956-0.412-6.516-3.068-7.29-6.765c-1.151-5.501-1.723-11.123-2.541-16.694
	C322.75,337.15,323.27,336.62,323.79,336.089z"/>
<path fill="#FAFAFA" d="M320.036,214.406c-2.514-0.054-5.028-0.17-7.541-0.146c-3.263,0.031-3.085-2.291-3.026-4.411
	c0.055-1.997-0.581-5.096,2.566-4.781c6.961,0.697,15.054-2.239,20.547,5.193c-3.598,4.67-10.509-2.164-12.908,4.497
	C319.665,214.766,320.036,214.406,320.036,214.406z"/>
<path fill="#FAFAFA" d="M309.432,336.923c0-7.892,0.008-15.516-0.005-23.139c-0.004-2.55-0.208-5.214,3.587-5.016
	c1.694,0.089,4.028-0.417,4.941,0.487c1.81,1.795,0.239,4.204-1.059,5.569c-3.602,3.788-3.393,8.189-3.261,12.871
	C313.725,330.926,315.301,335.117,309.432,336.923z"/>
<path fill="#FAFAFA" d="M338.272,212.558c4.978,2.61,7.719,7.22,9.585,12.115c1.506,3.951-1.971,4.844-4.906,4.918
	c-9.088,0.227-3.268-8.491-6.874-11.887C334.09,215.834,336.846,214.043,338.272,212.558z"/>
<path fill="#FAFAFA" d="M417.359,443.176c-8.169-3.274-4.823-10.354-5.865-16.281c11.277,2.66,7.76,9.773,5.745,16.402
	C417.239,443.296,417.359,443.176,417.359,443.176z"/>
<path fill="#FE0000" d="M250.327,297.846c-1.2,2.49-2.4,4.981-3.828,7.945c3.713,0.275,7.076-1.852,10.482,0.404
	c-4.26,4.833-10.471,4.512-16.861,6.901c2.368-6.532,4.707-12.033,8.608-16.813C249.261,296.804,249.794,297.325,250.327,297.846z"
	/>
<path fill="#FAFAFA" d="M280.727,218.853c1.204,1.463,2.242,0.738,3.536-0.034c1.927-1.149,1.423-5.65,5.121-4.049
	c2.462,1.066,1.561,3.713,1.458,5.709c-0.123,2.389-1.579,3.772-4.045,4.201c-5.017,0.874-3.437-2.932-4.004-5.321
	c-0.078-0.33-1.173-0.419-1.813-0.607C280.964,218.765,280.727,218.853,280.727,218.853z"/>
<path fill="#FAFAFA" d="M250.376,419.376c1.615,4.707-0.709,9.914,2.656,14.414c-5.865,2.93-6.974-2.282-7.905-5.092
	C243.747,424.532,244.624,420.328,250.376,419.376z"/>
<path fill="#FAFAFA" d="M184.559,423.527c-3.601,5.642-8.671,9.678-12.498,6.179c-5.225-4.778,0.243-5.605,4.381-5.678
	C178.801,423.986,181.156,423.745,184.559,423.527z"/>
<path fill="#FE0000" d="M360.654,293.978c-5.096,0.438-9.385-0.168-12.882-4.979C354.133,287.409,357.064,291.979,360.654,293.978z"
	/>
<path fill="#FE0000" d="M248.728,296.284c2.159-2.021,4.336-4.191,7.605-3.257c0.32,0.091-0.085,2.718-0.145,4.168
	c0.008,0-0.361,0.277-0.352,0.278c-1.944-1.541-3.756-0.976-5.512,0.372C249.794,297.325,249.261,296.804,248.728,296.284z"/>
<path fill="#FAFAFA" d="M358.378,284.226c1.405,0.423,3.212,1.584,2.382,2.678c-1.293,1.702-3.093,1.073-3.864-1.151
	C357.362,285.216,357.856,284.707,358.378,284.226z"/>
<path fill="#FE0000" d="M322.231,337.68c-1.766-0.791-2.391-1.964-1.25-3.729c0.936,0.716,1.871,1.432,2.808,2.143
	C323.27,336.62,322.75,337.15,322.231,337.68z"/>
<path fill="#FAFAFA" d="M219.431,386.164c0.925-0.909,1.85-1.818,2.775-2.727c1.138,1.863,0.911,3.245-1.375,3.902
	C220.356,386.957,219.89,386.565,219.431,386.164z"/>
<path fill="#FAFAFA" d="M407.356,416.945c1.834,1.14,1.727,2.756,1.102,4.499c-0.978-0.726-1.956-1.451-2.934-2.177
	C406.135,418.492,406.745,417.718,407.356,416.945z"/>
<path fill="#FE0000" d="M330.881,441.482c-1.766-0.79-2.391-1.964-1.251-3.729c0.936,0.716,1.871,1.431,2.808,2.142
	C331.92,440.421,331.4,440.952,330.881,441.482z"/>
<path fill="#FE0000" d="M270.353,441.174c0.79-1.766,1.963-2.391,3.728-1.251c-0.716,0.936-1.431,1.871-2.142,2.808
	C271.413,442.213,270.883,441.694,270.353,441.174z"/>
<path fill="#FAFAFA" d="M175.896,174.793c0.612,0.587,1.223,1.175,1.835,1.762c-1.21,1.186-2.257,0.714-3.248-0.32
	C174.952,175.752,175.423,175.272,175.896,174.793z"/>
<path fill="#FAFAFA" d="M315.121,119.171c-5.505-1.314-11.766-2.8-18.31-2.309c-2.225,0.167-4.528-0.93-4.11-3.599
	c0.382-2.441,3.917-3.613,4.96-3.116c9.282,4.419,9.997-0.995,9.596-7.906c-0.161-2.775,1.1-4.853,3.11-6.447
	c0.288-0.228,1.956,0.78,2.56,1.55c1.735,2.213-0.168,3.72-1.101,5.634c-3.782,7.761-3.663,7.824,4.774,8.527
	c2.576,0.214,5.34,0.774,5.495,3.765C322.317,119.617,318.707,118.948,315.121,119.171z"/>
<path fill="#FAFAFA" d="M438.149,178.156c0.88-0.008,1.76-0.016,2.64-0.024c-0.502,0.546-1.004,1.093-1.507,1.639
	C438.812,179.298,438.434,178.759,438.149,178.156z"/>
<path fill="#060606" d="M266.762,326.148c-0.539-0.375-1.077-0.75-1.616-1.125c0.26-0.209,0.52-0.418,0.78-0.627
	c0.275,0.591,0.55,1.183,0.825,1.775C266.752,326.173,266.762,326.148,266.762,326.148z"/>
<path fill="#060606" d="M313.347,238.903c2.169,0.654,4.337,1.308,8.761,2.642c-5.176,0.472-8.132,2.595-10.699-1.124
	C312.055,239.915,312.701,239.409,313.347,238.903z"/>
<polygon fill="#060606" points="316.708,253.885 317.014,254.475 316.34,254.439 "/>
<path fill="#060606" d="M378.775,242.331c-1.048,4.855-3.512,7.775-8.989,6.583C373.002,247.018,373.117,240.889,378.775,242.331z"
	/>
<path fill="#060606" d="M383.053,235.831c0.696,3.701-1.213,5.664-4.482,6.72C377.591,238.66,377.758,235.535,383.053,235.831z"/>
<path fill="#060606" d="M370.038,248.697c0.119,5.019-2.344,6.208-6.733,4.541C364.487,250.148,367.226,249.369,370.038,248.697z"/>
<path fill="#060606" d="M379.004,224.401c-0.358,1.607-0.716,3.215-1.075,4.822c-0.854-0.205-1.709-0.409-2.563-0.614
	c0.626-1.554,1.253-3.108,1.879-4.662C377.832,224.098,378.418,224.249,379.004,224.401z"/>
</svg>
