<?xml version="1.0" encoding="utf-8"?>
<!-- Generator: Adobe Illustrator 17.0.0, SVG Export Plug-In . SVG Version: 6.00 Build 0)  -->
<!DOCTYPE svg PUBLIC "-//W3C//DTD SVG 1.1//EN" "http://www.w3.org/Graphics/SVG/1.1/DTD/svg11.dtd">
<svg version="1.1" id="Warstwa_1" xmlns="http://www.w3.org/2000/svg" xmlns:xlink="http://www.w3.org/1999/xlink" x="0px" y="0px"
	 width="631.464px" height="515.165px" viewBox="0 0 631.464 515.165" enable-background="new 0 0 631.464 515.165"
	 xml:space="preserve">
<path fill="#EC1D27" d="M497.083,322.183c0.057,30.309,0.123,60.618,0.168,90.927c0.021,14.323-0.165,28.65,0.107,42.968
	c0.081,4.257-1.268,5.18-5.315,5.173c-75.114-0.117-150.228-0.086-225.343-0.086c-47.3,0-94.601-0.007-141.901,0.016
	c-2.917,0.001-5.294,0.414-5.275-4.132c0.18-44.468,0.117-88.937,0.13-133.406c0-0.496,0.094-0.993,0.145-1.489
	c1.331-0.031,2.663-0.088,3.995-0.088c123.099-0.004,246.199-0.004,369.298,0.001C494.421,322.067,495.752,322.143,497.083,322.183z
	"/>
<path fill="#FEFEFE" d="M497.083,322.183c-1.331-0.04-2.661-0.115-3.992-0.115c-123.099-0.005-246.199-0.005-369.298-0.001
	c-1.332,0-2.663,0.057-3.995,0.088c-0.033-25.32,0.008-50.641-0.185-75.959c-0.026-3.443,2.101-4.563,4.282-6.022
	c57.827-38.685,115.654-77.368,173.481-116.054c16.326-10.922,32.696-21.779,48.925-32.844c2.835-1.933,4.422-1.948,7.012,0.558
	c43.938,42.504,87.754,85.14,132.237,127.068c8.764,8.26,12.397,16.315,11.912,28.333
	C496.457,272.181,497.111,297.196,497.083,322.183z M269.667,243.028c-0.049,9.996,0.02,19.995-0.217,29.986
	c-0.076,3.213,1.132,3.857,4.057,3.851c42.161-0.077,84.322-0.086,126.483,0.009c3.31,0.007,4.286-1.05,4.247-4.294
	c-0.168-13.828-0.109-27.659-0.133-41.489c-0.017-10.481-0.035-20.962-0.052-31.443c0.045-14.479,0.037-28.96,0.174-43.438
	c0.031-3.304-1.865-3.301-4.228-3.174c-12.805,0.69-25.615,1.281-38.417,2.008c-29.594,1.68-59.183,3.447-88.779,5.08
	c-2.575,0.142-3.397,0.963-3.367,3.548c0.162,14.153,0.162,28.307,0.218,42.46C269.658,218.431,269.662,230.729,269.667,243.028z"/>
<path fill="#231F21" d="M597.016,292c-5.96-0.28-11.167-1.994-15.723-6.335c-38.946-37.108-78.032-74.07-117.064-111.089
	c-19.335-18.338-38.67-36.675-57.957-55.062c-15.794-15.056-31.567-30.134-47.235-45.32c-3.742-3.626-7.081-3.89-11.477-0.994
	c-54.503,35.907-109.038,71.766-163.656,107.498c-48.066,31.446-96.228,62.743-144.39,94.043
	c-9.273,6.027-19.608,4.126-26.614-4.507c-5.934-7.311-10.917-15.062-12.593-24.583c-1.102-6.263,0.716-10.819,6.241-14.37
	c72.688-46.713,145.317-93.516,217.944-140.324c44.642-28.772,89.254-57.592,133.883-86.385c1.538-0.992,3.114-1.926,4.671-2.889
	c4.275-2.645,8.179-2.148,11.803,1.304c5.306,5.054,10.743,9.974,15.964,15.114c35.141,34.604,70.308,69.181,105.333,103.902
	c39.167,38.828,78.221,77.77,117.243,116.744c5.054,5.048,9.885,10.372,14.341,15.951c4.895,6.129,4.807,9.376,0.748,15.902
	c-5.635,9.06-13.836,15.183-23.174,19.919C602.76,291.81,599.938,292.321,597.016,292z"/>
<path fill="#231F21" d="M305.102,515.15c-82.65,0-165.301,0.001-247.951-0.001c-9.035,0-11.441-2.435-10.54-11.344
	c3.495-34.581,6.374-69.201,8.069-103.927c1.33-27.244,3.111-54.469,4.991-81.682c0.834-12.072,1.586-24.144,5.492-35.862
	c5.328-15.986,19.756-18.514,33.307-15.311c5.375,1.271,6.99,4.548,6.991,11.134c0.003,63.321-0.009,126.642,0.015,189.962
	c0.003,7.786-0.913,6.813,7.009,6.814c130.807,0.019,261.615,0.014,392.422,0.013c6.449,0,6.46-0.003,6.462-6.416
	c0.021-64.154,0.037-128.308,0.058-192.462c0.001-2.166-0.056-4.338,0.081-6.497c0.314-4.931,2.863-8.522,7.243-10.565
	c10.076-4.698,24.093-0.595,30.15,8.633c4.038,6.151,5.931,13.113,6.427,20.251c1.278,18.42,2.101,36.872,3.052,55.313
	c1.655,32.067,3.294,64.135,4.892,96.205c0.787,15.789,1.454,31.585,2.199,47.376c0.282,5.982,0.739,11.958,0.916,17.943
	c0.199,6.715-2.155,9.419-8.843,10.229c-2.468,0.299-4.992,0.185-7.49,0.185C468.403,515.152,386.752,515.15,305.102,515.15z"/>
<path fill="#231F21" d="M269.653,206.132c-0.056-14.154-0.057-28.308-0.218-42.461c-0.03-2.584,0.793-3.406,3.367-3.548
	c29.596-1.633,59.185-3.4,88.779-5.08c12.803-0.727,25.613-1.318,38.417-2.008c2.364-0.127,4.259-0.13,4.228,3.174
	c-0.137,14.479-0.13,28.959-0.175,43.44c-19.915,0.932-39.837,1.737-59.743,2.825C319.43,203.834,294.573,205.61,269.653,206.132z"
	/>
<path fill="#F9C609" d="M404.104,231.091c0.024,13.83-0.035,27.661,0.133,41.489c0.039,3.245-0.937,4.302-4.247,4.294
	c-42.161-0.095-84.322-0.087-126.483-0.009c-2.925,0.005-4.133-0.638-4.057-3.851c0.237-9.991,0.168-19.99,0.217-29.986
	c13.575-1.094,27.156-2.115,40.722-3.3c21.005-1.836,42.003-3.767,63-5.694C383.632,233.094,393.866,232.075,404.104,231.091z"/>
<path fill="#EC1D27" d="M404.104,231.091c-10.238,0.983-20.472,2.003-30.714,2.943c-20.998,1.926-41.995,3.858-63,5.694
	c-13.567,1.186-27.148,2.206-40.722,3.3c-0.005-12.299-0.01-24.597-0.014-36.896c24.92-0.522,49.777-2.298,74.656-3.658
	c19.906-1.088,39.828-1.892,59.743-2.825C404.069,210.129,404.087,220.61,404.104,231.091z"/>
</svg>
