<?xml version="1.0" encoding="utf-8"?>
<!-- Generator: Adobe Illustrator 17.0.0, SVG Export Plug-In . SVG Version: 6.00 Build 0)  -->
<!DOCTYPE svg PUBLIC "-//W3C//DTD SVG 1.1//EN" "http://www.w3.org/Graphics/SVG/1.1/DTD/svg11.dtd">
<svg version="1.1" id="Warstwa_1" xmlns="http://www.w3.org/2000/svg" xmlns:xlink="http://www.w3.org/1999/xlink" x="0px" y="0px"
	 width="850.394px" height="478.374px" viewBox="854.896 480.906 850.394 478.374"
	 enable-background="new 854.896 480.906 850.394 478.374" xml:space="preserve">
<g>
	<path fill="#005CA8" d="M1280.093,959.249c-141.224,0-282.447-0.002-423.671,0.031c-1.245,0-1.526-0.28-1.526-1.526
		c0.033-158.441,0.033-316.881,0-475.322c0-1.245,0.28-1.526,1.526-1.526c282.447,0.032,564.895,0.032,847.342,0
		c1.245,0,1.526,0.28,1.526,1.526c-0.033,158.441-0.033,316.882,0,475.322c0,1.245-0.28,1.526-1.526,1.526
		C1562.54,959.247,1421.317,959.249,1280.093,959.249z"/>
	<path fill="#FEFEFE" d="M1021.695,731.581c0-0.585,0-1.17,0-1.755c0-17.714,0.021-35.429-0.038-53.143
		c-0.005-1.476,0.359-1.831,1.812-1.801c4.814,0.1,9.632,0.073,14.447,0.011c1.115-0.014,1.359,0.338,1.359,1.397
		c-0.028,27.402-0.029,54.804,0.003,82.206c0.001,1.134-0.243,1.502-1.441,1.487c-5.258-0.069-10.518-0.064-15.776-0.002
		c-1.127,0.013-1.764-0.335-2.359-1.296c-11.058-17.863-22.152-35.704-33.239-53.549c-0.376-0.605-0.761-1.203-1.215-1.921
		c-0.49,0.621-0.306,1.229-0.306,1.771c-0.012,17.659-0.039,35.318,0.036,52.977c0.007,1.737-0.489,2.068-2.101,2.029
		c-4.647-0.112-9.3-0.093-13.948-0.005c-1.29,0.024-1.527-0.374-1.526-1.577c0.035-27.291,0.035-54.583-0.001-81.874
		c-0.002-1.272,0.287-1.671,1.619-1.65c5.202,0.083,10.407,0.076,15.61,0c1.118-0.016,1.649,0.408,2.197,1.29
		c11.161,17.995,22.351,35.97,33.537,53.949c0.32,0.515,0.656,1.019,0.985,1.529C1021.465,731.63,1021.58,731.605,1021.695,731.581z
		"/>
	<path fill="#FEFEFE" d="M1175.85,739.838c1.199-4.411,2.4-8.822,3.598-13.233c2.432-8.952,4.883-17.898,7.268-26.863
		c0.28-1.051,0.697-1.407,1.785-1.394c4.814,0.057,9.629,0.045,14.444,0.009c1.097-0.008,1.592,0.048,1.156,1.424
		c-6.25,19.678-12.449,39.372-18.627,59.073c-0.264,0.842-0.615,1.123-1.485,1.117c-5.036-0.038-10.073-0.075-15.107,0.02
		c-1.311,0.025-1.382-0.75-1.605-1.589c-3.352-12.65-6.703-25.3-10.056-37.95c-0.141-0.531-0.293-1.059-0.498-1.796
		c-0.823,1.658-1.036,3.295-1.435,4.859c-2.951,11.557-5.883,23.119-8.745,34.698c-0.341,1.378-0.883,1.805-2.301,1.776
		c-4.757-0.098-9.518-0.065-14.277-0.015c-1.023,0.011-1.541-0.206-1.881-1.285c-6.19-19.639-12.423-39.265-18.676-58.884
		c-0.368-1.154-0.197-1.48,1.081-1.462c4.98,0.07,9.962,0.077,14.941-0.006c1.209-0.02,1.589,0.433,1.874,1.495
		c3.474,12.96,6.988,25.908,10.504,38.857c0.108,0.397,0.057,0.89,0.636,1.287c1.282-5.218,2.543-10.325,3.792-15.436
		c2.02-8.261,4.046-16.521,6.033-24.789c0.243-1.009,0.63-1.429,1.758-1.41c4.537,0.074,9.076,0.081,13.613-0.003
		c1.203-0.022,1.593,0.414,1.862,1.495c3.27,13.128,6.583,26.245,9.885,39.365c0.053,0.212,0.109,0.424,0.163,0.635
		C1175.651,739.835,1175.75,739.836,1175.85,739.838z"/>
	<path fill="#FEFEFE" d="M1609.264,708.851c-2.291-0.395-4.571-1.026-6.917-0.748c-2.37,0.28-4.792,0.409-6.831,1.952
		c-2.121,1.606-3.031,3.867-3.475,6.339c-0.144,0.801-0.378,0.983-1.115,0.979c-4.925-0.024-9.85-0.048-14.775,0.011
		c-1.307,0.016-1.089-0.7-0.991-1.487c0.961-7.695,5.06-13.034,12.125-16.137c4.996-2.194,10.271-2.948,15.681-3.011
		c5.609-0.065,11.176,0.24,16.533,2.098c5.732,1.987,9.972,5.465,11.19,11.738c0.293,1.508,0.348,3.08,0.355,4.623
		c0.051,11.233,0.038,22.466,0.097,33.698c0.02,3.711,0.41,7.384,1.943,11.046c-4.596,0-9.051,0-13.506,0
		c-3.736,0-3.737,0-4.46-3.736c-0.114-0.592-0.207-1.188-0.312-1.78c-0.245-0.088-0.413,0.039-0.587,0.186
		c-8.713,7.405-18.725,8.609-29.286,5.504c-8.138-2.393-12.434-9.703-11.78-18.419c0.327-4.358,1.761-8.193,4.786-11.352
		c1.495-1.561,3.385-2.585,5.414-3.332c0.484-1.142,1.574-0.698,2.409-0.922c3.576-0.959,7.241-1.452,10.882-2.071
		c0.548-0.285,1.191,0.058,1.734-0.26c2.445-0.082,4.869-0.317,7.23-1.003c0.471-0.575,1.061-0.507,1.675-0.311
		c1.325-0.167,2.543-0.615,3.639-1.382c0.926-0.839,1.802-1.729,2.654-2.643c0.122-0.412,0.243-0.823,0.364-1.235
		c0.231-0.642,0.184-1.283-0.004-1.925c0.03-2.312-1.069-4.046-2.793-5.461C1610.377,709.769,1609.716,709.514,1609.264,708.851z"/>
	<path fill="#FEFEFE" d="M1426.855,733.305c-6.916,0-13.833,0.026-20.748-0.025c-1.18-0.009-1.612,0.291-1.347,1.482
		c0.179,0.807,0.202,1.648,0.359,2.46c1.055,5.464,3.775,9.62,9.454,10.991c6.222,1.502,11.983,0.612,16.695-4.178
		c0.27-0.274,0.6-0.569,0.703-0.914c0.69-2.321,2.435-2.333,4.408-2.265c3.371,0.116,6.75,0.077,10.124,0.009
		c1.283-0.026,1.464,0.291,1.038,1.492c-4.2,11.832-13.204,18.594-25.787,19.207c-8.546,0.417-16.519-1.248-23.275-6.878
		c-6.183-5.152-9.294-11.986-10.347-19.798c-1.164-8.641,0.023-16.924,4.86-24.348c6.227-9.556,15.329-13.893,26.573-13.78
		c15.256,0.153,26.348,10.054,28.935,25.588c0.52,3.122,0.702,6.255,0.699,9.416c-0.001,1.236-0.352,1.581-1.595,1.57
		C1440.687,733.273,1433.771,733.305,1426.855,733.305z"/>
	<path fill="#FEFEFE" d="M1077.829,696.845c5.098-0.156,10.03,0.692,14.681,2.822c8.582,3.932,13.791,10.697,16.049,19.736
		c1.791,7.171,1.65,14.37-0.527,21.467c-3.484,11.357-13.099,19.158-24.924,20.431c-5.345,0.575-10.623,0.427-15.782-1.112
		c-9.571-2.856-16.121-9.025-19.33-18.481c-2.824-8.32-2.779-16.771,0.011-25.1c3.857-11.518,14.045-19.077,26.339-19.754
		C1075.503,696.79,1076.667,696.845,1077.829,696.845z"/>
	<path fill="#FEFEFE" d="M1235.692,696.842c6.786-0.11,13.163,1.374,18.864,5.201c5.492,3.688,9.161,8.795,11.118,15.053
		c2.563,8.199,2.655,16.486-0.183,24.627c-4.045,11.607-12.578,17.798-24.527,19.535c-5.773,0.839-11.515,0.472-17.043-1.445
		c-11.195-3.881-17.428-12.018-19.526-23.473c-1.164-6.355-0.827-12.688,1.092-18.872c3.729-12.016,14.065-19.962,26.721-20.618
		C1233.366,696.79,1234.53,696.842,1235.692,696.842z"/>
	<path fill="#FEFEFE" d="M1527.21,706.703c3.291-4.298,7.201-7.438,12.284-8.913c6.325-1.835,12.616-1.481,18.67,1.066
		c5.968,2.51,8.673,7.563,9.91,13.61c0.647,3.162,0.789,6.366,0.792,9.577c0.013,12.122-0.012,24.243,0.033,36.364
		c0.004,1.202-0.238,1.603-1.529,1.579c-4.592-0.088-9.188-0.082-13.781-0.003c-1.29,0.022-1.661-0.311-1.655-1.629
		c0.055-10.627,0.041-21.254,0.022-31.881c-0.004-2.266-0.05-4.53-0.393-6.786c-1.271-8.376-6.273-10.45-13.484-9.366
		c-5.573,0.838-8.574,4.372-9.532,10.573c-0.382,2.47-0.489,4.954-0.491,7.445c-0.009,10.018-0.022,20.037,0.021,30.055
		c0.005,1.178-0.21,1.618-1.523,1.593c-4.648-0.091-9.299-0.067-13.947-0.012c-1.089,0.013-1.529-0.177-1.527-1.414
		c0.04-19.594,0.035-39.187,0.01-58.781c-0.001-1.043,0.238-1.451,1.378-1.435c4.482,0.064,8.967,0.053,13.449,0.006
		c0.995-0.011,1.352,0.241,1.317,1.29C1527.156,701.994,1527.21,704.349,1527.21,706.703z"/>
	<path fill="#FEFEFE" d="M1480.059,735.095c-2.52-0.584-5.041-1.168-7.561-1.753c-0.895,0.198-1.633-0.257-2.404-0.578
		c-2.121-0.474-4.259-0.884-6.28-1.723c-0.789-0.313-1.87,0.102-2.361-0.95c-3.292-1.336-6.232-3.117-8.031-6.344
		c-0.608-0.393-1.203-0.793-0.895-1.675c-2.184-6.42-1.062-16.673,7.738-21.529c3.795-2.094,7.899-3.14,12.167-3.52
		c6.706-0.596,13.381-0.528,19.819,1.814c7.663,2.789,12.099,8.201,13.159,16.344c0.125,0.96-0.042,1.25-1.042,1.24
		c-4.591-0.045-9.184-0.034-13.776-0.008c-0.909,0.005-1.491-0.233-1.531-1.236c-0.07-1.766-0.95-3.141-2.122-4.374
		c-0.934-0.019-1.266-0.896-1.904-1.337l-0.003-0.001c-0.906-0.245-1.947-0.114-2.648-0.938c-3.885-0.604-7.733-0.775-11.426,0.945
		c-1.36,0.633-2.119,1.686-2.233,3.19c-0.174,0.723-0.248,1.445,0.018,2.165c-0.053,0.106-0.037,0.201,0.048,0.283
		c0.647,0.393,0.832,1.037,0.938,1.724c0.409,0.623,0.882,1.172,1.635,1.389c0.827-0.171,1.306,0.294,1.693,0.927
		c4.683,1.981,9.678,2.706,14.623,3.638c0.954-0.497,1.552,0.407,2.334,0.592c0.088,0.082,0.188,0.099,0.299,0.052
		c0.765-0.104,1.457,0.041,2.026,0.6c2.707,1.142,5.53,1.976,8.058,3.579c4.625,2.932,6.777,7.141,6.828,12.497
		c0.085,8.812-4.183,15.551-12.471,18.707c-10.526,4.008-21.249,4.033-31.741-0.162c-8.268-3.307-12.411-9.768-12.852-18.629
		c1.738-0.361,3.495-0.13,5.242-0.154c3.133-0.044,6.267-0.023,9.4-0.004c0.613,0.004,1.386-0.26,1.624,0.683
		c-0.182,1.512,0.171,2.887,1.058,4.125c0.58,0.274,0.812,0.782,0.925,1.37c0.297,0.574,0.736,1.005,1.307,1.304
		c0.594,0.112,1.099,0.353,1.368,0.939c0.221,0.277,0.499,0.433,0.861,0.419c0.9,0.086,1.792,0.191,2.457,0.911
		c0.703,0.403,1.469,0.446,2.251,0.396c1.621,0.236,3.242,0.214,4.864,0.009c0.289-0.028,0.577-0.056,0.866-0.084
		c1.183-0.62,2.37-1.233,3.756-1.24c0.099,0.031,0.174,0.002,0.225-0.089c0.276-0.518,0.71-0.825,1.278-0.952
		c0.348-0.343,0.695-0.686,1.043-1.028c0.121-0.564,0.418-1.003,0.925-1.291c0.146-0.524,0.291-1.048,0.437-1.571
		c0.205-0.819,0.235-1.637-0.015-2.453c-0.42-0.791-0.746-1.639-1.402-2.286c-0.634-0.451-1.512-0.542-1.933-1.309
		c-1.55-0.94-3.25-1.53-4.95-2.119C1481.001,736.044,1480.595,735.351,1480.059,735.095z"/>
	<path fill="#FEFEFE" d="M1358.442,716.107c0.456-0.482,0.912-0.965,1.368-1.447c0.235-0.475,0.47-0.95,0.973-1.21
		c0.627-0.691,1.253-1.381,2.108-2.323c-9.918,0-19.623,0-29.327,0c-0.353-3.97-0.062-7.948-0.16-11.92
		c-0.016-0.637,0.26-0.912,0.89-0.871c0.275,0.018,0.553,0.001,0.83,0.001c16.267,0,32.534-0.001,48.801,0.005
		c0.491,0,0.998-0.106,1.469,0.14c-0.001,3.739-0.044,7.478,0.021,11.215c0.019,1.083-0.336,1.846-1.044,2.622
		c-2.133,2.338-4.196,4.742-6.286,7.12c-0.239,0.533-0.403,1.13-1.089,1.285c-3.452,3.661-6.81,7.404-10.014,11.286
		c-0.683,0.827-1.624,1.432-2.181,2.385c-0.254,0.517-0.369,1.15-1.081,1.281c-3.26,3.577-6.521,7.154-9.779,10.733
		c-0.165,0.181-0.179,0.389-0.054,0.603c0.576,0.292,1.193,0.146,1.789,0.146c10.088,0.01,20.176,0.003,30.264,0.017
		c0.587,0.001,1.213-0.194,1.766,0.191c-0.01,3.764-0.053,7.527-0.007,11.291c0.012,0.992-0.216,1.322-1.274,1.32
		c-18.045-0.033-36.089-0.03-54.134-0.006c-0.924,0.001-1.245-0.238-1.232-1.196c0.049-3.542,0.035-7.085,0.007-10.627
		c-0.006-0.722,0.236-1.263,0.71-1.781c0.629-0.687,1.198-1.429,1.794-2.147c0.236-0.473,0.471-0.948,0.972-1.207
		c0.562-0.594,1.123-1.189,1.685-1.783c0.237-0.472,0.471-0.946,0.97-1.206c0.562-0.596,1.125-1.191,1.687-1.786
		c0.238-0.47,0.472-0.943,0.97-1.203c0.562-0.596,1.125-1.192,1.687-1.788c0.238-0.469,0.472-0.94,0.967-1.201
		c0.339-0.36,0.678-0.721,1.017-1.081c0.089-1.029,0.694-1.614,1.639-1.909c0.339-0.361,0.679-0.722,1.018-1.083
		c0.084-1.032,0.717-1.592,1.637-1.906c0.34-0.361,0.68-0.723,1.02-1.085c0.085-1.03,0.718-1.59,1.636-1.905
		c0.34-0.362,0.681-0.724,1.021-1.086c0.086-1.028,0.718-1.588,1.634-1.903c0.341-0.363,0.682-0.725,1.023-1.088
		c0.086-1.028,0.718-1.586,1.634-1.902c0.341-0.363,0.682-0.726,1.023-1.089C1356.897,716.981,1357.528,716.423,1358.442,716.107z"
		/>
	<path fill="#FEFEFE" d="M1322.443,720.082c-2.269,0-4.539-0.024-6.808,0.013c-0.803,0.013-1.235-0.083-1.444-1.059
		c-1.173-5.469-4.503-8.748-10.132-9.437c-5.621-0.688-10.159,1.161-13.155,6.1c-2.887,4.76-3.57,10.051-3.331,15.497
		c0.144,3.277,0.752,6.473,2.102,9.496c2.607,5.837,7.243,8.66,13.285,8.078c6.153-0.592,10.275-4.232,11.621-10.493
		c0.323-1.503,0.804-2.021,2.411-1.968c4.258,0.141,8.524,0.093,12.785,0.02c1.24-0.021,1.612,0.207,1.365,1.534
		c-2.743,14.709-12.985,23.406-27.986,23.747c-5.731,0.13-11.248-0.735-16.404-3.335c-7.245-3.652-12.101-9.432-14.465-17.132
		c-2.902-9.456-2.362-18.849,1.844-27.816c4.829-10.295,13.348-15.466,24.486-16.456c6.663-0.593,13.15,0.276,19.201,3.336
		c7.681,3.885,11.979,10.165,13.078,18.682c0.125,0.972-0.198,1.234-1.146,1.211
		C1327.315,720.043,1324.879,720.082,1322.443,720.082z"/>
	<path fill="#FEFEFE" d="M947.683,759.952c-2.654,0-5.308-0.036-7.961,0.02c-0.883,0.019-1.115-0.255-1.109-1.12
		c0.038-5.252,0.041-10.505-0.002-15.756c-0.008-0.951,0.286-1.206,1.215-1.199c5.252,0.04,10.505,0.037,15.756,0.003
		c0.929-0.006,1.244,0.274,1.237,1.226c-0.039,5.197-0.049,10.394,0.007,15.591c0.012,1.084-0.388,1.277-1.349,1.256
		C952.881,759.914,950.281,759.952,947.683,759.952z"/>
	<path fill="#005CA8" d="M1385.392,698.481c-0.493-0.036-0.985-0.104-1.478-0.104c-16.237-0.006-32.473,0.011-48.71-0.034
		c-1.328-0.004-1.82,0.254-1.768,1.694c0.135,3.693,0.096,7.393,0.127,11.089c-0.372-0.476-0.323-1.039-0.323-1.589
		c-0.002-3.204,0.037-6.409-0.02-9.613c-0.022-1.246,0.34-1.778,1.684-1.775c16.353,0.033,32.706,0.021,49.059,0.021
		C1384.462,698.171,1384.963,698.162,1385.392,698.481z"/>
	<path fill="#005CA8" d="M1387.705,747.365c-0.655-0.055-1.31-0.157-1.965-0.158c-10.107-0.01-20.213-0.003-30.32-0.018
		c-0.508-0.001-1.063,0.217-1.533-0.179c10.696-0.004,21.391-0.009,32.087-0.01C1386.572,747.001,1387.199,746.905,1387.705,747.365
		z"/>
	<path fill="#005CA8" d="M1466.428,740.548c-0.25-0.528-0.695-0.611-1.23-0.607c-5.012,0.037-10.024,0.057-15.036,0.083
		c0.245-0.591,0.766-0.317,1.151-0.319c4.469-0.022,8.938-0.018,13.407-0.009C1465.416,739.697,1466.223,739.537,1466.428,740.548z"
		/>
	<path fill="#005CA8" d="M1613.579,718.432c-0.369,1.399-1.194,2.339-2.654,2.643
		C1611.288,719.671,1612.172,718.789,1613.579,718.432z"/>
	<path fill="#005CA8" d="M1486.14,748.697c-1.133,0.773-2.412,1.103-3.756,1.24C1483.373,748.728,1484.533,748.035,1486.14,748.697z
		"/>
	<path fill="#005CA8" d="M1345.164,731.054c-0.351,0.804-0.923,1.418-1.639,1.909C1343.038,731.205,1343.4,730.784,1345.164,731.054
		z"/>
	<path fill="#005CA8" d="M1350.475,725.075c-0.352,0.801-0.926,1.412-1.635,1.905
		C1348.363,725.308,1348.682,724.936,1350.475,725.075z"/>
	<path fill="#005CA8" d="M1347.819,728.065c-0.35,0.803-0.923,1.415-1.636,1.906
		C1345.706,728.297,1346.024,727.926,1347.819,728.065z"/>
	<path fill="#005CA8" d="M1353.13,722.086c-0.351,0.8-0.928,1.407-1.634,1.903C1351.021,722.318,1351.34,721.947,1353.13,722.086z"
		/>
	<path fill="#005CA8" d="M1355.787,719.096c-0.357,0.795-0.928,1.406-1.634,1.902
		C1353.678,719.329,1353.997,718.957,1355.787,719.096z"/>
	<path fill="#005CA8" d="M1358.442,716.107c-0.357,0.794-0.928,1.404-1.632,1.9C1356.336,716.34,1356.655,715.968,1358.442,716.107z
		"/>
	<path fill="#005CA8" d="M1452.527,722.072c0.298,0.558,0.596,1.117,0.895,1.675c-0.604,0.005-1.172-0.054-1.42-0.737
		C1451.814,722.492,1452.04,722.21,1452.527,722.072z"/>
	<path fill="#005CA8" d="M1461.453,730.091c0.787,0.317,1.574,0.633,2.361,0.95C1462.924,730.98,1461.577,732.056,1461.453,730.091z
		"/>
	<path fill="#005CA8" d="M1585.765,726.102c-0.803,0.307-1.606,0.615-2.409,0.922
		C1583.544,725.109,1584.788,725.954,1585.765,726.102z"/>
	<path fill="#005CA8" d="M1486.697,737.717c0.89,0.074,1.501,0.559,1.933,1.309C1487.686,739.033,1486.702,739.098,1486.697,737.717
		z"/>
	<path fill="#005CA8" d="M1485.035,709.467c0.784,0.233,1.464,0.614,1.904,1.337
		C1485.435,711.596,1485.466,710.203,1485.035,709.467z"/>
	<path fill="#005CA8" d="M1609.264,708.851c0.714,0.151,1.387,0.382,1.881,0.961
		C1610.092,710.326,1609.372,710.189,1609.264,708.851z"/>
	<path fill="#005CA8" d="M1490.015,723.379c-0.809-0.076-1.598-0.229-2.334-0.592
		C1488.897,721.257,1489.287,722.984,1490.015,723.379z"/>
	<path fill="#005CA8" d="M1482.384,708.528c0.946,0.133,1.862,0.353,2.648,0.938
		C1483.968,709.666,1482.846,710.029,1482.384,708.528z"/>
	<path fill="#005CA8" d="M1473.059,719.15c-0.614-0.218-1.217-0.457-1.693-0.927C1472.55,717.4,1472.979,717.955,1473.059,719.15z"
		/>
	<path fill="#005CA8" d="M1474.404,749.616c-0.886-0.122-1.728-0.364-2.457-0.911
		C1473.038,748.273,1473.961,748.297,1474.404,749.616z"/>
	<path fill="#005CA8" d="M1469.73,716.835c-0.552-0.444-0.881-1.01-0.938-1.724C1470.05,715.171,1470.231,715.817,1469.73,716.835z"
		/>
	<path fill="#005CA8" d="M1492.339,724.032c-0.702-0.109-1.401-0.229-2.026-0.6C1491.393,722.271,1491.88,723.104,1492.339,724.032z
		"/>
	<path fill="#005CA8" d="M1481.518,750.021c-1.622,0.432-3.243,0.405-4.864-0.009
		C1478.276,750.015,1479.896,750.018,1481.518,750.021z"/>
	<path fill="#005CA8" d="M1470.094,732.764c0.828,0.084,1.646,0.204,2.404,0.578
		C1471.421,734.292,1470.782,733.427,1470.094,732.764z"/>
	<path fill="#005CA8" d="M1480.059,735.095c0.601,0.039,1.164,0.207,1.688,0.504
		C1480.682,737.112,1480.514,735.622,1480.059,735.095z"/>
	<path fill="#005CA8" d="M1607.286,722.457c-0.509,0.368-1.089,0.359-1.675,0.311
		C1605.971,721.599,1606.526,721.474,1607.286,722.457z"/>
	<path fill="#005CA8" d="M1487.643,747.656c-0.218,0.597-0.771,0.744-1.278,0.952
		C1486.419,747.792,1486.624,747.177,1487.643,747.656z"/>
	<path fill="#005CA8" d="M1471.086,748.286c-0.549-0.178-1.016-0.474-1.368-0.939
		C1470.714,746.872,1471.048,747.363,1471.086,748.286z"/>
	<path fill="#005CA8" d="M1489.61,745.337c-0.198,0.51-0.316,1.076-0.925,1.291C1488.216,745.641,1488.775,745.39,1489.61,745.337z"
		/>
	<path fill="#005CA8" d="M1468.411,746.043c-0.465-0.351-0.754-0.821-0.925-1.37C1468.414,744.711,1468.88,745.061,1468.411,746.043
		z"/>
	<path fill="#005CA8" d="M1363.719,735.675c0.36-0.427,0.72-0.854,1.081-1.281C1364.82,735.141,1364.658,735.735,1363.719,735.675z"
		/>
	<path fill="#005CA8" d="M1490.032,741.312c0.405,0.815,0.374,1.633,0.015,2.453C1490.042,742.948,1490.037,742.13,1490.032,741.312
		z"/>
	<path fill="#005CA8" d="M1334.541,743.012c-0.106,0.578-0.528,0.902-0.972,1.207
		C1333.579,743.564,1333.845,743.115,1334.541,743.012z"/>
	<path fill="#005CA8" d="M1468.744,714.827c-0.365-0.718-0.377-1.44-0.018-2.164
		C1468.732,713.384,1468.738,714.105,1468.744,714.827z"/>
	<path fill="#005CA8" d="M1337.196,740.023c-0.107,0.576-0.531,0.897-0.97,1.206
		C1336.236,740.574,1336.502,740.126,1337.196,740.023z"/>
	<path fill="#005CA8" d="M1360.783,713.45c-0.107,0.579-0.525,0.906-0.973,1.21C1359.819,714.003,1360.085,713.553,1360.783,713.45z
		"/>
	<path fill="#005CA8" d="M1339.853,737.033c-0.108,0.575-0.534,0.893-0.97,1.203
		C1338.893,737.583,1339.161,737.137,1339.853,737.033z"/>
	<path fill="#005CA8" d="M1342.507,734.044c-0.111,0.571-0.531,0.892-0.967,1.201
		C1341.551,734.594,1341.817,734.148,1342.507,734.044z"/>
	<path fill="#005CA8" d="M1376.995,720.723c0.363-0.428,0.725-0.857,1.089-1.285
		C1378.075,720.166,1377.817,720.684,1376.995,720.723z"/>
	<path fill="#005CA8" d="M1613.939,715.273c0.241,0.641,0.303,1.282,0.004,1.925C1613.942,716.556,1613.94,715.914,1613.939,715.273
		z"/>
	<path fill="#005CA8" d="M1598.38,723.771c-0.548,0.285-1.136,0.309-1.734,0.26C1597.182,723.654,1597.789,723.767,1598.38,723.771z
		"/>
	<path fill="#005CA8" d="M1614.135,729.921c-0.008,3.444,0.153,6.538-0.243,9.618c-0.765,5.954-4.449,9.629-10.442,10.519
		c-2.552,0.379-5.079,0.349-7.575-0.282c-3.574-0.903-5.26-2.77-5.736-6.221c-0.48-3.478,0.928-6.458,3.906-8.136
		c2.551-1.437,5.386-1.935,8.231-2.373c2.566-0.395,5.154-0.65,7.682-1.287C1611.353,731.408,1612.663,730.869,1614.135,729.921z"/>
	<path fill="#005CA8" d="M1418.438,722.516c-4.147,0-8.294-0.032-12.44,0.021c-1.13,0.014-1.371-0.279-1.176-1.418
		c1.642-9.56,11.526-14.629,20.277-10.359c3.643,1.777,5.268,5.038,6.359,8.672c0.924,3.077,0.897,3.085-2.239,3.085
		C1425.626,722.517,1422.032,722.517,1418.438,722.516z"/>
	<path fill="#005CA8" d="M1092.788,729.214c-0.019,4.123-0.512,8.156-2.321,11.927c-2.581,5.379-7.013,7.757-12.826,7.709
		c-5.782-0.048-10.208-2.543-12.454-7.965c-3.229-7.798-3.204-15.764,0.047-23.539c2.26-5.403,6.714-7.858,12.508-7.874
		c5.835-0.016,10.214,2.421,12.759,7.804C1092.288,721.057,1092.77,725.092,1092.788,729.214z"/>
	<path fill="#005CA8" d="M1250.566,729.235c-0.015,4.068-0.506,8.044-2.258,11.775c-2.533,5.393-6.92,7.848-12.744,7.841
		c-5.848-0.007-10.334-2.489-12.607-7.985c-3.225-7.8-3.194-15.765,0.063-23.539c2.234-5.331,6.628-7.794,12.356-7.853
		c5.827-0.06,10.252,2.31,12.844,7.672C1250.064,720.962,1250.555,725.055,1250.566,729.235z"/>
</g>
</svg>
