<?xml version="1.0" encoding="utf-8"?>
<!-- Generator: Adobe Illustrator 17.0.0, SVG Export Plug-In . SVG Version: 6.00 Build 0)  -->
<!DOCTYPE svg PUBLIC "-//W3C//DTD SVG 1.1//EN" "http://www.w3.org/Graphics/SVG/1.1/DTD/svg11.dtd">
<svg version="1.1" id="Warstwa_1" xmlns="http://www.w3.org/2000/svg" xmlns:xlink="http://www.w3.org/1999/xlink" x="0px" y="0px"
	 width="712.103px" height="401.085px" viewBox="0 0 712.103 401.085" enable-background="new 0 0 712.103 401.085"
	 xml:space="preserve">
<g>
	<g>
		<path fill="#FEFDFD" d="M356.515,401c-117.14,0-234.281-0.015-351.421,0.081c-3.219,0.003-4.204-0.368-4.2-3.985
			C1.02,266.292,1.016,135.488,0.91,4.684C0.908,1.4,1.849,0.934,4.814,0.935c234.447,0.071,468.895,0.078,703.342-0.046
			c3.74-0.002,3.917,1.172,3.915,4.265c-0.082,130.637-0.09,261.275,0.032,391.912c0.003,3.556-0.885,4.022-4.167,4.02
			C590.796,400.983,473.655,401,356.515,401z M248.481,298.025c4.895,1.263,9.536,1.979,13.783,3.679
			c5.319,2.128,9.592,3.473,14.645-1.449c6.6-6.429,16.91-5.135,24.21-10.472c1.261,2.094,0.234,3.447-0.061,4.858
			c-1.486,7.102,1.688,10.851,8.866,10.509c1.325-0.063,2.667-0.021,3.987,0.11c5.372,0.533,9.843-1.278,13.001-5.573
			c4.059-5.519,7.057-11.719,9.239-18.155c3.87-11.416,3.659-11.346,15.843-12.335c4.245-0.345,4.816,0.97,4.595,4.982
			c-0.486,8.836-3.497,17.273-3.589,26.136c-0.043,4.125,1.122,7.639,4.643,9.921c6.914,4.482,19.224,0.946,23.001-6.493
			c0.22-0.434,0.363-0.944,0.399-1.429c0.769-10.588,4.898-20.599,5.347-31.251c0.084-1.98,0.703-3.937,1.161-6.362
			c1.737,1.936,1.177,3.678,1.234,5.229c0.383,10.481,0.664,20.966,0.979,31.45c0.147,4.903,1.916,8.244,7.052,10.102
			c4.233,1.531,8.236,0.723,12.319,0.681c9.912-0.103,14.269-7.84,9.252-16.362c-0.787-1.336-1.282-2.456-1.4-4.029
			c-0.308-4.115-0.911-8.213-1.515-12.299c-0.184-1.241-1.222-2.757,0.509-3.324c1.204-0.394,1.615,1.131,2.266,2.09
			c4.909,7.234,8.734,15.251,14.585,21.776c5.031,5.611,9.214,11.876,15.472,16.606c5.455,4.123,14.183,6.094,19.606,2.028
			c1.375-1.031,1.481-2.426,1.718-3.934c1.155-7.358-0.852-13.742-5.552-19.435c-0.953-1.155-2.73-2.741-0.778-4.219
			c3.266-2.473,3.575-5.977,3.508-9.413c-0.239-12.246,0.751-24.439,1.202-36.655c0.048-1.301-0.333-3.051,1.314-3.361
			c2.264-0.427,1.243,1.763,1.687,2.777c0.466,1.064,0.782,2.194,1.165,3.294c2.287,6.557,6.264,12.596,8.19,19.014
			c3.121,10.4,5.764,21.041,8.237,31.672c1.592,6.844,6.052,10.51,12.834,11.263c5.915,0.656,10.609-1.677,13.922-6.694
			c0.668-1.011,1.523-3.05,2.828-1.169c3.098,4.465,7.997,3.942,12.194,4.426c12.29,1.416,23.832-0.673,31.855-11.176
			c2.24-2.933,3.422-2.309,5.314-0.586c3.435,3.126,6.378,6.784,10.272,9.42c2.156,1.46,4.419,2.529,6.986,1.373
			c3.466-1.561,6.024-0.29,8.465,2.144c1.238,1.234,2.422,2.738,4.686,2.099c7.044-1.985,14.065-4.064,18.111-10.875
			c1.662-2.798,3.976-3.369,6.278-1.902c6.425,4.096,13.152,2.71,19.825,1.516c5.134-0.919,9.146-3.48,12.762-7.712
			c4.731-5.538,4.97-12.345,7.263-18.541c0.717-1.937-0.698-3.822-2.823-4.525c-2.515-0.833-5.047-1.781-7.792-1.058
			c-8.359,2.2-12.888-2.49-10.306-11.654c2.394-8.498,5.575-16.759,9.388-24.659c2.695-5.586,6.293-10.941,12.605-13.589
			c8.316-3.489,9.7-14.132,2.724-19.844c-3.252-2.663-6.986-3.655-11.135-3.579c-10.073,0.185-17.435,5.217-22.625,13.335
			c-7.199,11.259-12.741,23.31-15.312,36.558c-0.23,1.186,0.1,2.669-1.622,3.351c-2.347-2.745-5.014-5.113-7.707-7.49
			c-8.417-7.428-8.769-16.916-3.193-26.831c2.844-5.056,5.603-9.648,10.267-13.074c0.726-0.533,1.064-1.657,1.466-2.559
			c2.078-4.669-0.135-7.874-3.309-11.197c-7.345-7.69-13.822-8.313-22.099-1.431c-2.033,1.69-3.787,3.746-5.52,5.762
			c-5.512,6.411-10.268,13.327-13.802,21.492c-1.41-5.617-5.329-9.304-8.157-13.686c-8.861-13.729-28.338-17.635-41.605-2.854
			c-0.887,0.989-0.96,3.423-3.012,2.567c-1.665-0.694-1.763-2.701-1.895-4.358c-0.976-12.227-3.78-24.179-4.256-36.55
			c-0.814-21.142-1.946-42.23-0.473-63.386c0.425-6.105,0.894-12.298-0.652-18.404c-0.399-1.575-0.836-3.732-2.462-2.161
			c-3.059,2.954-6.458,2.788-10.112,2.782c-1.241-0.002-2.864,0.569-2.739,2.273c0.117,1.601,1.509,2.008,2.955,1.991
			c0.666-0.008,1.34,0.005,1.996-0.089c3.588-0.514,4.086,1.11,3.602,4.332c-1.112,7.402-2.131,14.844-2.589,22.307
			c-0.248,4.052-1.986,5.135-5.552,5.031c-4.154-0.121-8.322-0.232-12.468-0.023c-10.607,0.534-21.13,1.344-31.679,3.196
			c-7.994,1.404-16.526,0.115-24.786-0.445c-16.014-1.087-31.886-1.175-47.537,3.267c-4.347,1.234-8.613,2.533-12.584,4.638
			c-4.175,2.213-6.921,5.971-6.088,10.546c1.569,8.62,7.571,14.101,14.997,18.232c6.066,3.375,10.369-0.063,15.518-2.826
			c7.788-4.179,15.96-7.704,25.411-3.345c5.997,2.766,12.659,4.064,19.506,2.735c2.3-0.446,4.594,0.593,6.877,0.834
			c6.914,0.727,14.279,0.449,18.687-5.424c5.269-7.02,12.842-8.511,20.118-9.625c7.039-1.078,13.962-0.813,18.056-8.344
			c-0.752,34.156-4.56,67.68-8.132,101.467c-2.649-0.923-2.888-2.592-3.547-4.11c-6.14-14.145-12.275-28.298-21.879-40.584
			c-1.139-1.457-2.312-3.059-4.115-3.325c-5.089-0.751-11.932,4.721-13.041,10.216c-0.229,1.132-0.214,2.494-1.559,2.761
			c-1.118,0.222-1.619-1.02-2.228-1.746c-4.063-4.842-7.49-10.358-13.224-13.493c-8.127-4.443-16.932-6.295-26.079-4.947
			c-7.581,1.117-13.044,6.263-18.408,11.317c-1.098,1.034-1.946,3.078-4.059,1.589c-5.4-3.807-11.126-7.24-16.103-11.539
			c-8.517-7.358-15.663-5.333-22.917,1.535c-7.786,7.372-13.272,16.319-16.473,26.724c-2.213,7.191-5.253,14.128-8.288,22.14
			c-1.94-5.831-3.664-10.72-4.917-15.543c-3.478-13.394-11.144-23.904-20.377-33.68c-7.041-7.454-16.489-9.45-25.776-11.835
			c-1.117-0.287-2.777,0.205-3.75,0.925c-3.6,2.666-7.228,5.358-10.452,8.451c-4.584,4.397-4.627,7.031-0.336,11.825
			c1.755,1.961,2.305,3.871,1.908,6.335c-0.925,5.744-1.761,11.502-2.64,17.254c-0.914,5.981-1.048,6.139-5.957,2.975
			c-4.822-3.107-10.087-2.733-15.351-2.444c-2.299,0.126-4.388,1.335-4.715,3.774c-1.256,9.38-5.159,18.19-5.347,27.85
			c-0.165,8.459-1.33,16.902-2.169,25.341c-0.313,3.152-1.421,5.106-5.458,4.25c-3.86-0.819-4.408-2.529-3.378-5.89
			c0.523-1.707,0.506-3.63,0.467-5.45c-0.134-6.158-1.017-12.371-0.468-18.459c1.304-14.47,1.612-28.943,1.337-43.439
			c-0.26-13.676-2.016-27.197-4.841-40.577c-0.485-2.298-1.055-5.028-3.752-5.369c-11.367-1.438-20.134,6.974-19.595,17.156
			c0.478,9.038-1.062,18.139,1.667,28.117c-4.025-2.907-7.345-4.926-9.455-8.034c-5.46-8.046-13.757-11.547-22.266-15.003
			c-3.267-1.327-6.366-1.954-9.651-0.828c-6.673,2.288-12.494,5.543-17.049,11.42c-4.534,5.85-8.084,12.136-11.259,18.7
			c-1.35,2.79-3.085,2.962-4.818,0.944c-3.4-3.961-7.906-6.728-10.317-11.854c-3.503-7.444-0.737-13.88,2.368-19.919
			c3.016-5.865,8.812-5.947,14.858-4.258c5.402,1.509,9.538-1.205,10.604-6.091c0.121-0.555,0.653-1.124,1.144-1.479
			c4.107-2.967,5.059-10.203,0.762-13.217c-6.557-4.598-13.317-9.224-22.456-7.034c-15.284,3.662-27.245,11.925-36.438,24.451
			c-8.107,11.047-8.618,22.691-2.353,34.701c4.047,7.758,10.423,13.789,15.974,20.363c8.751,10.363,10.221,22.016,8.044,34.656
			c-1.045,6.065-5.565,9.71-10.251,12.872c-2.176,1.468-6.208,0.893-5.768-1.88c0.645-4.064-1.209-5.529-3.474-7.989
			c-4.719-5.123-9.787-9.002-16.814-10.523c-13.538-2.93-21.57,4.526-22.52,17.498c-1.021,13.942,6.281,23.578,17.974,29.603
			c11.379,5.863,24.228,6.442,36.752,7.492c2.97,0.249,6.176-0.052,9.32-1.098c8.871-2.951,14.463-9.084,18.443-17.153
			c0.793-1.607,1.087-3.526,4.166-1.894c15.314,8.118,31.878,5.696,44.6-6.041c1.848-1.705,3.398-3.854,6.119-4.899
			c0.157,3.245,0.127,6.077,0.46,8.864c1.177,9.833,5.761,14.451,15.592,15.769c2.964,0.397,5.91,0.879,8.857,1.346
			c5.983,0.948,11.301,4.331,17.706,3.926c7.759-0.49,7.66-0.089,8.843,7.649c0.624,4.083,1.529,8.282,5.798,10.351
			c5.464,2.647,9.781-1.196,14.465-2.827c0.526-0.183,1.302-1.219,1.177-1.472C243.108,305.696,249.565,302.849,248.481,298.025z
			 M625.658,161.402c-0.916,6.294,0.67,11.428,6.075,15.301c6.461,4.63,13.333,4.233,20.439,2.234
			c1.393-0.392,2.303-1.145,2.089-2.853c-1.321-10.564-2.85-21.066-7.236-30.919c-1.332-2.992-3.062-4.85-6.748-4.605
			c-7.405,0.492-12.518,4.634-13.811,11.936C625.947,155.421,625.913,158.431,625.658,161.402z M613.437,155.685
			c0.143-4.144-0.772-8.376-2.846-12.413c-3.057-5.95-14.245-7.132-18.07-1.547c-2.792,4.078-5.24,8.502-7.119,13.069
			c-2.813,6.838,0.792,14.09,7.323,16.038c7.661,2.285,12.397-5.077,19.16-5.795c0.374-0.04,0.544-1.474,0.912-2.208
			C613.899,160.639,613.019,158.285,613.437,155.685z M232.91,191.94c10.459,0.621,16.33-5.214,17.034-16.931
			c0.271-4.509-9.131-12.917-14.909-13.331c-6.592-0.473-15.259,7.622-15.712,14.675C218.761,185.105,224.271,191.427,232.91,191.94
			z M486.542,79.844c-1.414-1.914-2.981-1.403-4.366-1.523c-5.256-0.454-10.562,0.265-15.687,0.749
			c-10.345,0.977-20.967,0.911-30.943,4.338c-5.549,1.906-11.109,1.518-16.686,1.275c-2.837-0.124-5.585,0.004-8.371,0.376
			c-11.203,1.499-22.415,2.912-33.715,3.499c-2.354,0.122-5.463,0.706-5.331,3.218c0.123,2.339,3.401,1.751,5.118,1.371
			c6.124-1.357,12.14-1.052,18.242,0.017c1.896,0.332,4.79,0.924,5.726-0.59c2.657-4.297,6.672-2.872,9.729-2.223
			c3.141,0.666,6.202,1.022,9.231,0.69c9.292-1.017,18.533-2.499,27.821-3.559c5.514-0.63,10.58-4.668,15.768-3.952
			C471.462,84.688,478.357,80.267,486.542,79.844z"/>
		<path fill="#BC040B" d="M248.481,298.025c1.085,4.823-5.372,7.671-2.818,12.856c0.125,0.253-0.651,1.289-1.177,1.472
			c-4.684,1.631-9.002,5.473-14.465,2.827c-4.27-2.069-5.174-6.267-5.798-10.351c-1.183-7.739-1.084-8.139-8.843-7.649
			c-6.406,0.405-11.723-2.978-17.706-3.926c-2.947-0.467-5.893-0.949-8.857-1.346c-9.831-1.318-14.415-5.937-15.592-15.769
			c-0.334-2.788-0.303-5.619-0.46-8.864c-2.72,1.045-4.27,3.194-6.119,4.899c-12.723,11.737-29.286,14.159-44.6,6.041
			c-3.078-1.632-3.373,0.287-4.166,1.894c-3.98,8.069-9.572,14.202-18.443,17.153c-3.145,1.046-6.35,1.347-9.32,1.098
			c-12.524-1.05-25.373-1.629-36.752-7.492c-11.693-6.025-18.996-15.661-17.974-29.603c0.95-12.971,8.982-20.428,22.52-17.498
			c7.027,1.521,12.095,5.4,16.814,10.523c2.265,2.46,4.119,3.925,3.474,7.989c-0.44,2.773,3.592,3.349,5.768,1.88
			c4.686-3.161,9.206-6.807,10.251-12.872c2.177-12.64,0.707-24.293-8.044-34.656c-5.551-6.573-11.927-12.605-15.974-20.363
			c-6.265-12.01-5.754-23.654,2.353-34.701c9.193-12.527,21.154-20.79,36.438-24.451c9.14-2.19,15.899,2.436,22.456,7.034
			c4.297,3.013,3.345,10.25-0.762,13.217c-0.491,0.355-1.023,0.924-1.144,1.479c-1.065,4.886-5.201,7.6-10.604,6.091
			c-6.046-1.689-11.842-1.607-14.858,4.258c-3.105,6.038-5.87,12.475-2.368,19.919c2.412,5.126,6.918,7.893,10.317,11.854
			c1.733,2.019,3.468,1.847,4.818-0.944c3.175-6.564,6.725-12.85,11.259-18.7c4.555-5.877,10.375-9.132,17.049-11.42
			c3.285-1.126,6.384-0.499,9.651,0.828c8.509,3.455,16.806,6.957,22.266,15.003c2.109,3.108,5.43,5.127,9.455,8.034
			c-2.73-9.978-1.189-19.079-1.667-28.117c-0.539-10.182,8.229-18.595,19.595-17.156c2.697,0.341,3.267,3.071,3.752,5.369
			c2.825,13.379,4.581,26.9,4.841,40.577c0.275,14.496-0.033,28.969-1.337,43.439c-0.549,6.088,0.335,12.301,0.468,18.459
			c0.04,1.82,0.056,3.743-0.467,5.45c-1.03,3.36-0.481,5.071,3.378,5.89c4.037,0.856,5.145-1.098,5.458-4.25
			c0.839-8.439,2.005-16.883,2.169-25.341c0.188-9.66,4.09-18.47,5.347-27.85c0.327-2.439,2.415-3.648,4.715-3.774
			c5.264-0.289,10.529-0.664,15.351,2.444c4.909,3.164,5.043,3.006,5.957-2.975c0.879-5.752,1.715-11.51,2.64-17.254
			c0.397-2.464-0.153-4.374-1.908-6.335c-4.291-4.793-4.248-7.427,0.336-11.825c3.224-3.093,6.852-5.785,10.452-8.451
			c0.972-0.72,2.632-1.212,3.75-0.925c9.287,2.385,18.735,4.38,25.776,11.835c9.234,9.776,16.899,20.286,20.377,33.68
			c1.252,4.823,2.976,9.712,4.917,15.543c3.035-8.012,6.076-14.949,8.288-22.14c3.201-10.405,8.687-19.353,16.473-26.724
			c7.254-6.868,14.4-8.892,22.917-1.535c4.977,4.299,10.703,7.732,16.103,11.539c2.113,1.49,2.961-0.554,4.059-1.589
			c5.364-5.054,10.828-10.2,18.408-11.317c9.147-1.348,17.951,0.504,26.079,4.947c5.734,3.135,9.161,8.651,13.224,13.493
			c0.609,0.726,1.11,1.968,2.228,1.746c1.345-0.267,1.33-1.629,1.559-2.761c1.11-5.495,7.952-10.967,13.041-10.216
			c1.803,0.266,2.976,1.868,4.115,3.325c9.604,12.285,15.739,26.439,21.879,40.584c0.659,1.518,0.898,3.186,3.547,4.11
			c3.572-33.788,7.379-67.312,8.132-101.467c-4.094,7.531-11.017,7.266-18.056,8.344c-7.276,1.114-14.849,2.606-20.118,9.625
			c-4.409,5.873-11.773,6.151-18.687,5.424c-2.283-0.24-4.577-1.28-6.877-0.834c-6.847,1.329-13.509,0.031-19.506-2.735
			c-9.451-4.359-17.623-0.835-25.411,3.345c-5.149,2.763-9.452,6.202-15.518,2.826c-7.426-4.132-13.428-9.612-14.997-18.232
			c-0.833-4.575,1.913-8.334,6.088-10.546c3.971-2.105,8.237-3.404,12.584-4.638c15.65-4.442,31.522-4.354,47.537-3.267
			c8.26,0.561,16.792,1.849,24.786,0.445c10.548-1.852,21.072-2.662,31.679-3.196c4.146-0.209,8.315-0.097,12.468,0.023
			c3.566,0.104,5.303-0.979,5.552-5.031c0.457-7.463,1.477-14.905,2.589-22.307c0.484-3.222-0.014-4.846-3.602-4.332
			c-0.656,0.094-1.33,0.081-1.996,0.089c-1.447,0.017-2.838-0.389-2.955-1.991c-0.125-1.704,1.498-2.275,2.739-2.273
			c3.654,0.006,7.053,0.172,10.112-2.782c1.626-1.571,2.063,0.586,2.462,2.161c1.546,6.106,1.077,12.299,0.652,18.404
			c-1.472,21.156-0.34,42.245,0.473,63.386c0.476,12.371,3.28,24.323,4.256,36.55c0.132,1.657,0.23,3.664,1.895,4.358
			c2.052,0.856,2.124-1.579,3.012-2.567c13.268-14.781,32.745-10.875,41.605,2.854c2.828,4.382,6.747,8.069,8.157,13.686
			c3.534-8.165,8.29-15.081,13.802-21.492c1.733-2.016,3.487-4.072,5.52-5.762c8.277-6.882,14.754-6.259,22.099,1.431
			c3.174,3.323,5.387,6.529,3.309,11.197c-0.401,0.902-0.74,2.025-1.466,2.559c-4.664,3.426-7.423,8.018-10.267,13.074
			c-5.576,9.914-5.223,19.402,3.193,26.831c2.694,2.377,5.36,4.745,7.707,7.49c1.721-0.682,1.391-2.164,1.622-3.351
			c2.571-13.248,8.113-25.298,15.312-36.558c5.19-8.118,12.552-13.15,22.625-13.335c4.149-0.076,7.883,0.916,11.135,3.579
			c6.976,5.712,5.592,16.355-2.724,19.844c-6.313,2.648-9.91,8.003-12.605,13.589c-3.812,7.901-6.994,16.161-9.388,24.659
			c-2.582,9.164,1.947,13.854,10.306,11.654c2.745-0.722,5.277,0.226,7.792,1.058c2.125,0.704,3.54,2.588,2.823,4.525
			c-2.293,6.195-2.532,13.003-7.263,18.541c-3.616,4.232-7.628,6.793-12.762,7.712c-6.674,1.194-13.4,2.579-19.825-1.516
			c-2.302-1.467-4.615-0.897-6.278,1.902c-4.046,6.811-11.067,8.89-18.111,10.875c-2.264,0.638-3.448-0.865-4.686-2.099
			c-2.442-2.434-4.999-3.705-8.465-2.144c-2.567,1.156-4.83,0.087-6.986-1.373c-3.894-2.636-6.836-6.294-10.272-9.42
			c-1.893-1.723-3.074-2.347-5.314,0.586c-8.023,10.504-19.565,12.592-31.855,11.176c-4.198-0.484-9.096,0.039-12.194-4.426
			c-1.305-1.881-2.16,0.158-2.828,1.169c-3.313,5.016-8.007,7.35-13.922,6.694c-6.783-0.752-11.243-4.419-12.834-11.263
			c-2.472-10.631-5.115-21.273-8.237-31.672c-1.926-6.418-5.903-12.457-8.19-19.014c-0.384-1.1-0.699-2.23-1.165-3.294
			c-0.444-1.013,0.577-3.204-1.687-2.777c-1.647,0.311-1.266,2.06-1.314,3.361c-0.451,12.216-1.441,24.41-1.202,36.655
			c0.067,3.437-0.242,6.94-3.508,9.413c-1.952,1.478-0.175,3.065,0.778,4.219c4.7,5.693,6.707,12.078,5.552,19.435
			c-0.237,1.507-0.343,2.903-1.718,3.934c-5.423,4.066-14.151,2.094-19.606-2.028c-6.258-4.73-10.441-10.995-15.472-16.606
			c-5.851-6.525-9.676-14.542-14.585-21.776c-0.651-0.96-1.062-2.485-2.266-2.09c-1.731,0.567-0.693,2.083-0.509,3.324
			c0.605,4.087,1.207,8.184,1.515,12.299c0.118,1.573,0.613,2.693,1.4,4.029c5.017,8.522,0.659,16.259-9.252,16.362
			c-4.083,0.042-8.086,0.851-12.319-0.681c-5.136-1.858-6.905-5.199-7.052-10.102c-0.315-10.484-0.595-20.969-0.979-31.45
			c-0.057-1.551,0.504-3.292-1.234-5.229c-0.458,2.425-1.077,4.383-1.161,6.362c-0.45,10.652-4.578,20.663-5.347,31.251
			c-0.035,0.485-0.178,0.995-0.399,1.429c-3.778,7.438-16.088,10.974-23.001,6.493c-3.521-2.282-4.686-5.796-4.643-9.921
			c0.093-8.863,3.103-17.3,3.589-26.136c0.221-4.013-0.35-5.327-4.595-4.982c-12.185,0.989-11.973,0.919-15.843,12.335
			c-2.182,6.436-5.18,12.636-9.239,18.155c-3.158,4.295-7.629,6.106-13.001,5.573c-1.32-0.131-2.662-0.174-3.987-0.11
			c-7.179,0.343-10.352-3.407-8.866-10.509c0.295-1.411,1.323-2.764,0.061-4.858c-7.3,5.337-17.61,4.043-24.21,10.472
			c-5.054,4.923-9.326,3.578-14.645,1.449C258.016,300.004,253.376,299.288,248.481,298.025z M158.808,219.307
			c-0.958-5.622,0.302-11.978-2.911-17.661c-1.913-3.383-4.589-4.962-8.568-4.717c-3.896,0.24-5.102,2.715-6.439,5.856
			c-1.999,4.693-1.699,9.099-0.841,14.012c1.545,8.853-2.801,17.963,0.998,26.964c1.064,2.52,0.762,5.853,3.973,6.646
			c3.497,0.864,5.384-1.893,7.023-4.439C157.188,237.97,158.136,228.877,158.808,219.307z M278.578,265.392
			c9.892-5.752,10.267-5.579,14.171-14.044c5.191-11.254,5.835-22.875,1.951-34.91c-2.219-6.878-8.118-10.725-11.572-16.488
			c-0.598-0.998-1.789-1.808-2.979-1.117c-1.175,0.683-0.677,2.106-0.685,3.222c-0.095,13.145,1.444,26.264,0.614,39.422
			C279.591,249.217,279.107,256.957,278.578,265.392z M531.259,257.313c0,1.828-0.108,3.664,0.026,5.482
			c0.193,2.617,0.228,6.158,3.229,6.471c3.083,0.321,6.17-1.58,7.171-5.078c3.089-10.797,6.627-21.489,7.771-32.757
			c0.49-4.827,0.216-9.618-0.168-14.425c-0.242-3.025-2.627-4.011-4.759-5.236c-1.766-1.014-3.288-0.261-4.43,1.078
			c-2.048,2.401-4.224,4.937-4.726,8.074C533.443,232.982,531.607,245.067,531.259,257.313z M414.1,193.536
			c-0.149,0-0.649-0.03-1.145,0.004c-7.747,0.539-10.236,3.597-9.212,11.18c0.533,3.946,0.83,7.927,1.455,11.856
			c0.346,2.174-0.442,5.73,1.726,6.185c3.716,0.78,6.866,3.842,11.335,2.2c9.57-3.516,15.759-18.646,10.939-27.617
			c-0.67-1.248-1.356-2.166-2.91-2.329C422.336,194.601,418.395,194.066,414.1,193.536z M360.223,200.474
			c-1.565,3.124-2.382,4.959-2.439,7.244c-0.086,3.444,0.571,8.014-1.311,10.066c-3.508,3.825-4.194,8.875-7.36,12.714
			c-2.877,3.488-1.512,6.892,2.873,8.215c2.205,0.665,4.667,0.567,6.795,1.382c3.598,1.378,4.266-0.545,3.968-3.263
			c-0.495-4.508,0.525-8.933,0.464-13.365C363.11,216.129,363.22,208.674,360.223,200.474z M577.794,247.555
			c0.655,3.243-0.112,4.932-0.677,6.659c-1.495,4.572-3.177,9.089-4.502,13.709c-0.951,3.316,0.077,5.217,4.033,4.282
			c3.028-0.716,6.151-0.554,8.524,1.552c2.344,2.08,4.753,2.719,7.105,0.858c2.331-1.844,1.593-4.643,0.599-6.951
			C589.691,260.27,585.013,253.935,577.794,247.555z M445.083,234.176c-4.545,3.619-8.101,6.309-11.47,9.215
			c-1.093,0.942-3.027,2.227-1.051,4.045c3.805,3.5,5.47,8.185,7.492,12.722c0.597,1.339,1.357,3.148,3.57,2.852
			C444.923,253.799,444.786,244.59,445.083,234.176z"/>
		<path fill="#BC040B" d="M625.658,161.402c0.255-2.971,0.29-5.982,0.808-8.906c1.294-7.302,6.406-11.444,13.811-11.936
			c3.686-0.245,5.416,1.614,6.748,4.605c4.386,9.853,5.915,20.356,7.236,30.919c0.214,1.708-0.696,2.461-2.089,2.853
			c-7.105,1.998-13.978,2.395-20.439-2.234C626.328,172.831,624.742,167.696,625.658,161.402z"/>
		<path fill="#BC040B" d="M613.437,155.685c-0.418,2.6,0.462,4.954-0.639,7.144c-0.369,0.733-0.538,2.168-0.912,2.208
			c-6.763,0.718-11.499,8.08-19.16,5.795c-6.531-1.948-10.135-9.2-7.323-16.038c1.878-4.567,4.326-8.991,7.119-13.069
			c3.824-5.585,15.013-4.402,18.07,1.547C612.665,147.309,613.581,151.541,613.437,155.685z"/>
		<path fill="#BC040B" d="M232.91,191.94c-8.64-0.513-14.15-6.835-13.587-15.587c0.453-7.053,9.121-15.148,15.712-14.675
			c5.777,0.414,15.18,8.822,14.909,13.331C249.24,186.726,243.369,192.561,232.91,191.94z"/>
		<path fill="#BC040B" d="M486.542,79.844c-8.186,0.423-15.08,4.844-23.463,3.687c-5.187-0.717-10.254,3.322-15.768,3.952
			c-9.288,1.06-18.529,2.542-27.821,3.559c-3.029,0.332-6.09-0.024-9.231-0.69c-3.058-0.649-7.073-2.074-9.729,2.223
			c-0.936,1.514-3.83,0.922-5.726,0.59c-6.102-1.069-12.118-1.374-18.242-0.017c-1.717,0.38-4.995,0.968-5.118-1.371
			c-0.132-2.513,2.976-3.096,5.331-3.218c11.3-0.586,22.512-2,33.715-3.499c2.786-0.373,5.534-0.5,8.371-0.376
			c5.577,0.243,11.137,0.632,16.686-1.275c9.976-3.427,20.598-3.361,30.943-4.338c5.125-0.484,10.43-1.203,15.687-0.749
			C483.561,78.44,485.129,77.93,486.542,79.844z"/>
		<path fill="#FBF3F2" d="M158.808,219.307c-0.671,9.57-1.619,18.664-6.766,26.661c-1.638,2.546-3.526,5.303-7.023,4.439
			c-3.21-0.793-2.909-4.126-3.973-6.646c-3.799-9.002,0.547-18.111-0.998-26.964c-0.858-4.913-1.157-9.319,0.841-14.012
			c1.337-3.141,2.543-5.616,6.439-5.856c3.979-0.245,6.655,1.334,8.568,4.717C159.11,207.328,157.85,213.685,158.808,219.307z"/>
		<path fill="#FBF3F2" d="M278.578,265.392c0.529-8.435,1.014-16.175,1.501-23.915c0.83-13.157-0.71-26.277-0.614-39.422
			c0.008-1.116-0.491-2.538,0.685-3.222c1.19-0.692,2.381,0.119,2.979,1.117c3.454,5.763,9.353,9.61,11.572,16.488
			c3.884,12.035,3.24,23.656-1.951,34.91C288.845,259.813,288.469,259.64,278.578,265.392z"/>
		<path fill="#FBF3F2" d="M531.259,257.313c0.348-12.245,2.184-24.331,4.113-36.393c0.502-3.136,2.678-5.672,4.726-8.074
			c1.142-1.339,2.664-2.092,4.43-1.078c2.133,1.225,4.517,2.211,4.759,5.236c0.384,4.808,0.658,9.599,0.168,14.425
			c-1.144,11.268-4.681,21.96-7.771,32.757c-1.001,3.499-4.088,5.4-7.171,5.078c-3.001-0.313-3.035-3.854-3.229-6.471
			C531.15,260.976,531.259,259.14,531.259,257.313z"/>
		<path fill="#FBF3F2" d="M414.1,193.536c4.295,0.53,8.235,1.066,12.188,1.48c1.554,0.163,2.24,1.082,2.91,2.329
			c4.821,8.971-1.368,24.101-10.939,27.617c-4.47,1.642-7.62-1.42-11.335-2.2c-2.169-0.455-1.38-4.011-1.726-6.185
			c-0.625-3.93-0.922-7.91-1.455-11.856c-1.024-7.584,1.465-10.642,9.212-11.18C413.451,193.506,413.951,193.536,414.1,193.536z"/>
		<path fill="#FBF3F2" d="M360.223,200.474c2.997,8.2,2.887,15.655,2.989,22.993c0.062,4.432-0.959,8.857-0.464,13.365
			c0.299,2.718-0.37,4.642-3.968,3.263c-2.128-0.815-4.59-0.717-6.795-1.382c-4.385-1.323-5.75-4.727-2.873-8.215
			c3.166-3.839,3.852-8.889,7.36-12.714c1.882-2.052,1.225-6.622,1.311-10.066C357.842,205.433,358.659,203.598,360.223,200.474z"/>
		<path fill="#FBF3F2" d="M577.794,247.555c7.22,6.38,11.897,12.716,15.082,20.109c0.994,2.308,1.732,5.108-0.599,6.951
			c-2.353,1.861-4.762,1.222-7.105-0.858c-2.373-2.106-5.496-2.268-8.524-1.552c-3.956,0.935-4.984-0.966-4.033-4.282
			c1.325-4.62,3.007-9.137,4.502-13.709C577.681,252.487,578.448,250.798,577.794,247.555z"/>
		<path fill="#FBF3F2" d="M445.083,234.176c-0.298,10.415-0.161,19.623-1.459,28.833c-2.213,0.296-2.973-1.513-3.57-2.852
			c-2.022-4.537-3.686-9.222-7.492-12.722c-1.977-1.818-0.042-3.102,1.051-4.045C436.983,240.485,440.538,237.795,445.083,234.176z"
			/>
	</g>
</g>
</svg>
