<?xml version="1.0" encoding="utf-8"?>
<!-- Generator: Adobe Illustrator 17.0.0, SVG Export Plug-In . SVG Version: 6.00 Build 0)  -->
<!DOCTYPE svg PUBLIC "-//W3C//DTD SVG 1.1//EN" "http://www.w3.org/Graphics/SVG/1.1/DTD/svg11.dtd">
<svg version="1.1" id="Warstwa_1" xmlns="http://www.w3.org/2000/svg" xmlns:xlink="http://www.w3.org/1999/xlink" x="0px" y="0px"
	 width="469.483px" height="234.737px" viewBox="-269.5 -134.747 469.483 234.737"
	 enable-background="new -269.5 -134.747 469.483 234.737" xml:space="preserve">
<rect x="-269.5" y="-134.747" fill="#561F32" width="469.483" height="234.737"/>
<path id="_47966976" fill="#FFFFFF" d="M-219.221,69.013l0.079-174.384l70.454-0.103c32.684-0.008,50.349,26.711,50.333,53.209
	c0.087,29.896-25.777,54.048-50.444,54.048l-36.811,0.206l-0.008,67.055L-219.221,69.013L-219.221,69.013z M-185.61-27.811v-47.846
	c30.632,0.008,53.731-0.642,53.723,23.004C-131.942-28.247-154.946-27.851-185.61-27.811z"/>
<path id="_46720496" fill="#FFFFFF" d="M-11.21-105.402h-33.579l-0.079,120.692c0.024,15.55-26.648,35.219-46.974,13.371
	l-27.02,26.806C-83.201,81.711-11.091,79.675-11.242,5.07L-11.21-105.402L-11.21-105.402z"/>
<polygon id="_46752832" fill="#FFFFFF" points="22.265,69.045 22.209,-105.458 49.12,-105.402 116.118,1.165 116.128,-105.347 
	149.707,-105.371 149.643,68.989 122.735,68.989 56.098,-38.997 56.011,69.076 "/>
<path fill="#561F32" d="M-185.65-27.849v-47.846c30.632,0.008,53.731-0.642,53.723,23.004
	C-131.982-28.285-154.986-27.889-185.65-27.849z"/>
</svg>
