<?xml version="1.0" encoding="utf-8"?>
<!-- Generator: Adobe Illustrator 17.0.0, SVG Export Plug-In . SVG Version: 6.00 Build 0)  -->
<!DOCTYPE svg PUBLIC "-//W3C//DTD SVG 1.1//EN" "http://www.w3.org/Graphics/SVG/1.1/DTD/svg11.dtd">
<svg version="1.1" id="Warstwa_1" xmlns="http://www.w3.org/2000/svg" xmlns:xlink="http://www.w3.org/1999/xlink" x="0px" y="0px"
	 width="402.816px" height="402.83px" viewBox="0 0 402.816 402.83" enable-background="new 0 0 402.816 402.83"
	 xml:space="preserve">
<g>
	<g>
		<path fill="#FDFDFC" d="M402.75,201.74c0,65.985-0.016,131.969,0.063,197.954c0.003,2.445-0.323,3.135-3.006,3.133
			c-131.969-0.089-263.938-0.089-395.908,0.003c-2.807,0.002-3.215-0.701-3.214-3.304C0.759,267.682,0.758,135.837,0.69,3.993
			C0.689,1.442,1.021,0.664,3.88,0.666C135.85,0.763,267.819,0.761,399.788,0.675c2.643-0.002,3.031,0.626,3.028,3.112
			C402.733,69.771,402.75,135.756,402.75,201.74z M96.815,215.175l0.008,0.006c-0.629-1.389-1.788-2.217-3.075-2.909l-0.024-0.019
			c-2.493-2.444-4.986-4.887-7.48-7.331c-4.714-5.778-9.588-11.434-13.464-17.845c-0.485-0.802-0.643-2.123-1.983-1.865
			c-1.71,0.33-0.958,1.814-0.966,2.77c-0.091,10.738,2.248,21.06,5.894,31.063c5.529,15.172,12.099,29.721,24.041,41.272
			c6.838,6.615,14.68,12.005,22.726,16.538c6.013,3.387,13.144,5.655,20.119,7.455c4.201,1.084,8.24,2.842,12.668,2.951
			c1.626,0.896,3.324,1.505,5.224,1.311c5.028,0.961,10.098,1.58,15.185,2.159c12.354,1.407,24.61,1.557,36.85-1.198
			c20.19-4.544,37.464-14.865,53.262-27.587c8.965-7.219,17.037-15.616,24.653-24.361c16.155-18.55,29.061-38.903,35.24-62.997
			c1.517-5.918,3.429-11.845,2.601-18.582c-0.904,0.767-1.593,1.133-1.969,1.706c-4.442,6.767-10.287,12.374-15.665,18.306
			c-16.931,18.677-36.391,34.346-58.321,46.869c-24.946,14.245-51.047,24.276-80.505,22.311
			c-13.963-0.931-27.832-2.172-40.874-7.876c-8.033-3.513-15.127-8.597-22.507-13.206c-2.919-2.743-6.127-5.113-9.468-7.31
			l-0.057-0.034C98.387,216.023,97.742,215.413,96.815,215.175z M384.176,137.796c0.101-14.526-1.191-28.874-4.627-43.044
			c-3.793-15.645-12.516-26.39-28.277-31.36c-10.007-3.155-20.171-4.571-30.535-4.824c-15.266-0.373-30.389,1.243-45.487,3.494
			c-18.389,2.742-36.617,6.231-54.747,10.314c-14.806,3.335-29.482,7.138-43.636,12.637c-6.37,2.475-12.716,5.292-17.385,10.664
			c-4.176,4.805-4.114,10.489-2.203,15.9c1.791,5.071,6.613,6.42,11.604,6.699c5.447,0.304,10.617-1.115,15.797-2.568
			c31.29-8.776,62.498-17.944,94.429-24.129c16.275-3.153,32.781-5.116,49.189-7.574c7.65-1.146,15.307-2.46,23.086-1.507
			c5.756,0.705,8.643,3.292,9.266,8.529c0.87,7.315,1.365,14.657,1.137,22.045c-0.672,21.746-2.902,43.303-6.854,64.716
			c-3.217,17.431-7.115,34.661-13.524,51.205c-7.765,20.045-18.605,38.524-29.695,56.855c-15.438,25.516-32.137,50.17-50.519,73.661
			c-5.22,6.671-10.653,13.189-17.146,18.723c-2.52,2.148-4.335,2.776-7.107-0.308c-8.415-9.361-17.691-17.87-27.56-25.718
			c-23.057-18.335-48.759-31.667-76.648-40.998c-22.696-7.594-46.319-10.728-69.735-14.864c-2.693-0.476-4.319-1.663-5.171-4.079
			c-2.031-5.759-4.247-11.467-5.965-17.319c-7.641-26.018-13.265-52.423-15.652-79.508c-1.361-15.439-1.185-30.842,0.406-46.17
			c0.974-9.384,3.334-18.651,6.403-27.651c1.242-3.643,3.431-6.447,6.753-8.625c8.512-5.583,17.794-9.555,27.181-13.254
			c20.051-7.902,40.386-15.112,60.261-23.426c28.485-11.916,56.699-24.485,84.954-36.942c11-4.85,21.911-9.944,31.956-16.654
			c1.469-0.982,3.168-2.312,2.569-4.154c-0.535-1.643-2.628-0.901-4.049-1.029c-1.108-0.1-2.246,0.043-3.364,0.151
			c-13.304,1.29-26.425,3.741-39.528,6.289c-18.724,3.641-37.388,7.665-55.46,13.79c-20.294,6.878-39.905,15.546-59.213,24.817
			c-20.088,9.646-39.95,19.752-57.432,33.851c-7.16,5.775-13.257,12.213-16.057,21.417c-5.765,18.956-9.532,38.215-10.626,58.024
			c-2.401,43.481,7.103,83.688,32.331,119.692c4.818,6.877,9.634,13.692,17.86,16.933c7.986,3.146,15.923,6.43,23.989,9.356
			c32.775,11.89,65.659,23.531,96.901,39.172c16.701,8.361,32.988,17.512,47.3,29.707c7.811,6.656,17.132,5.501,22.513,1.714
			c7.81-5.497,15.356-11.401,22.531-17.769c15.648-13.89,29.978-29.021,43.033-45.343c14.042-17.556,26.497-36.165,36.475-56.37
			c9.664-19.569,15.757-40.357,20.843-61.459C380.576,187.295,384.092,162.757,384.176,137.796z"/>
		<path fill="#FA5A06" d="M384.176,137.796c-0.084,24.961-3.601,49.5-9.436,73.711c-5.086,21.102-11.179,41.89-20.843,61.459
			c-9.978,20.204-22.432,38.814-36.475,56.37c-13.055,16.322-27.385,31.452-43.033,45.343c-7.175,6.369-14.721,12.272-22.531,17.769
			c-5.381,3.787-14.702,4.942-22.513-1.714c-14.311-12.195-30.599-21.346-47.3-29.707c-31.242-15.641-64.126-27.282-96.901-39.172
			c-8.066-2.926-16.003-6.21-23.989-9.356c-8.225-3.24-13.041-10.056-17.86-16.933c-25.228-36.004-34.732-76.211-32.331-119.692
			c1.094-19.81,4.861-39.069,10.626-58.024c2.799-9.204,8.896-15.643,16.057-21.417C55.13,82.332,74.992,72.226,95.08,62.58
			c19.308-9.271,38.919-17.939,59.213-24.817c18.072-6.124,36.736-10.149,55.46-13.79c13.103-2.548,26.224-4.999,39.528-6.289
			c1.118-0.108,2.256-0.251,3.364-0.151c1.421,0.128,3.514-0.613,4.049,1.029c0.6,1.842-1.099,3.172-2.569,4.154
			c-10.045,6.711-20.956,11.805-31.956,16.654c-28.256,12.457-56.469,25.026-84.954,36.942
			c-19.875,8.314-40.21,15.524-60.261,23.426c-9.387,3.699-18.669,7.671-27.181,13.254c-3.322,2.178-5.51,4.982-6.753,8.625
			c-3.069,9-5.429,18.267-6.403,27.651c-1.59,15.328-1.766,30.731-0.406,46.17c2.387,27.084,8.011,53.489,15.652,79.508
			c1.719,5.853,3.935,11.56,5.965,17.319c0.852,2.416,2.478,3.604,5.171,4.079c23.416,4.136,47.039,7.27,69.735,14.864
			c27.889,9.331,53.591,22.663,76.648,40.998c9.869,7.848,19.145,16.357,27.56,25.718c2.772,3.084,4.587,2.456,7.107,0.308
			c6.492-5.534,11.926-12.053,17.146-18.723c18.382-23.49,35.081-48.145,50.519-73.661c11.091-18.331,21.93-36.81,29.695-56.855
			c6.409-16.543,10.308-33.774,13.524-51.205c3.951-21.413,6.182-42.97,6.854-64.716c0.228-7.388-0.267-14.73-1.137-22.045
			c-0.623-5.237-3.511-7.824-9.266-8.529c-7.779-0.953-15.436,0.361-23.086,1.507c-16.408,2.458-32.914,4.421-49.189,7.574
			c-31.931,6.186-63.139,15.353-94.429,24.129c-5.18,1.453-10.35,2.872-15.797,2.568c-4.991-0.278-9.813-1.627-11.604-6.699
			c-1.911-5.411-1.973-11.095,2.203-15.9c4.669-5.373,11.015-8.189,17.385-10.664c14.154-5.499,28.829-9.302,43.636-12.637
			c18.131-4.083,36.359-7.572,54.747-10.314c15.098-2.252,30.22-3.867,45.487-3.494c10.364,0.253,20.528,1.669,30.535,4.824
			c15.762,4.969,24.484,15.715,28.277,31.36C382.985,108.921,384.277,123.27,384.176,137.796z"/>
		<path fill="#FA5A04" d="M108.451,224.118c7.38,4.609,14.474,9.693,22.507,13.206c13.042,5.704,26.911,6.945,40.874,7.876
			c29.458,1.965,55.56-8.066,80.505-22.311c21.93-12.523,41.39-28.191,58.321-46.869c5.377-5.932,11.222-11.539,15.665-18.306
			c0.376-0.572,1.066-0.938,1.969-1.706c0.828,6.738-1.084,12.664-2.601,18.582c-6.179,24.095-19.085,44.448-35.24,62.997
			c-7.616,8.745-15.688,17.141-24.653,24.361c-15.798,12.722-33.073,23.042-53.262,27.587c-12.24,2.755-24.496,2.606-36.85,1.198
			c-5.086-0.579-10.157-1.198-15.185-2.159c-1.607-3.912-1.88-3.981-5.224-1.311c-4.427-0.109-8.467-1.867-12.668-2.951
			c-6.975-1.8-14.106-4.068-20.119-7.455c-8.046-4.533-15.887-9.923-22.726-16.538c-11.941-11.551-18.511-26.099-24.041-41.272
			c-3.645-10.003-5.985-20.326-5.894-31.063c0.008-0.957-0.745-2.44,0.966-2.77c1.34-0.259,1.498,1.062,1.983,1.865
			c3.877,6.41,8.75,12.067,13.464,17.845c-0.465,0.818-1.064,1.592-1.35,2.469c-0.201,0.616-0.055,1.834,0.964,1.288
			c2.166-1.16,1.84,0.371,1.882,1.52c0.039,1.065,0.219,1.945,1.509,2.053c0.099,0.539,0.08,1.179,0.9,1.129
			c0.085-0.005,0.227-0.147,0.232-0.232c0.05-0.821-0.59-0.801-1.129-0.901c0.273-1.522,1.049-1.921,2.177-0.786
			c0.69,0.694,1.443,0.783,2.294,0.791c0,0,0.024,0.019,0.024,0.019c0.292,1.745,0.816,3.244,3.075,2.909
			c0,0-0.008-0.006-0.008-0.006c-0.069,1.554,1.019,1.579,2.111,1.598c0,0,0.057,0.034,0.057,0.034
			C101.113,220.573,104.187,223.116,108.451,224.118z M198.532,247.004c0.008,0.238,0.015,0.477,0.023,0.715
			c4.391,0,8.782,0,13.174,0c-0.011-0.238-0.022-0.477-0.033-0.715C207.308,247.004,202.92,247.004,198.532,247.004z"/>
		<path fill="#FA5A06" d="M93.723,212.253c-0.852-0.008-1.605-0.097-2.294-0.791c-1.128-1.135-1.904-0.736-2.177,0.786l-0.004,0.004
			c-1.29-0.108-1.47-0.988-1.509-2.053c-0.042-1.149,0.284-2.679-1.882-1.52c-1.02,0.546-1.166-0.671-0.964-1.288
			c0.286-0.877,0.885-1.651,1.35-2.469C88.737,207.366,91.23,209.81,93.723,212.253z"/>
		<path fill="#FA5A06" d="M108.451,224.118c-4.264-1.002-7.338-3.544-9.468-7.31C102.324,219.004,105.532,221.374,108.451,224.118z"
			/>
		<path fill="#FA5A06" d="M155.277,287.263c3.344-2.67,3.617-2.601,5.224,1.311C158.601,288.768,156.903,288.159,155.277,287.263z"
			/>
		<path fill="#FA5A06" d="M96.823,215.182c-2.259,0.335-2.783-1.164-3.075-2.909C95.035,212.965,96.194,213.793,96.823,215.182z"/>
		<path fill="#FA5A06" d="M98.926,216.773c-1.092-0.019-2.18-0.044-2.111-1.598C97.742,215.413,98.387,216.023,98.926,216.773z"/>
		<path fill="#FA5A06" d="M198.532,247.004c4.388,0,8.776,0,13.164,0c0.011,0.238,0.022,0.477,0.033,0.715
			c-4.391,0-8.782,0-13.174,0C198.548,247.481,198.54,247.242,198.532,247.004z"/>
		<path fill="#FA5A06" d="M89.252,212.248c0.539,0.099,1.179,0.08,1.129,0.901c-0.005,0.085-0.147,0.227-0.232,0.232
			c-0.821,0.05-0.801-0.59-0.9-1.129C89.248,212.252,89.252,212.248,89.252,212.248z"/>
	</g>
</g>
</svg>
