<?xml version="1.0" encoding="utf-8"?>
<!-- Generator: Adobe Illustrator 17.0.0, SVG Export Plug-In . SVG Version: 6.00 Build 0)  -->
<!DOCTYPE svg PUBLIC "-//W3C//DTD SVG 1.1//EN" "http://www.w3.org/Graphics/SVG/1.1/DTD/svg11.dtd">
<svg version="1.1" id="Warstwa_1" xmlns="http://www.w3.org/2000/svg" xmlns:xlink="http://www.w3.org/1999/xlink" x="0px" y="0px"
	 width="448.769px" height="284.334px" viewBox="-296.585 -187.832 448.769 284.334"
	 enable-background="new -296.585 -187.832 448.769 284.334" xml:space="preserve">
<g>
	<g>
		<path fill="#F6A801" d="M-222.097-187.764c1.181,0,2.362,0,3.544,0c1.285,1.249,3.021,1.057,4.571,1.352
			c33.083,6.32,66.455,10.412,100.058,12.571c24.286,1.559,48.587,1.999,72.914,0.481c25.328-1.58,50.577-4.424,75.982-4.837
			c21.48-0.351,42.294,2.862,62.395,10.678c30.561,11.883,48.604,33.848,54.026,66.184c0.094,0.561,0.015,1.199,0.723,1.453
			c0,6.615,0,13.23,0,19.844c-1.066,0.588-0.712,1.663-0.794,2.528c-2.805,29.483-5.519,58.978-8.381,88.456
			c-2.2,22.665-4.433,45.326-7.645,67.879c-0.555,3.898-1.565,4.427-5.174,2.74c-5.995-2.799-12.081-5.363-18.483-7.049
			c-27.431-7.217-54.788-6.754-82.234,0.289C-2.934,83.104-35.438,90.69-68.654,94.751c-3.901,0.478-7.92,0.263-11.691,1.686
			c-11.812,0-23.624,0-35.437,0c-2.17-1.45-4.71-1.034-7.084-1.323c-17.975-2.191-35.289-6.494-50.913-16.044
			c-11.098-6.78-20.32-15.388-25.387-27.714c-2.07-5.038-1.237-6.125,4.152-5.8c7.728,0.464,15.347,0.121,22.623-2.909
			c1.06-0.443,2.51-0.732,2.306-2.227c-0.207-1.506-1.698-1.344-2.838-1.536c-5.236-0.886-10.501-1.624-15.695-2.711
			c-16.065-3.361-31.406-8.531-44.91-18.253c-16.764-12.069-24.882-29.454-30.03-48.66c-0.659-2.463,0.762-3.464,3.969-3.033
			c8.635,1.164,17.21,0.712,25.703-1.101c6.721-1.435,13.2-3.615,19.186-7.067c1.273-0.735,3.254-1.267,2.98-3.086
			c-0.292-1.931-2.318-1.612-3.792-1.825c-1.285-0.186-2.572-0.351-3.857-0.537c-17.763-2.575-34.105-8.472-47.656-20.695
			c-16.209-14.618-23.763-33.603-27.422-54.566c-0.656-3.75-0.301-7.699-2.058-11.248c0-8.741,0-17.482,0-26.223
			c1.282-0.933,2.519-1.314,4.235-0.853c20.592,5.522,41.65,8.23,62.814,10.327c2.844,0.283,3.945-0.467,3.659-3.405
			c-0.918-9.482,0.118-18.867,1.692-28.202C-223.792-184.179-223.836-186.326-222.097-187.764z M146.647-88.35
			c-0.047-3.219-0.434-6.373-0.856-9.538c-3.482-26.134-16.46-46.168-39.713-58.512c-30.405-16.141-63.192-17.937-96.55-13.132
			c-13.643,1.964-27.094,5.251-40.643,7.885c-25.009,4.858-50.149,8.96-75.442,12.016c-12.863,1.553-25.748,2.947-38.691,3.801
			c-8.703,0.576-17.405,1.078-26.117,1.503c-15.687,0.768-31.364,0.821-47.045,0c-3.44-0.18-4.793,0.977-3.978,4.238
			c4.117,16.446,11.487,31.22,23.223,43.56c8.735,9.187,18.964,16.268,31.057,20.438c0.983,0.34,2.176,0.526,2.439,1.778
			c0.292,1.406-0.786,2.147-1.704,2.856c-0.741,0.57-1.589,1.019-2.43,1.441c-7.51,3.789-15.595,4.276-23.802,4.202
			c-8.142-0.071-7.947-0.021-7.362,7.964c1.394,19.056,9.931,34.678,22.78,48.282c8.398,8.895,17.893,16.422,28.414,22.665
			c1.078,0.641,2.596,1.175,2.51,2.705c-0.097,1.754-1.852,1.987-3.11,2.457c-2.776,1.031-5.64,1.627-8.644,1.674
			c-3.251,0.05-4.291,1.515-3.204,4.554c1.158,3.234,2.876,6.198,5.023,8.909c7.69,9.704,18.099,15.353,29.442,19.434
			c20.707,7.448,42.329,9.154,64.09,9.521c14.048,0.236,28.104-0.068,42.155,0.074c34.465,0.351,68.948-1.039,103.392,0.75
			c15.031,0.78,29.749,3.49,43.646,9.665c3.18,1.414,4.701,0.833,5.141-2.256c1.09-7.702,2.117-15.415,2.959-23.146
			c1.364-12.533,2.578-25.08,3.827-37.625c1.352-13.599,2.696-27.195,4.004-40.796c0.915-9.497,1.787-18.997,2.643-28.5
			C144.976-69.102,145.802-78.726,146.647-88.35z"/>
		<path fill="#FEFDFC" d="M-296.514-133.901c1.757,3.55,1.403,7.498,2.058,11.248c3.662,20.964,11.216,39.949,27.422,54.566
			c13.552,12.223,29.894,18.123,47.656,20.695c1.285,0.186,2.572,0.351,3.857,0.537c1.474,0.216,3.502-0.103,3.792,1.825
			c0.275,1.822-1.707,2.354-2.98,3.086c-5.986,3.452-12.465,5.634-19.186,7.067c-8.493,1.813-17.069,2.265-25.703,1.101
			c-3.204-0.431-4.627,0.57-3.969,3.033c5.144,19.207,13.265,36.591,30.03,48.66c13.504,9.721,28.848,14.892,44.91,18.253
			c5.194,1.087,10.46,1.822,15.695,2.711c1.137,0.192,2.628,0.03,2.838,1.536c0.207,1.494-1.243,1.784-2.306,2.227
			c-7.276,3.03-14.895,3.372-22.623,2.909c-5.389-0.322-6.222,0.765-4.152,5.8c5.064,12.326,14.29,20.934,25.387,27.714
			c15.628,9.55,32.941,13.853,50.913,16.044c2.374,0.289,4.914-0.127,7.084,1.323c-59.297,0-118.594-0.018-177.892,0.068
			c-2.427,0.003-2.906-0.475-2.903-2.903C-296.499,17.768-296.514-58.066-296.514-133.901z"/>
		<path fill="#FEFDFC" d="M152.113-99.882c-0.706-0.254-0.629-0.892-0.723-1.453c-5.425-32.333-23.465-54.301-54.026-66.184
			c-20.101-7.817-40.914-11.03-62.395-10.678c-25.405,0.413-50.654,3.26-75.982,4.837c-24.327,1.515-48.628,1.078-72.914-0.481
			c-33.6-2.159-66.972-6.252-100.055-12.571c-1.55-0.295-3.287-0.103-4.571-1.352c122.492,0,244.985,0.009,367.477-0.068
			c2.658-0.003,3.269,0.597,3.26,3.257C152.072-156.344,152.113-128.113,152.113-99.882z"/>
		<path fill="#FEFDFC" d="M-80.351,96.437c3.771-1.423,7.79-1.208,11.691-1.686c33.216-4.06,65.72-11.647,98.059-19.945
			c27.446-7.043,54.803-7.507,82.233-0.289c6.405,1.686,12.491,4.249,18.483,7.049c3.609,1.686,4.619,1.158,5.174-2.74
			c3.213-22.549,5.445-45.214,7.645-67.879c2.861-29.48,5.575-58.972,8.381-88.456c0.083-0.865-0.272-1.943,0.794-2.528
			c0,57.83-0.024,115.659,0.074,173.489c0.003,2.622-0.62,3.05-3.11,3.05C72.602,96.422-3.873,96.437-80.351,96.437z"/>
		<path fill="#FEFDFC" d="M-222.097-187.764c-1.739,1.438-1.695,3.585-2.02,5.504c-1.571,9.335-2.61,18.722-1.692,28.202
			c0.286,2.941-0.815,3.688-3.659,3.405c-21.162-2.1-42.22-4.805-62.814-10.327c-1.713-0.461-2.953-0.077-4.235,0.853
			c0-8.387,0.092-16.776-0.062-25.16c-0.035-2.117,0.431-2.546,2.546-2.537C-270.055-187.729-246.076-187.764-222.097-187.764z"/>
		<path fill="#EB7406" d="M146.647-88.35c-0.845,9.624-1.671,19.248-2.54,28.869c-0.856,9.503-1.728,19.003-2.643,28.5
			c-1.311,13.602-2.652,27.201-4.004,40.796c-1.249,12.545-2.463,25.092-3.827,37.625c-0.842,7.731-1.866,15.444-2.959,23.146
			c-0.437,3.089-1.958,3.671-5.141,2.256c-13.894-6.175-28.615-8.886-43.646-9.665c-34.444-1.79-68.927-0.399-103.392-0.75
			c-14.051-0.142-28.107,0.162-42.155-0.074c-21.764-0.369-43.386-2.073-64.09-9.521c-11.343-4.078-21.755-9.727-29.442-19.434
			c-2.147-2.711-3.866-5.676-5.023-8.909c-1.087-3.039-0.047-4.503,3.204-4.554c3.003-0.047,5.868-0.644,8.644-1.674
			c1.261-0.467,3.012-0.7,3.11-2.457c0.086-1.53-1.432-2.064-2.51-2.705c-10.522-6.243-20.016-13.773-28.414-22.665
			c-12.849-13.608-21.386-29.226-22.78-48.282c-0.585-7.985-0.777-8.035,7.362-7.964c8.207,0.071,16.289-0.413,23.802-4.202
			c0.842-0.425,1.689-0.871,2.43-1.441c0.921-0.709,1.999-1.45,1.704-2.856c-0.263-1.252-1.456-1.441-2.439-1.778
			c-12.093-4.17-22.322-11.251-31.057-20.438c-11.735-12.344-19.106-27.115-23.223-43.56c-0.815-3.26,0.537-4.418,3.978-4.238
			c15.678,0.818,31.355,0.768,47.045,0c8.711-0.428,17.414-0.93,26.117-1.503c12.943-0.856,25.827-2.247,38.691-3.801
			c25.293-3.056,50.429-7.158,75.441-12.016c13.549-2.631,27-5.918,40.643-7.885c33.358-4.805,66.145-3.009,96.55,13.132
			c23.252,12.344,36.228,32.377,39.713,58.512C146.213-94.723,146.6-91.566,146.647-88.35z M-102.886-130.138
			c-6.207,0-11.402,0.089-16.593-0.041c-2.173-0.056-3.077,0.517-3.361,2.853c-3.555,29.513-7.211,59.014-10.879,88.515
			c-0.201,1.618-0.682,2.921,1.884,2.87c7.078-0.133,14.163-0.103,21.244-0.009c1.955,0.027,2.327-0.921,2.507-2.543
			c0.936-8.443,1.896-16.883,2.98-25.305c0.186-1.444-0.783-3.626,2.333-3.777c3.115-0.148,2.98,1.807,3.358,3.747
			c1.329,6.827,2.51,13.69,4.108,20.456c1.394,5.909,4.887,8.449,10.935,8.582c5.017,0.109,9.81-1.016,14.544-2.625
			c2.159-0.732,2.56-1.668,1.878-3.854c-3.405-10.909-6.618-21.879-9.937-32.814c-0.47-1.547-0.842-2.664,1.037-3.798
			c7.843-4.743,12.102-12.06,13.989-20.816c3.739-17.358-5.056-29.336-22.635-31.104
			C-91.631-130.419-97.768-129.949-102.886-130.138z M94.989-106.012c0.074-0.853,0.103-1.296,0.151-1.736
			c0.715-6.571,1.53-13.129,2.12-19.712c0.537-6.009-1.479-8.274-7.412-8.759c-4.636-0.378-9.166,0.201-13.673,1.329
			c-1.908,0.478-2.631,1.347-2.823,3.331c-0.676,7.046-1.577,14.068-2.389,21.102c-2.761,23.911-5.484,47.828-8.333,71.73
			c-0.269,2.25,0.201,2.835,2.439,2.788c6.255-0.136,12.515-0.171,18.767,0.015c2.498,0.074,3.08-0.821,3.334-3.142
			c1.71-15.719,3.597-31.417,5.398-47.125c0.416-3.632,3.948-6.219,8.08-5.815c3.036,0.298,3.942,1.97,3.446,6.408
			c-1.76,15.713-3.496,31.429-5.333,47.134c-0.207,1.781-0.035,2.546,2.002,2.516c6.609-0.1,13.221-0.097,19.83,0
			c1.902,0.03,2.395-0.762,2.519-2.475c0.216-2.938,0.65-5.862,0.992-8.791c1.787-15.353,3.824-30.682,5.283-46.068
			c1.373-14.452-7.613-21.915-21.826-18.778C103.001-111.056,99.067-108.803,94.989-106.012z M-24.594-43.053
			c1.045,5.1,3.632,7.967,8.401,8.419c4.435,0.419,8.691-0.393,12.796-2.111c1.406-0.588,2.218-1.364,2.421-3.065
			c2.74-22.969,5.555-45.932,8.407-68.889c0.236-1.911-0.021-2.761-2.238-2.717c-6.491,0.13-12.99,0.127-19.481,0
			c-2.141-0.041-2.767,0.7-3.009,2.773c-1.772,15.241-3.688,30.464-5.546,45.695c-0.455,3.727-3.417,6.662-7.143,6.949
			c-2.74,0.21-4.353-1.096-4.406-3.836c-0.041-2.111,0.221-4.238,0.467-6.343c1.388-11.839,2.894-23.666,4.19-35.516
			c0.738-6.727-1.89-9.716-8.605-10.182c-3.774-0.263-7.542,0.109-11.313,0.272c-3.154,0.139-4.09,1.521-4.409,4.444
			c-1.252,11.499-2.811,22.963-4.084,34.459c-0.83,7.495-2.371,14.942-1.725,22.555c0.895,10.542,6.943,15.973,17.52,15.577
			C-35.411-34.829-29.662-37.785-24.594-43.053z M56.487-57.242c-2.153,0.718-3.889,1.453-5.699,1.869
			c-9.727,2.25-14.733-1.63-15.049-11.644c-0.21-6.677,0.818-13.185,3.039-19.478c1.917-5.428,4.317-6.582,10.023-5
			c1.022,0.283,2.017,0.659,3.015,1.016c4.391,1.568,6.857,0.726,9.202-3.293c1.872-3.207,2.404-6.851,3.381-10.368
			c0.915-3.302-0.484-4.592-3.186-5.826c-16.118-7.374-35.944-1.042-44.461,14.52c-5.95,10.87-8.085,22.715-6.827,34.92
			c2.351,22.851,23.781,33.443,43.637,21.856c1.358-0.791,3.006-1.329,2.959-3.511C56.417-47.116,56.487-52.048,56.487-57.242z
			 M6.794,16.761c0.171,0.044,0.34,0.092,0.511,0.136c0.653,2.303,1.261,4.624,1.97,6.91c0.963,3.11,0.278,7.642,2.856,9.075
			c2.634,1.462,6.683,0.224,10.088,0.493c2.805,0.221,2.732-0.945,2.123-3.021c-1.456-4.979-2.631-10.046-4.193-14.99
			c-0.712-2.253-0.399-3.987,0.791-5.947c2.776-4.577,5.339-9.281,8.204-14.31c-3.691,0-6.76,0.139-9.81-0.047
			c-2.182-0.133-3.39,0.573-4.356,2.587c-2.114,4.406-4.524,8.67-6.813,12.993c0.396-7.678,1.391-15.128,2.197-22.6
			c0.44-4.075-0.54-5.242-4.01-5.569c-5.823-0.552-8.251,0.803-8.72,4.743C-3.923,0.224-5.473,13.238-7.109,26.24
			c-0.892,7.087-0.972,7.078,6.027,7.078c1.063,0,2.15-0.139,3.183,0.03c2.424,0.396,3.018-0.868,3.207-2.962
			C5.719,25.836,6.289,21.303,6.794,16.761z M-101.013-14.134c0-0.05,0-0.103,0-0.154c-2.596,0-5.197,0.089-7.787-0.03
			c-1.846-0.086-2.649,0.381-2.882,2.445c-1.621,14.299-3.349,28.585-5.191,42.858c-0.272,2.1,0.41,2.419,2.173,2.359
			c2.711-0.089,5.437-0.151,8.139,0.021c1.931,0.121,2.436-0.794,2.593-2.427c0.26-2.699,0.688-5.383,0.907-8.085
			c0.13-1.615,0.434-2.395,2.442-2.478c12.285-0.508,19.933-8.927,19.791-21.516c-0.086-7.578-4.149-12.19-11.694-12.943
			C-95.329-14.37-98.181-14.134-101.013-14.134z M104.631,29.373c0.765,0.115,0.564,0.712,0.685,1.101
			c1.225,3.901,4.335,3.6,7.495,3.544c3.21-0.053,3.325-2.188,3.579-4.495c1.087-9.84,2.209-19.673,3.369-29.504
			c0.549-4.645-0.774-6.012-5.546-5.569c-1.559,0.145-3.059,0.573-4.282,1.506c-1.143,0.868-1.89,0.632-3.077-0.035
			c-4.949-2.785-10.832-1.651-14.765,2.643c-5.691,6.207-7.961,22.671-4.173,30.248c2.785,5.566,9.054,6.984,13.98,3.118
			C102.889,31.148,103.748,30.206,104.631,29.373z M-61.826,29.232c0.316,0.853,0.487,1.651,0.88,2.315
			c1.89,3.219,4.955,2.548,7.899,2.33c2.77-0.207,2.457-2.312,2.67-4.14c1.152-9.969,2.318-19.936,3.47-29.906
			c0.517-4.48-0.762-5.741-5.383-5.395c-1.568,0.118-3.059,0.537-4.323,1.42c-1.084,0.756-1.81,0.853-3.101,0.142
			c-5.36-2.962-11.632-1.946-15.19,3.077c-6.446,9.104-7.35,19.322-3.75,29.672c1.922,5.525,8.475,6.963,13.315,3.597
			C-64.133,31.5-63.111,30.38-61.826,29.232z M27.429,17.727c-0.118,2.501,0.186,4.961,0.927,7.338
			c1.533,4.911,4.663,8.147,9.916,8.898c8.038,1.146,15.501-2.891,18.731-10.318c2.702-6.213,3.343-12.772,2.147-19.419
			c-1.022-5.682-4.775-9.087-10.218-9.73C39.605-6.607,31.85-1.675,28.983,7.27C27.893,10.657,27.397,14.159,27.429,17.727z
			 M82.247,28.024c0.369-2.631,0.723-4.74-3.056-3.919c-2.262,0.493-3.027-1.347-2.776-3.428c0.425-3.514,1.084-7.011,1.288-10.534
			c0.189-3.29,0.966-5.437,4.905-4.678c1.096,0.213,2.637,0.298,2.664-1.435c0.041-2.655,1.302-5.245,0.416-7.914
			c-0.068-0.21-0.853-0.204-1.311-0.254c-4.828-0.54-4.825-0.537-4.173-5.327c0.112-0.818,0.186-1.642,0.289-2.46
			c0.1-0.803-0.148-1.237-1.01-1.518c-5.088-1.657-10.799,1.506-11.47,6.703c-0.284,2.185-1.06,2.888-3.092,2.605
			c-1.491-0.207-2.097,0.496-2.179,1.993c-0.103,1.881-0.402,3.75-0.647,5.623c-0.162,1.237,0.053,2.162,1.583,2.011
			c2.416-0.239,1.908,1.308,1.739,2.726c-0.65,5.504-1.544,10.997-1.828,16.522c-0.307,5.965,3.139,9.264,9.069,9.255
			c1.636-0.003,3.284-0.272,4.905-0.543C80.747,32.914,83.452,31.904,82.247,28.024z M-44.849,23.833
			c-0.201,8.177,5.499,11.93,13.445,9.636c2.608-0.753,4.884-6.81,3.337-8.986c-0.207-0.289-0.78-0.44-1.187-0.449
			c-2.802-0.056-2.782-1.73-2.507-3.886c1.355-10.64,2.675-21.286,3.86-31.943c0.478-4.294-1.101-5.868-5.422-5.735
			c-1.633,0.05-3.257,0.47-4.881,0.732c-1.373,0.221-1.881,1.069-2.041,2.43C-41.781-1.377-43.37,11.608-44.849,23.833z
			 M-19.592,33.313c1.533,0,3.068-0.021,4.601,0.006c1.122,0.021,1.728-0.405,1.863-1.595c1.22-10.661,2.546-21.312,3.674-31.982
			c0.354-3.355-1.89-4.5-4.896-4.639c-5.289-0.242-7.126,0.635-7.533,3.928c-1.149,9.246-2.224,18.501-3.316,27.753
			C-25.973,33.322-25.968,33.322-19.592,33.313z M-15.153-7.87c4.89-0.068,8.003-2.882,7.882-7.129
			c-0.089-3.18-2.029-4.819-5.667-4.787c-4.887,0.041-7.899,2.581-7.885,6.647C-20.809-9.778-18.703-7.82-15.153-7.87z"/>
		<path fill="#FEFDFC" d="M-102.886-130.138c5.118,0.192,11.254-0.281,17.385,0.337c17.579,1.769,26.371,13.746,22.635,31.104
			c-1.887,8.756-6.145,16.073-13.989,20.816c-1.878,1.137-1.506,2.25-1.037,3.798c3.322,10.935,6.532,21.906,9.937,32.814
			c0.682,2.185,0.281,3.118-1.878,3.854c-4.734,1.609-9.527,2.735-14.544,2.625c-6.048-0.13-9.541-2.673-10.935-8.582
			C-96.906-50.137-98.09-57-99.419-63.828c-0.378-1.94-0.242-3.898-3.358-3.747c-3.115,0.148-2.147,2.333-2.333,3.777
			c-1.084,8.425-2.044,16.865-2.98,25.305c-0.18,1.621-0.552,2.569-2.507,2.543c-7.081-0.097-14.163-0.127-21.244,0.009
			c-2.566,0.047-2.085-1.252-1.884-2.87c3.668-29.501,7.327-59.002,10.879-88.515c0.281-2.336,1.187-2.906,3.361-2.853
			C-114.287-130.05-109.093-130.138-102.886-130.138z M-87.807-101.547c0.319-6.482-2.501-9.249-9.113-9.172
			c-1.86,0.021-2.67,0.517-2.862,2.504c-0.52,5.398-1.29,10.773-1.934,16.162c-0.724,6.057,0.983,7.362,7.016,5.516
			c1.601-0.49,2.581-1.562,3.393-2.909C-89.059-93.166-88.005-97.233-87.807-101.547z"/>
		<path fill="#FEFDFC" d="M94.989-106.012c4.078-2.791,8.012-5.041,12.571-6.048c14.216-3.139,23.199,4.326,21.826,18.778
			c-1.459,15.385-3.499,30.715-5.283,46.068c-0.34,2.929-0.777,5.853-0.992,8.791c-0.124,1.713-0.617,2.504-2.519,2.475
			c-6.609-0.097-13.221-0.1-19.83,0c-2.038,0.03-2.212-0.735-2.002-2.516c1.834-15.704,3.573-31.42,5.333-47.134
			c0.496-4.438-0.41-6.11-3.446-6.408c-4.128-0.405-7.663,2.182-8.08,5.815c-1.801,15.707-3.688,31.406-5.398,47.125
			c-0.251,2.321-0.836,3.219-3.334,3.142c-6.252-0.189-12.512-0.151-18.767-0.015c-2.238,0.047-2.708-0.537-2.439-2.788
			c2.85-23.902,5.572-47.816,8.333-71.73c0.812-7.031,1.713-14.057,2.389-21.102c0.189-1.984,0.912-2.853,2.823-3.331
			c4.506-1.128,9.036-1.707,13.673-1.329c5.933,0.484,7.95,2.749,7.412,8.759c-0.588,6.579-1.406,13.141-2.12,19.712
			C95.09-107.308,95.06-106.865,94.989-106.012z"/>
		<path fill="#FEFDFC" d="M-24.594-43.053c-5.067,5.268-10.817,8.221-17.76,8.481c-10.581,0.396-16.629-5.032-17.52-15.577
			c-0.647-7.616,0.895-15.063,1.725-22.555c1.273-11.496,2.832-22.96,4.084-34.459c0.319-2.924,1.255-4.306,4.409-4.444
			c3.774-0.165,7.539-0.535,11.313-0.272c6.715,0.467,9.34,3.455,8.605,10.182c-1.299,11.851-2.805,23.678-4.19,35.516
			c-0.248,2.106-0.508,4.232-0.467,6.343c0.053,2.743,1.666,4.046,4.406,3.836c3.727-0.286,6.689-3.219,7.143-6.949
			c1.857-15.232,3.774-30.455,5.546-45.695c0.242-2.073,0.868-2.814,3.009-2.773c6.491,0.127,12.99,0.13,19.481,0
			c2.218-0.044,2.478,0.806,2.238,2.717C4.576-85.745,1.765-62.785-0.979-39.814c-0.204,1.701-1.016,2.478-2.421,3.065
			c-4.102,1.719-8.36,2.531-12.796,2.111C-20.962-35.083-23.552-37.95-24.594-43.053z"/>
		<path fill="#FEFDFC" d="M56.487-57.242c0,5.194-0.071,10.129,0.032,15.058c0.047,2.182-1.604,2.72-2.959,3.511
			C33.705-27.086,12.274-37.679,9.924-60.529c-1.255-12.202,0.877-24.047,6.827-34.92c8.52-15.563,28.343-21.894,44.461-14.52
			c2.702,1.234,4.102,2.525,3.186,5.826c-0.977,3.517-1.509,7.161-3.381,10.368c-2.345,4.016-4.811,4.861-9.202,3.293
			c-0.998-0.357-1.996-0.732-3.015-1.016c-5.705-1.58-8.106-0.428-10.023,5c-2.221,6.293-3.248,12.801-3.039,19.478
			c0.313,10.014,5.321,13.894,15.049,11.644C52.598-55.793,54.335-56.528,56.487-57.242z"/>
		<path fill="#FEFDFC" d="M6.794,16.761c-0.505,4.542-1.075,9.078-1.482,13.628c-0.189,2.091-0.783,3.355-3.207,2.962
			c-1.037-0.168-2.12-0.03-3.183-0.03c-6.999,0-6.919,0.009-6.027-7.078c1.639-13.002,3.186-26.016,4.74-39.027
			c0.47-3.939,2.897-5.295,8.72-4.743c3.47,0.328,4.45,1.494,4.01,5.569c-0.806,7.471-1.801,14.922-2.197,22.6
			c2.289-4.323,4.698-8.587,6.813-12.993c0.966-2.014,2.173-2.72,4.356-2.587c3.05,0.186,6.119,0.047,9.81,0.047
			c-2.864,5.029-5.428,9.733-8.204,14.31c-1.19,1.961-1.503,3.694-0.791,5.947c1.565,4.943,2.737,10.008,4.193,14.99
			c0.608,2.079,0.679,3.245-2.123,3.021c-3.405-0.269-7.453,0.969-10.088-0.493c-2.578-1.432-1.893-5.962-2.856-9.075
			c-0.709-2.289-1.317-4.607-1.97-6.91C7.136,16.85,6.965,16.805,6.794,16.761z"/>
		<path fill="#FEFDFC" d="M-101.013-14.134c2.829,0,5.685-0.233,8.487,0.044c7.545,0.753,11.608,5.366,11.694,12.943
			c0.142,12.592-7.507,21.011-19.791,21.516c-2.005,0.083-2.309,0.865-2.442,2.478c-0.219,2.702-0.647,5.386-0.907,8.085
			c-0.157,1.633-0.661,2.551-2.593,2.427c-2.702-0.171-5.428-0.109-8.139-0.021c-1.763,0.056-2.445-0.26-2.173-2.359
			c1.843-14.272,3.57-28.559,5.191-42.858c0.233-2.064,1.039-2.528,2.882-2.445c2.59,0.118,5.191,0.03,7.787,0.03
			C-101.013-14.237-101.013-14.187-101.013-14.134z M-93.867,1.727c0-1.592,0.062-2.188-0.012-2.767
			c-0.307-2.398-1.728-3.411-4.108-3.42c-2.537-0.012-1.887,1.958-2.103,3.287c-0.393,2.439-0.744,4.902-0.839,7.365
			c-0.044,1.143-1.586,3.033,0.845,3.414c2.002,0.316,4.043,0.124,4.908-2.342C-94.431,5.138-93.929,2.976-93.867,1.727z"/>
		<path fill="#FEFDFC" d="M104.631,29.373c-0.883,0.833-1.745,1.775-2.735,2.554c-4.926,3.866-11.195,2.451-13.98-3.118
			c-3.789-7.578-1.518-24.041,4.173-30.248c3.936-4.294,9.816-5.428,14.765-2.643c1.187,0.667,1.937,0.904,3.077,0.035
			c1.225-0.933,2.723-1.361,4.282-1.506c4.772-0.443,6.092,0.927,5.546,5.569c-1.161,9.831-2.283,19.667-3.369,29.504
			c-0.254,2.306-0.369,4.441-3.579,4.495c-3.16,0.053-6.269,0.354-7.495-3.544C105.195,30.085,105.399,29.489,104.631,29.373z
			 M98.695,16.652c-0.047,1.022-0.118,1.382-0.071,1.728c0.289,2.111-0.472,5.221,2.534,5.448c3.115,0.236,3.712-2.64,4.01-5.23
			c0.405-3.517,0.921-7.019,1.261-10.542c0.127-1.323,1.299-3.26-1.276-3.606c-2.067-0.278-4.007-0.21-4.743,2.433
			C99.457,10.306,98.743,13.755,98.695,16.652z"/>
		<path fill="#FEFDFC" d="M-61.826,29.232c-1.285,1.149-2.306,2.268-3.52,3.113c-4.837,3.366-11.393,1.931-13.315-3.597
			c-3.6-10.35-2.696-20.568,3.75-29.672c3.558-5.023,9.834-6.042,15.19-3.077c1.288,0.712,2.017,0.614,3.101-0.142
			c1.267-0.883,2.758-1.302,4.323-1.42c4.622-0.346,5.9,0.918,5.383,5.395c-1.152,9.969-2.318,19.936-3.47,29.906
			c-0.21,1.828,0.1,3.933-2.67,4.14c-2.944,0.219-6.006,0.889-7.899-2.33C-61.339,30.879-61.51,30.085-61.826,29.232z
			 M-68.149,18.131c0.455,1.999-0.632,5.457,2.776,5.693c3.033,0.21,3.579-2.749,3.854-5.324c0.372-3.496,0.871-6.981,1.226-10.477
			c0.133-1.32,1.414-3.225-1.178-3.57c-2.017-0.269-3.963-0.281-4.757,2.362C-67.319,10.438-67.859,14.124-68.149,18.131z"/>
		<path fill="#FEFDFC" d="M27.427,17.727c-0.03-3.567,0.467-7.07,1.553-10.457C31.847-1.672,39.602-6.607,48.931-5.505
			c5.442,0.644,9.196,4.049,10.218,9.73c1.196,6.647,0.555,13.206-2.147,19.419c-3.231,7.427-10.69,11.467-18.731,10.318
			c-5.253-0.75-8.384-3.987-9.916-8.898C27.616,22.688,27.311,20.228,27.427,17.727z M39.705,16.596c0,1.293-0.103,2.599,0.027,3.88
			c0.162,1.609,0.127,3.449,2.404,3.747c2.271,0.298,3.139-1.093,3.65-2.983c1.214-4.48,1.657-9.045,1.562-13.673
			c-0.035-1.683-0.505-3.071-2.519-3.192c-1.778-0.106-2.841,0.697-3.366,2.448C40.497,10.022,40.125,13.288,39.705,16.596z"/>
		<path fill="#FEFDFC" d="M82.247,28.024c1.205,3.88-1.5,4.89-4.686,5.425c-1.621,0.272-3.269,0.543-4.905,0.543
			c-5.93,0.009-9.373-3.29-9.069-9.255c0.283-5.525,1.178-11.018,1.828-16.522c0.168-1.417,0.676-2.965-1.739-2.726
			c-1.533,0.151-1.745-0.774-1.583-2.011c0.245-1.872,0.543-3.742,0.647-5.623c0.08-1.497,0.688-2.2,2.179-1.993
			c2.032,0.283,2.808-0.419,3.092-2.605c0.67-5.197,6.384-8.357,11.47-6.703c0.862,0.281,1.11,0.715,1.01,1.518
			c-0.103,0.818-0.177,1.642-0.289,2.46c-0.653,4.79-0.653,4.787,4.173,5.327c0.458,0.05,1.243,0.047,1.311,0.254
			c0.886,2.67-0.375,5.259-0.416,7.914c-0.027,1.733-1.568,1.648-2.664,1.435c-3.939-0.759-4.713,1.388-4.905,4.678
			c-0.204,3.523-0.862,7.019-1.288,10.534c-0.251,2.082,0.514,3.922,2.776,3.428C82.97,23.284,82.616,25.393,82.247,28.024z"/>
		<path fill="#FEFDFC" d="M-44.849,23.833c1.479-12.229,3.068-25.213,4.601-38.204c0.159-1.358,0.667-2.206,2.041-2.43
			c1.627-0.263,3.248-0.682,4.881-0.732c4.32-0.133,5.9,1.441,5.422,5.735c-1.184,10.661-2.504,21.306-3.86,31.943
			c-0.275,2.156-0.298,3.83,2.507,3.886c0.408,0.009,0.98,0.157,1.187,0.449c1.55,2.176-0.729,8.236-3.337,8.986
			C-39.351,35.764-45.05,32.01-44.849,23.833z"/>
		<path fill="#FEFDFC" d="M-19.592,33.316c-6.376,0.006-6.382,0.006-5.608-6.529c1.096-9.252,2.168-18.507,3.316-27.753
			c0.41-3.293,2.244-4.17,7.533-3.928c3.006,0.139,5.251,1.285,4.896,4.639c-1.128,10.669-2.451,21.321-3.674,31.981
			c-0.136,1.19-0.744,1.615-1.863,1.595C-16.524,33.292-18.056,33.313-19.592,33.316z"/>
		<path fill="#FEFDFC" d="M-15.153-7.87c-3.553,0.05-5.655-1.908-5.667-5.268c-0.015-4.069,2.994-6.606,7.885-6.647
			c3.638-0.032,5.575,1.606,5.667,4.787C-7.151-10.753-10.263-7.938-15.153-7.87z"/>
		<path fill="#EB7406" d="M-87.807-101.547c-0.198,4.314-1.252,8.381-3.499,12.102c-0.812,1.344-1.793,2.419-3.393,2.909
			c-6.036,1.846-7.74,0.537-7.016-5.516c0.644-5.389,1.414-10.764,1.934-16.162c0.192-1.987,0.998-2.484,2.862-2.504
			C-90.309-110.796-87.488-108.029-87.807-101.547z"/>
		<path fill="#EB7406" d="M-93.867,1.727c-0.059,1.249-0.561,3.411-1.308,5.537c-0.865,2.466-2.903,2.658-4.908,2.342
			c-2.427-0.384-0.889-2.274-0.845-3.414c0.094-2.463,0.446-4.926,0.839-7.365c0.216-1.329-0.434-3.299,2.103-3.287
			c2.38,0.012,3.801,1.022,4.108,3.42C-93.805-0.461-93.867,0.135-93.867,1.727z"/>
		<path fill="#EB7406" d="M98.695,16.652c0.05-2.897,0.762-6.346,1.719-9.772c0.735-2.64,2.675-2.711,4.743-2.433
			c2.572,0.345,1.403,2.286,1.276,3.606c-0.337,3.523-0.853,7.025-1.261,10.542c-0.298,2.59-0.895,5.466-4.01,5.23
			c-3.006-0.227-2.244-3.337-2.534-5.448C98.577,18.034,98.648,17.673,98.695,16.652z"/>
		<path fill="#EB7406" d="M-68.149,18.131c0.286-4.004,0.83-7.693,1.919-11.316c0.794-2.643,2.743-2.631,4.757-2.362
			c2.596,0.345,1.311,2.25,1.178,3.57c-0.354,3.499-0.853,6.981-1.226,10.477c-0.275,2.572-0.824,5.534-3.854,5.324
			C-68.781,23.585-67.691,20.13-68.149,18.131z"/>
		<path fill="#EB7406" d="M39.705,16.596c0.419-3.307,0.791-6.573,1.754-9.769c0.529-1.751,1.589-2.554,3.366-2.448
			c2.014,0.121,2.484,1.509,2.519,3.192c0.097,4.627-0.348,9.193-1.562,13.673c-0.511,1.89-1.379,3.278-3.65,2.983
			c-2.277-0.298-2.241-2.138-2.404-3.747C39.602,19.194,39.705,17.889,39.705,16.596z"/>
	</g>
</g>
</svg>
