<?xml version="1.0" encoding="utf-8"?>
<!-- Generator: Adobe Illustrator 17.0.0, SVG Export Plug-In . SVG Version: 6.00 Build 0)  -->
<!DOCTYPE svg PUBLIC "-//W3C//DTD SVG 1.1//EN" "http://www.w3.org/Graphics/SVG/1.1/DTD/svg11.dtd">
<svg version="1.1" id="Warstwa_1" xmlns="http://www.w3.org/2000/svg" xmlns:xlink="http://www.w3.org/1999/xlink" x="0px" y="0px"
	 width="667.924px" height="703.774px" viewBox="0 0 667.924 703.774" enable-background="new 0 0 667.924 703.774"
	 xml:space="preserve">
<g>
	<g>
		<path fill="#FEFDFD" d="M431.439,31.355c70.645,0,141.29,0.075,211.934-0.15c5.336-0.017,6.41,1.076,6.406,6.41
			c-0.171,212.828-0.171,425.657,0,638.485c0.004,5.333-1.072,6.41-6.405,6.406c-205.674-0.172-411.349-0.172-617.023,0
			c-5.332,0.004-6.41-1.071-6.406-6.405c0.171-212.828,0.187-425.657-0.048-638.485c-0.007-6.572,2.532-6.352,7.348-6.348
			c132.943,0.109,265.887,0.087,398.83,0.087c-0.268,0.492-0.467,1.36-0.814,1.424C402.812,36.9,380.44,41.556,357.87,44.87
			c-30.776,4.518-61.087,11.459-91.774,16.484c-36.109,5.912-72.074,12.842-107.947,20.221
			c-33.504,6.892-67.584,11.083-99.721,23.729c-17.592,6.922-36.917,27.848-36.747,50.038c0.511,66.756,0.191,133.519,0.277,200.279
			c0.006,4.431,0.84,8.855,1.04,13.293c0.258,5.715,3.217,7.551,8.7,7.397c10.723-0.301,21.46-0.239,32.189-0.137
			c69.422,0.665,138.845-1.829,208.264,0.003c5.596,0.148,7.125-2.662,7.963-7.316c1.549-8.608,0.138-17.238,0.578-25.85
			c0.837-16.378,2.756-18.321,19.11-18.322c105.22-0.005,210.441,0.033,315.661-0.074c7.955-0.008,15.902-0.525,23.882-1.514
			c6.471-0.802,6.82-3.674,6.8-8.604c-0.162-39.642-0.216-79.284-0.268-118.926c-0.046-35.172,0.027-70.345-0.107-105.516
			c-0.047-12.222-0.258-12.223-12.004-12.223c-36.067-0.001-72.134,0-108.201,0c-27.721,0-55.445-0.216-83.161,0.163
			c-6.354,0.087-8.401-1.762-7.859-7.901c0.444-5.027,0.921-10.301-0.106-15.15C432.782,47.121,438.075,38.45,431.439,31.355z
			 M188.906,399.11c0,0.065,0,0.129,0,0.194c-52.435,0-104.871,0.19-157.304-0.205c-7.826-0.059-9.404,2.44-9.383,9.59
			c0.177,59.881,0.007,119.764,0.008,179.646c0,2.946,0.823,5.887,0.89,8.839c0.066,2.876,1.56,4.573,4,5.204
			c6.821,1.765,13.664,3.516,20.583,4.821c15.371,2.901,30.818,5.395,46.19,8.294c23.344,4.402,46.927,7.951,69.847,13.994
			c10.659,2.811,21.578,2.158,32.137,5.797c11.399,3.928,23.735,5.635,35.681,7.362c19.553,2.827,38.685,7.659,58.195,10.586
			c11.901,1.785,23.461,6.062,35.38,7.464c28.488,3.35,56.23,10.377,84.303,15.752c13.857,2.653,27.817,7.203,40.71-3.099
			c0.848-0.678,2.289-0.574,3.413-0.954c16.323-5.527,32.694-10.917,48.939-16.664c14.547-5.146,28.8-11.159,43.458-15.945
			c18.955-6.189,37.709-12.557,53.615-25.143c28.117-22.251,44.486-51.496,46.039-87.006c1.821-41.632,0.63-83.392,0.942-125.095
			c0.105-13.967-0.605-27.927,0.871-41.915c1.267-12.011-2.033-14.803-14.99-14.805c-73.591-0.014-147.182-0.007-220.773-0.004
			c-9.832,0-19.664-0.044-29.496,0.052c-6.229,0.06-9.811,2.476-9.593,9.597c0.346,11.29-0.965,22.707,0.25,33.871
			c0.964,8.855-3.503,9.686-9.745,9.793c-7.702,0.133-15.409-0.016-23.114-0.016C289.61,399.108,239.258,399.11,188.906,399.11z"/>
		<path fill="#FC0707" d="M431.439,31.355c2.758-0.608,3.016,15.068,3,23.59c-0.06,5.025,0.549,10.123,0.106,15.15
			c-0.542,6.139,1.505,7.988,7.859,7.901c27.716-0.378,55.44-0.163,83.161-0.163c36.067,0,72.134-0.001,108.201,0
			c11.746,0,11.957,0.001,12.004,12.223c0.134,35.172,0.061,70.344,0.107,105.516c0.052,39.642,0.105,79.284,0.268,118.926
			c0.02,4.93-0.33,7.802-6.8,8.604c-7.98,0.99-15.927,1.506-23.882,1.514c-105.22,0.106-210.441,0.069-315.661,0.074
			c-16.354,0.001-18.273,1.944-19.11,18.322c-0.44,8.612,0.971,17.242-0.578,25.85c-0.838,4.653-2.366,7.463-7.963,7.316
			c-69.419-1.832-138.841,0.661-208.264-0.003c-10.729-0.103-21.466-0.165-32.189,0.137c-5.483,0.154-8.442-1.682-8.7-7.397
			c-0.2-4.438-1.034-8.862-1.04-13.293c-0.086-66.76,0.234-133.523-0.277-200.279c-0.17-22.19,19.156-43.116,36.747-50.038
			c32.137-12.646,66.217-16.837,99.721-23.729c35.873-7.379,71.839-14.309,107.947-20.221c30.686-5.025,60.998-11.966,91.774-16.484
			c22.57-3.314,44.942-7.97,67.391-12.091 M458.002,306.883c54.145,0,108.29-0.106,162.434,0.143
			c6.308,0.029,8.986-1.107,8.862-8.084c-0.466-26.215-0.47-52.44-0.505-78.661c-0.051-37.854-0.142-75.709,0.143-113.56
			c0.084-11.117,0.165-11.596-10.642-11.558c-60.198,0.211-120.396,0.406-180.593,0.586c-3.87,0.012-7.744-0.299-11.608-0.179
			c-6.221,0.193-9.017-1.818-8.576-8.847c0.614-9.778-0.024-19.644-0.34-29.465c-0.111-3.465,0.108-7.476-5.758-6.267
			c-22.762,4.691-45.357,10.127-68.473,13.18c-11.101,1.466-22.381,2.879-33.23,5.489c-20.421,4.912-41.171,7.814-61.733,11.809
			c-29.592,5.749-59.264,11.078-88.874,16.737c-13.3,2.542-26.495,5.634-39.801,8.144c-20.01,3.775-40.489,6-58.656,16.13
			c-11.399,6.356-20.095,15.325-21.024,29.295c-1.006,15.119-1.128,30.238-0.876,45.431c0.852,51.541,0.837,103.097,0.883,154.647
			c0.006,6.185,1.717,8.332,8.109,8.31c67.051-0.23,134.103-0.208,201.154-0.228c13.087-0.004,13.068,0.048,13.654-13.344
			c0.104-2.371,0.481-4.729,0.663-7.098c1.998-26.021,18.013-32.864,37.401-32.731C353.076,307.118,405.54,306.883,458.002,306.883z
			"/>
		<path fill="#FE0001" d="M452.295,675.054c-17.333,8.833-29.003,4.044-42.86,1.391c-28.073-5.375-55.815-12.401-84.303-15.752
			c-11.92-1.402-35.38-7.464-35.38-7.464l-58.195-10.586l-35.681-7.362c0,0-21.478-2.986-32.137-5.797
			c-22.92-6.043-46.503-9.592-69.847-13.994c-15.371-2.899-30.819-5.393-46.19-8.294c-6.919-1.306-13.761-3.057-20.583-4.821
			c-2.439-0.631-3.934-2.328-4-5.204c-0.067-2.952-0.89-5.893-0.89-8.839c-0.001-59.882,0.169-119.764-0.008-179.646
			c-0.021-7.151,1.558-9.649,9.383-9.59c52.432,0.395,104.869,0.205,157.304,0.205c-0.002-0.062-0.002-0.126-0.002-0.191
			c50.352,0,100.703-0.002,151.055,0.002c7.705,0.001,15.412,0.149,23.114,0.016c6.242-0.108,10.708-0.938,9.745-9.793
			c-1.215-11.164,0.096-22.581-0.25-33.871c-0.218-7.121,3.365-9.537,9.593-9.597c9.831-0.095,19.664-0.051,29.496-0.052
			c73.591-0.003,147.182-0.01,220.773,0.004c12.957,0.003,16.257,2.794,14.99,14.805c-1.476,13.987-0.766,27.948-0.871,41.915
			c-0.312,41.703,0.879,83.463-0.942,125.095c-1.553,35.51-17.923,64.755-46.039,87.006c-15.905,12.587-34.659,18.954-53.615,25.143
			c-14.658,4.786-28.911,10.799-43.458,15.945"/>
		<path fill="#FEFDFD" d="M458.002,306.883c-52.462,0-104.925,0.235-157.385-0.123c-19.388-0.132-35.403,6.71-37.401,32.731
			c-0.182,2.369-0.559,4.727-0.663,7.098c-0.586,13.392-0.567,13.34-13.654,13.344c-67.052,0.021-134.103-0.002-201.154,0.228
			c-6.393,0.022-8.104-2.125-8.109-8.31c-0.047-51.551-0.031-103.107-0.883-154.647c-0.251-15.193-0.13-30.312,0.876-45.431
			c0.93-13.969,9.625-22.938,21.024-29.295c18.167-10.13,38.646-12.355,58.656-16.13c13.305-2.51,26.501-5.602,39.801-8.144
			c29.609-5.659,59.282-10.988,88.874-16.737c20.562-3.995,41.312-6.897,61.733-11.809c10.849-2.609,22.129-4.022,33.23-5.489
			c23.116-3.053,45.711-8.489,68.473-13.18c5.866-1.209,5.646,2.801,5.758,6.267c0.316,9.821,0.954,19.688,0.34,29.465
			c-0.441,7.029,2.355,9.04,8.576,8.847c3.864-0.12,7.739,0.191,11.608,0.179c60.198-0.181,120.396-0.376,180.593-0.586
			c10.806-0.038,10.726,0.441,10.642,11.558c-0.285,37.852-0.194,75.707-0.143,113.56c0.035,26.221,0.039,52.446,0.505,78.661
			c0.124,6.978-2.554,8.113-8.862,8.084C566.292,306.776,512.147,306.883,458.002,306.883z"/>
	</g>
</g>
</svg>
