<?xml version="1.0" encoding="utf-8"?>
<!-- Generator: Adobe Illustrator 17.0.0, SVG Export Plug-In . SVG Version: 6.00 Build 0)  -->
<!DOCTYPE svg PUBLIC "-//W3C//DTD SVG 1.1//EN" "http://www.w3.org/Graphics/SVG/1.1/DTD/svg11.dtd">
<svg version="1.1" id="Warstwa_1" xmlns="http://www.w3.org/2000/svg" xmlns:xlink="http://www.w3.org/1999/xlink" x="0px" y="0px"
	 width="185.638px" height="92.532px" viewBox="0 0 185.638 92.532" enable-background="new 0 0 185.638 92.532"
	 xml:space="preserve">
<path fill="#030303" d="M81.747,70.896c3.977-1.324,8.275-0.486,8.064-5.657c-1.426-0.122-2.875-0.247-4.59-0.394
	c0-11.415,0-22.824,0-34.215c-6.407-1.277-8.77-0.396-15.245,5.784c0,9.389-0.058,19.039,0.032,28.688
	c0.031,3.258,1.195,4.347,4.394,4.91c0.864,0.152,1.718,0.364,3.019,0.643c-3.222,1.698-19.149,1.896-24.216,0.305
	c1.446-0.453,2.214-0.789,3.016-0.928c3.338-0.577,4.586-1.541,4.624-4.721c0.122-10.16,0.065-20.323-0.021-30.483
	c-0.009-1.07-0.671-2.135-1.067-3.31c-1.754-0.224-3.296-0.421-4.837-0.618c4.563-3.191,9.422-5.318,15.023-7.31
	c0,3.497,0,6.396,0,10.152c4.703-4.443,8.708-8.479,14.941-9.461c0-2.704,0-5.287,0-8.056c25.494,0,50.56,0,76.007,0
	c0,2.523,0,4.949,0,7.447c2.601,0.446,4.861,0.812,7.112,1.224c5.733,1.049,8.326,3.585,9.327,9.335
	c0.368,2.114,0.573,4.28,0.596,6.425c0.074,6.83,0,13.661,0.046,20.491c0.012,1.782,0.257,3.563,0.446,6.003
	c2.156-0.395,3.796-0.695,5.403-0.989c-0.737,3.397-2.754,4.953-8.761,6.818c-4.963-0.14-5.369-4.176-6.449-7.616
	c-2.496,1.729-4.775,3.405-7.15,4.933c-7.604,4.894-14.225,3.169-18.833-5.043c-4.98,0-10.091,0-15.215,0
	c0.509,3.969,0.509,3.969,6.435,5.357c-1.469,1.414-1.47,1.486-11.41,1.377c-3.817-0.042-7.723,0.616-12.615-0.815
	c3.596-1.716,8.048-0.771,7.935-5.834c-6.193,0-12.398,0-18.602,0c-0.22,5.008,4.105,4.226,7.112,5.338
	C103.361,72.328,87.638,72.586,81.747,70.896z M86.243,17.175c0,2.602,0,4.693,0,6.859c9.967,0.773,11.799,8.04,12.844,15.753
	c6.405,0,12.484,0,18.962,0c-0.472-3.073,0.849-6.202-2.034-8.468c-1.65-0.169-3.24-0.333-4.831-0.496
	c-0.048-0.204-0.096-0.408-0.143-0.611c5.082-2.189,10.163-4.378,15.959-6.874c0,6.003,0,11.244,0,16.53c6.298,0,12.087,0,18.148,0
	c-2.39-5.119-0.355-8.898,3.539-11.722c2.08-1.509,4.713-2.288,7.153-3.255c1.199-0.476,2.526-0.631,3.768-0.925
	c0-2.44,0-4.648,0-6.791C134.982,17.175,110.7,17.175,86.243,17.175z M159.813,41.309c-11.173,0-21.876,0-32.575,0
	c0,7.667,0,15.047,0,22.425c5.009,0,9.733,0,14.743,0c-0.823-5.942,1.85-10.139,6.151-13.291c2.454-1.798,5.353-3.002,8.093-4.391
	c1.126-0.571,2.364-0.923,3.588-1.389C159.813,43.51,159.813,42.552,159.813,41.309z M117.649,63.89c0-7.864,0-15.245,0-22.562
	c-6.356,0-12.407,0-18.39,0c0,7.688,0,15.069,0,22.562C105.491,63.89,111.422,63.89,117.649,63.89z M168.691,62.419
	c0-6.401,0-12.303,0-18.603c-2.771,1.186-5.167,2.212-7.935,3.397c0,5.968,0,11.856,0,17.8c-1.47,0-2.463-0.03-3.453,0.008
	c-0.99,0.039-1.978,0.146-3.962,0.301C160.174,69.033,164.297,65.383,168.691,62.419z M150.943,55.007
	c0.273,2.945-0.833,6.216,1.462,8.653c2.63,0,5.025,0,7.193,0c0-5.419,0-10.476,0-15.596
	C156.116,48.928,154.153,50.54,150.943,55.007z M161.257,27.316c0,5.504,0,11.009,0,16.795c2.782-1.072,5.195-2.001,7.479-2.881
	C169.941,33.24,167.551,26.742,161.257,27.316z M89.626,63.845c0-7.92,0-15.302,0-22.899c-1.415,0.183-2.481,0.321-3.344,0.432
	c0,7.74,0,15.121,0,22.467C87.56,63.845,88.512,63.845,89.626,63.845z M159.769,27.037c-5.451,0.788-6.604,2.073-6.852,6.842
	c-0.101,1.938-0.535,3.859-0.841,5.949c2.371,0,4.936,0,7.693,0C159.769,35.58,159.769,31.529,159.769,27.037z M89.929,39.921
	c-0.129-3.734-0.387-6.893-3.691-9.026c0,3.188,0,6.095,0,9.026C87.489,39.921,88.448,39.921,89.929,39.921z"/>
<path fill="#030303" d="M35.951,61.081c0-9.392,0.024-18.212-0.009-27.03c-0.021-5.683-0.307-5.962-5.961-7.08
	c-0.389-0.077-0.707-0.507-1.587-1.172c2.872-1.335,5.477-0.638,7.942-0.752c2.648-0.123,5.306-0.028,8.323-0.028
	c0.103,1.346,0.28,2.603,0.283,3.861c0.023,10.157-0.015,20.314,0.039,30.471c0.011,2.108-0.392,4.402,1.858,6.325
	c1.095,0.144,2.54,0.334,5.205,0.684c-5.637,3.091-10.51,5.111-16.091,7.107c0-3.52,0-6.416,0-9.914
	c-2.942,2.446-5.209,4.629-7.768,6.388c-3.653,2.512-7.597,3.859-12.19,2.361c-4.404-1.436-7.049-4.394-8.001-8.717
	c-0.674-3.059-0.934-6.252-1-9.393c-0.143-6.824-0.017-13.653-0.053-20.48c-0.028-5.504-0.419-5.884-6.181-6.75
	C0.484,26.92,0.252,26.573,0,26.367c1.936-1.566,5.632-1.823,15.956-1.035c0,1.225,0,2.496,0,3.766
	c0,9.657,0.211,19.321-0.059,28.971c-0.254,9.066,7.487,10.603,12.892,7.824C31.263,64.621,33.449,62.787,35.951,61.081z"/>
<path fill="#0E0F0E" d="M127.963,6.072c-0.095,2.948-3.56,6.216-6.317,5.96c-2.697-0.251-5.711-3.475-5.703-6.1
	c0.009-2.902,3.459-6.128,6.33-5.922C125.051,0.209,128.049,3.404,127.963,6.072z"/>
<path fill="#030303" d="M111.5,77.416c-1.445,0.986-2.377,1.622-3.389,2.312c0-0.824,0-1.592,0-2.535c5.568,0,10.993,0,16.554,0
	c-2.827,3.725,0.779,5.481,2.042,7.919c0.912,2.1-1.065,5.039,2.38,6.716c-2.477,0-4.558,0-6.961,0
	c2.679-1.98,2.215-4.474,1.287-6.8c-0.965-2.419-2.349-4.671-3.732-7.349c-0.436,0.908-0.631,1.315-0.904,1.884
	c-0.916-0.547-1.912-1.142-2.924-1.746c-0.437,0.521-0.825,0.775-0.806,0.992c0.389,4.329-1.335,8.916,1.183,13.058
	c-1.755,0-3.876,0-6.135,0C112.212,89.486,112.498,86.67,111.5,77.416z"/>
<path fill="#0E0F0E" d="M81.095,76.921c5.323,0.583,10.203-1.681,13.107,3.764c-0.927,1.492-1.774,2.855-2.889,4.648
	c1.742,2.008,3.551,4.094,5.583,6.436c-1.72,0-3.22,0-4.784,0c-1.37-2.19-2.751-4.397-4.261-6.811
	c-1.23,4.383-1.23,4.383,0.941,6.938c-2.247,0-4.369,0-6.644,0c3.117-2.683,1.408-6.091,1.731-9.105
	C84.088,80.831,84.598,78.582,81.095,76.921z M87.06,84.14c1.446-0.301,2.487-0.518,3.869-0.806c-0.107-1.758-0.201-3.3-0.305-5
	c-1.448,0-2.461,0-3.564,0C87.06,80.22,87.06,81.82,87.06,84.14z"/>
<path fill="#0E0F0E" d="M157.857,91.778c0.612-0.507,1.223-1.015,1.983-1.645c0.019-4.121,0.448-8.377-0.384-12.865
	c0.635-0.079,1.707-0.211,3.012-0.373c1.901,2.666,3.792,5.316,5.823,8.164c0.937-5.182,0.937-5.182-1.311-7.842
	c1.597-0.093,2.963-0.173,4.415-0.258c-2.87,4.637-0.498,9.715-1.825,14.827c-2.759-3.928-5.305-7.554-7.932-11.295
	c-1.255,6.299-1.007,8.746,1.467,11.676c-2.023-0.209-3.62-0.373-5.217-0.538L157.857,91.778z"/>
<path fill="#030303" d="M157.857,91.778l0.032-0.149c-3.612,0.17-7.225,0.34-11.608,0.547c2.353-5.003,4.401-9.359,6.451-13.717
	c-2.797-1.199-4.19,0.204-5.528,3.169c-0.103-1.978-0.162-3.106-0.229-4.395c3.254,0,6.163,0,9.539,0
	c-2.222,4.646-4.276,8.941-6.69,13.988c2.98-0.376,5.392-0.68,7.681-0.969C157.568,90.525,157.713,91.151,157.857,91.778z"/>
<path fill="#030303" d="M32.849,77.173c0,1.425,0,2.408,0,4.442c-1.344-3.039-2.856-4.404-5.654-3.175c0,3.816,0,7.848,0,12.529
	c1.86-0.108,3.759-0.217,5.694-0.329c-1.939,1.674-1.939,1.674-10.453,1.171c-0.042-0.093-0.147-0.238-0.118-0.271
	c3.417-4.052,1.139-8.674,1.241-13.045c0.008-0.353-0.931-0.729-1.739-1.321C25.622,77.173,29.064,77.173,32.849,77.173z"/>
<path fill="#0E0F0E" d="M180.452,91.784c0.25-1.073,0.477-2.052,0.773-3.324c-1.979-0.254-3.569-0.458-5.5-0.706
	c0.713-1.569,1.345-2.961,2.006-4.415c-0.179-0.227-0.484-0.615-0.841-1.068c0.85-1.71,1.704-3.428,2.732-5.496
	c1.892,5.16,3.686,10.056,5.502,15.009C183.966,91.784,182.266,91.784,180.452,91.784z"/>
<path fill="#0E0F0E" d="M99.71,76.99c1.829,5.006,3.621,9.906,5.42,14.83c-1.174,0-2.9,0-4.638,0
	c0.198-1.01,0.402-2.047,0.674-3.428c-1.99-0.219-3.583-0.394-5.65-0.621C98.078,84.471,96.798,80.149,99.71,76.99z"/>
<path fill="#0E0F0E" d="M38.24,79.435c-0.615,9.601-0.572,9.947,1.419,12.444c-1.535,0-2.98,0-4.74,0
	c3.243-2.132,1.94-5.14,1.903-7.661C36.788,81.9,38.388,79,34.376,77.153c2.541,0,4.155,0,5.976,0
	c0.708,1.888,1.353,3.728,2.089,5.532c0.675,1.655,1.446,3.27,2.363,5.325c-0.296,0.9-0.751,2.281-1.487,4.521
	C41.559,87.998,40.089,84.206,38.24,79.435z"/>
<path fill="#F8F8F8" d="M15.484,78.068l-0.111-0.074c1.946,1.371,2.776,3.269,2.553,5.608c-0.234,2.454-0.539,4.902-0.813,7.352
	c-0.479,0.06-0.959,0.119-1.438,0.179c-0.801-0.086-1.603-0.173-2.433-0.263c0-4.337,0-8.543,0-12.802
	C14.186,78.068,14.835,78.068,15.484,78.068z"/>
<path fill="#030303" d="M15.484,78.068c-0.649,0-1.298,0-2.242,0c0,4.259,0,8.465,0,12.802c0.831,0.09,1.632,0.176,2.433,0.263
	c-2.336,0.409-4.671,0.818-7.988,1.399c3.157-2.764,2.306-5.512,2.179-7.965c-0.125-2.407,1.419-5.346-2.121-7.41
	C10.68,77.35,13.228,76.02,15.484,78.068z"/>
<path fill="#030303" d="M70.991,85.116c0.39,2.247-1.462,5.086,2.745,6.749c-3.133,0-5.262,0-7.506,0
	c3.071-2.658,1.439-6.062,1.658-9.077c0.257-3.537,0.052-3.552-1.69-5.623c2.238,0,4.368,0,6.731,0
	c-2.936,1.801-1.712,4.468-1.939,6.76C70.991,84.322,70.991,84.719,70.991,85.116z"/>
<path fill="#030303" d="M52.093,91.907c-1.777,0-3.732,0-5.659,0c3.243-4.553,0.615-9.607,1.512-14.693
	c1.488-0.065,3.053-0.134,4.931-0.216c-3.43,3.339-1.485,7.192-1.839,10.662C50.902,89.002,51.701,90.44,52.093,91.907z"/>
<path fill="#0E0F0E" d="M70.991,85.116c0-0.397,0-0.794,0-1.191c0.716-0.328,1.433-0.655,2.37-1.084
	c2.296,2.901,4.664,5.893,7.094,8.963c-1.681,0-3.536,0-5.396,0C75.037,88.809,73.462,86.693,70.991,85.116z"/>
<path fill="#0E0F0E" d="M17.113,90.954c0.274-2.45,0.579-4.898,0.813-7.352c0.223-2.339-0.607-4.237-2.553-5.608
	c3.702,0.539,5.295,1.916,5.504,5.621C21.048,86.627,20.604,89.662,17.113,90.954z"/>
<path fill="#0E0F0E" d="M62.536,90.783c0-4.398,0-8.384,0-12.433C67.11,82.251,67.109,86.122,62.536,90.783z"/>
<path fill="#0E0F0E" d="M137.432,78.65c0,4.171,0,7.598,0,10.968c-1.904-0.435-3.093-1.482-3.316-3.877
	C133.857,82.959,134.486,80.377,137.432,78.65z"/>
<path fill="#0E0F0E" d="M56.141,78.657c0,4.197,0,7.724,0,11.412C51.979,86.784,51.899,82.933,56.141,78.657z"/>
<path fill="#030303" d="M29.79,81.464c0,2.036,0,4.072,0,6.488C28.398,84.696,28.398,84.696,29.79,81.464z"/>
<path fill="#030303" d="M184.967,66.045c-0.06-0.603-0.12-1.205-0.18-1.808c0.235-0.021,0.47-0.041,0.705-0.062
	c0.048,0.603,0.096,1.207,0.145,1.81C185.414,66.006,185.191,66.025,184.967,66.045z"/>
<path fill="#FCFCFC" d="M86.243,17.175c24.457,0,48.739,0,73.365,0c0,2.142,0,4.351,0,6.791c-1.242,0.294-2.569,0.449-3.768,0.925
	c-2.439,0.967-5.072,1.746-7.153,3.255c-3.893,2.824-5.929,6.603-3.539,11.722c-6.061,0-11.85,0-18.148,0c0-5.285,0-10.527,0-16.53
	c-5.795,2.496-10.877,4.685-15.959,6.874c0.048,0.204,0.096,0.408,0.143,0.611c1.59,0.163,3.181,0.327,4.831,0.496
	c2.883,2.266,1.561,5.395,2.034,8.468c-6.477,0-12.557,0-18.962,0c-1.045-7.713-2.877-14.98-12.844-15.753
	C86.243,21.869,86.243,19.777,86.243,17.175z"/>
<path fill="#FE0000" d="M159.813,41.309c0,1.243,0,2.201,0,3.355c-1.225,0.466-2.462,0.818-3.588,1.389
	c-2.741,1.389-5.639,2.593-8.093,4.391c-4.3,3.151-6.974,7.349-6.151,13.291c-5.01,0-9.733,0-14.743,0c0-7.379,0-14.759,0-22.425
	C137.937,41.309,148.641,41.309,159.813,41.309z"/>
<path fill="#FE0000" d="M117.649,63.89c-6.226,0-12.158,0-18.39,0c0-7.493,0-14.874,0-22.562c5.984,0,12.034,0,18.39,0
	C117.649,48.644,117.649,56.025,117.649,63.89z"/>
<path fill="#F8F8F8" d="M168.691,62.419c-4.395,2.964-8.517,6.613-15.351,2.904c1.984-0.155,2.972-0.263,3.962-0.301
	c0.99-0.039,1.983-0.008,3.453-0.008c0-5.945,0-11.832,0-17.8c2.768-1.185,5.164-2.211,7.935-3.397
	C168.691,50.116,168.691,56.018,168.691,62.419z"/>
<path fill="#FE0000" d="M150.943,55.007c3.21-4.467,5.172-6.079,8.656-6.943c0,5.12,0,10.177,0,15.596c-2.168,0-4.563,0-7.193,0
	C150.11,61.223,151.217,57.952,150.943,55.007z"/>
<path fill="#F8F8F8" d="M161.257,27.316c6.294-0.574,8.684,5.923,7.479,13.915c-2.284,0.88-4.696,1.809-7.479,2.881
	C161.257,38.326,161.257,32.821,161.257,27.316z"/>
<path fill="#FE0000" d="M89.626,63.845c-1.113,0-2.066,0-3.344,0c0-7.345,0-14.727,0-22.467c0.863-0.112,1.929-0.249,3.344-0.432
	C89.626,48.543,89.626,55.925,89.626,63.845z"/>
<path fill="#F8F8F8" d="M159.769,27.037c0,4.492,0,8.544,0,12.791c-2.756,0-5.322,0-7.693,0c0.306-2.09,0.74-4.011,0.841-5.949
	C153.164,29.11,154.318,27.825,159.769,27.037z"/>
<path fill="#F8F8F8" d="M89.929,39.921c-1.481,0-2.44,0-3.691,0c0-2.93,0-5.838,0-9.026C89.543,33.028,89.8,36.187,89.929,39.921z"
	/>
<path fill="#F8F8F8" d="M87.06,84.14c0-2.319,0-3.92,0-5.806c1.103,0,2.117,0,3.564,0c0.104,1.7,0.198,3.242,0.305,5
	C89.547,83.621,88.506,83.838,87.06,84.14z"/>
</svg>
