<?xml version="1.0" encoding="utf-8"?>
<!-- Generator: Adobe Illustrator 17.0.0, SVG Export Plug-In . SVG Version: 6.00 Build 0)  -->
<!DOCTYPE svg PUBLIC "-//W3C//DTD SVG 1.1//EN" "http://www.w3.org/Graphics/SVG/1.1/DTD/svg11.dtd">
<svg version="1.1" id="Warstwa_1" xmlns="http://www.w3.org/2000/svg" xmlns:xlink="http://www.w3.org/1999/xlink" x="0px" y="0px"
	 width="902.446px" height="413.378px" viewBox="0 0 902.446 413.378" enable-background="new 0 0 902.446 413.378"
	 xml:space="preserve">
<g>
	<g>
		<path fill="#FEFEFE" d="M451.563,413.308c-149.146,0-298.292-0.009-447.437,0.07c-2.812,0.001-3.448-0.633-3.446-3.446
			c0.08-135.269,0.08-270.538,0-405.807C0.678,1.313,1.313,0.68,4.126,0.68C302.417,0.755,600.709,0.755,899,0.68
			c2.812-0.001,3.448,0.632,3.446,3.445c-0.081,135.269-0.081,270.538,0,405.807c0.002,2.812-0.633,3.447-3.446,3.446
			C749.855,413.298,600.709,413.308,451.563,413.308z"/>
		<path fill="#48B751" d="M270.016,84.157c7.052-1.07,13.852-3.494,21.024-3.921c1.645,1.774,1.196,3.999,1.202,6.071
			c0.045,15.877,0.024,31.754,0.024,47.631c0,82.76,0,165.519,0,248.279c0,1.125,0.117,2.265-0.021,3.373
			c-0.474,3.785,0.347,6.848,4.293,8.331c-9.093,1.128-18.171,0.456-27.248-0.235c-1.619-1.782-1.205-4-1.209-6.079
			c-0.039-18.124-0.022-36.249-0.022-54.373c0-80.497-0.009-160.995,0.037-241.492C268.097,89.12,267.23,86.135,270.016,84.157z"/>
		<path fill="#5ABB5A" d="M173.276,373.513c-7.259-2.043-14.254-4.791-21.107-7.915c-1.508-2.253-1.115-4.815-1.116-7.286
			c-0.017-72.23-0.014-144.459-0.013-216.689c0-20.119-0.047-40.239,0.068-60.358c0.011-1.962-1.07-4.676,2.09-5.608
			c7.108,1.143,14.033,3.031,20.906,5.132c0.528,0.899,0.575,1.88,0.571,2.896c-0.381,94.086-0.061,188.172-0.202,282.258
			C174.467,368.493,175.174,371.231,173.276,373.513z"/>
		<path fill="#3EB54D" d="M328.556,82.47c7.63,1.598,14.656,4.616,21.111,8.977c0.388,1.338,0.38,2.708,0.38,4.087
			c-0.037,92.463-0.008,184.927-0.034,277.39c-0.001,2.592,0.441,5.283-1.118,7.662c-5.826,4.314-12.28,7.257-19.349,8.856
			c-1.831,0.096-1.83-1.378-2.047-2.528c-0.302-1.599-0.182-3.239-0.182-4.862c-0.003-97.463-0.007-194.926,0.026-292.389
			C327.343,87.232,326.714,84.621,328.556,82.47z"/>
		<path fill="#44B650" d="M296.538,393.922c-5.497-0.287-5.497-0.287-5.497-5.836c0-102.616-0.001-205.233-0.001-307.849
			c6.209-1.278,12.464-1.438,18.753-0.766c0.974,1.106,1.146,2.459,1.195,3.853c0.045,1.249,0.035,2.499,0.036,3.748
			c0.001,99.469,0.005,198.937-0.024,298.406c-0.001,2.568,0.601,5.292-1.207,7.599
			C305.426,394.165,300.978,393.979,296.538,393.922z"/>
		<path fill="#41B64F" d="M309.793,393.077c0-104.535,0-209.071,0-313.606c6.418-0.024,12.678,0.94,18.763,2.999
			c-0.003,100.943-0.009,201.887,0.013,302.83c0,1.416-0.578,3.055,0.976,4.141C323.156,391.71,316.548,392.795,309.793,393.077z"/>
		<path fill="#0068A1" d="M765.93,231.858c3.709-3.526,6.642-6.722,10.381-9.034c12.637-7.813,29.291-3.377,34.884,7.434
			c1.038,2.005,1.721,1.402,2.844,0.066c3.693-4.395,7.238-9.252,13.203-10.565c15.407-3.392,31.87,2.644,33.017,24.527
			c0.915,17.451,0.245,34.984,0.331,52.48c0.011,2.169-0.997,3.18-2.999,3.555c-4.715,0.883-9.438,0.691-14.168,0.184
			c-3.064-0.329-4.125-2.039-4.103-5.088c0.106-14.122,0.028-28.246,0.061-42.369c0.007-3.162-0.344-6.242-1.645-9.138
			c-2.662-5.926-6.732-7.479-12.777-4.953c-5.116,2.138-9.395,8.531-9.395,14.04c0,14.123-0.099,28.248,0.073,42.369
			c0.04,3.297-1.068,4.91-4.264,5.225c-4.238,0.417-8.474,0.455-12.708-0.021c-3.135-0.352-4.402-1.956-4.367-5.261
			c0.147-13.997,0.043-27.996,0.075-41.994c0.009-3.806-0.541-7.462-2.379-10.84c-2.557-4.7-7.78-6.358-12.446-3.808
			c-4.018,2.195-6.977,5.616-9.853,9.091c-0.993,1.201-0.622,2.627-0.624,3.964c-0.023,14.373-0.01,28.746-0.017,43.12
			c-0.002,4.678-0.57,5.518-5.202,5.859c-4.218,0.31-8.471,0.494-12.699-0.328c-2.367-0.46-3.399-1.649-3.396-4.079
			c0.037-23.872,0.049-47.744-0.015-71.616c-0.007-2.603,1.415-3.67,3.534-4.006c3.716-0.589,7.488-0.523,11.211-0.056
			c2.175,0.273,3.63,1.471,3.468,4.035C765.824,226.763,765.93,228.892,765.93,231.858z"/>
		<path fill="#4DB854" d="M234.002,87.938c5.761-0.324,11.521-0.647,17.282-0.971c1.641,1.772,1.203,3.993,1.209,6.064
			c0.045,15.736,0.024,31.472,0.024,47.208c0,81.428,0.007,162.857-0.029,244.285c-0.001,2.426,0.641,5.042-1.242,7.175
			c-6.09-0.254-12.036-1.502-18.004-2.603c-1.57-0.815-1.76-2.317-1.87-3.834c-0.109-1.496-0.064-2.998-0.064-4.497
			c-0.001-94.848-0.003-189.697,0.009-284.545c0-2.24-0.224-4.504,0.417-6.709C232.048,88.353,233.043,88.172,234.002,87.938z"/>
		<path fill="#0068A1" d="M496.713,250.554c8.163,4.489,11.984,11.711,15.238,19.372c3.409,8.027,6.982,15.988,10.214,24.085
			c1.951,4.888,0.877,6.292-4.31,6.762c-0.373,0.034-0.749,0.024-1.124,0.041c-15.883,0.711-15.822,0.686-21.882-13.948
			c-2.906-7.018-5.37-14.243-9.112-20.892c-4.497-7.991-11.226-11.026-20.152-9.477c-2.331,0.405-1.473,1.998-1.479,3.13
			c-0.065,11.621-0.197,23.245,0.047,34.861c0.083,3.954-1.265,5.821-5.124,6.127c-4.116,0.326-8.216,0.382-12.332-0.034
			c-3.62-0.365-4.994-2.025-4.97-5.87c0.162-26.115,0.085-52.232,0.085-78.349c0-5.498-0.056-10.997,0.019-16.494
			c0.058-4.219,1.969-6.758,5.922-6.726c14.842,0.12,29.754-1.283,44.51,1.094c13.971,2.251,22.99,10.74,24.677,22.54
			C519.302,233.301,513.522,243.193,496.713,250.554z"/>
		<path fill="#52B956" d="M234.002,87.938c-0.486,0.217-0.973,0.435-1.459,0.652c-1.47,1.239-3.274,1.22-4.997,1.116
			c-3.33-0.201-4.474,1.432-4.296,4.518c0.086,1.492,0.006,2.996,0.006,4.495c-0.001,93.542,0.006,187.084-0.032,280.626
			c-0.001,2.55,0.692,5.286-1.191,7.572c-6.318-1.192-12.611-2.49-18.753-4.427c-1.582-1.791-1.21-3.999-1.213-6.084
			c-0.034-19.111-0.019-38.222-0.019-57.333c0-74.446-0.001-148.892,0.005-223.338c0-1.996-0.125-4.001,0.238-5.981
			c0.365-1.989,1.426-2.85,3.458-2.065C215.166,87.771,224.584,87.854,234.002,87.938z"/>
		<path fill="#4BB853" d="M251.246,391.699c0.013-73.341,0.028-146.681,0.038-220.022c0.004-28.237,0-56.474-0.001-84.711
			c6.244-0.936,12.488-1.873,18.732-2.809c-1.002,1.459-0.722,3.123-0.722,4.729c-0.006,101.6-0.005,203.2-0.004,304.8
			C263.236,393.377,257.191,392.99,251.246,391.699z"/>
		<path fill="#3BB44B" d="M348.894,380.585c-0.032-1.624-0.092-3.247-0.092-4.871c-0.004-93.103-0.008-186.206,0.03-279.31
			c0.001-1.655-0.727-3.528,0.834-4.958c7.725,4.328,14.16,10.084,19.222,17.36c0.525,2.45,0.651,4.925,0.65,7.429
			c-0.017,78.408-0.021,156.816,0.014,235.225c0.001,2.637-0.373,5.213-0.628,7.813C363.869,367.9,357.248,375.057,348.894,380.585z
			"/>
		<path fill="#5DBB5C" d="M153.197,75.658c-1.631,1.396-0.891,3.282-0.891,4.932c-0.038,93.128-0.034,186.257-0.038,279.385
			c0,1.874-0.064,3.748-0.099,5.622c-6.184-2.173-12.075-5.005-17.894-7.996c-1.655-2.2-1.217-4.775-1.218-7.237
			c-0.02-67.296-0.015-134.592-0.015-201.888c0-18.229-0.006-36.457,0.008-54.686c0.002-1.991-0.159-4.002,0.443-5.944
			c0.627-1.494,1.842-1.968,3.372-1.984c-3.245-0.021-6.398-0.922-9.656-0.881c-1.215,0.015-2.481-0.142-3.241-1.366
			c-0.722-4.178-1.471-8.355,0.549-12.408C134.3,71.249,143.844,72.836,153.197,75.658z"/>
		<path fill="#57BA59" d="M173.276,373.513c-0.001-95.488,0.003-190.977-0.027-286.465c-0.001-2.15,0.231-4.218,0.854-6.258
			c6.031,1.538,12.061,3.076,18.092,4.614c0.285,1.224,0.339,2.463,0.338,3.719c-0.056,93.966-0.006,187.932-0.074,281.898
			c-0.002,2.715,0.988,5.853-1.979,7.898C184.584,377.629,178.863,375.783,173.276,373.513z"/>
		<path fill="#5FBC5E" d="M134.273,87.232c0.001,90.123,0.001,180.246,0.002,270.37c-6.498-2.972-12.828-6.252-18.798-10.197
			c-1.584-2.084-1.171-4.532-1.172-6.869c-0.024-33.458-0.016-66.915-0.016-100.373c0-46.191-0.003-92.383,0.008-138.574
			c0-2.242-0.167-4.497,0.318-6.712c0.104-0.346,0.127-0.803,0.408-1.007C120.759,89.695,127.07,87.166,134.273,87.232z"/>
		<path fill="#62BD5F" d="M115.52,93.848c-0.001,82.771-0.002,165.542-0.005,248.314c0,1.748-0.025,3.495-0.038,5.243
			c-7.194-3.806-13.928-8.311-20.304-13.362c-1.058-1.525-1.13-3.269-1.13-5.033c-0.006-73.337-0.024-146.675,0.012-220.013
			c0-0.874,0.029-1.749,0.157-2.608c0.19-1.437,0.925-2.554,2.094-3.397c5.091-3.668,10.61-6.572,16.346-9.072
			C113.551,93.528,114.549,93.221,115.52,93.848z"/>
		<path fill="#0068A1" d="M441.812,122.639c0-15.249-0.008-30.497,0.004-45.746c0.005-6.632,2.155-8.837,8.666-8.827
			c10.623,0.016,21.254-0.172,31.865,0.203c8.201,0.29,16.081,2.311,22.849,7.303c10.191,7.517,12.789,18.193,11.361,29.953
			c-2.272,18.705-13.876,29.663-32.645,31.838c-5.231,0.606-10.477,1.006-15.7,0.642c-3.64-0.254-4.287,1.124-4.216,4.388
			c0.201,9.245-0.048,18.499,0.133,27.745c0.065,3.325-1.279,4.893-4.391,5.23c-4.609,0.499-9.22,0.516-13.829-0.048
			c-3.009-0.368-4.169-1.968-4.148-5.062C441.87,154.386,441.812,138.512,441.812,122.639z"/>
		<path fill="#0068A1" d="M736.677,128.196c5.578-7.323,10.456-13.725,15.331-20.129c2.27-2.982,4.586-5.929,6.78-8.966
			c1.48-2.048,3.352-3.304,5.866-3.564c4.729-0.489,9.474-0.765,14.17,0.142c3.902,0.754,4.743,2.59,2.829,6.113
			c-0.822,1.513-1.972,2.878-3.128,4.173c-5.904,6.617-11.788,13.255-17.835,19.739c-1.962,2.104-2.479,3.536-0.613,6.251
			c7.707,11.213,15.092,22.648,22.541,34.036c1.476,2.256,3.849,4.68,2.459,7.443c-1.414,2.81-4.777,2.087-7.44,2.207
			c-13.327,0.604-13.336,0.587-20.461-10.456c-5.888-9.127-11.733-18.281-17.656-27.386c-0.7-1.076-1.089-2.482-2.842-3.286
			c0,10.699,0,21.133,0,31.567c0,9.452-0.035,9.488-9.507,9.643c-11.771,0.193-11.771,0.193-11.771-11.466
			c0-32.623-0.002-65.245,0.002-97.868c0.001-5.101,0.884-6.149,5.97-6.383c3.486-0.16,7.001-0.148,10.48,0.109
			c3.26,0.241,4.951,1.773,4.914,5.584c-0.189,19.497-0.087,38.996-0.087,58.495C736.677,125.136,736.677,126.077,736.677,128.196z"
			/>
		<path fill="#65BD61" d="M95.224,104.883c0.01,75.888,0.02,151.776,0.026,227.664c0,0.498-0.05,0.997-0.077,1.496
			c-6.757-4.657-13.086-9.821-18.743-15.785c-0.891-1.837-1.155-3.779-1.154-5.812c0.011-62.515,0.003-125.03,0.016-187.545
			c0-1.124,0.023-2.246,0.179-3.352c0.102-1.56,0.727-2.931,1.878-3.955c4.939-4.394,9.886-8.784,15.454-12.393
			C93.549,104.718,94.328,104.309,95.224,104.883z"/>
		<path fill="#0068A1" d="M559.517,177.061c-6.05,0.301-11.741-0.531-17.188-2.469c-11.436-4.068-18.201-12.375-20.786-24.08
			c-2.214-10.027-2.291-20.129,0.562-30.036c3.883-13.482,12.739-22.013,26.456-25.325c8.911-2.151,17.867-2.038,26.721,0.119
			c11.397,2.777,19.351,9.678,22.936,20.963c3.806,11.982,3.912,24.151,0.032,36.124c-4.823,14.881-17.734,24.051-34.097,24.696
			C562.531,177.117,560.904,177.061,559.517,177.061z"/>
		<path fill="#39B44A" d="M368.926,359.273c-1.057-1.183-0.604-2.627-0.605-3.952c-0.022-80.848-0.022-161.697,0-242.545
			c0-1.329-0.439-2.766,0.568-3.969c8.813,10.444,13.437,22.842,16.662,35.874c0.807,3.262,1.377,6.584,2.056,9.878
			c-1.155,2.31-0.164,4.683-0.15,7.015c0.156,27.713,0.012,55.427,0.051,83.14c0.027,18.975-0.055,37.951,0.06,56.926
			c0.021,3.457-1.142,6.931,0.067,10.376c-2.857,14.83-7.052,29.183-15.137,42.13C371.396,355.911,370.121,357.567,368.926,359.273z
			"/>
		<path fill="#0068A1" d="M577.534,292.409c-10.878,10.197-23.056,12.331-36.417,7.693c-8.881-3.083-13.854-9.649-14.542-19.016
			c-0.85-11.579,3.195-18.834,12.565-23.306c7.966-3.802,16.566-4.386,25.193-4.737c1.497-0.061,2.999-0.009,4.499-0.009
			c6.002,0,6.002,0,5.658-6.137c-0.447-7.968-4.337-11.674-12.279-12.121c-8.401-0.473-15.981,2.061-23.322,5.755
			c-5.544,2.79-7.583,1.63-8.242-4.596c-0.707-6.677,0.485-9.002,6.645-11.788c13.119-5.932,26.789-6.88,40.625-3.379
			c11.395,2.883,17.14,11.022,17.35,24.462c0.267,17.12,0.022,34.247,0.114,51.371c0.014,2.564-1.133,3.724-3.392,4.017
			c-1.725,0.224-3.486,0.233-5.232,0.239C578.402,300.885,578.402,300.873,577.534,292.409z"/>
		<path fill="#0068A1" d="M710.031,265.738c-7.246,0-14.494,0.071-21.738-0.044c-2.121-0.034-2.747,0.6-2.745,2.739
			c0.01,10.208,7.045,17.447,17.623,18.034c8.493,0.472,16.63-1.091,24.572-3.981c5.173-1.882,6.535-0.92,6.603,4.58
			c0.02,1.623,0.035,3.251-0.072,4.869c-0.201,3.017-1.597,5.039-4.631,6.072c-13.412,4.565-27.038,5.931-40.868,2.467
			c-12.997-3.256-20.773-11.752-23.56-24.82c-2.197-10.299-2.157-20.56,0.767-30.731c4.293-14.935,15.529-24.432,30.96-25.827
			c5.582-0.505,11.235-0.458,16.757,0.935c13.58,3.426,22.185,13.382,23.658,27.581c0.385,3.715,0.52,7.478,0.451,11.213
			c-0.095,5.13-2.039,6.89-7.161,6.907C723.774,265.755,716.903,265.737,710.031,265.738z"/>
		<path fill="#0068A1" d="M842.842,167.226c-8.996,8.75-19.312,11.438-31.003,9.238c-12.151-2.286-19.46-9.981-19.915-20.879
			c-0.561-13.445,5.2-21.41,18.138-25.103c8.517-2.431,17.248-2.698,25.996-2.347c3.16,0.127,3.989-0.855,3.931-3.956
			c-0.198-10.547-4.058-14.5-14.494-14.613c-7.868-0.085-14.895,2.654-21.757,6.06c-4.833,2.399-6.736,1.455-7.681-3.875
			c-1.194-6.733,0.467-10.073,6.702-12.822c12.887-5.683,26.261-6.786,39.894-3.486c11.02,2.667,17.466,10.461,17.711,22.159
			c0.38,18.108,0.139,36.229,0.241,54.344c0.013,2.256-1.095,3.231-3.034,3.474c-1.852,0.232-3.736,0.283-5.606,0.293
			C843.604,175.756,843.604,175.74,842.842,167.226z"/>
		<path fill="#54BA58" d="M190.479,378.92c1.059-1.711,0.793-3.618,0.793-5.478c0.005-94.367,0-188.733,0.038-283.1
			c0.001-1.653-0.731-3.535,0.884-4.938c4.518,0.761,9.035,1.522,13.553,2.284c-1.627-0.02-2.64,0.555-2.478,2.412
			c0.076,0.868,0.009,1.748,0.009,2.623c0,96.589,0,193.178,0.001,289.767C198.913,381.657,194.607,380.608,190.479,378.92z"/>
		<path fill="#67BE63" d="M76.52,120.051c-0.003,64.321-0.005,128.642-0.012,192.963c0,1.748-0.05,3.496-0.077,5.244
			c-7.676-6.957-14.509-14.647-20.237-23.297c-1.134-2.453-1.167-5.062-1.164-7.697c0.054-44.538-0.073-89.076,0.068-133.604
			c-0.538-1.947,0.112-3.687,0.999-5.378c4.887-9.318,10.29-18.304,17.101-26.372C74.042,120.908,74.793,119.557,76.52,120.051z"/>
		<path fill="#50B956" d="M222.032,386.917c0-97.731-0.001-195.462-0.001-293.193c0-5.206,0.002-5.212,5.264-5.205
			c1.749,0.003,3.498,0.045,5.247,0.07c-0.003,98.718-0.007,197.435-0.006,296.152c0,1.485-0.238,3.018,0.706,4.354
			C229.505,388.37,225.769,387.643,222.032,386.917z"/>
		<path fill="#C61C22" d="M303.414,21.555c-5.888,16.794-16.496,28.987-30.452,38.223c-24.342,16.11-50.844,19.311-78.838,12.05
			c-4.337-1.125-8.597-2.545-12.923-3.713c-2.012-0.543-2.471-1.322-1.585-3.37c11.028-25.467,33.453-47.461,70.229-43.468
			c11.277,1.224,22.493,3.213,33.881,3.408C290.237,24.797,296.562,23.672,303.414,21.555z"/>
		<path fill="#0068A1" d="M627.005,283.54c9.572,0,18.44-0.01,27.308,0.004c4.243,0.007,5.298,0.96,5.77,5.097
			c0.028,0.248,0.026,0.499,0.043,0.748c0.676,10.074-0.041,10.853-9.991,10.853c-13.868,0-27.736,0.008-41.604-0.004
			c-4.562-0.004-5.632-1.153-5.971-5.651c-0.458-6.079,0.981-11.355,4.563-16.501c8.553-12.288,16.597-24.93,24.845-37.43
			c0.534-0.809,1.05-1.63,1.586-2.465c-1.114-1.073-2.282-0.624-3.316-0.633c-6.122-0.05-12.244-0.024-18.366-0.025
			c-7.038,0-8.08-1.018-8.089-8.159c-0.002-1.734,0.197-3.478,0.434-5.199c0.324-2.352,1.752-3.41,4.135-3.406
			c14.992,0.025,29.985,0.023,44.977,0.003c3.12-0.004,4.435,1.555,4.654,4.588c0.461,6.39-0.461,12.182-4.303,17.717
			c-8.252,11.887-15.996,24.128-23.945,36.226C628.933,280.527,628.15,281.763,627.005,283.54z"/>
		<path fill="#0068A1" d="M670.964,177.098c-6.338,0.221-12.37-1.183-18.32-3.244c-4.659-1.614-6.56-4.745-6.606-9.61
			c-0.091-9.623,0.685-10.224,9.15-6.161c6.428,3.085,13.074,4.984,20.271,3.314c3.76-0.872,6.754-2.641,7.35-6.923
			c0.607-4.368-1.98-6.841-5.413-8.481c-3.815-1.824-7.847-3.188-11.734-4.87c-2.741-1.186-5.491-2.405-8.076-3.891
			c-7.902-4.544-11.486-11.502-11.068-20.565c0.391-8.47,4.339-14.882,11.837-18.648c12.121-6.089,24.543-5.584,36.955-0.681
			c2.604,1.029,3.927,2.955,3.932,5.773c0.005,2.249,0.107,4.501,0.027,6.747c-0.151,4.244-1.304,4.953-5.068,3.101
			c-4.623-2.275-9.379-4.073-14.58-4.386c-2.884-0.173-5.761-0.066-8.462,1.095c-5.242,2.254-6.128,8.508-1.718,12.139
			c2.447,2.015,5.377,3.134,8.32,4.186c4.934,1.763,9.891,3.485,14.453,6.106c15.286,8.782,15.616,30.368,0.631,39.738
			C687.078,175.442,680.188,177.099,670.964,177.098z"/>
		<path fill="#69BE65" d="M55.514,152.273c0.936,0.735,0.739,1.785,0.739,2.761c-0.016,46.642-0.038,93.285-0.059,139.927
			c-8.822-11.534-15.866-24.057-20.959-37.665c-0.49-4.988,0.369-9.941,0.356-14.926c-0.091-33.815-0.074-67.63-0.014-101.446
			c0.008-4.322-1.328-8.693,0.328-12.975c4.63-11.38,11.026-21.625,19.583-30.481c2.099,1.06,1.799,3.076,1.873,4.885
			c0.183,4.457-0.229,8.93,0.343,13.375c0.134,1.303-0.328,2.459-0.979,3.54c-9.293,15.438-12.757,32.636-15.085,50.159
			c-1.13,8.508-1.732,17.064-1.872,24.838c-0.271-2.551,0.803-5.698,1.771-8.807c3.189-10.248,6.609-20.42,11.216-30.142
			C53.353,154.051,53.509,152.297,55.514,152.273z"/>
		<path fill="#0068A1" d="M612.334,117.514c0-17.127-0.005-34.255,0.003-51.382c0.002-4.836,0.683-5.747,5.475-6.078
			c3.602-0.249,7.245-0.187,10.854,0.016c3.469,0.195,5.392,1.875,5.231,5.774c-0.232,5.616-0.059,11.249-0.059,16.875
			c0,28.754,0.001,57.508-0.001,86.261c0,5.423-0.84,6.384-6.178,6.591c-3.243,0.126-6.502,0.145-9.741-0.026
			c-4.901-0.26-5.578-1.05-5.581-5.9C612.328,152.269,612.334,134.892,612.334,117.514z"/>
		<path fill="#6BBF67" d="M35.903,127.949c1.893,40.478,0.385,80.979,0.776,121.467c0.025,2.614-0.238,5.388-1.446,7.88
			c-5.198-11.149-8.257-22.971-10.295-35.008c-5.21-30.768-2.845-60.87,8.841-90.012C34.376,130.788,35.19,129.389,35.903,127.949z"
			/>
		<path fill="#36B349" d="M387.635,312.016c-1.479-0.829-1.334-2.247-1.333-3.626c0.003-50.063,0.003-100.126,0.001-150.189
			c0-1.375-0.162-2.798,1.305-3.643c6.155,31.269,7.841,62.884,6.874,94.651c-0.469,15.433-1.408,30.849-4.099,46.134
			C389.409,300.876,388.384,306.431,387.635,312.016z"/>
		<path fill="#C61D22" d="M717.303,350.965c0.003,1.124,0.003,2.249,0.003,3.374c0,6.581-0.817,7.551-7.375,8.758
			c-11.739,2.162-20.263-2.631-23.067-12.97c-3.29-12.134,1.622-23.611,11.591-27.158c5.342-1.901,10.55-1.429,15.64,0.842
			c0.998,0.445,2.068,1.076,2.693,1.924c0.838,1.136,0.965,2.806,0.177,3.897c-0.936,1.297-1.984-0.157-2.844-0.611
			c-7.828-4.137-15.265-3.126-19.526,2.728c-4.787,6.578-4.163,18.496,1.374,23.607c4.054,3.742,8.853,4.173,13.994,2.677
			c1.575-0.458,2.306-1.325,2.134-2.97c-0.065-0.618-0.01-1.248-0.009-1.873c0.011-7.386,0.013-7.422-7.287-7.909
			c-1.583-0.106-2.692-0.411-2.695-2.272c-0.003-1.88,1.125-2.252,2.707-2.231c3.123,0.041,6.249,0.082,9.37-0.012
			c2.227-0.067,3.209,0.839,3.134,3.079C717.239,346.215,717.3,348.591,717.303,350.965z"/>
		<path fill="#C61C22" d="M615.226,356.071c1.671-6.463,3.348-12.924,5.011-19.39c0.453-1.763,0.408-3.685,3.189-3.728
			c2.801-0.043,2.784,1.91,3.267,3.649c1.792,6.448,3.577,12.899,6.048,19.407c1.802-6.441,3.606-12.881,5.405-19.322
			c0.201-0.718,0.353-1.451,0.571-2.164c0.626-2.046,2.339-1.592,3.731-1.42c2.103,0.26,1.214,1.857,0.914,2.898
			c-2.378,8.249-4.912,16.453-7.218,24.722c-0.631,2.263-1.984,2.423-3.881,2.447c-1.979,0.025-3.216-0.355-3.772-2.582
			c-1.467-5.875-3.184-11.687-5.559-17.591c-1.381,5.432-2.756,10.865-4.147,16.294c-0.52,2.029-0.749,3.927-3.846,3.965
			c-3.02,0.037-3.776-1.406-4.444-3.784c-2.153-7.669-4.497-15.285-6.622-22.961c-0.28-1.01-1.949-2.742,0.408-3.34
			c1.935-0.491,3.875-0.577,4.58,2.254c1.414,5.673,3.104,11.278,4.68,16.91c0.335,1.197,0.67,2.393,1.005,3.589
			C614.772,355.973,614.999,356.022,615.226,356.071z"/>
		<path fill="#C61C22" d="M781.992,355.928c1.85-6.711,3.841-13.387,5.479-20.149c0.649-2.679,2.214-3.268,4.309-2.633
			c2.242,0.68,0.856,2.396,0.488,3.666c-2.253,7.774-4.653,15.506-6.774,23.315c-0.657,2.42-1.821,3.084-4.194,3.074
			c-2.365-0.01-3.181-0.948-3.723-3.138c-1.43-5.773-3.161-11.471-5.392-17.236c-1.526,5.862-3.18,11.696-4.513,17.602
			c-0.498,2.206-1.5,2.764-3.572,2.751c-2.076-0.013-3.512-0.305-4.161-2.66c-2.218-8.038-4.642-16.02-6.89-24.05
			c-0.3-1.072-1.792-2.785,0.486-3.303c1.696-0.386,3.676-0.786,4.382,1.994c1.5,5.909,3.275,11.749,4.938,17.617
			c0.304,1.074,0.609,2.148,1.243,4.384c1.726-6.588,3.185-12.13,4.627-17.676c0.376-1.446,0.707-2.904,1.044-4.36
			c0.365-1.574,1.288-2.16,2.947-2.159c1.708,0.001,2.443,0.738,2.853,2.268c1.857,6.924,3.768,13.834,5.66,20.748
			C781.484,355.965,781.738,355.946,781.992,355.928z"/>
		<path fill="#62BD5F" d="M124.516,71.209c0.001,4.246,0.002,8.493,0.004,12.739c-1.829,1.664-4.231,1.464-6.378,1.651
			c-5.749,0.5-11.348,1.648-16.91,3.098c-1.558,0.406-3.137,0.923-4.77,0.27c-0.702-0.374-1.18-0.995-1.24-1.735
			c-0.365-4.5-0.848-9.005,0.053-13.502C104.879,71.237,114.63,70.437,124.516,71.209z"/>
		<path fill="#67BE63" d="M57.111,116.504c-1.542-2.929-0.578-6.092-0.856-9.139c-0.3-3.296,0.739-6.696-0.769-9.897
			c5.917-6.863,12.922-12.329,21.027-16.384c1.387,1.401,1.009,3.205,1.082,4.888c0.154,3.558-0.301,7.142,0.462,10.668
			c0.545,1.294-0.156,2.156-1.106,2.826c-6.692,4.725-12.822,10.076-18.224,16.247C58.318,116.181,57.774,116.495,57.111,116.504z"
			/>
		<path fill="#C61C22" d="M749.865,347.978c-0.047,11.585-7.597,17.904-18.089,15.096c-1.065-0.285-2.129-0.747-3.059-1.338
			c-5.71-3.628-7.664-14.704-3.969-22.218c2.888-5.873,10.207-8.522,17.087-6.186C747.123,335.127,749.897,340.186,749.865,347.978z
			"/>
		<path fill="#C61C22" d="M537.099,347.767c0.004,11.619-7.389,17.959-17.937,15.362c-0.839-0.207-1.683-0.49-2.447-0.888
			c-6.406-3.339-8.693-14.66-4.637-22.822c3.105-6.247,11.316-8.78,18.117-5.588C534.691,335.941,537.096,340.796,537.099,347.767z"
			/>
		<path fill="#C61D23" d="M663.6,360.034c-3.655,2.8-7.033,4.386-11.204,3.298c-3.829-0.998-6.155-3.368-6.507-7.218
			c-0.349-3.808,0.97-6.904,4.505-8.709c2.596-1.325,5.421-1.614,8.324-1.777c1.459-0.082,4.074,1.607,4.284-1.746
			c0.194-3.093-0.454-5.886-3.878-6.8c-2.89-0.772-5.646,0.086-8.309,1.36c-1.024,0.49-2.323,2.316-3.338,0.402
			c-0.802-1.513-0.213-3.177,1.542-4.086c4.53-2.345,9.211-2.968,14.065-1.15c3.046,1.141,4.302,3.608,4.646,6.662
			c0.772,6.846,0.205,13.717,0.373,20.574c0.036,1.468-0.45,2.18-2.126,2.344C663.671,363.414,663.761,361.912,663.6,360.034z"/>
		<path fill="#C61D23" d="M481.312,360.002c-3.544,2.855-6.911,4.348-11.103,3.352c-3.941-0.937-5.989-3.397-6.577-7.206
			c-0.584-3.778,1.319-7.223,4.824-8.896c2.519-1.202,5.225-1.421,7.987-1.632c1.454-0.111,4.115,1.7,4.333-1.624
			c0.198-3.022-0.358-5.912-3.808-6.881c-2.895-0.813-5.648,0.032-8.325,1.268c-1.062,0.49-2.402,2.301-3.404,0.564
			c-0.947-1.643-0.161-3.388,1.732-4.322c4.311-2.125,8.766-2.739,13.395-1.224c2.897,0.948,4.562,3.085,4.972,6.012
			c1.009,7.207,0.303,14.467,0.48,21.702c0.042,1.694-0.937,1.948-2.396,2.055C481.191,363.333,481.553,361.764,481.312,360.002z"/>
		<path fill="#C61D23" d="M594.936,359.737c-4.039,3.341-7.564,4.72-11.847,3.496c-3.533-1.01-5.541-3.255-5.982-6.827
			c-0.444-3.593,0.522-6.658,3.827-8.64c2.768-1.66,5.816-1.952,8.966-2.122c1.405-0.076,3.808,1.46,4.131-1.457
			c0.312-2.823,0.045-5.668-3.156-6.866c-2.841-1.064-5.57-0.303-8.322,0.788c-1.227,0.487-2.784,2.938-4.006,0.61
			c-1.163-2.216,0.672-3.643,2.652-4.535c3.766-1.695,7.701-2.125,11.669-1.082c3.267,0.859,5.43,3.001,5.843,6.517
			c0.846,7.207,0.185,14.444,0.373,21.665c0.039,1.503-0.817,1.762-2.134,1.881C594.734,363.366,594.609,361.978,594.936,359.737z"
			/>
		<path fill="#C61C22" d="M856.434,360.09c-3.475,2.782-6.734,4.282-10.781,3.28c-4.081-1.011-6.322-3.373-6.73-7.417
			c-0.4-3.969,1.375-7.049,5.004-8.771c3.032-1.439,6.259-1.65,9.513-1.429c2.164,0.146,2.828-0.602,2.637-2.772
			c-0.396-4.489-2.196-6.202-6.691-6.126c-2.209,0.037-4.058,1.02-6.009,1.838c-0.863,0.362-1.823,1.847-2.856,0.377
			c-0.813-1.157-0.609-2.631,0.412-3.425c4.132-3.214,8.917-3.641,13.84-2.542c3.746,0.837,5.605,3.557,6.006,7.237
			c0.759,6.966,0.17,13.961,0.332,20.942c0.035,1.511-0.883,1.744-2.172,1.878C856.767,363.385,856.571,361.986,856.434,360.09z"/>
		<path fill="#C61D23" d="M814.802,337.339c3.078-3.197,6.132-5.195,10.221-4.658c4.326,0.569,6.927,2.908,7.747,7.365
			c1.296,7.048,0.328,14.185,0.586,21.277c0.068,1.876-1.27,1.742-2.555,1.824c-1.727,0.111-2.496-0.511-2.468-2.326
			c0.071-4.49,0.033-8.981,0.012-13.472c-0.005-1.118-0.075-2.239-0.184-3.352c-0.431-4.427-2.686-7.138-5.748-6.955
			c-3.312,0.198-7.246,4.357-7.275,7.797c-0.043,5.114-0.051,10.229,0.008,15.343c0.022,1.885-0.3,2.98-2.627,3.02
			c-2.524,0.044-2.434-1.327-2.425-3.074c0.04-7.734-0.035-15.469,0.064-23.202c0.019-1.463-1.092-3.676,1.923-3.938
			C815.261,332.71,814.469,335.038,814.802,337.339z"/>
		<path fill="#65BD61" d="M78.074,97.534c-2.042-0.308-1.535-1.915-1.547-3.173c-0.041-4.426-0.014-8.852-0.014-13.278
			c5.846-3.492,12.165-5.776,18.761-7.354c1.299,3.498,0.505,7.14,0.755,10.71c0.099,1.417-0.577,3.036,0.915,4.156
			c-0.028,0.376-0.099,0.823-0.423,0.973c-5.804,2.678-11.459,5.674-17.375,8.11C78.808,97.817,78.42,97.675,78.074,97.534z"/>
		<path fill="#C61D23" d="M551.13,332.55c1.947,0.363,4.12,0.325,5.974,1.544c1.415,0.93,1.481,2.418,0.981,3.669
			c-0.693,1.733-1.775,0.258-2.683-0.025c-0.356-0.111-0.699-0.263-1.05-0.391c-3.55-1.293-7.064-0.558-7.895,1.879
			c-1.314,3.858,1.736,4.941,4.309,6.215c1.56,0.772,3.202,1.383,4.738,2.197c2.918,1.546,4.273,3.983,4.174,7.337
			c-0.097,3.312-1.508,5.803-4.394,7.279c-4.165,2.131-8.433,1.806-12.631-0.019c-1.213-0.527-1.886-1.399-1.943-2.882
			c-0.099-2.553,0.845-2.858,2.791-1.592c2.074,1.349,4.35,1.743,6.784,1.553c2.232-0.174,3.8-1.249,4.415-3.392
			c0.637-2.217-0.8-3.575-2.456-4.549c-1.6-0.942-3.376-1.582-5.065-2.375c-4.866-2.285-6.641-5.478-5.622-10.089
			C542.412,335.056,546.271,332.457,551.13,332.55z"/>
		<path fill="#C61C22" d="M565.579,342.146c-1.596-0.651-2.76,2.224-3.747,0.317c-0.785-1.517-0.444-3.502,1.615-4.382
			c1.927-0.823,2.236-2.319,2.169-4.238c-0.13-3.738,0.041-7.485-0.069-11.224c-0.061-2.06,0.299-3.339,2.776-3.289
			c2.302,0.047,2.584,1.278,2.532,3.152c-0.093,3.35-0.026,6.704-0.026,9.94c1.544,0.78,2.775-2.442,3.95-0.231
			c0.949,1.786-0.091,3.455-1.872,4.281c-1.949,0.904-2.133,2.397-2.109,4.271c0.082,6.485-0.018,12.973,0.061,19.458
			c0.024,1.948-0.362,2.994-2.641,2.984c-2.251-0.01-2.697-1.015-2.67-2.982C565.631,354.218,565.579,348.233,565.579,342.146z"/>
		<path fill="#C61C22" d="M452.237,339.13c0.002-4.735,0.039-9.471-0.02-14.205c-0.02-1.572,0.178-2.727,2.147-2.586
			c1.457,0.104,3.23-0.298,3.184,2.043c-0.209,10.58,0.67,21.188-0.489,31.737c-0.68,6.18-5.47,8.894-11.391,7
			c-1.854-0.593-2.534-1.66-2.498-3.563c0.036-1.914,0.517-2.306,2.427-1.635c4.69,1.648,6.502,0.363,6.615-4.586
			C452.32,348.603,452.235,343.866,452.237,339.13z"/>
		<path fill="#C61D23" d="M497.999,337.242c2.546-2.872,4.639-4.936,8.066-4.593c2.398,0.24,3.158,1.469,2.976,3.722
			c-0.211,2.62-1.722,1.538-3.142,1.33c-3.54-0.517-7.656,3.663-7.734,7.885c-0.087,4.734-0.03,9.472-0.016,14.208
			c0.005,1.754,0.357,3.435-2.491,3.408c-3.015-0.028-2.267-1.99-2.276-3.562c-0.043-7.602-0.078-15.206,0.036-22.807
			c0.02-1.331-1.132-3.421,1.578-3.819C497.858,332.593,497.883,334.603,497.999,337.242z"/>
		<path fill="#C72126" d="M797.592,348.409c-0.001-4.231,0.05-8.464-0.024-12.694c-0.032-1.833,0.519-2.761,2.524-2.747
			c1.952,0.014,2.571,0.83,2.556,2.721c-0.068,8.338-0.079,16.677,0.005,25.015c0.021,2.08-0.911,2.466-2.718,2.473
			c-1.821,0.007-2.391-0.73-2.364-2.447C797.638,356.624,797.592,352.516,797.592,348.409z"/>
		<path fill="#C8262B" d="M803.117,324.528c0.131,2.197-1.075,3.164-3.143,3.157c-1.895-0.007-2.872-0.835-2.89-2.949
			c-0.018-2.143,0.712-3.344,2.884-3.38C802.037,321.32,803.25,322.279,803.117,324.528z"/>
		<path fill="#FEFEFE" d="M464.067,224.713c-0.001-3.988,0.104-7.98-0.043-11.962c-0.081-2.196,0.456-3.145,2.873-3.015
			c5.702,0.307,11.471-0.51,17.096,1.023c6.284,1.712,9.765,5.733,10.265,11.765c0.612,7.385-2.096,12.667-7.95,15.479
			c-6.749,3.241-13.959,1.707-20.99,1.982c-1.558,0.061-1.229-1.27-1.236-2.185C464.051,233.437,464.068,229.075,464.067,224.713z"
			/>
		<path fill="#FEFEFE" d="M78.074,97.534c6.077-3.429,12.423-6.291,18.87-8.939c9.04-2.451,18.207-4.147,27.576-4.648
			c4.645,0.356,9.383,0.004,14.414,1.863c-1.898,0.579-3.28,1-4.661,1.421c-6.469,1.586-12.779,3.625-18.753,6.616
			c-7.239,2.808-14.021,6.456-20.296,11.036c-6.988,4.126-13.105,9.328-18.704,15.167c-9.231,9.287-15.714,20.366-21.006,32.222
			c-6.778,13.013-11.284,26.859-15.031,40.984c-0.248,0.936-0.526,1.864-0.894,3.162c-2.015-11.013,2.57-58.855,17.522-79.915
			C62.97,108.934,70.293,102.981,78.074,97.534z"/>
		<path fill="#FEFEFE" d="M464.066,102.757c0-4.987,0.094-9.976-0.043-14.959c-0.061-2.204,0.472-3.181,2.885-3.009
			c2.853,0.203,5.732,0.029,8.599,0.051c13.113,0.097,20.201,8.781,17.684,21.653c-1.898,9.705-7.836,14.331-19.024,14.821
			c-10.102,0.442-10.102,0.442-10.102-9.58C464.066,108.741,464.066,105.749,464.066,102.757z"/>
		<path fill="#FEFEFE" d="M579.02,134.93c0.026,5.281-0.524,9.844-2.129,14.234c-2.826,7.73-8.547,11.418-17.445,11.284
			c-7.784-0.117-13.189-3.981-15.564-11.611c-2.613-8.395-2.795-16.972-0.317-25.408c2.831-9.635,9.036-13.709,19.074-13.091
			c8.13,0.5,13.903,6.061,15.487,15.175C578.701,128.818,579.289,132.162,579.02,134.93z"/>
		<path fill="#FEFEFE" d="M565.988,266.287c8.518,0,8.609,0.002,8.481,5.873c-0.067,3.094,0.934,6.338-2.198,8.961
			c-4.223,3.537-8.478,6.625-14.296,6.395c-6.03-0.239-9.822-3.19-10.517-8.123c-0.828-5.873,1.84-9.901,7.831-11.876
			C559.03,266.283,562.885,266.174,565.988,266.287z"/>
		<path fill="#FDFEFE" d="M717.1,249.501c0.51,2.211-0.313,3.203-3.104,3.147c-8.496-0.17-16.998-0.131-25.496-0.015
			c-2.247,0.031-3.085-0.466-2.894-2.905c0.869-11.082,9.323-17.745,20.105-15.679C712.59,235.366,716.906,241.1,717.1,249.501z"/>
		<path fill="#FEFEFE" d="M839.917,148.428c1.628,6.008-3.28,8.72-7.654,11.551c-4.59,2.971-9.641,3.284-14.619,1.053
			c-3.364-1.508-4.926-4.519-5.05-8.138c-0.133-3.888,1.308-7.083,4.799-9.091c3.207-1.845,6.767-2.447,10.395-2.686
			c1.74-0.115,3.491-0.086,5.238-0.094C839.917,140.992,839.917,140.996,839.917,148.428z"/>
		<path fill="#FEFEFE" d="M185.895,59.789c6.201-10.263,13.986-19.083,23.614-26.288c10.228-7.654,21.799-9.868,34.283-9.189
			c12.101,0.659,24.032,2.914,36.121,3.568c5.608,0.303,11.217,0.187,17-1.605c-0.418,1.732-1.688,2.288-2.666,3.023
			c-14.99,11.268-32.142,16.866-50.542,14.886c-21.646-2.33-40.166,3.15-56.725,16.702
			C186.082,61.051,185.717,60.689,185.895,59.789z"/>
		<path fill="#F4E1E1" d="M185.895,59.789c0.362,0.366,0.724,0.731,1.086,1.097c-0.595,0.668-1.235,1.986-2.14,1.108
			C184.118,61.292,185.279,60.434,185.895,59.789z"/>
		<path fill="#FEFDFD" d="M744.779,347.91c0.007,7.727-3.496,11.872-9.396,11.282c-0.73-0.073-1.475-0.255-2.153-0.533
			c-3.619-1.485-5.422-5.624-5.06-11.499c0.352-5.72,2.309-8.855,6.231-9.983c3.773-1.085,7.722,0.735,9.22,4.371
			C744.478,343.628,744.927,345.827,744.779,347.91z"/>
		<path fill="#FEFDFD" d="M531.826,347.951c-0.026,7.851-3.33,11.767-9.168,11.254c-0.731-0.064-1.503-0.197-2.158-0.507
			c-5.14-2.429-5.223-7.131-5.107-11.81c0.129-5.229,2.331-8.584,6.086-9.691c3.792-1.117,7.694,0.655,9.292,4.243
			C531.757,343.654,531.966,345.994,531.826,347.951z"/>
		<path fill="#FEFDFD" d="M659.718,349.546c1.485-0.074,3.78-0.611,3.381,3.178c-0.376,3.575-3.213,6.706-6.959,6.803
			c-3.132,0.081-5.032-1.684-5.047-4.687C651.076,351.199,653.507,349.566,659.718,349.546z"/>
		<path fill="#FEFDFD" d="M477.354,349.548c1.956-0.268,3.913-0.359,3.542,3.225c-0.374,3.613-3.548,6.921-7.337,6.732
			c-2.818-0.141-4.699-1.425-4.743-4.562C468.763,351.173,471.166,349.56,477.354,349.548z"/>
		<path fill="#FEFDFD" d="M590.647,349.548c2.156-0.396,3.851-0.133,3.511,3.286c-0.353,3.547-3.226,6.641-6.912,6.69
			c-3.077,0.04-5.078-1.759-5.125-4.61C582.06,351.283,584.68,349.554,590.647,349.548z"/>
		<path fill="#FDFCFC" d="M851.052,349.55c3.063,0.037,5.524-0.792,5.139,3.072c-0.364,3.656-3.419,6.914-7.23,6.906
			c-2.941-0.007-5.074-2.062-5.01-4.826C844.029,351.358,846.834,349.564,851.052,349.55z"/>
	</g>
</g>
</svg>
