<?xml version="1.0" encoding="utf-8"?>
<!-- Generator: Adobe Illustrator 17.0.0, SVG Export Plug-In . SVG Version: 6.00 Build 0)  -->
<!DOCTYPE svg PUBLIC "-//W3C//DTD SVG 1.1//EN" "http://www.w3.org/Graphics/SVG/1.1/DTD/svg11.dtd">
<svg version="1.1" id="Warstwa_1" xmlns="http://www.w3.org/2000/svg" xmlns:xlink="http://www.w3.org/1999/xlink" x="0px" y="0px"
	 width="1437.094px" height="324.684px" viewBox="1124.898 972.72 1437.094 324.684"
	 enable-background="new 1124.898 972.72 1437.094 324.684" xml:space="preserve">
<g>
	<g>
		<path fill="#FEFEFE" d="M1727.96,973.36c276.433,0,552.866,0.007,829.299-0.079c3.53-0.001,4.734,0.447,4.729,4.46
			c-0.141,105.141-0.141,210.282,0.004,315.423c0.005,3.845-1.083,4.24-4.45,4.24c-476.051-0.08-952.103-0.079-1428.154-0.008
			c-3.279,0-4.495-0.262-4.49-4.199c0.153-105.308,0.147-210.615,0.017-315.923c-0.004-3.598,0.952-3.997,4.19-3.995
			c196.285,0.091,392.571,0.082,588.856,0.082c0.332,0.52,0.273,0.991-0.173,1.415c-2.488,1.588-5.361,1.622-8.149,2.049
			c-13.681,2.095-25.632,7.474-33.748,19.159c-11.752,16.92-6.803,40.578,10.813,52.888c11.454,8.004,24.419,12.823,37.399,17.601
			c4.372,1.609,8.8,3.094,12.785,5.603c4.319,2.719,6.634,6.582,6.209,11.696c-0.418,5.034-3.003,8.831-7.751,10.768
			c-10.734,4.38-21.56,3.008-32.294,0.027c-9.37-2.602-17.877-7.205-26.333-11.896c-3.936-2.183-4.34-1.918-4.39,2.672
			c-0.07,6.494,0.025,12.99-0.036,19.484c-0.028,2.916,0.796,5.083,3.593,6.503c24.953,12.672,50.706,15.939,77.166,5.598
			c15.685-6.13,23.825-18.47,24.133-35.223c0.285-15.495-5.489-28.285-19.458-36.406c-9.551-5.552-19.93-9.231-30.196-13.146
			c-6.076-2.317-12.155-4.607-17.6-8.245c-4.553-3.042-8.128-6.926-6.733-12.793c1.378-5.799,6.033-8.501,11.571-9.737
			c10.933-2.439,21.504-0.263,31.976,2.691c7.071,1.995,13.764,5.028,20.448,8.019c3.456,1.546,4.497,0.463,4.442-2.997
			c-0.093-5.827-0.09-11.658-0.002-17.485c0.047-3.129-1.396-4.868-4.164-6.057c-9.996-4.296-20.257-7.592-31.113-8.852
			c-2.802-0.325-5.643-0.552-8.209-1.925C1727.688,974.353,1727.627,973.882,1727.96,973.36z"/>
		<path fill="#F2F3F6" d="M1727.96,973.36c-0.001,0.314,0,0.628,0.004,0.942c-3.335,2.232-6.671,2.232-10.006,0
			c0.004-0.314,0.005-0.628,0.004-0.942C1721.294,973.36,1724.627,973.36,1727.96,973.36z"/>
		<path fill="#C30009" d="M1308.772,1093.199c23.512,1.968,46.489,13.716,65.054,34.171c2.667,2.939,3.505,3.65,6.769,0.396
			c13.837-13.796,28.322-26.757,47.842-32.345c27.201-7.786,49.785,1.11,69.68,19.184c3.499,3.178,5.109,2.909,8.079-0.152
			c9.608-9.901,20.107-18.7,34.152-21.4c23.376-4.495,42.925,2.777,59.072,19.976c3.772,4.017,3.976,8.124,1.096,12.665
			c-2.515,3.965-5.333,7.632-9.054,10.56c-2.981,2.346-5.223,2.551-7.744-1.05c-5.074-7.247-11.125-13.701-18.073-19.229
			c-11.685-9.297-23.943-9.515-36.86-0.934c-6.557,4.356-10.948,10.625-15.454,16.818c-4.218,5.797-8.5,11.557-13.93,16.288
			c-6.62,5.767-10.632,5.697-16.758-0.574c-6.511-6.664-12.814-13.536-19.065-20.447c-13.243-14.641-36.409-16.507-53.121-3.926
			c-6.58,4.953-12.082,10.947-17.516,17.027c-7.767,8.691-15.411,17.493-23.111,26.244c-0.66,0.75-1.33,1.494-2.03,2.206
			c-10.045,10.207-13.578,9.15-20.214-1.321c-7.392-11.665-15.401-22.982-25.772-32.318c-15.874-14.29-33.989-16.647-53.06-6.832
			c-17.155,8.829-30.982,21.8-43.759,35.955c-29.56,32.747-54.566,68.851-77.808,106.231c-2.899,4.663-6.235,8.197-12.238,7.914
			c-5.107-0.241-7.928-3.429-7.374-8.512c0.238-2.184,1.023-4.186,2.131-6.076c22.57-38.512,45.785-76.606,74.179-111.221
			c15.169-18.492,31.458-35.816,53.277-46.775C1272.067,1098.235,1287.679,1093.39,1308.772,1093.199z"/>
		<path fill="#0C1E4F" d="M1717.957,974.301c3.335,0,6.671,0,10.006,0c14.203,1.215,27.875,4.484,40.963,10.233
			c2.685,1.179,3.739,2.604,3.63,5.587c-0.238,6.487-0.073,12.989-0.074,19.485c-0.001,6.553,0.002,6.545-5.732,3.851
			c-12.255-5.756-24.785-10.597-38.469-11.644c-5.37-0.411-10.658,0.037-15.792,1.639c-4.179,1.304-7.607,3.631-8.32,8.351
			c-0.682,4.511,1.895,7.55,5.176,10.125c3.842,3.016,8.255,4.938,12.769,6.692c11.004,4.276,22.207,8.075,32.734,13.507
			c19.442,10.033,27.877,29.109,22.261,50.288c-3.659,13.799-13.103,22.42-26.024,26.764c-26.855,9.03-52.798,5.896-77.595-7.631
			c-1.823-0.995-2.609-2.159-2.586-4.292c0.103-9.487,0.045-18.976,0.045-28.629c2.378-0.222,3.808,1.338,5.435,2.276
			c12.905,7.442,26.075,14.129,41.376,14.883c5.687,0.28,11.312-0.029,16.68-2.201c4.375-1.77,7.158-4.838,7.49-9.68
			c0.342-4.992-1.864-8.614-6.228-11.041c-5.854-3.255-12.265-5.108-18.471-7.476c-11.836-4.516-23.574-9.261-33.653-17.172
			c-22.045-17.302-20.182-49.89,3.572-64.78C1696.6,977.512,1707.127,975.455,1717.957,974.301z"/>
		<path fill="#0C1E4F" d="M1673.236,1220.262c0-22.479,0.094-44.958-0.092-67.435c-0.031-3.775,0.976-4.728,4.716-4.684
			c19.312,0.224,38.633-0.112,57.94,0.269c12.104,0.239,23.794,2.728,33.986,9.935c3.305,2.337,5.999,5.228,8.243,8.589
			c15.215,22.785,4.686,55.308-20.885,64.561c-13.428,4.859-27.405,5.198-41.396,4.773c-4.818-0.146-6.077,1.071-5.966,5.93
			c0.352,15.477,0.033,30.969,0.206,46.452c0.038,3.418-0.798,4.6-4.386,4.504c-9.318-0.25-18.65-0.236-27.969-0.005
			c-3.497,0.087-4.498-0.935-4.475-4.454C1673.31,1265.886,1673.236,1243.074,1673.236,1220.262z"/>
		<path fill="#0C1E4F" d="M2089.559,1114.509c-8.649,6.892-18.721,9.308-29.776,8.877c-15.514-0.605-28-7.013-35.613-20.397
			c-11.698-20.567-11.734-41.909,0.711-62.128c12.504-20.315,40.551-25.931,60.815-13.251c0.974,0.609,1.951,1.214,2.918,1.815
			c1.551-1.305,0.857-2.911,0.862-4.288c0.058-14.662,0.177-29.326-0.058-43.985c-0.062-3.872,1.165-4.798,4.823-4.655
			c7.154,0.279,14.335,0.303,21.486-0.006c3.93-0.17,5.04,0.969,5.015,4.968c-0.178,28.49-0.095,56.982-0.095,85.473
			c0,16.661-0.13,33.325,0.097,49.983c0.052,3.826-1.025,4.826-4.738,4.653c-6.65-0.309-13.336-0.321-19.986-0.001
			c-4.106,0.198-6.452-0.56-5.505-5.268c0.084-0.419-0.161-0.918-0.305-1.363
			C2090.174,1114.814,2089.947,1114.754,2089.559,1114.509z"/>
		<path fill="#0C1E4F" d="M1844.724,1123.18c-21.485-0.209-39.4-7.58-49.008-27.913c-12.81-27.109-2.372-67.099,38.668-73.127
			c21.119-3.102,40.472,1.169,54.213,18.951c12.481,16.152,13.644,34.592,5.83,52.894c-8.01,18.762-23.905,27.308-43.718,29.17
			C1848.73,1123.341,1846.719,1123.18,1844.724,1123.18z"/>
		<path fill="#0C1E4F" d="M1841.622,1294.72c-24.482-0.142-43.989-12.307-50.576-32.518c-11.205-34.38,8.54-68.311,48.372-69.487
			c20.598-0.608,38.214,5.803,49.488,24.087c16.131,26.161,7.29,72.766-39.808,77.568
			C1846.62,1294.624,1844.115,1294.61,1841.622,1294.72z"/>
		<path fill="#0C1E4F" d="M2373.846,1034.707c3.449-2.599,6.074-4.858,8.963-6.704c11.211-7.165,23.488-8.464,36.013-4.996
			c13.636,3.775,19.345,14.372,21.067,27.524c1.41,10.774,0.614,21.634,0.707,32.456c0.097,11.33-0.093,22.664,0.093,33.992
			c0.054,3.3-0.538,4.738-4.276,4.592c-7.654-0.298-15.334-0.286-22.989-0.001c-3.511,0.131-4.006-1.228-4.005-4.283
			c0.002-19.323-0.08-38.648-0.364-57.969c-0.088-5.997-1.456-11.922-7.677-14.6c-6.391-2.751-12.545-1.023-17.868,3.005
			c-6.153,4.656-10.208,10.123-9.86,18.84c0.67,16.803,0.105,33.653,0.271,50.481c0.033,3.353-0.607,4.673-4.296,4.529
			c-7.653-0.3-15.328-0.177-22.991-0.043c-2.599,0.046-3.837-0.35-3.825-3.45c0.115-30.494,0.105-60.988,0.009-91.481
			c-0.009-2.738,0.92-3.336,3.439-3.291c7.829,0.138,15.667,0.198,23.492-0.022c3.205-0.09,4.564,0.725,4.145,4.095
			C2373.63,1029.508,2373.846,1031.698,2373.846,1034.707z"/>
		<path fill="#0C1E4F" d="M2141.86,1056.928c0-7.591,0.028-14.868-0.019-22.145c-0.012-1.902,1.36-2.542,2.645-3.263
			c19.761-11.092,40.725-13.126,62.283-7.116c12.575,3.506,18.821,13.757,19.043,29.037c0.191,13.159,0.035,26.323,0.05,39.485
			c0.009,7.81,1.878,9.373,9.338,6.775c3.92-1.365,4.62-0.664,4.58,3.33c-0.137,13.804,0.007,13.81-13.304,17.968
			c-4.957,1.548-9.997,2.436-15.231,2.295c-7.223-0.195-13.137-2.295-15.601-10.495c-10.103,7.845-21.254,11.152-33.698,10.453
			c-12.896-0.725-21.427-6.849-24.139-17.834c-3.414-13.824,0.528-23.986,12.34-30.657c12.555-7.091,26.366-11.05,40.092-15.057
			c3.808-1.112,4.714-2.78,4.139-6.355c-0.874-5.441-4.027-8.675-9.158-10.007c-11.117-2.886-21.489-0.63-31.146,5.163
			C2149.949,1050.976,2146.132,1053.958,2141.86,1056.928z"/>
		<path fill="#0C1E4F" d="M2168.609,1228.584c0-7.769,0.076-14.866-0.042-21.959c-0.039-2.361,1.558-3.124,3.112-4.044
			c7.537-4.463,15.64-7.484,24.319-8.562c11.264-1.399,22.613-1.886,33.786,0.553c13.303,2.905,20.701,11.309,22.176,24.9
			c1.586,14.613,0.446,29.294,0.686,43.942c0.151,9.242,1.32,10.183,10.268,7.462c0.779-0.237,1.556-0.479,3.106-0.957
			c0,5.475-0.037,10.522,0.023,15.567c0.017,1.464-0.872,2.067-1.956,2.548c-8.719,3.871-17.537,7.196-27.378,6.553
			c-6.911-0.452-12.227-2.876-14.331-10.48c-10.249,8.042-21.612,11.329-34.284,10.442c-12.871-0.9-21.13-7.111-23.778-18.277
			c-3.148-13.277,0.769-23.315,12.142-29.899c11.754-6.804,24.791-10.423,37.594-14.626c2.602-0.854,6.918,0.153,7.071-4.609
			c0.164-5.095-1.713-9.24-6.479-11.428c-5.286-2.428-10.975-2.641-16.665-1.952c-9.203,1.114-17.072,5.313-24.322,10.848
			C2172.08,1225.81,2170.539,1227.061,2168.609,1228.584z"/>
		<path fill="#0C1E4F" d="M2461.123,1057.049c0-7.56,0.058-14.536-0.036-21.51c-0.027-1.999,0.986-3.028,2.523-3.891
			c20.237-11.354,41.649-13.396,63.644-6.879c11.771,3.487,16.991,13.117,17.514,24.811c0.617,13.791,0.349,27.623,0.412,41.438
			c0.047,10.256,1.277,11.214,10.959,8.301c0.779-0.234,1.581-0.394,2.777-0.688c0,5.067-0.048,9.871,0.026,14.672
			c0.027,1.744-0.659,2.657-2.255,3.381c-8.708,3.952-17.552,7.247-27.359,6.528c-5.938-0.435-11.157-2.044-13.468-8.368
			c-1.168-3.196-2.58-0.656-3.6,0.04c-10.846,7.411-22.78,9.848-35.639,7.747c-10.368-1.694-17.289-7.462-19.626-17.938
			c-2.845-12.75,0.439-21.9,10.208-28.429c9.097-6.079,19.51-9.21,29.725-12.723c4.555-1.566,9.17-2.999,13.834-4.189
			c2.69-0.686,3.329-2.138,3.177-4.666c-0.347-5.773-3.423-9.82-9.452-11.381c-11.3-2.925-21.787-0.442-31.542,5.494
			C2469.01,1051.196,2465.365,1054.068,2461.123,1057.049z"/>
		<path fill="#C30009" d="M1302.216,995.281c24.271,0.001,43.12,18.772,43.066,42.885c-0.053,23.636-19.204,42.886-42.804,43.026
			c-23.733,0.141-43.301-19.267-43.372-43.019C1259.034,1014.206,1278.056,995.28,1302.216,995.281z"/>
		<path fill="#0C1E4F" d="M1961.717,1265.568c8.493,3.363,16.434,6.775,24.996,8.235c5.009,0.854,9.958,0.802,14.819-0.7
			c2.665-0.823,4.852-2.35,5.274-5.388c0.388-2.794-1.095-4.854-3.173-6.392c-4.049-2.996-8.746-4.784-13.365-6.662
			c-6.186-2.516-12.124-5.443-17.663-9.216c-20.564-14.008-14.685-40.163,4.315-48.441c17.862-7.782,35.477-4.78,52.731,2.661
			c1.94,0.837,1.965,2.419,1.953,4.146c-0.035,4.998-0.159,10.002,0.039,14.992c0.134,3.38-0.892,3.609-3.625,2.156
			c-7.536-4.008-15.427-7.058-23.968-8.179c-3.683-0.484-7.346-0.495-10.841,0.852c-5.496,2.118-6.291,7.11-1.665,10.724
			c4.64,3.625,10.112,5.724,15.506,7.924c5.699,2.324,11.494,4.429,16.712,7.789c17.715,11.406,17.275,38.222-0.972,48.81
			c-12.828,7.443-26.868,6.629-40.868,4.961c-5.961-0.711-11.687-2.552-17.249-4.847c-1.799-0.743-3.069-1.578-3.01-3.934
			C1961.821,1278.751,1961.717,1272.438,1961.717,1265.568z"/>
		<path fill="#0C1E4F" d="M2086.906,1245.39c-0.733-0.827-1.466-1.654-3.02-3.406c0,10.914,0,20.662,0,30.411
			c0,5.66-0.123,11.324,0.053,16.978c0.084,2.707-0.55,3.837-3.537,3.764c-7.986-0.193-15.982-0.186-23.969-0.004
			c-2.98,0.068-3.585-1.094-3.582-3.799c0.065-45.779,0.081-91.558-0.026-137.337c-0.007-3.221,1.084-3.892,4.015-3.822
			c7.487,0.178,14.99,0.278,22.468-0.033c3.73-0.155,4.695,0.862,4.671,4.633c-0.176,27.633-0.096,55.267-0.091,82.901
			c0,1.496-0.201,3.061,0.166,4.47c0.414,1.588,1.149-0.104,1.763-0.108C2087.472,1241.56,2088.197,1243.27,2086.906,1245.39z"/>
		<path fill="#0C1E4F" d="M1946.039,1049.385c0,22.477-0.083,44.954,0.084,67.429c0.027,3.614-0.702,4.933-4.593,4.764
			c-7.644-0.332-15.315-0.204-22.971-0.041c-2.753,0.059-3.702-0.641-3.696-3.575c0.091-45.952,0.077-91.904,0.026-137.856
			c-0.003-2.429,0.478-3.631,3.266-3.579c7.989,0.151,15.989,0.241,23.971-0.033c3.651-0.125,3.97,1.521,3.959,4.462
			C1946.001,1003.765,1946.039,1026.575,1946.039,1049.385z"/>
		<path fill="#0C1E4F" d="M1912.091,1220.855c0-22.645,0.079-45.29-0.082-67.934c-0.025-3.587,0.657-4.961,4.582-4.787
			c7.644,0.34,15.316,0.187,22.973,0.052c2.626-0.046,3.817,0.445,3.811,3.488c-0.091,45.956-0.087,91.912-0.007,137.868
			c0.005,2.989-1.141,3.623-3.832,3.577c-7.823-0.136-15.657-0.226-23.474,0.033c-3.518,0.116-4.045-1.295-4.03-4.362
			C1912.141,1266.146,1912.091,1243.5,1912.091,1220.855z"/>
		<path fill="#0C1E4F" d="M2283.2,1046.988c4.87-6.088,8.612-12.736,14.167-18.063c9.617-9.225,24.57-9.635,34.688-0.984
			c1.282,1.096,1.382,2.045,0.962,3.439c-2.301,7.648-4.65,15.283-6.799,22.973c-0.687,2.457-1.617,2.452-3.387,1.117
			c-1.19-0.897-2.511-1.635-3.825-2.352c-8.434-4.603-17.046-3.681-23.873,3.059c-7.522,7.427-11.656,16.602-11.878,27.212
			c-0.241,11.493-0.137,22.997,0.004,34.493c0.034,2.78-0.701,3.728-3.584,3.661c-7.995-0.185-15.999-0.181-23.994-0.002
			c-2.89,0.064-3.635-0.893-3.626-3.698c0.091-30.329,0.096-60.658-0.007-90.987c-0.01-2.947,0.985-3.613,3.723-3.558
			c7.996,0.16,16,0.197,23.994-0.015c3.009-0.08,3.564,1.03,3.493,3.727C2283.083,1033.665,2283.2,1040.328,2283.2,1046.988z"/>
		<path fill="#0C1E4F" d="M2086.906,1245.39c-0.362-1.784-0.724-3.568-1.086-5.352c11.45-14.473,22.902-28.946,34.349-43.422
			c0.85-1.074,1.753-1.87,3.3-1.864c11.441,0.046,22.882,0.025,34.253,0.025c0.557,2.076-0.83,2.797-1.585,3.739
			c-10.718,13.375-21.363,26.812-32.319,39.991c-2.349,2.826-2.053,4.428-0.006,7.088c10.657,13.845,21.117,27.842,31.638,41.791
			c1.184,1.57,2.324,3.172,4.163,5.686c-8.658,0-16.442-0.669-24.061,0.168c-9.687,1.065-15.833-2.245-21.21-10.496
			C2105.92,1269.821,2096.121,1257.796,2086.906,1245.39z"/>
		<path fill="#0C1E4F" d="M1968.294,1072.149c0-14.811,0.107-29.624-0.08-44.433c-0.043-3.442,0.806-4.573,4.372-4.447
			c7.812,0.276,15.643,0.209,23.46,0.021c2.888-0.07,3.614,0.885,3.606,3.667c-0.088,30.288-0.085,60.576-0.003,90.864
			c0.007,2.744-0.661,3.792-3.593,3.724c-7.984-0.186-15.979-0.21-23.961,0.008c-3.154,0.086-3.895-0.964-3.866-3.973
			C1968.371,1102.438,1968.294,1087.293,1968.294,1072.149z"/>
		<path fill="#C30009" d="M1476.823,1051.081c-0.01,17.019-14.111,31.114-31.191,31.179c-17.308,0.066-31.422-14.176-31.253-31.536
			c0.169-17.372,13.759-30.625,31.359-30.58C1463.128,1020.189,1476.833,1033.828,1476.823,1051.081z"/>
		<path fill="#C30009" d="M1533.915,1061.642c0.086-11.199,9.204-20.214,20.42-20.19c11.124,0.024,20.352,9.228,20.373,20.321
			c0.021,11.333-9.405,20.618-20.755,20.445C1542.761,1082.047,1533.829,1072.876,1533.915,1061.642z"/>
		<path fill="#0C1E4F" d="M1984.089,1008.301c-9.244,0.094-16.622-7-16.835-16.19c-0.221-9.487,6.965-16.793,16.552-16.83
			c9.66-0.037,16.938,7.109,16.852,16.545C2000.573,1001.067,1993.392,1008.207,1984.089,1008.301z"/>
		<path fill="#FEFEFE" d="M1709.914,1190.776c0.469-4.386-2.353-11.63,1.068-14.69c2.991-2.676,10.097-0.788,15.386-0.842
			c2.647-0.027,5.285-0.062,7.909,0.643c8.705,2.34,13.035,7.964,12.621,16.604c-0.423,8.832-5.057,13.652-14.252,15.023
			c-6.619,0.987-13.27,0.386-19.901,0.628c-2.182,0.08-2.913-0.767-2.863-2.892
			C1709.988,1200.767,1709.914,1196.28,1709.914,1190.776z"/>
		<path fill="#FEFEFE" d="M2089.512,1072.817c0,5.825-0.085,11.652,0.042,17.475c0.05,2.289-0.836,3.623-2.732,4.821
			c-16.933,10.709-35.644,1.908-38.186-17.973c-0.578-4.523-0.422-9.007,0.655-13.38c4.217-17.112,23.595-23.92,38.09-13.559
			c1.778,1.271,2.166,2.704,2.149,4.641C2089.48,1060.834,2089.512,1066.826,2089.512,1072.817z"/>
		<path fill="#FEFEFE" d="M1822.859,1072.683c0.003-5.722,0.803-11.3,3.609-16.371c4.015-7.255,10.002-11.34,18.562-11.229
			c8.568,0.111,14.681,4.255,18.167,11.77c4.787,10.32,4.846,20.964,0.01,31.324c-3.648,7.815-10.1,11.694-18.757,11.615
			c-8.481-0.077-14.478-4.234-18.301-11.653C1823.656,1083.303,1822.887,1078.063,1822.859,1072.683z"/>
		<path fill="#FEFEFE" d="M1863.863,1244.096c-0.076,5.722-0.981,11.24-3.791,16.335c-7.812,14.165-27.503,14.8-35.56,0.797
			c-6.429-11.174-6.199-22.976-0.255-34.336c3.669-7.014,9.88-10.537,17.973-10.466c8.117,0.071,13.89,3.964,17.789,10.843
			C1862.967,1232.47,1863.872,1238.189,1863.863,1244.096z"/>
		<path fill="#FEFEFE" d="M2194.245,1074.435c0,7.342-0.004,14.305,0.004,21.268c0.001,1.195-0.086,2.293-1.263,3.026
			c-4.708,2.928-9.585,5.497-15.335,5.042c-8.325-0.657-12.335-9.015-7.855-16.09c1.94-3.064,4.83-4.993,7.96-6.601
			C2182.903,1078.436,2188.193,1076.14,2194.245,1074.435z"/>
		<path fill="#FDFDFD" d="M2221.038,1257.815c0.002,0.997,0.167,2.026-0.028,2.984c-0.652,3.218,1.868,7.231-1.921,9.62
			c-5.261,3.318-10.851,6.026-17.35,4.269c-6.663-1.802-9.429-9.823-5.112-15.731c5.529-7.566,14.472-9.553,22.635-12.666
			c1.778-0.678,1.758,0.892,1.766,2.055C2221.05,1251.503,2221.036,1254.659,2221.038,1257.815z"/>
		<path fill="#FDFDFD" d="M2513.794,1074.02c0,7.621,0.015,14.421-0.015,21.22c-0.005,1.104,0.33,2.354-0.906,3.145
			c-5.688,3.641-11.583,6.787-18.633,4.882c-6.855-1.852-9.008-10.674-4.234-16.716c2.772-3.508,6.675-5.42,10.613-7.176
			C2504.682,1077.564,2508.861,1076.011,2513.794,1074.02z"/>
	</g>
</g>
</svg>
